G04*
G04 #@! TF.GenerationSoftware,Altium Limited,Altium Designer,20.1.11 (218)*
G04*
G04 Layer_Physical_Order=3*
G04 Layer_Color=32768*
%FSAX42Y42*%
%MOMM*%
G71*
G04*
G04 #@! TF.SameCoordinates,D071A55E-5AEF-410E-9220-4307AC36CE94*
G04*
G04*
G04 #@! TF.FilePolarity,Negative*
G04*
G01*
G75*
%ADD10C,0.20*%
%ADD98C,1.02*%
G04:AMPARAMS|DCode=99|XSize=2.3876mm|YSize=2.3876mm|CornerRadius=0mm|HoleSize=0mm|Usage=FLASHONLY|Rotation=0.000|XOffset=0mm|YOffset=0mm|HoleType=Round|Shape=Relief|Width=0.25mm|Gap=0.25mm|Entries=4|*
%AMTHD99*
7,0,0,2.39,1.88,0.25,45*
%
%ADD99THD99*%
%ADD100C,1.88*%
%ADD101C,1.92*%
G04:AMPARAMS|DCode=102|XSize=2.424mm|YSize=2.424mm|CornerRadius=0mm|HoleSize=0mm|Usage=FLASHONLY|Rotation=0.000|XOffset=0mm|YOffset=0mm|HoleType=Round|Shape=Relief|Width=0.25mm|Gap=0.25mm|Entries=4|*
%AMTHD102*
7,0,0,2.42,1.92,0.25,45*
%
%ADD102THD102*%
%ADD103C,1.82*%
G04:AMPARAMS|DCode=104|XSize=2.324mm|YSize=2.324mm|CornerRadius=0mm|HoleSize=0mm|Usage=FLASHONLY|Rotation=0.000|XOffset=0mm|YOffset=0mm|HoleType=Round|Shape=Relief|Width=0.25mm|Gap=0.25mm|Entries=4|*
%AMTHD104*
7,0,0,2.32,1.82,0.25,45*
%
%ADD104THD104*%
%ADD105C,3.02*%
%ADD106C,3.62*%
G04:AMPARAMS|DCode=107|XSize=2.374mm|YSize=2.374mm|CornerRadius=0mm|HoleSize=0mm|Usage=FLASHONLY|Rotation=0.000|XOffset=0mm|YOffset=0mm|HoleType=Round|Shape=Relief|Width=0.25mm|Gap=0.25mm|Entries=4|*
%AMTHD107*
7,0,0,2.37,1.87,0.25,45*
%
%ADD107THD107*%
%ADD108C,1.87*%
%ADD109C,1.32*%
G04:AMPARAMS|DCode=110|XSize=1.824mm|YSize=1.824mm|CornerRadius=0mm|HoleSize=0mm|Usage=FLASHONLY|Rotation=0.000|XOffset=0mm|YOffset=0mm|HoleType=Round|Shape=Relief|Width=0.25mm|Gap=0.25mm|Entries=4|*
%AMTHD110*
7,0,0,1.82,1.32,0.25,45*
%
%ADD110THD110*%
D10*
X006757Y008162D02*
X006930Y007990D01*
X006378Y008162D02*
X006757D01*
X006210Y008330D02*
Y008460D01*
X006930Y009180D02*
Y010080D01*
X006210Y008460D02*
X006930Y009180D01*
X006210Y008330D02*
X006378Y008162D01*
X006930Y007990D02*
X007740Y007180D01*
X008470Y005190D02*
X008610Y005330D01*
X007240Y005320D02*
X007510D01*
X007620Y005210D01*
Y005080D02*
Y005210D01*
X007110Y004570D02*
X007620Y005080D01*
X007110Y002540D02*
Y004570D01*
X006540Y002540D02*
Y004620D01*
X007240Y005320D01*
X008470Y003580D02*
Y005190D01*
X008610Y005330D02*
Y005660D01*
X007740Y006530D02*
X008610Y005660D01*
X007740Y006530D02*
Y007180D01*
X008470Y002540D02*
Y003580D01*
D98*
X002541Y002842D02*
G03*
X002841Y002542I000300J000000D01*
G01*
X014940Y009120D02*
G03*
X014940Y008960I000000J-000080D01*
G01*
X014641Y002542D02*
G03*
X014941Y002842I000000J000300D01*
G01*
X014941Y008960D02*
X014941Y002842D01*
X014940Y008960D02*
X014941D01*
X014940Y009120D02*
X014941D01*
X014941Y010092D02*
X014941Y009120D01*
X014641Y002542D02*
Y002542D01*
X002541Y010092D02*
X014941D01*
X002541Y002842D02*
Y010092D01*
X002841Y002542D02*
X014641Y002542D01*
D99*
X012540Y009590D02*
D03*
Y009790D02*
D03*
X013140Y009590D02*
D03*
Y009790D02*
D03*
X009940D02*
D03*
Y009590D02*
D03*
X007340Y009790D02*
D03*
Y009590D02*
D03*
X005140D02*
D03*
X004940D02*
D03*
X005140Y009790D02*
D03*
X004940D02*
D03*
D100*
X012340Y009590D02*
D03*
X012740Y009790D02*
D03*
Y009590D02*
D03*
X012340Y009790D02*
D03*
X012140D02*
D03*
Y009590D02*
D03*
X011940Y009790D02*
D03*
Y009590D02*
D03*
X012940Y009790D02*
D03*
Y009590D02*
D03*
X013340Y009790D02*
D03*
X013540Y009590D02*
D03*
Y009790D02*
D03*
X013340Y009590D02*
D03*
X013740Y009790D02*
D03*
Y009590D02*
D03*
X010540D02*
D03*
X010340D02*
D03*
X010740Y009790D02*
D03*
Y009590D02*
D03*
X010540Y009790D02*
D03*
X010340D02*
D03*
X010140D02*
D03*
Y009590D02*
D03*
X010940Y009790D02*
D03*
X011140Y009590D02*
D03*
Y009790D02*
D03*
X010940Y009590D02*
D03*
X011340Y009790D02*
D03*
X011540Y009590D02*
D03*
Y009790D02*
D03*
X011340Y009590D02*
D03*
X011740Y009790D02*
D03*
Y009590D02*
D03*
X007140D02*
D03*
X006940D02*
D03*
X007140Y009790D02*
D03*
X006940D02*
D03*
X006740D02*
D03*
Y009590D02*
D03*
X006540Y009790D02*
D03*
Y009590D02*
D03*
X007540Y009790D02*
D03*
X007740Y009590D02*
D03*
Y009790D02*
D03*
X007540Y009590D02*
D03*
X007940Y009790D02*
D03*
X008140Y009590D02*
D03*
Y009790D02*
D03*
X007940Y009590D02*
D03*
X008340Y009790D02*
D03*
Y009590D02*
D03*
X005340Y009790D02*
D03*
Y009590D02*
D03*
X004740Y009790D02*
D03*
Y009590D02*
D03*
X004540Y009790D02*
D03*
Y009590D02*
D03*
X005540Y009790D02*
D03*
X005740Y009590D02*
D03*
Y009790D02*
D03*
X005540Y009590D02*
D03*
X005940Y009790D02*
D03*
X006140Y009590D02*
D03*
Y009790D02*
D03*
X005940Y009590D02*
D03*
X006340Y009790D02*
D03*
Y009590D02*
D03*
D101*
X012549Y003615D02*
D03*
X011025Y003425D02*
D03*
X010740Y008888D02*
D03*
Y008126D02*
D03*
X012264Y007872D02*
D03*
Y008888D02*
D03*
X010264Y003615D02*
D03*
X008740Y003425D02*
D03*
Y003615D02*
D03*
X007216Y003425D02*
D03*
X014074Y003615D02*
D03*
X012550Y003425D02*
D03*
X004924Y003615D02*
D03*
X003400Y003425D02*
D03*
X006444Y003615D02*
D03*
X004920Y003425D02*
D03*
X012866Y008888D02*
D03*
Y008126D02*
D03*
X014390Y007872D02*
D03*
Y008888D02*
D03*
D102*
X010740Y008634D02*
D03*
Y007110D02*
D03*
X012264D02*
D03*
X012866Y008634D02*
D03*
Y007110D02*
D03*
X014390D02*
D03*
D103*
X010637Y004327D02*
D03*
X010510Y004200D02*
D03*
X014350Y004300D02*
D03*
X014223Y004173D02*
D03*
X014353Y004957D02*
D03*
X014226Y004830D02*
D03*
X007145Y009340D02*
D03*
X012580Y009030D02*
D03*
X014390Y009320D02*
D03*
X006720Y008980D02*
D03*
X007410Y008975D02*
D03*
X009235Y007341D02*
D03*
X009940Y007345D02*
D03*
X009235Y006101D02*
D03*
X009940Y006105D02*
D03*
X011920Y006100D02*
D03*
X011216Y006096D02*
D03*
X007060Y007600D02*
D03*
D104*
X010764Y004200D02*
D03*
X014477Y004173D02*
D03*
X014480Y004830D02*
D03*
X008878Y009222D02*
D03*
X009407Y009610D02*
D03*
X008420Y007600D02*
D03*
D105*
X003720Y007961D02*
D03*
Y008850D02*
D03*
X003120Y007960D02*
D03*
Y008849D02*
D03*
D106*
X002941Y009693D02*
D03*
Y006292D02*
D03*
Y002891D02*
D03*
X006840D02*
D03*
X010640D02*
D03*
X014541D02*
D03*
Y006292D02*
D03*
Y009693D02*
D03*
D107*
X014402Y003612D02*
D03*
X009585Y007882D02*
D03*
D108*
X003075Y003820D02*
D03*
D109*
X013340Y009390D02*
D03*
X013540D02*
D03*
X013740D02*
D03*
X011738Y009388D02*
D03*
X012340Y009393D02*
D03*
X012140Y009390D02*
D03*
X011940D02*
D03*
X012730Y009122D02*
D03*
X005740Y009350D02*
D03*
X005938D02*
D03*
X006140D02*
D03*
X006340D02*
D03*
X006540D02*
D03*
X010150Y008690D02*
D03*
X009590Y008450D02*
D03*
Y008710D02*
D03*
Y008200D02*
D03*
Y008960D02*
D03*
X008560Y009090D02*
D03*
X007730Y008960D02*
D03*
X007930Y008710D02*
D03*
X008130Y008453D02*
D03*
X008330Y008200D02*
D03*
X011540Y009390D02*
D03*
X011340D02*
D03*
X011140D02*
D03*
X010940D02*
D03*
X009350Y007240D02*
D03*
X009833Y007452D02*
D03*
X009836Y007250D02*
D03*
X009347Y007452D02*
D03*
X010540Y009390D02*
D03*
X010740D02*
D03*
X013930Y006590D02*
D03*
X010450Y005050D02*
D03*
X007090Y005070D02*
D03*
X006040Y006590D02*
D03*
X014040Y005370D02*
D03*
X014050Y005770D02*
D03*
X011353Y004840D02*
D03*
X011230Y004740D02*
D03*
X011480D02*
D03*
X011603Y004840D02*
D03*
X011730Y004740D02*
D03*
X012103Y004840D02*
D03*
X012230Y004740D02*
D03*
X011853Y004840D02*
D03*
X011980Y004740D02*
D03*
X012353Y004840D02*
D03*
X006820Y008880D02*
D03*
X006817Y009082D02*
D03*
X007998Y008260D02*
D03*
X010430Y006630D02*
D03*
X012512Y005382D02*
D03*
X010530Y005390D02*
D03*
X012878Y005054D02*
D03*
X013134Y005052D02*
D03*
X013508D02*
D03*
X013762D02*
D03*
Y006410D02*
D03*
X013508D02*
D03*
X013134D02*
D03*
X012878Y006408D02*
D03*
X012550Y002990D02*
D03*
X013877Y004840D02*
D03*
X013627D02*
D03*
X013377D02*
D03*
X013127D02*
D03*
X012755Y004740D02*
D03*
X013005D02*
D03*
X013255D02*
D03*
X013505D02*
D03*
X009820Y004160D02*
D03*
X009200D02*
D03*
X008290Y004150D02*
D03*
X007417Y004699D02*
D03*
X007310Y005570D02*
D03*
Y005460D02*
D03*
Y005350D02*
D03*
X006840Y003340D02*
D03*
X007690Y004930D02*
D03*
X009290Y004830D02*
D03*
X007830Y004880D02*
D03*
Y004750D02*
D03*
X007690D02*
D03*
X004730Y005810D02*
D03*
X008040Y004710D02*
D03*
X005590Y008700D02*
D03*
X004260Y007800D02*
D03*
X004060Y007610D02*
D03*
X003800Y006468D02*
D03*
Y005220D02*
D03*
X003558D02*
D03*
X005770Y008700D02*
D03*
X006250Y004180D02*
D03*
X005010Y004330D02*
D03*
X006930Y006360D02*
D03*
X006840Y006210D02*
D03*
X005370Y006590D02*
D03*
Y006470D02*
D03*
X006000Y005969D02*
D03*
Y006100D02*
D03*
X005310Y007450D02*
D03*
X006802Y006099D02*
D03*
X004730Y005700D02*
D03*
X004160Y007700D02*
D03*
X006730Y009350D02*
D03*
X005680Y008700D02*
D03*
X006793Y007231D02*
D03*
Y007104D02*
D03*
Y006723D02*
D03*
Y006469D02*
D03*
X005170Y005910D02*
D03*
X005170Y005500D02*
D03*
X005170Y006710D02*
D03*
X006793Y007358D02*
D03*
Y006977D02*
D03*
Y006850D02*
D03*
Y006596D02*
D03*
X006390Y007226D02*
D03*
Y006972D02*
D03*
Y006845D02*
D03*
Y006591D02*
D03*
X006040Y007224D02*
D03*
Y006970D02*
D03*
Y006843D02*
D03*
Y006462D02*
D03*
X005403Y007228D02*
D03*
Y006974D02*
D03*
X005405Y006847D02*
D03*
X006390Y007353D02*
D03*
Y007099D02*
D03*
Y006718D02*
D03*
Y006464D02*
D03*
X006040Y007351D02*
D03*
Y007097D02*
D03*
Y006716D02*
D03*
X005405Y007101D02*
D03*
Y007355D02*
D03*
X005403Y006720D02*
D03*
X005170Y005700D02*
D03*
X005170Y006110D02*
D03*
Y006310D02*
D03*
Y006510D02*
D03*
X005170Y006910D02*
D03*
Y007110D02*
D03*
X005170Y007310D02*
D03*
X004760Y006410D02*
D03*
X004760Y006810D02*
D03*
Y007210D02*
D03*
X006804Y005972D02*
D03*
Y005718D02*
D03*
X006802Y005845D02*
D03*
X006804Y005464D02*
D03*
X006802Y005591D02*
D03*
X006804Y005210D02*
D03*
X006802Y005337D02*
D03*
X003145Y005345D02*
D03*
X003147Y005218D02*
D03*
X003145Y005599D02*
D03*
X003147Y005472D02*
D03*
X003145Y005853D02*
D03*
X003147Y005726D02*
D03*
Y005980D02*
D03*
X005410Y005338D02*
D03*
X005408Y005211D02*
D03*
X005410Y005592D02*
D03*
X005408Y005465D02*
D03*
X005410Y005846D02*
D03*
X005408Y005719D02*
D03*
X005410Y006100D02*
D03*
X005408Y005973D02*
D03*
X004545Y005345D02*
D03*
X004543Y005218D02*
D03*
X004545Y005599D02*
D03*
X004543Y005472D02*
D03*
X004545Y005853D02*
D03*
X004543Y005726D02*
D03*
X004545Y006107D02*
D03*
X004543Y005980D02*
D03*
X004545Y006593D02*
D03*
X004543Y006466D02*
D03*
X004545Y006847D02*
D03*
X004543Y006720D02*
D03*
X004545Y007101D02*
D03*
X004543Y006974D02*
D03*
X004545Y007355D02*
D03*
X004543Y007228D02*
D03*
X003156Y006591D02*
D03*
X003155Y006722D02*
D03*
Y006849D02*
D03*
Y006976D02*
D03*
Y007103D02*
D03*
Y007230D02*
D03*
X003153Y007357D02*
D03*
X003800Y005349D02*
D03*
Y005476D02*
D03*
Y005603D02*
D03*
Y005730D02*
D03*
Y005857D02*
D03*
Y005984D02*
D03*
Y006111D02*
D03*
X003558Y005347D02*
D03*
Y005474D02*
D03*
Y005601D02*
D03*
Y005728D02*
D03*
Y005855D02*
D03*
Y005982D02*
D03*
Y006109D02*
D03*
X006000Y005842D02*
D03*
Y005715D02*
D03*
Y005588D02*
D03*
Y005461D02*
D03*
Y005334D02*
D03*
Y005207D02*
D03*
X006395Y006098D02*
D03*
Y005971D02*
D03*
Y005844D02*
D03*
Y005717D02*
D03*
Y005590D02*
D03*
Y005463D02*
D03*
Y005336D02*
D03*
Y005209D02*
D03*
X003558Y007357D02*
D03*
Y007230D02*
D03*
Y007103D02*
D03*
Y006976D02*
D03*
Y006849D02*
D03*
Y006722D02*
D03*
Y006595D02*
D03*
Y006468D02*
D03*
X003800Y007359D02*
D03*
Y007232D02*
D03*
Y007105D02*
D03*
Y006978D02*
D03*
Y006851D02*
D03*
Y006724D02*
D03*
Y006597D02*
D03*
X008941Y004699D02*
D03*
X010067Y004699D02*
D03*
X008543D02*
D03*
X009568Y004750D02*
D03*
X009441D02*
D03*
X009691D02*
D03*
X005497D02*
D03*
X005747D02*
D03*
X005621D02*
D03*
X005871D02*
D03*
X004351D02*
D03*
X004101D02*
D03*
X010067Y004280D02*
D03*
X008543D02*
D03*
X008943Y004184D02*
D03*
X007419D02*
D03*
X004228Y004750D02*
D03*
X003978D02*
D03*
X007670Y004153D02*
D03*
X004478Y004700D02*
D03*
X005997D02*
D03*
X005371Y004699D02*
D03*
X003851D02*
D03*
X003600Y004180D02*
D03*
X004727Y004280D02*
D03*
D110*
X008643Y009820D02*
D03*
X009788Y009975D02*
D03*
X009503Y009830D02*
D03*
X009645Y009275D02*
D03*
X011890Y006460D02*
D03*
X010740Y006240D02*
D03*
X007998Y008072D02*
D03*
X006332Y008388D02*
D03*
X010842Y005513D02*
D03*
X008862Y006758D02*
D03*
X008860Y005520D02*
D03*
X014460Y005470D02*
D03*
Y005870D02*
D03*
X010310Y006308D02*
D03*
X012512Y005194D02*
D03*
X010530Y005202D02*
D03*
X010760Y004870D02*
D03*
X010790Y003580D02*
D03*
X008470Y005350D02*
D03*
Y005460D02*
D03*
Y005570D02*
D03*
X006840Y003640D02*
D03*
X007317Y005088D02*
D03*
M02*
