G04*
G04 #@! TF.GenerationSoftware,Altium Limited,Altium Designer,20.1.11 (218)*
G04*
G04 Layer_Physical_Order=4*
G04 Layer_Color=16737819*
%FSAX42Y42*%
%MOMM*%
G71*
G04*
G04 #@! TF.SameCoordinates,D071A55E-5AEF-410E-9220-4307AC36CE94*
G04*
G04*
G04 #@! TF.FilePolarity,Positive*
G04*
G01*
G75*
%ADD12C,0.40*%
%ADD13C,0.50*%
%ADD56C,1.00*%
%ADD57C,0.60*%
%ADD60O,0.70X2.29*%
%ADD61R,0.70X2.29*%
%ADD65R,1.30X0.80*%
%ADD66O,2.29X0.70*%
%ADD67R,2.29X0.70*%
%ADD83C,0.30*%
%ADD85C,1.37*%
%ADD86R,1.37X1.37*%
%ADD87C,1.50*%
%ADD88R,1.52X1.52*%
%ADD89C,1.52*%
%ADD90C,1.20*%
%ADD91P,1.70X4X270.0*%
%ADD92C,2.60*%
%ADD93C,5.00*%
%ADD94C,6.00*%
%ADD95C,1.50*%
%ADD96C,0.60*%
G36*
X013155Y009493D02*
X013166Y009494D01*
X013190Y009504D01*
X013210Y009520D01*
X013258Y009514D01*
X013289Y009487D01*
Y009413D01*
X013288Y009412D01*
X013284Y009390D01*
X013288Y009368D01*
X013289Y009367D01*
Y009190D01*
X013293Y009170D01*
X013304Y009154D01*
X013879Y008579D01*
Y006641D01*
X013731D01*
X013726Y006646D01*
X013710Y006657D01*
X013690Y006661D01*
X013430D01*
X013410Y006657D01*
X013394Y006646D01*
X013274Y006526D01*
X013263Y006510D01*
X013259Y006490D01*
Y005481D01*
X013119Y005341D01*
X012608D01*
X012607Y005342D01*
X012568Y005382D01*
X012564Y005404D01*
X012553Y005420D01*
Y006255D01*
X013529Y007231D01*
X013538Y007244D01*
X013541Y007260D01*
Y008820D01*
X013538Y008836D01*
X013529Y008849D01*
X013029Y009349D01*
X013016Y009358D01*
X013000Y009361D01*
X012570D01*
X012568Y009361D01*
X012512D01*
X012510Y009361D01*
X012441D01*
X012396Y009393D01*
X012392Y009414D01*
X012391Y009415D01*
Y009487D01*
X012422Y009514D01*
X012470Y009520D01*
X012490Y009504D01*
X012514Y009494D01*
X012525Y009493D01*
Y009590D01*
X012555D01*
Y009493D01*
X012566Y009494D01*
X012590Y009504D01*
X012610Y009520D01*
X012613Y009523D01*
X012619Y009525D01*
X012664Y009526D01*
X012673Y009523D01*
X012693Y009508D01*
X012715Y009498D01*
X012740Y009495D01*
X012765Y009498D01*
X012787Y009508D01*
X012807Y009523D01*
X012810Y009527D01*
X012822Y009531D01*
X012858D01*
X012870Y009527D01*
X012873Y009523D01*
X012893Y009508D01*
X012915Y009498D01*
X012940Y009495D01*
X012965Y009498D01*
X012987Y009508D01*
X013007Y009523D01*
X013016Y009526D01*
X013061Y009525D01*
X013067Y009523D01*
X013070Y009520D01*
X013090Y009504D01*
X013114Y009494D01*
X013125Y009493D01*
Y009590D01*
X013155D01*
Y009493D01*
D02*
G37*
G36*
X014531Y009990D02*
X014514Y009967D01*
X014498Y009965D01*
X014456Y009955D01*
X014416Y009939D01*
X014379Y009916D01*
X014346Y009888D01*
X014318Y009855D01*
X014295Y009818D01*
X014279Y009778D01*
X014269Y009736D01*
X014265Y009693D01*
X014269Y009649D01*
X014279Y009607D01*
X014295Y009567D01*
X014318Y009530D01*
X014346Y009497D01*
X014379Y009469D01*
X014395Y009459D01*
X014390Y009410D01*
X014387Y009406D01*
X014368Y009403D01*
X014347Y009395D01*
X014329Y009381D01*
X014315Y009363D01*
X014307Y009342D01*
X014304Y009320D01*
X014307Y009298D01*
X014314Y009280D01*
Y008956D01*
X014301Y008939D01*
X014291Y008915D01*
X014288Y008888D01*
X014291Y008861D01*
X014301Y008837D01*
X014318Y008816D01*
X014339Y008799D01*
X014363Y008789D01*
X014390Y008786D01*
X014417Y008789D01*
X014441Y008799D01*
X014462Y008816D01*
X014479Y008837D01*
X014489Y008861D01*
X014492Y008888D01*
X014489Y008915D01*
X014479Y008939D01*
X014466Y008956D01*
Y009280D01*
X014473Y009298D01*
X014476Y009320D01*
X014473Y009342D01*
X014465Y009363D01*
X014452Y009379D01*
X014453Y009384D01*
X014475Y009425D01*
X014498Y009420D01*
X014526Y009418D01*
X014690Y009254D01*
Y006731D01*
X014526Y006567D01*
X014498Y006564D01*
X014456Y006554D01*
X014416Y006538D01*
X014379Y006515D01*
X014346Y006487D01*
X014318Y006454D01*
X014295Y006417D01*
X014279Y006377D01*
X014269Y006335D01*
X014265Y006292D01*
X014269Y006248D01*
X014279Y006206D01*
X014295Y006166D01*
X014318Y006129D01*
X014346Y006096D01*
X014379Y006068D01*
X014416Y006045D01*
X014456Y006029D01*
X014498Y006019D01*
X014526Y006017D01*
X014690Y005852D01*
Y003372D01*
X014506Y003214D01*
X014490Y003213D01*
X014441Y003201D01*
X014393Y003181D01*
X014350Y003155D01*
X014311Y003121D01*
X014277Y003082D01*
X014251Y003039D01*
X014231Y002991D01*
X014227Y002974D01*
X014071Y002840D01*
X013823D01*
X013800Y002890D01*
X013800Y002890D01*
X013804Y002912D01*
Y002970D01*
X013808D01*
Y003250D01*
X013727D01*
X013688Y003250D01*
X013677Y003296D01*
Y003458D01*
X013788Y003568D01*
X013788Y003568D01*
X013800Y003586D01*
X013804Y003608D01*
X013804Y003608D01*
Y003984D01*
X013805Y003985D01*
X013810Y004009D01*
Y004167D01*
X013805Y004191D01*
X013792Y004211D01*
X013772Y004224D01*
X013748Y004229D01*
X013727Y004225D01*
X013723Y004225D01*
X013677Y004253D01*
Y004330D01*
X013673Y004352D01*
X013661Y004370D01*
X013643Y004382D01*
X013621Y004386D01*
X013553D01*
X013532Y004436D01*
X013795Y004699D01*
X013805Y004714D01*
X013808Y004732D01*
X013808Y004732D01*
Y004761D01*
X013855Y004788D01*
X013858Y004787D01*
X013877Y004784D01*
X013899Y004788D01*
X013917Y004800D01*
X013930Y004818D01*
X013934Y004840D01*
X013930Y004862D01*
X013917Y004880D01*
X013899Y004892D01*
X013877Y004896D01*
X013858Y004893D01*
X013855Y004892D01*
X013808Y004919D01*
Y005006D01*
X013985D01*
X014142Y004848D01*
X014140Y004830D01*
X014143Y004808D01*
X014151Y004787D01*
X014165Y004769D01*
X014183Y004755D01*
X014204Y004747D01*
X014226Y004744D01*
X014248Y004747D01*
X014269Y004755D01*
X014287Y004769D01*
X014301Y004787D01*
X014309Y004808D01*
X014310Y004813D01*
X014361Y004821D01*
X014406Y004777D01*
X014469Y004841D01*
X014533Y004904D01*
X014488Y004949D01*
X014480Y004957D01*
X014436Y004979D01*
X014428Y005000D01*
X014414Y005018D01*
X014396Y005032D01*
X014375Y005040D01*
X014353Y005043D01*
X014331Y005040D01*
X014310Y005032D01*
X014292Y005018D01*
X014278Y005000D01*
X014270Y004979D01*
X014267Y004959D01*
X014266Y004956D01*
X014266Y004954D01*
X014248Y004937D01*
X014186Y004935D01*
X014037Y005085D01*
X014022Y005095D01*
X014004Y005098D01*
X014004Y005098D01*
X013792D01*
X013784Y005104D01*
X013762Y005109D01*
X013740Y005104D01*
X013722Y005092D01*
X013710Y005074D01*
X013706Y005052D01*
X013710Y005030D01*
X013716Y005022D01*
Y004898D01*
X013676Y004883D01*
X013666Y004881D01*
X013649Y004892D01*
X013627Y004896D01*
X013606Y004892D01*
X013603Y004891D01*
X013581Y004884D01*
X013571Y004887D01*
X013540Y004899D01*
X013492Y004948D01*
X013502Y004977D01*
X013514Y004997D01*
X013530Y005000D01*
X013548Y005012D01*
X013560Y005030D01*
X013564Y005052D01*
X013560Y005074D01*
X013548Y005092D01*
X013540Y005145D01*
X013542Y005152D01*
X013548Y005158D01*
X013548Y005158D01*
X013560Y005176D01*
X013564Y005198D01*
X013564Y005198D01*
Y006410D01*
X013595Y006450D01*
X013637Y006456D01*
X013722Y006370D01*
X013722Y006370D01*
X013740Y006358D01*
X013762Y006354D01*
X013784Y006358D01*
X013802Y006370D01*
X013814Y006388D01*
X013818Y006410D01*
X013814Y006432D01*
X013802Y006450D01*
X013802Y006450D01*
X013759Y006492D01*
X013779Y006539D01*
X013907D01*
X013908Y006538D01*
X013930Y006534D01*
X013939Y006535D01*
X013977Y006514D01*
X013989Y006502D01*
Y005770D01*
X013993Y005750D01*
X014004Y005734D01*
X014020Y005723D01*
X014022Y005722D01*
X014028Y005718D01*
X014050Y005714D01*
X014094Y005684D01*
X014099Y005676D01*
Y005501D01*
X014020Y005422D01*
X014018Y005422D01*
X014000Y005410D01*
X013988Y005392D01*
X013984Y005370D01*
X013988Y005348D01*
X014000Y005330D01*
X014018Y005318D01*
X014040Y005314D01*
X014062Y005318D01*
X014080Y005330D01*
X014092Y005348D01*
X014092Y005350D01*
X014186Y005444D01*
X014197Y005460D01*
X014201Y005480D01*
X014201Y008780D01*
X014197Y008800D01*
X014186Y008816D01*
X013791Y009211D01*
Y009367D01*
X013792Y009368D01*
X013796Y009390D01*
X013792Y009412D01*
X013791Y009413D01*
Y009511D01*
X013807Y009523D01*
X013822Y009543D01*
X013832Y009565D01*
X013835Y009590D01*
X013832Y009615D01*
X013822Y009637D01*
X013807Y009657D01*
X013797Y009665D01*
Y009715D01*
X013807Y009723D01*
X013822Y009743D01*
X013832Y009765D01*
X013835Y009790D01*
X013832Y009815D01*
X013822Y009837D01*
X013807Y009857D01*
X013787Y009872D01*
X013765Y009882D01*
X013740Y009885D01*
X013715Y009882D01*
X013693Y009872D01*
X013673Y009857D01*
X013670Y009853D01*
X013658Y009849D01*
X013622D01*
X013610Y009853D01*
X013607Y009857D01*
X013587Y009872D01*
X013565Y009882D01*
X013540Y009885D01*
X013515Y009882D01*
X013493Y009872D01*
X013473Y009857D01*
X013470Y009853D01*
X013458Y009849D01*
X013422D01*
X013410Y009853D01*
X013407Y009857D01*
X013387Y009872D01*
X013365Y009882D01*
X013340Y009885D01*
X013315Y009882D01*
X013293Y009872D01*
X013273Y009857D01*
X013264Y009854D01*
X013219Y009855D01*
X013213Y009857D01*
X013210Y009860D01*
X013190Y009876D01*
X013166Y009886D01*
X013155Y009887D01*
Y009790D01*
X013125D01*
Y009887D01*
X013114Y009886D01*
X013090Y009876D01*
X013070Y009860D01*
X013067Y009857D01*
X013061Y009855D01*
X013016Y009854D01*
X013007Y009857D01*
X012987Y009872D01*
X012965Y009882D01*
X012940Y009885D01*
X012915Y009882D01*
X012893Y009872D01*
X012873Y009857D01*
X012870Y009853D01*
X012858Y009849D01*
X012822D01*
X012810Y009853D01*
X012807Y009857D01*
X012787Y009872D01*
X012765Y009882D01*
X012740Y009885D01*
X012715Y009882D01*
X012693Y009872D01*
X012673Y009857D01*
X012664Y009854D01*
X012619Y009855D01*
X012613Y009857D01*
X012610Y009860D01*
X012590Y009876D01*
X012566Y009886D01*
X012555Y009887D01*
Y009790D01*
X012525D01*
Y009887D01*
X012514Y009886D01*
X012490Y009876D01*
X012470Y009860D01*
X012467Y009857D01*
X012461Y009855D01*
X012416Y009854D01*
X012407Y009857D01*
X012387Y009872D01*
X012365Y009882D01*
X012340Y009885D01*
X012315Y009882D01*
X012293Y009872D01*
X012273Y009857D01*
X012270Y009853D01*
X012258Y009849D01*
X012222D01*
X012210Y009853D01*
X012207Y009857D01*
X012187Y009872D01*
X012165Y009882D01*
X012140Y009885D01*
X012115Y009882D01*
X012093Y009872D01*
X012073Y009857D01*
X012070Y009853D01*
X012058Y009849D01*
X012022D01*
X012010Y009853D01*
X012007Y009857D01*
X011987Y009872D01*
X011965Y009882D01*
X011940Y009885D01*
X011915Y009882D01*
X011893Y009872D01*
X011873Y009857D01*
X011870Y009853D01*
X011858Y009849D01*
X011822D01*
X011810Y009853D01*
X011807Y009857D01*
X011787Y009872D01*
X011765Y009882D01*
X011740Y009885D01*
X011715Y009882D01*
X011693Y009872D01*
X011673Y009857D01*
X011670Y009853D01*
X011658Y009849D01*
X011622D01*
X011610Y009853D01*
X011607Y009857D01*
X011587Y009872D01*
X011565Y009882D01*
X011540Y009885D01*
X011515Y009882D01*
X011493Y009872D01*
X011473Y009857D01*
X011470Y009853D01*
X011458Y009849D01*
X011422D01*
X011410Y009853D01*
X011407Y009857D01*
X011387Y009872D01*
X011365Y009882D01*
X011340Y009885D01*
X011315Y009882D01*
X011293Y009872D01*
X011273Y009857D01*
X011270Y009853D01*
X011258Y009849D01*
X011222D01*
X011210Y009853D01*
X011207Y009857D01*
X011187Y009872D01*
X011165Y009882D01*
X011140Y009885D01*
X011115Y009882D01*
X011093Y009872D01*
X011073Y009857D01*
X011070Y009853D01*
X011058Y009849D01*
X011022D01*
X011010Y009853D01*
X011007Y009857D01*
X010987Y009872D01*
X010965Y009882D01*
X010940Y009885D01*
X010915Y009882D01*
X010893Y009872D01*
X010873Y009857D01*
X010870Y009853D01*
X010858Y009849D01*
X010822D01*
X010810Y009853D01*
X010807Y009857D01*
X010787Y009872D01*
X010765Y009882D01*
X010740Y009885D01*
X010715Y009882D01*
X010693Y009872D01*
X010673Y009857D01*
X010670Y009853D01*
X010658Y009849D01*
X010622D01*
X010610Y009853D01*
X010607Y009857D01*
X010587Y009872D01*
X010565Y009882D01*
X010540Y009885D01*
X010515Y009882D01*
X010493Y009872D01*
X010473Y009857D01*
X010470Y009853D01*
X010458Y009849D01*
X010422D01*
X010410Y009853D01*
X010407Y009857D01*
X010387Y009872D01*
X010365Y009882D01*
X010340Y009885D01*
X010315Y009882D01*
X010293Y009872D01*
X010273Y009857D01*
X010270Y009853D01*
X010258Y009849D01*
X010222D01*
X010210Y009853D01*
X010207Y009857D01*
X010187Y009872D01*
X010165Y009882D01*
X010140Y009885D01*
X010115Y009882D01*
X010093Y009872D01*
X010073Y009857D01*
X010064Y009854D01*
X010019Y009855D01*
X010013Y009857D01*
X010010Y009860D01*
X009990Y009876D01*
X009966Y009886D01*
X009955Y009887D01*
Y009790D01*
X009940D01*
Y009775D01*
X009843D01*
X009844Y009764D01*
X009854Y009740D01*
X009855Y009739D01*
X009841Y009689D01*
X009841Y009678D01*
Y009605D01*
X009940D01*
Y009590D01*
X009955D01*
Y009491D01*
X010039Y009491D01*
X010089Y009511D01*
X010093Y009508D01*
X010115Y009498D01*
X010140Y009495D01*
X010165Y009498D01*
X010187Y009508D01*
X010207Y009523D01*
X010210Y009527D01*
X010222Y009531D01*
X010258D01*
X010270Y009527D01*
X010273Y009523D01*
X010293Y009508D01*
X010315Y009498D01*
X010340Y009495D01*
X010365Y009498D01*
X010387Y009508D01*
X010407Y009523D01*
X010410Y009527D01*
X010418Y009530D01*
X010464Y009507D01*
Y008326D01*
X010467Y008306D01*
X010474Y008288D01*
X010486Y008272D01*
X010638Y008120D01*
X010641Y008099D01*
X010651Y008075D01*
X010668Y008054D01*
X010689Y008037D01*
X010713Y008027D01*
X010740Y008024D01*
X010767Y008027D01*
X010791Y008037D01*
X010812Y008054D01*
X010829Y008075D01*
X010839Y008099D01*
X010842Y008126D01*
X010839Y008153D01*
X010829Y008177D01*
X010812Y008198D01*
X010791Y008215D01*
X010767Y008225D01*
X010746Y008228D01*
X010616Y008358D01*
Y008539D01*
X010658Y008556D01*
X010666Y008557D01*
X010686Y008541D01*
X010712Y008531D01*
X010725Y008529D01*
Y008634D01*
X010755D01*
Y008529D01*
X010768Y008531D01*
X010794Y008541D01*
X010814Y008557D01*
X010822Y008556D01*
X010864Y008539D01*
Y008320D01*
X010867Y008300D01*
X010874Y008282D01*
X010886Y008266D01*
X011080Y008072D01*
X011096Y008060D01*
X011114Y008053D01*
X011134Y008050D01*
X012798D01*
X012815Y008037D01*
X012839Y008027D01*
X012866Y008024D01*
X012893Y008027D01*
X012917Y008037D01*
X012938Y008054D01*
X012955Y008075D01*
X012965Y008099D01*
X012968Y008126D01*
X012965Y008153D01*
X012955Y008177D01*
X012938Y008198D01*
X012917Y008215D01*
X012893Y008225D01*
X012866Y008228D01*
X012839Y008225D01*
X012815Y008215D01*
X012798Y008202D01*
X011166D01*
X011016Y008352D01*
Y009070D01*
X011013Y009090D01*
X011006Y009108D01*
X010994Y009124D01*
X010816Y009302D01*
Y009490D01*
X010863Y009514D01*
X010889Y009495D01*
Y009413D01*
X010888Y009412D01*
X010884Y009390D01*
X010888Y009368D01*
X010900Y009350D01*
X010918Y009338D01*
X010940Y009334D01*
X010962Y009338D01*
X010980Y009350D01*
X010992Y009368D01*
X010996Y009390D01*
X010992Y009412D01*
X010991Y009413D01*
Y009494D01*
X011023Y009522D01*
X011073Y009523D01*
X011089Y009511D01*
Y009413D01*
X011088Y009412D01*
X011084Y009390D01*
X011088Y009368D01*
X011100Y009350D01*
X011118Y009338D01*
X011140Y009334D01*
X011162Y009338D01*
X011180Y009350D01*
X011192Y009368D01*
X011196Y009390D01*
X011192Y009412D01*
X011191Y009413D01*
Y009511D01*
X011207Y009523D01*
X011257Y009522D01*
X011289Y009494D01*
Y009413D01*
X011288Y009412D01*
X011284Y009390D01*
X011288Y009368D01*
X011300Y009350D01*
X011318Y009338D01*
X011340Y009334D01*
X011362Y009338D01*
X011380Y009350D01*
X011392Y009368D01*
X011396Y009390D01*
X011392Y009412D01*
X011391Y009413D01*
Y009511D01*
X011407Y009523D01*
X011457Y009522D01*
X011489Y009494D01*
Y009413D01*
X011488Y009412D01*
X011484Y009390D01*
X011488Y009368D01*
X011500Y009350D01*
X011518Y009338D01*
X011540Y009334D01*
X011562Y009338D01*
X011580Y009350D01*
X011592Y009368D01*
X011596Y009390D01*
X011592Y009412D01*
X011591Y009413D01*
Y009494D01*
X011623Y009522D01*
X011673Y009523D01*
X011689Y009511D01*
Y009414D01*
X011685Y009409D01*
X011681Y009388D01*
X011685Y009366D01*
X011698Y009348D01*
X011716Y009335D01*
X011735Y009331D01*
X011896Y009171D01*
X011909Y009162D01*
X011925Y009159D01*
X012537D01*
X012547Y009109D01*
X012537Y009105D01*
X012519Y009091D01*
X012505Y009073D01*
X012498Y009056D01*
X012406Y008964D01*
X012332D01*
X012315Y008977D01*
X012291Y008987D01*
X012264Y008990D01*
X012237Y008987D01*
X012213Y008977D01*
X012192Y008960D01*
X012175Y008939D01*
X012165Y008915D01*
X012162Y008888D01*
X012165Y008861D01*
X012175Y008837D01*
X012192Y008816D01*
X012213Y008799D01*
X012237Y008789D01*
X012264Y008786D01*
X012291Y008789D01*
X012315Y008799D01*
X012332Y008812D01*
X012438D01*
X012458Y008815D01*
X012476Y008822D01*
X012492Y008834D01*
X012606Y008948D01*
X012623Y008955D01*
X012641Y008969D01*
X012655Y008987D01*
X012663Y009008D01*
X012666Y009030D01*
X012665Y009039D01*
X012696Y009065D01*
X012708Y009070D01*
X012730Y009066D01*
X012752Y009070D01*
X012770Y009083D01*
X012781Y009099D01*
X012905D01*
X012965Y009040D01*
X012944Y008990D01*
X012927Y008990D01*
X012764D01*
Y008786D01*
X012831D01*
X012838Y008737D01*
X012812Y008727D01*
X012790Y008710D01*
X012773Y008688D01*
X012763Y008662D01*
X012761Y008649D01*
X012971D01*
X012969Y008662D01*
X012959Y008688D01*
X012942Y008710D01*
X012920Y008727D01*
X012894Y008737D01*
X012901Y008786D01*
X012968D01*
Y008948D01*
X012968Y008966D01*
X013018Y008987D01*
X013279Y008725D01*
Y007340D01*
X013020Y007081D01*
X012972Y007105D01*
X012973Y007110D01*
X012969Y007138D01*
X012959Y007164D01*
X012942Y007186D01*
X012920Y007203D01*
X012894Y007213D01*
X012881Y007215D01*
Y007110D01*
X012866D01*
Y007095D01*
X012761D01*
X012763Y007082D01*
X012773Y007056D01*
X012790Y007034D01*
X012812Y007017D01*
X012838Y007007D01*
X012866Y007003D01*
X012871Y007004D01*
X012895Y006956D01*
X012680Y006741D01*
X010461D01*
X010459Y006742D01*
X010401D01*
X010399Y006741D01*
X010380D01*
X010364Y006738D01*
X010351Y006729D01*
X010333Y006711D01*
X008961D01*
X008957Y006714D01*
X008934Y006743D01*
X008862D01*
Y006758D01*
X008847D01*
Y006816D01*
X008839Y006815D01*
X008819Y006801D01*
X008805Y006781D01*
X008804Y006775D01*
X008759Y006755D01*
X008753Y006755D01*
X008181Y007327D01*
Y008200D01*
X008178Y008216D01*
X008169Y008229D01*
X008109Y008289D01*
X008096Y008298D01*
X008080Y008301D01*
X008036D01*
X008020Y008312D01*
X007998Y008316D01*
X007976Y008312D01*
X007958Y008300D01*
X007946Y008282D01*
X007942Y008260D01*
X007946Y008238D01*
X007958Y008220D01*
X007976Y008208D01*
X007998Y008204D01*
X008020Y008208D01*
X008036Y008219D01*
X008063D01*
X008099Y008183D01*
Y008113D01*
X008094Y008111D01*
X008049Y008105D01*
X008042Y008115D01*
X008022Y008129D01*
X008013Y008130D01*
Y008072D01*
Y008014D01*
X008022Y008015D01*
X008042Y008029D01*
X008049Y008039D01*
X008094Y008033D01*
X008099Y008031D01*
Y007310D01*
X008102Y007294D01*
X008111Y007281D01*
X008751Y006641D01*
X008764Y006632D01*
X008780Y006629D01*
X010350D01*
X010378Y006608D01*
X010390Y006590D01*
X010408Y006578D01*
X010430Y006574D01*
X010452Y006578D01*
X010468Y006589D01*
X010835D01*
X010854Y006543D01*
X010501Y006189D01*
X010492Y006176D01*
X010489Y006160D01*
Y005428D01*
X010478Y005412D01*
X010474Y005390D01*
X010478Y005368D01*
X010490Y005350D01*
X010508Y005338D01*
X010530Y005334D01*
X010552Y005338D01*
X010570Y005350D01*
X010582Y005368D01*
X010586Y005390D01*
X010582Y005412D01*
X010571Y005428D01*
Y006143D01*
X010635Y006206D01*
X010644Y006208D01*
X010696Y006197D01*
X010697Y006197D01*
X010717Y006183D01*
X010725Y006182D01*
Y006240D01*
X010740D01*
Y006255D01*
X010798D01*
X010797Y006263D01*
X010783Y006283D01*
X010783Y006284D01*
X010772Y006336D01*
X010774Y006345D01*
X010957Y006529D01*
X011804D01*
X011831Y006487D01*
X011833Y006479D01*
X011832Y006475D01*
X011948D01*
X011947Y006479D01*
X011949Y006487D01*
X011976Y006529D01*
X012645D01*
X012664Y006483D01*
X012483Y006301D01*
X012474Y006288D01*
X012471Y006272D01*
Y005420D01*
X012460Y005404D01*
X012456Y005382D01*
X012417Y005342D01*
X012416Y005341D01*
X011891D01*
X011391Y005841D01*
Y006190D01*
X011387Y006210D01*
X011376Y006226D01*
X011346Y006256D01*
X011330Y006267D01*
X011310Y006271D01*
X011120D01*
X011100Y006267D01*
X011084Y006256D01*
X011054Y006226D01*
X011043Y006210D01*
X011039Y006190D01*
Y005601D01*
X010951Y005513D01*
X010899Y005533D01*
X010899Y005536D01*
X010885Y005556D01*
X010866Y005569D01*
X010857Y005571D01*
Y005513D01*
X010842D01*
Y005498D01*
X010784D01*
X010786Y005489D01*
X010799Y005469D01*
X010819Y005456D01*
X010822Y005455D01*
X010841Y005404D01*
X010639Y005201D01*
X010638Y005201D01*
X010588Y005221D01*
X010587Y005225D01*
X010574Y005245D01*
X010554Y005259D01*
X010545Y005260D01*
Y005202D01*
X010530D01*
Y005187D01*
X010472D01*
X010474Y005179D01*
X010487Y005159D01*
X010462Y005115D01*
X010450Y005106D01*
X010428Y005102D01*
X010410Y005090D01*
X010354Y005090D01*
X009317Y006127D01*
X009310Y006144D01*
X009296Y006162D01*
X009278Y006176D01*
X009258Y006184D01*
X009235Y006187D01*
X009213Y006184D01*
X009192Y006176D01*
X009174Y006162D01*
X009161Y006144D01*
X009152Y006123D01*
X009149Y006101D01*
X009152Y006079D01*
X009161Y006058D01*
X009174Y006040D01*
X009192Y006026D01*
X009210Y006019D01*
X010157Y005072D01*
X010136Y005022D01*
X009329D01*
X009187Y005164D01*
X009172Y005174D01*
X009154Y005177D01*
X009154Y005177D01*
X008036D01*
X007974Y005239D01*
X007959Y005249D01*
X007941Y005252D01*
X007941Y005252D01*
X007635D01*
X007605Y005283D01*
X007590Y005293D01*
X007572Y005296D01*
X007572Y005296D01*
X007401D01*
X007392Y005304D01*
X007366Y005346D01*
X007366Y005350D01*
X007362Y005372D01*
X007350Y005390D01*
Y005420D01*
X007362Y005438D01*
X007366Y005460D01*
X007362Y005482D01*
X007350Y005500D01*
Y005530D01*
X007362Y005548D01*
X007366Y005570D01*
X007362Y005592D01*
X007350Y005610D01*
X007332Y005622D01*
X007310Y005626D01*
X007288Y005622D01*
X007270Y005610D01*
X007258Y005592D01*
X007254Y005570D01*
X007258Y005548D01*
X007270Y005530D01*
Y005500D01*
X007258Y005482D01*
X007254Y005460D01*
X007258Y005438D01*
X007270Y005420D01*
Y005390D01*
X007258Y005372D01*
X007254Y005350D01*
X007254Y005346D01*
X007228Y005304D01*
X007219Y005296D01*
X007089D01*
X007086Y005299D01*
Y006390D01*
X007086Y006390D01*
X007083Y006408D01*
X007073Y006423D01*
X007013Y006483D01*
X006998Y006493D01*
X006980Y006496D01*
X006980Y006496D01*
X006900D01*
X006900Y006496D01*
X006895Y006495D01*
X006881Y006494D01*
X006837Y006513D01*
X006833Y006555D01*
X006838Y006564D01*
X006845Y006574D01*
X006849Y006596D01*
X006845Y006618D01*
X006838Y006628D01*
X006833Y006638D01*
Y006681D01*
X006838Y006691D01*
X006845Y006701D01*
X006849Y006723D01*
X006845Y006745D01*
X006838Y006755D01*
X006833Y006765D01*
Y006808D01*
X006838Y006818D01*
X006845Y006828D01*
X006849Y006850D01*
X006845Y006872D01*
X006838Y006882D01*
X006833Y006892D01*
Y006935D01*
X006838Y006945D01*
X006845Y006955D01*
X006849Y006977D01*
X006845Y006999D01*
X006838Y007009D01*
X006833Y007019D01*
Y007062D01*
X006838Y007072D01*
X006845Y007082D01*
X006849Y007104D01*
X006845Y007126D01*
X006838Y007136D01*
X006833Y007146D01*
Y007189D01*
X006838Y007199D01*
X006845Y007209D01*
X006849Y007231D01*
X006845Y007253D01*
X006838Y007263D01*
X006833Y007273D01*
Y007316D01*
X006838Y007326D01*
X006845Y007336D01*
X006849Y007358D01*
X006845Y007380D01*
X006839Y007388D01*
Y007407D01*
X006839Y007407D01*
X006836Y007425D01*
X006826Y007440D01*
X006826Y007440D01*
X006793Y007473D01*
X006778Y007483D01*
X006760Y007486D01*
X006760Y007486D01*
X005990D01*
X005972Y007483D01*
X005957Y007473D01*
X005957Y007473D01*
X005917Y007433D01*
X005907Y007418D01*
X005904Y007400D01*
X005904Y007400D01*
Y006359D01*
X005817Y006273D01*
X005807Y006258D01*
X005804Y006240D01*
X005804Y006240D01*
Y006114D01*
X005754Y006109D01*
X005751Y006123D01*
X005737Y006143D01*
X005717Y006157D01*
X005694Y006161D01*
X005535D01*
X005512Y006157D01*
X005511Y006156D01*
X005410D01*
X005368Y006192D01*
X005366Y006195D01*
Y006366D01*
X005368Y006391D01*
X005413Y006414D01*
X005500D01*
X005507Y006409D01*
X005530Y006404D01*
X005689D01*
X005712Y006409D01*
X005732Y006422D01*
X005746Y006442D01*
X005750Y006466D01*
X005746Y006490D01*
X005732Y006510D01*
Y006549D01*
X005746Y006569D01*
X005750Y006593D01*
X005746Y006617D01*
X005732Y006637D01*
Y006676D01*
X005746Y006696D01*
X005750Y006720D01*
X005746Y006744D01*
X005732Y006764D01*
Y006803D01*
X005746Y006823D01*
X005750Y006847D01*
X005746Y006871D01*
X005732Y006891D01*
Y006930D01*
X005746Y006950D01*
X005750Y006974D01*
X005746Y006998D01*
X005732Y007018D01*
Y007057D01*
X005746Y007077D01*
X005750Y007101D01*
X005746Y007125D01*
X005732Y007145D01*
Y007184D01*
X005746Y007204D01*
X005750Y007228D01*
X005746Y007252D01*
X005732Y007272D01*
Y007311D01*
X005746Y007331D01*
X005750Y007355D01*
X005746Y007379D01*
X005732Y007399D01*
X005712Y007412D01*
X005689Y007417D01*
X005530D01*
X005507Y007412D01*
X005506Y007411D01*
X005406D01*
X005403Y007413D01*
X005367Y007450D01*
X005366Y007451D01*
X005362Y007472D01*
X005350Y007490D01*
X005345Y007494D01*
X005360Y007544D01*
X006996D01*
X006999Y007539D01*
X007017Y007525D01*
X007038Y007517D01*
X007060Y007514D01*
X007082Y007517D01*
X007103Y007525D01*
X007121Y007539D01*
X007135Y007557D01*
X007143Y007578D01*
X007146Y007600D01*
X007143Y007622D01*
X007135Y007643D01*
X007121Y007661D01*
X007103Y007675D01*
X007082Y007683D01*
X007060Y007686D01*
X007038Y007683D01*
X007017Y007675D01*
X006999Y007661D01*
X006996Y007656D01*
X004255D01*
X004252Y007658D01*
X004216Y007700D01*
X004215Y007705D01*
X004219Y007712D01*
X004248Y007741D01*
X004255Y007745D01*
X004260Y007744D01*
X004282Y007748D01*
X004300Y007760D01*
X004312Y007778D01*
X004316Y007800D01*
X004312Y007822D01*
X004308Y007828D01*
X004323Y007869D01*
X004330Y007878D01*
X004522D01*
X004542Y007882D01*
X004559Y007893D01*
X005787Y009121D01*
X005962D01*
X005982Y009125D01*
X005999Y009136D01*
X006160Y009298D01*
X006162Y009298D01*
X006180Y009310D01*
X006192Y009328D01*
X006196Y009350D01*
X006193Y009368D01*
X006196Y009373D01*
X006225Y009409D01*
X006255D01*
X006284Y009373D01*
X006287Y009368D01*
X006284Y009350D01*
X006288Y009328D01*
X006300Y009310D01*
X006318Y009298D01*
X006340Y009294D01*
X006362Y009298D01*
X006380Y009310D01*
X006392Y009328D01*
X006396Y009350D01*
X006393Y009368D01*
X006396Y009373D01*
X006425Y009409D01*
X006455D01*
X006484Y009373D01*
X006487Y009368D01*
X006484Y009350D01*
X006488Y009328D01*
X006500Y009310D01*
X006518Y009298D01*
X006540Y009294D01*
X006562Y009298D01*
X006580Y009310D01*
X006592Y009328D01*
X006595Y009342D01*
X006620Y009356D01*
X006642Y009362D01*
X006678Y009329D01*
X006678Y009328D01*
X006690Y009310D01*
X006708Y009298D01*
X006730Y009294D01*
X006752Y009298D01*
X006770Y009310D01*
X006782Y009328D01*
X006786Y009350D01*
X006782Y009372D01*
X006770Y009390D01*
X006752Y009402D01*
X006750Y009402D01*
X006700Y009452D01*
X006706Y009468D01*
X006726Y009497D01*
X006740Y009495D01*
X006765Y009498D01*
X006787Y009508D01*
X006807Y009523D01*
X006810Y009527D01*
X006822Y009531D01*
X006858D01*
X006870Y009527D01*
X006873Y009523D01*
X006893Y009508D01*
X006915Y009498D01*
X006940Y009495D01*
X006965Y009498D01*
X006987Y009508D01*
X007007Y009523D01*
X007010Y009527D01*
X007022Y009531D01*
X007058D01*
X007070Y009527D01*
X007073Y009523D01*
X007093Y009508D01*
X007115Y009498D01*
X007140Y009495D01*
X007165Y009498D01*
X007187Y009508D01*
X007207Y009523D01*
X007216Y009526D01*
X007261Y009525D01*
X007267Y009523D01*
X007270Y009520D01*
X007290Y009504D01*
X007314Y009494D01*
X007325Y009493D01*
Y009590D01*
X007355D01*
Y009493D01*
X007366Y009494D01*
X007390Y009504D01*
X007410Y009520D01*
X007413Y009523D01*
X007419Y009525D01*
X007464Y009526D01*
X007473Y009523D01*
X007493Y009508D01*
X007515Y009498D01*
X007540Y009495D01*
X007565Y009498D01*
X007587Y009508D01*
X007607Y009523D01*
X007654Y009512D01*
X007679Y009490D01*
Y008983D01*
X007678Y008982D01*
X007674Y008960D01*
X007678Y008938D01*
X007690Y008920D01*
X007708Y008908D01*
X007730Y008904D01*
X007752Y008908D01*
X007770Y008920D01*
X007782Y008938D01*
X007786Y008960D01*
X007782Y008982D01*
X007781Y008983D01*
Y009505D01*
X007787Y009508D01*
X007807Y009523D01*
X007854Y009512D01*
X007879Y009490D01*
Y008733D01*
X007878Y008732D01*
X007874Y008710D01*
X007878Y008688D01*
X007890Y008670D01*
X007908Y008658D01*
X007930Y008654D01*
X007952Y008658D01*
X007970Y008670D01*
X007982Y008688D01*
X007986Y008710D01*
X007982Y008732D01*
X007981Y008733D01*
Y009505D01*
X007987Y009508D01*
X008007Y009523D01*
X008010Y009527D01*
X008022Y009531D01*
X008058D01*
X008070Y009527D01*
X008073Y009523D01*
X008079Y009519D01*
Y008475D01*
X008078Y008474D01*
X008074Y008453D01*
X008078Y008431D01*
X008090Y008413D01*
X008108Y008400D01*
X008130Y008396D01*
X008152Y008400D01*
X008170Y008413D01*
X008182Y008431D01*
X008186Y008453D01*
X008182Y008474D01*
X008181Y008475D01*
Y009505D01*
X008187Y009508D01*
X008207Y009523D01*
X008254Y009512D01*
X008279Y009490D01*
Y009090D01*
Y008840D01*
Y008223D01*
X008278Y008222D01*
X008274Y008200D01*
X008278Y008178D01*
X008290Y008160D01*
X008308Y008148D01*
X008330Y008144D01*
X008352Y008148D01*
X008370Y008160D01*
X008382Y008178D01*
X008382Y008180D01*
X008596Y008394D01*
X008607Y008410D01*
X008610Y008425D01*
X008650D01*
Y008555D01*
X008470D01*
Y008425D01*
X008470D01*
X008473Y008416D01*
X008428Y008370D01*
X008381Y008389D01*
Y008840D01*
Y009090D01*
Y009505D01*
X008387Y009508D01*
X008407Y009523D01*
X008422Y009543D01*
X008432Y009565D01*
X008435Y009590D01*
X008432Y009615D01*
X008422Y009637D01*
X008407Y009657D01*
X008403Y009660D01*
X008399Y009672D01*
Y009708D01*
X008403Y009720D01*
X008407Y009723D01*
X008422Y009743D01*
X008432Y009765D01*
X008435Y009790D01*
X008432Y009815D01*
X008422Y009837D01*
X008407Y009857D01*
X008387Y009872D01*
X008365Y009882D01*
X008340Y009885D01*
X008315Y009882D01*
X008293Y009872D01*
X008273Y009857D01*
X008270Y009853D01*
X008258Y009849D01*
X008222D01*
X008210Y009853D01*
X008207Y009857D01*
X008187Y009872D01*
X008165Y009882D01*
X008140Y009885D01*
X008115Y009882D01*
X008093Y009872D01*
X008073Y009857D01*
X008070Y009853D01*
X008058Y009849D01*
X008022D01*
X008010Y009853D01*
X008007Y009857D01*
X007987Y009872D01*
X007965Y009882D01*
X007940Y009885D01*
X007915Y009882D01*
X007893Y009872D01*
X007873Y009857D01*
X007870Y009853D01*
X007858Y009849D01*
X007822D01*
X007810Y009853D01*
X007807Y009857D01*
X007787Y009872D01*
X007765Y009882D01*
X007740Y009885D01*
X007715Y009882D01*
X007693Y009872D01*
X007673Y009857D01*
X007670Y009853D01*
X007658Y009849D01*
X007622D01*
X007610Y009853D01*
X007607Y009857D01*
X007587Y009872D01*
X007565Y009882D01*
X007540Y009885D01*
X007515Y009882D01*
X007493Y009872D01*
X007473Y009857D01*
X007464Y009854D01*
X007419Y009855D01*
X007413Y009857D01*
X007410Y009860D01*
X007390Y009876D01*
X007366Y009886D01*
X007355Y009887D01*
Y009790D01*
X007325D01*
Y009887D01*
X007314Y009886D01*
X007290Y009876D01*
X007270Y009860D01*
X007267Y009857D01*
X007261Y009855D01*
X007216Y009854D01*
X007207Y009857D01*
X007187Y009872D01*
X007165Y009882D01*
X007140Y009885D01*
X007115Y009882D01*
X007093Y009872D01*
X007073Y009857D01*
X007070Y009853D01*
X007058Y009849D01*
X007022D01*
X007010Y009853D01*
X007007Y009857D01*
X006987Y009872D01*
X006965Y009882D01*
X006940Y009885D01*
X006915Y009882D01*
X006893Y009872D01*
X006873Y009857D01*
X006870Y009853D01*
X006858Y009849D01*
X006822D01*
X006810Y009853D01*
X006807Y009857D01*
X006787Y009872D01*
X006765Y009882D01*
X006740Y009885D01*
X006715Y009882D01*
X006693Y009872D01*
X006673Y009857D01*
X006670Y009853D01*
X006658Y009849D01*
X006622D01*
X006610Y009853D01*
X006607Y009857D01*
X006587Y009872D01*
X006565Y009882D01*
X006540Y009885D01*
X006515Y009882D01*
X006493Y009872D01*
X006473Y009857D01*
X006470Y009853D01*
X006458Y009849D01*
X006422D01*
X006410Y009853D01*
X006407Y009857D01*
X006387Y009872D01*
X006365Y009882D01*
X006340Y009885D01*
X006315Y009882D01*
X006293Y009872D01*
X006273Y009857D01*
X006270Y009853D01*
X006258Y009849D01*
X006222D01*
X006210Y009853D01*
X006207Y009857D01*
X006187Y009872D01*
X006165Y009882D01*
X006140Y009885D01*
X006115Y009882D01*
X006093Y009872D01*
X006073Y009857D01*
X006070Y009853D01*
X006058Y009849D01*
X006022D01*
X006010Y009853D01*
X006007Y009857D01*
X005987Y009872D01*
X005965Y009882D01*
X005940Y009885D01*
X005915Y009882D01*
X005893Y009872D01*
X005873Y009857D01*
X005870Y009853D01*
X005858Y009849D01*
X005822D01*
X005810Y009853D01*
X005807Y009857D01*
X005787Y009872D01*
X005765Y009882D01*
X005740Y009885D01*
X005715Y009882D01*
X005693Y009872D01*
X005673Y009857D01*
X005670Y009853D01*
X005658Y009849D01*
X005622D01*
X005610Y009853D01*
X005607Y009857D01*
X005587Y009872D01*
X005565Y009882D01*
X005540Y009885D01*
X005515Y009882D01*
X005493Y009872D01*
X005473Y009857D01*
X005470Y009853D01*
X005458Y009849D01*
X005422D01*
X005410Y009853D01*
X005407Y009857D01*
X005387Y009872D01*
X005365Y009882D01*
X005340Y009885D01*
X005315Y009882D01*
X005293Y009872D01*
X005273Y009857D01*
X005270Y009853D01*
X005258Y009849D01*
X005222D01*
X005210Y009853D01*
X005207Y009857D01*
X005187Y009872D01*
X005165Y009882D01*
X005140Y009885D01*
X005115Y009882D01*
X005093Y009872D01*
X005073Y009857D01*
X005070Y009853D01*
X005058Y009849D01*
X005022D01*
X005010Y009853D01*
X005007Y009857D01*
X004987Y009872D01*
X004965Y009882D01*
X004940Y009885D01*
X004915Y009882D01*
X004893Y009872D01*
X004873Y009857D01*
X004870Y009853D01*
X004858Y009849D01*
X004822D01*
X004810Y009853D01*
X004807Y009857D01*
X004787Y009872D01*
X004765Y009882D01*
X004740Y009885D01*
X004715Y009882D01*
X004693Y009872D01*
X004673Y009857D01*
X004670Y009853D01*
X004658Y009849D01*
X004622D01*
X004610Y009853D01*
X004607Y009857D01*
X004587Y009872D01*
X004565Y009882D01*
X004540Y009885D01*
X004515Y009882D01*
X004493Y009872D01*
X004473Y009857D01*
X004458Y009837D01*
X004448Y009815D01*
X004445Y009790D01*
X004448Y009765D01*
X004458Y009743D01*
X004465Y009734D01*
X004450Y009690D01*
X004446Y009684D01*
X004446Y009681D01*
Y009496D01*
X004631D01*
X004634Y009496D01*
X004640Y009500D01*
X004684Y009515D01*
X004693Y009508D01*
X004715Y009498D01*
X004740Y009495D01*
X004765Y009498D01*
X004787Y009508D01*
X004807Y009523D01*
X004810Y009527D01*
X004822Y009531D01*
X004858D01*
X004870Y009527D01*
X004873Y009523D01*
X004893Y009508D01*
X004915Y009498D01*
X004940Y009495D01*
X004965Y009498D01*
X004987Y009508D01*
X005007Y009523D01*
X005010Y009527D01*
X005022Y009531D01*
X005058D01*
X005070Y009527D01*
X005073Y009523D01*
X005093Y009508D01*
X005115Y009498D01*
X005140Y009495D01*
X005165Y009498D01*
X005187Y009508D01*
X005207Y009523D01*
X005210Y009527D01*
X005222Y009531D01*
X005258D01*
X005270Y009527D01*
X005273Y009523D01*
X005293Y009508D01*
X005315Y009498D01*
X005340Y009495D01*
X005365Y009498D01*
X005387Y009508D01*
X005407Y009523D01*
X005410Y009527D01*
X005422Y009531D01*
X005458D01*
X005470Y009527D01*
X005473Y009523D01*
X005493Y009508D01*
X005515Y009498D01*
X005540Y009495D01*
X005565Y009498D01*
X005587Y009508D01*
X005607Y009523D01*
X005610Y009527D01*
X005622Y009531D01*
X005658D01*
X005670Y009527D01*
X005673Y009523D01*
X005693Y009508D01*
X005715Y009498D01*
X005740Y009495D01*
X005765Y009498D01*
X005787Y009508D01*
X005843Y009500D01*
X005849Y009496D01*
X005860Y009482D01*
X005857Y009472D01*
X005804Y009419D01*
X005790Y009402D01*
X005742Y009406D01*
X005740Y009406D01*
X005718Y009402D01*
X005712Y009398D01*
X005710Y009397D01*
X005694Y009386D01*
X004439Y008131D01*
X004170D01*
X004150Y008127D01*
X004134Y008116D01*
X003916Y007898D01*
X003871Y007925D01*
X003873Y007931D01*
X003876Y007961D01*
X003873Y007991D01*
X003864Y008021D01*
X003850Y008048D01*
X003830Y008071D01*
X003807Y008091D01*
X003780Y008105D01*
X003750Y008114D01*
X003720Y008117D01*
X003690Y008114D01*
X003660Y008105D01*
X003633Y008091D01*
X003610Y008071D01*
X003590Y008048D01*
X003576Y008021D01*
X003567Y007991D01*
X003564Y007961D01*
X003567Y007931D01*
X003576Y007901D01*
X003590Y007874D01*
X003610Y007851D01*
X003633Y007831D01*
X003652Y007821D01*
X003650Y007791D01*
X003643Y007771D01*
X003201D01*
X003190Y007821D01*
X003207Y007830D01*
X003230Y007850D01*
X003250Y007873D01*
X003264Y007900D01*
X003273Y007930D01*
X003276Y007960D01*
X003273Y007990D01*
X003264Y008020D01*
X003250Y008047D01*
X003230Y008070D01*
X003207Y008090D01*
X003180Y008104D01*
X003150Y008113D01*
X003120Y008116D01*
X003090Y008113D01*
X003060Y008104D01*
X003033Y008090D01*
X003010Y008070D01*
X002990Y008047D01*
X002976Y008020D01*
X002967Y007990D01*
X002964Y007960D01*
X002967Y007930D01*
X002976Y007900D01*
X002990Y007873D01*
X003010Y007850D01*
X003033Y007830D01*
X003052Y007820D01*
X003053Y007792D01*
X003045Y007768D01*
X003040Y007767D01*
X003024Y007756D01*
X002836Y007569D01*
X002790Y007588D01*
Y009246D01*
X002960Y009415D01*
X002960Y009415D01*
X002960Y009415D01*
X002962Y009418D01*
X002985Y009420D01*
X003027Y009430D01*
X003067Y009446D01*
X003104Y009469D01*
X003137Y009497D01*
X003165Y009530D01*
X003187Y009567D01*
X003204Y009607D01*
X003214Y009649D01*
X003218Y009693D01*
X003214Y009736D01*
X003204Y009778D01*
X003187Y009818D01*
X003165Y009855D01*
X003137Y009888D01*
X003104Y009916D01*
X003067Y009939D01*
X003027Y009955D01*
X002985Y009965D01*
X002969Y009967D01*
X002952Y009990D01*
X002977Y010040D01*
X014506D01*
X014531Y009990D01*
D02*
G37*
G36*
X011834Y005254D02*
X011850Y005243D01*
X011870Y005239D01*
X012413D01*
X012416Y005237D01*
X012439Y005209D01*
X012512D01*
Y005179D01*
X012454D01*
X012456Y005171D01*
X012465Y005156D01*
X012459Y005131D01*
X012445Y005106D01*
X011910D01*
X011910Y005106D01*
X011888Y005102D01*
X011870Y005090D01*
X011690Y004910D01*
X011686Y004904D01*
X011663Y004891D01*
X011627Y004891D01*
X011624Y004892D01*
X011603Y004896D01*
X011581Y004892D01*
X011563Y004880D01*
X011550Y004862D01*
X011546Y004840D01*
X011550Y004818D01*
X011509Y004790D01*
X011506Y004789D01*
X011502Y004792D01*
X011480Y004796D01*
X011469Y004794D01*
X011449Y004807D01*
X011443Y004812D01*
X011427Y004832D01*
X011429Y004840D01*
X011426Y004860D01*
X011418Y004878D01*
X011406Y004894D01*
X011292Y005008D01*
Y005725D01*
X011342Y005746D01*
X011834Y005254D01*
D02*
G37*
G36*
X011139Y005486D02*
Y004977D01*
X011142Y004957D01*
X011150Y004939D01*
X011162Y004923D01*
X011219Y004866D01*
X011198Y004816D01*
X010856D01*
X010847Y004823D01*
X010827Y004855D01*
X010692D01*
X010672Y004825D01*
X010625Y004819D01*
X010495Y004949D01*
X010516Y004999D01*
X010560D01*
X010580Y005003D01*
X010596Y005014D01*
X011089Y005507D01*
X011139Y005486D01*
D02*
G37*
G36*
X003090Y006002D02*
X003000Y005913D01*
X002988Y005894D01*
X002984Y005873D01*
X002984Y005873D01*
Y004340D01*
X002984Y004340D01*
X002988Y004318D01*
X003000Y004300D01*
X003300Y004000D01*
X003300Y004000D01*
X003318Y003988D01*
X003340Y003984D01*
X010350D01*
X010350Y003984D01*
X010372Y003988D01*
X010390Y004000D01*
X010504Y004115D01*
X010510Y004114D01*
X010532Y004117D01*
X010553Y004125D01*
X010571Y004139D01*
X010585Y004157D01*
X010593Y004178D01*
X010594Y004183D01*
X010645Y004191D01*
X010690Y004147D01*
X010753Y004211D01*
X010817Y004274D01*
X010772Y004319D01*
X010764Y004327D01*
X010758Y004348D01*
X010797Y004398D01*
X011969D01*
X011969Y004398D01*
X011986Y004401D01*
X012002Y004411D01*
X012168Y004578D01*
X012168Y004578D01*
X012178Y004593D01*
X012182Y004610D01*
X012182Y004610D01*
Y004646D01*
X012186Y004653D01*
X012230Y004684D01*
X012252Y004688D01*
X012270Y004700D01*
X012282Y004718D01*
X012286Y004740D01*
X012282Y004762D01*
X012278Y004767D01*
X012313Y004800D01*
X012331Y004788D01*
X012353Y004784D01*
X012374Y004788D01*
X012392Y004800D01*
X012405Y004818D01*
X012409Y004840D01*
X012406Y004854D01*
X012420Y004882D01*
X012437Y004904D01*
X012784D01*
X012784Y004904D01*
X012806Y004908D01*
X012824Y004920D01*
X012918Y005014D01*
X012918Y005014D01*
X012930Y005032D01*
X012934Y005054D01*
X012958Y005090D01*
X013010Y005096D01*
X013094Y005012D01*
X013094Y005012D01*
X013112Y005000D01*
X013134Y004996D01*
X013135Y004996D01*
X013160Y004950D01*
X013095Y004885D01*
X013088Y004880D01*
X013075Y004862D01*
X013071Y004840D01*
Y004823D01*
X013032Y004796D01*
X013021Y004793D01*
X013005Y004796D01*
X012940D01*
X012918Y004792D01*
X012900Y004780D01*
X012900Y004780D01*
X012859Y004739D01*
X012856Y004739D01*
X012808Y004758D01*
X012807Y004762D01*
X012795Y004780D01*
X012777Y004792D01*
X012755Y004796D01*
X012733Y004792D01*
X012715Y004780D01*
X012703Y004762D01*
X012699Y004740D01*
X012703Y004718D01*
X012715Y004700D01*
X012733Y004688D01*
X012737Y004687D01*
X012756Y004639D01*
X012756Y004636D01*
X012680Y004560D01*
X012668Y004542D01*
X012664Y004520D01*
X012664Y004520D01*
Y003713D01*
X012641Y003699D01*
X012614Y003693D01*
X012600Y003703D01*
X012575Y003713D01*
X012549Y003717D01*
X012523Y003713D01*
X012498Y003703D01*
X012477Y003687D01*
X012461Y003666D01*
X012451Y003642D01*
X012448Y003615D01*
X012451Y003589D01*
X012461Y003565D01*
X012472Y003551D01*
X012477Y003543D01*
X012478Y003498D01*
X012472Y003489D01*
X012462Y003476D01*
X012452Y003451D01*
X012449Y003425D01*
X012452Y003399D01*
X012462Y003374D01*
X012478Y003353D01*
X012499Y003337D01*
X012519Y003329D01*
X012528Y003310D01*
X012535Y003275D01*
X012510Y003250D01*
X012498Y003232D01*
X012494Y003210D01*
X012494Y003210D01*
Y002989D01*
X012494Y002989D01*
X012498Y002968D01*
X012510Y002949D01*
X012569Y002890D01*
X012549Y002840D01*
X011037D01*
X010905Y002972D01*
X010903Y002973D01*
X010903Y002976D01*
X010886Y003016D01*
X010864Y003053D01*
X010835Y003086D01*
X010802Y003114D01*
X010765Y003137D01*
X010725Y003153D01*
X010683Y003163D01*
X010640Y003167D01*
X010597Y003163D01*
X010555Y003153D01*
X010515Y003137D01*
X010478Y003114D01*
X010445Y003086D01*
X010417Y003053D01*
X010394Y003016D01*
X010377Y002976D01*
X010376Y002970D01*
X010246Y002840D01*
X007237D01*
X007105Y002972D01*
X007104Y002973D01*
X007103Y002976D01*
X007086Y003016D01*
X007064Y003053D01*
X007036Y003086D01*
X007003Y003114D01*
X006966Y003137D01*
X006926Y003153D01*
X006883Y003163D01*
X006840Y003167D01*
X006797Y003163D01*
X006755Y003153D01*
X006715Y003137D01*
X006678Y003114D01*
X006645Y003086D01*
X006617Y003053D01*
X006594Y003016D01*
X006577Y002976D01*
X006576Y002970D01*
X006446Y002840D01*
X003410D01*
X003257Y002972D01*
X003252Y002991D01*
X003232Y003039D01*
X003205Y003082D01*
X003172Y003121D01*
X003133Y003155D01*
X003090Y003181D01*
X003042Y003201D01*
X002992Y003213D01*
X002974Y003214D01*
X002790Y003372D01*
Y005850D01*
X002957Y006017D01*
X002985Y006019D01*
X003027Y006029D01*
X003067Y006045D01*
X003090Y006002D01*
D02*
G37*
G36*
X014940Y002841D02*
X014940Y002841D01*
X014940Y002822D01*
X014935Y002783D01*
X014925Y002745D01*
X014910Y002709D01*
X014890Y002675D01*
X014867Y002644D01*
X014839Y002616D01*
X014808Y002592D01*
X014774Y002573D01*
X014738Y002558D01*
X014700Y002548D01*
X014661Y002542D01*
X014642D01*
X002840Y002542D01*
X002840Y002542D01*
X002820Y002542D01*
X002781Y002548D01*
X002743Y002558D01*
X002707Y002573D01*
X002673Y002593D01*
X002642Y002616D01*
X002614Y002644D01*
X002590Y002675D01*
X002570Y002709D01*
X002555Y002746D01*
X002545Y002784D01*
X002540Y002823D01*
X002540Y002842D01*
X002540Y010091D01*
X002797D01*
X002941Y009947D01*
X002941Y009434D01*
X002741Y009233D01*
X002743Y006744D01*
X002941Y006546D01*
X002941Y006038D01*
X002743Y005839D01*
Y003378D01*
X003426Y002791D01*
X006434D01*
X006596Y002954D01*
X007087D01*
X007249Y002791D01*
X010234D01*
X010396Y002954D01*
X010886D01*
X011049Y002791D01*
X014054D01*
X014737Y003378D01*
Y005837D01*
X014740Y005839D01*
X014541Y006038D01*
Y006545D01*
X014742Y006746D01*
Y009238D01*
X014541Y009439D01*
Y009946D01*
X014686Y010091D01*
X014940D01*
Y002841D01*
D02*
G37*
%LPC*%
G36*
X013134Y006466D02*
X013112Y006462D01*
X013094Y006450D01*
X013082Y006432D01*
X013078Y006410D01*
X013082Y006388D01*
X013094Y006370D01*
X013112Y006358D01*
X013134Y006354D01*
X013156Y006358D01*
X013174Y006370D01*
X013186Y006388D01*
X013190Y006410D01*
X013186Y006432D01*
X013174Y006450D01*
X013156Y006462D01*
X013134Y006466D01*
D02*
G37*
G36*
X012878Y006464D02*
X012856Y006460D01*
X012838Y006448D01*
X012826Y006430D01*
X012822Y006408D01*
X012826Y006386D01*
X012838Y006368D01*
X012856Y006356D01*
X012878Y006352D01*
X012900Y006356D01*
X012918Y006368D01*
X012930Y006386D01*
X012934Y006408D01*
X012930Y006430D01*
X012918Y006448D01*
X012900Y006460D01*
X012878Y006464D01*
D02*
G37*
G36*
X009925Y009887D02*
X009914Y009886D01*
X009890Y009876D01*
X009870Y009860D01*
X009854Y009840D01*
X009844Y009816D01*
X009843Y009805D01*
X009925D01*
Y009887D01*
D02*
G37*
G36*
X009925Y009575D02*
X009841D01*
Y009491D01*
X009925D01*
Y009575D01*
D02*
G37*
G36*
X007145Y009426D02*
X007123Y009423D01*
X007102Y009415D01*
X007084Y009401D01*
X007070Y009383D01*
X007062Y009362D01*
X007059Y009340D01*
X007062Y009318D01*
X007070Y009297D01*
X007084Y009279D01*
X007102Y009265D01*
X007123Y009257D01*
X007145Y009254D01*
X007167Y009257D01*
X007188Y009265D01*
X007206Y009279D01*
X007220Y009297D01*
X007228Y009318D01*
X007231Y009340D01*
X007228Y009362D01*
X007220Y009383D01*
X007206Y009401D01*
X007188Y009415D01*
X007167Y009423D01*
X007145Y009426D01*
D02*
G37*
G36*
X007410Y009062D02*
X007388Y009059D01*
X007367Y009050D01*
X007349Y009036D01*
X007335Y009019D01*
X007327Y008998D01*
X007324Y008975D01*
X007327Y008953D01*
X007335Y008932D01*
X007349Y008915D01*
X007367Y008901D01*
X007388Y008892D01*
X007410Y008889D01*
X007432Y008892D01*
X007453Y008901D01*
X007471Y008915D01*
X007484Y008932D01*
X007493Y008953D01*
X007496Y008975D01*
X007493Y008998D01*
X007484Y009019D01*
X007471Y009036D01*
X007453Y009050D01*
X007432Y009059D01*
X007410Y009062D01*
D02*
G37*
G36*
X006817Y009139D02*
X006795Y009135D01*
X006777Y009122D01*
X006765Y009104D01*
X006751Y009079D01*
X006713Y009065D01*
X006698Y009063D01*
X006677Y009055D01*
X006659Y009041D01*
X006645Y009023D01*
X006637Y009002D01*
X006634Y008980D01*
X006637Y008958D01*
X006645Y008937D01*
X006659Y008919D01*
X006677Y008905D01*
X006698Y008897D01*
X006715Y008894D01*
X006751Y008884D01*
X006768Y008858D01*
X006780Y008840D01*
X006798Y008828D01*
X006820Y008824D01*
X006842Y008828D01*
X006860Y008840D01*
X006872Y008858D01*
X006876Y008880D01*
X006872Y008902D01*
X006860Y008920D01*
X006842Y008932D01*
X006816Y008949D01*
X006807Y008981D01*
X006813Y009010D01*
X006838Y009030D01*
X006857Y009042D01*
X006869Y009061D01*
X006873Y009082D01*
X006869Y009104D01*
X006857Y009122D01*
X006838Y009135D01*
X006817Y009139D01*
D02*
G37*
G36*
X005770Y008756D02*
X005748Y008752D01*
X005725Y008742D01*
X005702Y008752D01*
X005680Y008756D01*
X005658Y008752D01*
X005640Y008740D01*
X005630D01*
X005612Y008752D01*
X005590Y008756D01*
X005568Y008752D01*
X005550Y008740D01*
X005538Y008722D01*
X005534Y008700D01*
X005538Y008678D01*
X005550Y008660D01*
X005568Y008648D01*
X005590Y008644D01*
X005612Y008648D01*
X005630Y008660D01*
X005640D01*
X005658Y008648D01*
X005680Y008644D01*
X005702Y008648D01*
X005725Y008658D01*
X005748Y008648D01*
X005770Y008644D01*
X005792Y008648D01*
X005810Y008660D01*
X005822Y008678D01*
X005826Y008700D01*
X005822Y008722D01*
X005810Y008740D01*
X005792Y008752D01*
X005770Y008756D01*
D02*
G37*
G36*
X003720Y009006D02*
X003690Y009003D01*
X003660Y008994D01*
X003633Y008980D01*
X003610Y008960D01*
X003590Y008937D01*
X003576Y008910D01*
X003567Y008880D01*
X003564Y008850D01*
X003567Y008820D01*
X003576Y008790D01*
X003590Y008763D01*
X003610Y008740D01*
X003633Y008720D01*
X003660Y008706D01*
X003690Y008697D01*
X003720Y008694D01*
X003750Y008697D01*
X003780Y008706D01*
X003807Y008720D01*
X003830Y008740D01*
X003850Y008763D01*
X003864Y008790D01*
X003873Y008820D01*
X003876Y008850D01*
X003873Y008880D01*
X003864Y008910D01*
X003850Y008937D01*
X003830Y008960D01*
X003807Y008980D01*
X003780Y008994D01*
X003750Y009003D01*
X003720Y009006D01*
D02*
G37*
G36*
X003120Y009005D02*
X003090Y009002D01*
X003060Y008993D01*
X003033Y008979D01*
X003010Y008959D01*
X002990Y008936D01*
X002976Y008909D01*
X002967Y008879D01*
X002964Y008849D01*
X002967Y008819D01*
X002976Y008789D01*
X002990Y008762D01*
X003010Y008739D01*
X003033Y008719D01*
X003060Y008705D01*
X003090Y008696D01*
X003120Y008693D01*
X003150Y008696D01*
X003180Y008705D01*
X003207Y008719D01*
X003230Y008739D01*
X003250Y008762D01*
X003264Y008789D01*
X003273Y008819D01*
X003276Y008849D01*
X003273Y008879D01*
X003264Y008909D01*
X003250Y008936D01*
X003230Y008959D01*
X003207Y008979D01*
X003180Y008993D01*
X003150Y009002D01*
X003120Y009005D01*
D02*
G37*
G36*
X009590Y009016D02*
X009568Y009012D01*
X009550Y009000D01*
X009538Y008982D01*
X009538Y008980D01*
X009374Y008816D01*
X009363Y008800D01*
X009359Y008780D01*
Y008745D01*
X009320D01*
Y008615D01*
X009500D01*
Y008654D01*
X009550Y008670D01*
X009568Y008658D01*
X009590Y008654D01*
X009612Y008658D01*
X009630Y008670D01*
X009642Y008688D01*
X009646Y008710D01*
X009642Y008732D01*
X009630Y008750D01*
X009612Y008762D01*
X009590Y008766D01*
X009568Y008762D01*
X009550Y008750D01*
X009526Y008763D01*
X009524Y008821D01*
X009610Y008908D01*
X009612Y008908D01*
X009630Y008920D01*
X009642Y008938D01*
X009646Y008960D01*
X009642Y008982D01*
X009630Y009000D01*
X009612Y009012D01*
X009590Y009016D01*
D02*
G37*
G36*
X008560Y009146D02*
X008538Y009142D01*
X008520Y009130D01*
X008508Y009112D01*
X008504Y009090D01*
X008508Y009068D01*
X008509Y009067D01*
Y008745D01*
X008470D01*
Y008615D01*
X008650D01*
Y008745D01*
X008611D01*
Y009067D01*
X008612Y009068D01*
X008616Y009090D01*
X008612Y009112D01*
X008600Y009130D01*
X008582Y009142D01*
X008560Y009146D01*
D02*
G37*
G36*
X012971Y008619D02*
X012881D01*
Y008529D01*
X012894Y008531D01*
X012920Y008541D01*
X012942Y008558D01*
X012959Y008580D01*
X012969Y008606D01*
X012971Y008619D01*
D02*
G37*
G36*
X012851D02*
X012761D01*
X012763Y008606D01*
X012773Y008580D01*
X012790Y008558D01*
X012812Y008541D01*
X012838Y008531D01*
X012851Y008529D01*
Y008619D01*
D02*
G37*
G36*
X006347Y008446D02*
Y008403D01*
X006390D01*
X006389Y008411D01*
X006375Y008431D01*
X006355Y008445D01*
X006347Y008446D01*
D02*
G37*
G36*
X006317D02*
X006309Y008445D01*
X006289Y008431D01*
X006275Y008411D01*
X006274Y008403D01*
X006317D01*
Y008446D01*
D02*
G37*
G36*
X010150Y008746D02*
X010128Y008742D01*
X010110Y008730D01*
X010098Y008712D01*
X010094Y008690D01*
X010098Y008668D01*
X010099Y008667D01*
Y008621D01*
X009729Y008251D01*
X009613D01*
X009612Y008252D01*
X009610Y008252D01*
X009494Y008369D01*
X009505Y008418D01*
X009549Y008412D01*
X009550Y008410D01*
X009568Y008398D01*
X009590Y008394D01*
X009612Y008398D01*
X009630Y008410D01*
X009642Y008428D01*
X009646Y008450D01*
X009642Y008472D01*
X009630Y008490D01*
X009612Y008502D01*
X009590Y008506D01*
X009568Y008502D01*
X009550Y008490D01*
X009500Y008506D01*
Y008555D01*
X009320D01*
Y008425D01*
X009359D01*
Y008380D01*
X009363Y008360D01*
X009374Y008344D01*
X009538Y008180D01*
X009538Y008178D01*
X009550Y008160D01*
X009568Y008148D01*
X009590Y008144D01*
X009612Y008148D01*
X009613Y008149D01*
X009750D01*
X009770Y008153D01*
X009786Y008164D01*
X010186Y008564D01*
X010197Y008580D01*
X010201Y008600D01*
Y008667D01*
X010202Y008668D01*
X010206Y008690D01*
X010202Y008712D01*
X010190Y008730D01*
X010172Y008742D01*
X010150Y008746D01*
D02*
G37*
G36*
X006390Y008373D02*
X006347D01*
Y008330D01*
X006355Y008331D01*
X006375Y008345D01*
X006389Y008365D01*
X006390Y008373D01*
D02*
G37*
G36*
X006317D02*
X006274D01*
X006275Y008365D01*
X006289Y008345D01*
X006309Y008331D01*
X006317Y008330D01*
Y008373D01*
D02*
G37*
G36*
X007983Y008130D02*
X007975Y008129D01*
X007955Y008115D01*
X007942Y008095D01*
X007940Y008087D01*
X007983D01*
Y008130D01*
D02*
G37*
G36*
Y008057D02*
X007940D01*
X007942Y008049D01*
X007955Y008029D01*
X007975Y008015D01*
X007983Y008014D01*
Y008057D01*
D02*
G37*
G36*
X009600Y007986D02*
Y007897D01*
X009689D01*
X009687Y007910D01*
X009677Y007935D01*
X009660Y007957D01*
X009638Y007974D01*
X009612Y007985D01*
X009600Y007986D01*
D02*
G37*
G36*
X009570D02*
X009558Y007985D01*
X009532Y007974D01*
X009510Y007957D01*
X009493Y007935D01*
X009483Y007910D01*
X009481Y007897D01*
X009570D01*
Y007986D01*
D02*
G37*
G36*
X009689Y007868D02*
X009600D01*
Y007779D01*
X009612Y007780D01*
X009638Y007791D01*
X009660Y007808D01*
X009677Y007830D01*
X009687Y007855D01*
X009689Y007868D01*
D02*
G37*
G36*
X009570D02*
X009481D01*
X009483Y007855D01*
X009493Y007830D01*
X009510Y007808D01*
X009532Y007791D01*
X009558Y007780D01*
X009570Y007779D01*
Y007868D01*
D02*
G37*
G36*
X014390Y007974D02*
X014363Y007971D01*
X014339Y007961D01*
X014318Y007944D01*
X014301Y007923D01*
X014291Y007899D01*
X014288Y007872D01*
X014291Y007845D01*
X014301Y007821D01*
X014318Y007800D01*
X014339Y007783D01*
X014363Y007773D01*
X014390Y007770D01*
X014417Y007773D01*
X014441Y007783D01*
X014462Y007800D01*
X014479Y007821D01*
X014489Y007845D01*
X014492Y007872D01*
X014489Y007899D01*
X014479Y007923D01*
X014462Y007944D01*
X014441Y007961D01*
X014417Y007971D01*
X014390Y007974D01*
D02*
G37*
G36*
X012264D02*
X012237Y007971D01*
X012213Y007961D01*
X012192Y007944D01*
X012175Y007923D01*
X012165Y007899D01*
X012162Y007872D01*
X012165Y007845D01*
X012175Y007821D01*
X012192Y007800D01*
X012213Y007783D01*
X012237Y007773D01*
X012264Y007770D01*
X012291Y007773D01*
X012315Y007783D01*
X012336Y007800D01*
X012353Y007821D01*
X012363Y007845D01*
X012366Y007872D01*
X012363Y007899D01*
X012353Y007923D01*
X012336Y007944D01*
X012315Y007961D01*
X012291Y007971D01*
X012264Y007974D01*
D02*
G37*
G36*
X008435Y007689D02*
Y007615D01*
X008509D01*
X008508Y007623D01*
X008499Y007645D01*
X008484Y007664D01*
X008465Y007679D01*
X008443Y007688D01*
X008435Y007689D01*
D02*
G37*
G36*
X008405D02*
X008397Y007688D01*
X008375Y007679D01*
X008356Y007664D01*
X008341Y007645D01*
X008332Y007623D01*
X008331Y007615D01*
X008405D01*
Y007689D01*
D02*
G37*
G36*
X008509Y007585D02*
X008435D01*
Y007511D01*
X008443Y007512D01*
X008465Y007521D01*
X008484Y007536D01*
X008499Y007555D01*
X008508Y007577D01*
X008509Y007585D01*
D02*
G37*
G36*
X008405D02*
X008331D01*
X008332Y007577D01*
X008341Y007555D01*
X008356Y007536D01*
X008375Y007521D01*
X008397Y007512D01*
X008405Y007511D01*
Y007585D01*
D02*
G37*
G36*
X009347Y007509D02*
X009325Y007505D01*
X009307Y007492D01*
X009295Y007474D01*
X009293Y007464D01*
X009274Y007443D01*
X009245Y007426D01*
X009235Y007427D01*
X009213Y007424D01*
X009192Y007416D01*
X009174Y007402D01*
X009161Y007384D01*
X009152Y007363D01*
X009149Y007341D01*
X009152Y007319D01*
X009161Y007298D01*
X009174Y007280D01*
X009192Y007266D01*
X009213Y007258D01*
X009235Y007255D01*
X009246Y007256D01*
X009267Y007249D01*
X009297Y007220D01*
X009298Y007218D01*
X009310Y007200D01*
X009328Y007188D01*
X009350Y007184D01*
X009372Y007188D01*
X009390Y007200D01*
X009402Y007218D01*
X009406Y007240D01*
X009402Y007262D01*
X009390Y007280D01*
X009372Y007292D01*
X009362Y007294D01*
X009345Y007304D01*
X009322Y007341D01*
X009321Y007342D01*
X009320Y007350D01*
X009338Y007380D01*
X009358Y007398D01*
X009368Y007400D01*
X009387Y007412D01*
X009399Y007431D01*
X009403Y007452D01*
X009399Y007474D01*
X009387Y007492D01*
X009368Y007505D01*
X009347Y007509D01*
D02*
G37*
G36*
X009833D02*
X009811Y007505D01*
X009793Y007492D01*
X009781Y007474D01*
X009776Y007452D01*
X009781Y007431D01*
X009793Y007412D01*
X009811Y007400D01*
X009816Y007399D01*
X009840Y007381D01*
X009854Y007351D01*
X009839Y007315D01*
X009815Y007302D01*
X009796Y007290D01*
X009784Y007272D01*
X009780Y007250D01*
X009784Y007228D01*
X009796Y007210D01*
X009815Y007198D01*
X009836Y007194D01*
X009858Y007198D01*
X009876Y007210D01*
X009888Y007228D01*
X009910Y007253D01*
X009942Y007260D01*
X009962Y007262D01*
X009983Y007271D01*
X010001Y007285D01*
X010014Y007302D01*
X010023Y007323D01*
X010026Y007345D01*
X010023Y007368D01*
X010014Y007389D01*
X010001Y007406D01*
X009983Y007420D01*
X009962Y007429D01*
X009940Y007432D01*
X009936Y007431D01*
X009905Y007445D01*
X009886Y007470D01*
X009885Y007474D01*
X009873Y007492D01*
X009855Y007505D01*
X009833Y007509D01*
D02*
G37*
G36*
X014405Y007215D02*
Y007125D01*
X014495D01*
X014493Y007138D01*
X014483Y007164D01*
X014466Y007186D01*
X014444Y007203D01*
X014418Y007213D01*
X014405Y007215D01*
D02*
G37*
G36*
X014375D02*
X014362Y007213D01*
X014336Y007203D01*
X014314Y007186D01*
X014297Y007164D01*
X014287Y007138D01*
X014285Y007125D01*
X014375D01*
Y007215D01*
D02*
G37*
G36*
X012851D02*
X012838Y007213D01*
X012812Y007203D01*
X012790Y007186D01*
X012773Y007164D01*
X012763Y007138D01*
X012761Y007125D01*
X012851D01*
Y007215D01*
D02*
G37*
G36*
X012279D02*
Y007125D01*
X012369D01*
X012367Y007138D01*
X012357Y007164D01*
X012340Y007186D01*
X012318Y007203D01*
X012292Y007213D01*
X012279Y007215D01*
D02*
G37*
G36*
X012249D02*
X012236Y007213D01*
X012210Y007203D01*
X012188Y007186D01*
X012171Y007164D01*
X012161Y007138D01*
X012159Y007125D01*
X012249D01*
Y007215D01*
D02*
G37*
G36*
X010755D02*
Y007125D01*
X010845D01*
X010843Y007138D01*
X010833Y007164D01*
X010816Y007186D01*
X010794Y007203D01*
X010768Y007213D01*
X010755Y007215D01*
D02*
G37*
G36*
X010725D02*
X010712Y007213D01*
X010686Y007203D01*
X010664Y007186D01*
X010647Y007164D01*
X010637Y007138D01*
X010635Y007125D01*
X010725D01*
Y007215D01*
D02*
G37*
G36*
X014495Y007095D02*
X014405D01*
Y007005D01*
X014418Y007007D01*
X014444Y007017D01*
X014466Y007034D01*
X014483Y007056D01*
X014493Y007082D01*
X014495Y007095D01*
D02*
G37*
G36*
X014375D02*
X014285D01*
X014287Y007082D01*
X014297Y007056D01*
X014314Y007034D01*
X014336Y007017D01*
X014362Y007007D01*
X014375Y007005D01*
Y007095D01*
D02*
G37*
G36*
X012369D02*
X012279D01*
Y007005D01*
X012292Y007007D01*
X012318Y007017D01*
X012340Y007034D01*
X012357Y007056D01*
X012367Y007082D01*
X012369Y007095D01*
D02*
G37*
G36*
X012249D02*
X012159D01*
X012161Y007082D01*
X012171Y007056D01*
X012188Y007034D01*
X012210Y007017D01*
X012236Y007007D01*
X012249Y007005D01*
Y007095D01*
D02*
G37*
G36*
X010845D02*
X010755D01*
Y007005D01*
X010768Y007007D01*
X010794Y007017D01*
X010816Y007034D01*
X010833Y007056D01*
X010843Y007082D01*
X010845Y007095D01*
D02*
G37*
G36*
X010725D02*
X010635D01*
X010637Y007082D01*
X010647Y007056D01*
X010664Y007034D01*
X010686Y007017D01*
X010712Y007007D01*
X010725Y007005D01*
Y007095D01*
D02*
G37*
G36*
X008877Y006816D02*
Y006773D01*
X008920D01*
X008919Y006781D01*
X008905Y006801D01*
X008885Y006815D01*
X008877Y006816D01*
D02*
G37*
G36*
X011948Y006445D02*
X011905D01*
Y006402D01*
X011913Y006403D01*
X011933Y006417D01*
X011947Y006437D01*
X011948Y006445D01*
D02*
G37*
G36*
X011875D02*
X011832D01*
X011833Y006437D01*
X011847Y006417D01*
X011867Y006403D01*
X011875Y006402D01*
Y006445D01*
D02*
G37*
G36*
X010325Y006366D02*
Y006323D01*
X010368D01*
X010366Y006331D01*
X010353Y006351D01*
X010333Y006365D01*
X010325Y006366D01*
D02*
G37*
G36*
X010295D02*
X010286Y006365D01*
X010266Y006351D01*
X010253Y006331D01*
X010251Y006323D01*
X010295D01*
Y006366D01*
D02*
G37*
G36*
X010368Y006293D02*
X010325D01*
Y006250D01*
X010333Y006251D01*
X010353Y006265D01*
X010366Y006285D01*
X010368Y006293D01*
D02*
G37*
G36*
X010295D02*
X010251D01*
X010253Y006285D01*
X010266Y006265D01*
X010286Y006251D01*
X010295Y006250D01*
Y006293D01*
D02*
G37*
G36*
X010798Y006225D02*
X010755D01*
Y006182D01*
X010763Y006183D01*
X010783Y006197D01*
X010797Y006217D01*
X010798Y006225D01*
D02*
G37*
G36*
X009940Y006192D02*
X009918Y006189D01*
X009897Y006180D01*
X009879Y006166D01*
X009865Y006149D01*
X009857Y006128D01*
X009854Y006105D01*
X009857Y006083D01*
X009865Y006062D01*
X009879Y006045D01*
X009897Y006031D01*
X009918Y006022D01*
X009940Y006019D01*
X009962Y006022D01*
X009983Y006031D01*
X010001Y006045D01*
X010014Y006062D01*
X010023Y006083D01*
X010026Y006105D01*
X010023Y006128D01*
X010014Y006149D01*
X010001Y006166D01*
X009983Y006180D01*
X009962Y006189D01*
X009940Y006192D01*
D02*
G37*
G36*
X011920Y006186D02*
X011898Y006183D01*
X011877Y006175D01*
X011859Y006161D01*
X011845Y006143D01*
X011837Y006122D01*
X011834Y006100D01*
X011837Y006078D01*
X011845Y006057D01*
X011859Y006039D01*
X011877Y006025D01*
X011898Y006017D01*
X011920Y006014D01*
X011942Y006017D01*
X011963Y006025D01*
X011981Y006039D01*
X011995Y006057D01*
X012003Y006078D01*
X012006Y006100D01*
X012003Y006122D01*
X011995Y006143D01*
X011981Y006161D01*
X011963Y006175D01*
X011942Y006183D01*
X011920Y006186D01*
D02*
G37*
G36*
X014475Y005928D02*
Y005885D01*
X014518D01*
X014517Y005893D01*
X014503Y005913D01*
X014483Y005927D01*
X014475Y005928D01*
D02*
G37*
G36*
X014445D02*
X014437Y005927D01*
X014417Y005913D01*
X014403Y005893D01*
X014402Y005885D01*
X014445D01*
Y005928D01*
D02*
G37*
G36*
X014518Y005855D02*
X014475D01*
Y005812D01*
X014483Y005813D01*
X014503Y005827D01*
X014517Y005847D01*
X014518Y005855D01*
D02*
G37*
G36*
X014445D02*
X014402D01*
X014403Y005847D01*
X014417Y005827D01*
X014437Y005813D01*
X014445Y005812D01*
Y005855D01*
D02*
G37*
G36*
X008875Y005578D02*
Y005535D01*
X008918D01*
X008917Y005543D01*
X008903Y005563D01*
X008883Y005577D01*
X008875Y005578D01*
D02*
G37*
G36*
X008845D02*
X008837Y005577D01*
X008817Y005563D01*
X008803Y005543D01*
X008802Y005535D01*
X008845D01*
Y005578D01*
D02*
G37*
G36*
X010827Y005571D02*
X010819Y005569D01*
X010799Y005556D01*
X010786Y005536D01*
X010784Y005528D01*
X010827D01*
Y005571D01*
D02*
G37*
G36*
X014475Y005528D02*
Y005485D01*
X014518D01*
X014517Y005493D01*
X014503Y005513D01*
X014483Y005527D01*
X014475Y005528D01*
D02*
G37*
G36*
X014445D02*
X014437Y005527D01*
X014417Y005513D01*
X014403Y005493D01*
X014402Y005485D01*
X014445D01*
Y005528D01*
D02*
G37*
G36*
X008918Y005505D02*
X008875D01*
Y005462D01*
X008883Y005463D01*
X008903Y005477D01*
X008917Y005497D01*
X008918Y005505D01*
D02*
G37*
G36*
X008845D02*
X008802D01*
X008803Y005497D01*
X008817Y005477D01*
X008837Y005463D01*
X008845Y005462D01*
Y005505D01*
D02*
G37*
G36*
X014518Y005455D02*
X014475D01*
Y005412D01*
X014483Y005413D01*
X014503Y005427D01*
X014517Y005447D01*
X014518Y005455D01*
D02*
G37*
G36*
X014445D02*
X014402D01*
X014403Y005447D01*
X014417Y005427D01*
X014437Y005413D01*
X014445Y005412D01*
Y005455D01*
D02*
G37*
G36*
X008470Y005626D02*
X008448Y005622D01*
X008430Y005610D01*
X008418Y005592D01*
X008414Y005570D01*
X008418Y005548D01*
X008430Y005530D01*
Y005500D01*
X008418Y005482D01*
X008414Y005460D01*
X008418Y005438D01*
X008430Y005420D01*
Y005390D01*
X008418Y005372D01*
X008414Y005350D01*
X008418Y005328D01*
X008430Y005310D01*
X008448Y005298D01*
X008470Y005294D01*
X008492Y005298D01*
X008510Y005310D01*
X008522Y005328D01*
X008526Y005350D01*
X008522Y005372D01*
X008510Y005390D01*
Y005420D01*
X008522Y005438D01*
X008526Y005460D01*
X008522Y005482D01*
X008510Y005500D01*
Y005530D01*
X008522Y005548D01*
X008526Y005570D01*
X008522Y005592D01*
X008510Y005610D01*
X008492Y005622D01*
X008470Y005626D01*
D02*
G37*
G36*
X010515Y005260D02*
X010507Y005259D01*
X010487Y005245D01*
X010474Y005225D01*
X010472Y005217D01*
X010515D01*
Y005260D01*
D02*
G37*
G36*
X014554Y004883D02*
X014501Y004830D01*
X014554Y004777D01*
X014607Y004830D01*
X014554Y004883D01*
D02*
G37*
G36*
X014480Y004809D02*
X014427Y004756D01*
X014480Y004703D01*
X014533Y004756D01*
X014480Y004809D01*
D02*
G37*
G36*
X014551Y004226D02*
X014498Y004173D01*
X014551Y004120D01*
X014604Y004173D01*
X014551Y004226D01*
D02*
G37*
G36*
X014350Y004386D02*
X014328Y004383D01*
X014307Y004375D01*
X014289Y004361D01*
X014275Y004343D01*
X014267Y004322D01*
X014264Y004302D01*
X014263Y004299D01*
X014263Y004297D01*
X014226Y004260D01*
X014224Y004260D01*
X014221Y004259D01*
X014201Y004256D01*
X014180Y004248D01*
X014162Y004234D01*
X014148Y004216D01*
X014140Y004195D01*
X014137Y004173D01*
X014140Y004151D01*
X014148Y004130D01*
X014162Y004112D01*
X014180Y004098D01*
X014201Y004090D01*
X014223Y004087D01*
X014245Y004090D01*
X014266Y004098D01*
X014284Y004112D01*
X014298Y004130D01*
X014306Y004151D01*
X014307Y004156D01*
X014358Y004164D01*
X014403Y004120D01*
X014466Y004184D01*
X014530Y004247D01*
X014485Y004292D01*
X014477Y004300D01*
X014433Y004322D01*
X014425Y004343D01*
X014411Y004361D01*
X014393Y004375D01*
X014372Y004383D01*
X014350Y004386D01*
D02*
G37*
G36*
X014477Y004152D02*
X014424Y004099D01*
X014477Y004046D01*
X014530Y004099D01*
X014477Y004152D01*
D02*
G37*
G36*
X014418Y003716D02*
Y003628D01*
X014506D01*
X014505Y003640D01*
X014494Y003665D01*
X014477Y003687D01*
X014455Y003704D01*
X014430Y003715D01*
X014418Y003716D01*
D02*
G37*
G36*
X014388D02*
X014375Y003715D01*
X014350Y003704D01*
X014328Y003687D01*
X014311Y003665D01*
X014300Y003640D01*
X014299Y003628D01*
X014388D01*
Y003716D01*
D02*
G37*
G36*
X014074Y003717D02*
X014048Y003713D01*
X014023Y003703D01*
X014002Y003687D01*
X013986Y003666D01*
X013976Y003642D01*
X013973Y003615D01*
X013976Y003589D01*
X013986Y003565D01*
X014002Y003544D01*
X014023Y003528D01*
X014048Y003518D01*
X014074Y003514D01*
X014100Y003518D01*
X014125Y003528D01*
X014146Y003544D01*
X014162Y003565D01*
X014172Y003589D01*
X014175Y003615D01*
X014172Y003642D01*
X014162Y003666D01*
X014146Y003687D01*
X014125Y003703D01*
X014100Y003713D01*
X014074Y003717D01*
D02*
G37*
G36*
X014506Y003597D02*
X014418D01*
Y003509D01*
X014430Y003510D01*
X014455Y003521D01*
X014477Y003538D01*
X014494Y003560D01*
X014505Y003585D01*
X014506Y003597D01*
D02*
G37*
G36*
X014388D02*
X014299D01*
X014300Y003585D01*
X014311Y003560D01*
X014328Y003538D01*
X014350Y003521D01*
X014375Y003510D01*
X014388Y003509D01*
Y003597D01*
D02*
G37*
G36*
X010775Y004928D02*
Y004885D01*
X010818D01*
X010817Y004893D01*
X010803Y004913D01*
X010783Y004927D01*
X010775Y004928D01*
D02*
G37*
G36*
X010745D02*
X010737Y004927D01*
X010717Y004913D01*
X010703Y004893D01*
X010702Y004885D01*
X010745D01*
Y004928D01*
D02*
G37*
G36*
X010838Y004253D02*
X010785Y004200D01*
X010838Y004147D01*
X010891Y004200D01*
X010838Y004253D01*
D02*
G37*
G36*
X010764Y004179D02*
X010711Y004126D01*
X010764Y004073D01*
X010817Y004126D01*
X010764Y004179D01*
D02*
G37*
G36*
X003090Y003924D02*
Y003835D01*
X003179D01*
X003177Y003847D01*
X003167Y003873D01*
X003150Y003895D01*
X003128Y003912D01*
X003102Y003922D01*
X003090Y003924D01*
D02*
G37*
G36*
X003060D02*
X003048Y003922D01*
X003022Y003912D01*
X003000Y003895D01*
X002983Y003873D01*
X002973Y003847D01*
X002971Y003835D01*
X003060D01*
Y003924D01*
D02*
G37*
G36*
X003179Y003805D02*
X003090D01*
Y003716D01*
X003102Y003718D01*
X003128Y003728D01*
X003150Y003745D01*
X003167Y003767D01*
X003177Y003793D01*
X003179Y003805D01*
D02*
G37*
G36*
X003060D02*
X002971D01*
X002973Y003793D01*
X002983Y003767D01*
X003000Y003745D01*
X003022Y003728D01*
X003048Y003718D01*
X003060Y003716D01*
Y003805D01*
D02*
G37*
G36*
X010805Y003638D02*
Y003595D01*
X010848D01*
X010847Y003603D01*
X010833Y003623D01*
X010813Y003637D01*
X010805Y003638D01*
D02*
G37*
G36*
X010775D02*
X010767Y003637D01*
X010747Y003623D01*
X010733Y003603D01*
X010732Y003595D01*
X010775D01*
Y003638D01*
D02*
G37*
G36*
X006840Y003696D02*
X006818Y003692D01*
X006800Y003680D01*
X006788Y003662D01*
X006784Y003640D01*
X006788Y003618D01*
X006800Y003600D01*
X006818Y003588D01*
X006840Y003584D01*
X006862Y003588D01*
X006880Y003600D01*
X006892Y003618D01*
X006896Y003640D01*
X006892Y003662D01*
X006880Y003680D01*
X006862Y003692D01*
X006840Y003696D01*
D02*
G37*
G36*
X010848Y003565D02*
X010805D01*
Y003522D01*
X010813Y003523D01*
X010833Y003537D01*
X010847Y003557D01*
X010848Y003565D01*
D02*
G37*
G36*
X010775D02*
X010732D01*
X010733Y003557D01*
X010747Y003537D01*
X010767Y003523D01*
X010775Y003522D01*
Y003565D01*
D02*
G37*
G36*
X010264Y003717D02*
X010238Y003713D01*
X010213Y003703D01*
X010192Y003687D01*
X010176Y003666D01*
X010166Y003642D01*
X010163Y003615D01*
X010166Y003589D01*
X010176Y003565D01*
X010192Y003544D01*
X010213Y003528D01*
X010238Y003518D01*
X010264Y003514D01*
X010290Y003518D01*
X010315Y003528D01*
X010336Y003544D01*
X010352Y003565D01*
X010362Y003589D01*
X010365Y003615D01*
X010362Y003642D01*
X010352Y003666D01*
X010336Y003687D01*
X010315Y003703D01*
X010290Y003713D01*
X010264Y003717D01*
D02*
G37*
G36*
X006444D02*
X006418Y003713D01*
X006393Y003703D01*
X006372Y003687D01*
X006356Y003666D01*
X006346Y003642D01*
X006343Y003615D01*
X006346Y003589D01*
X006356Y003565D01*
X006372Y003544D01*
X006393Y003528D01*
X006418Y003518D01*
X006444Y003514D01*
X006470Y003518D01*
X006495Y003528D01*
X006516Y003544D01*
X006532Y003565D01*
X006542Y003589D01*
X006545Y003615D01*
X006542Y003642D01*
X006532Y003666D01*
X006516Y003687D01*
X006495Y003703D01*
X006470Y003713D01*
X006444Y003717D01*
D02*
G37*
G36*
X008740D02*
X008714Y003713D01*
X008689Y003703D01*
X008668Y003687D01*
X008652Y003666D01*
X008642Y003642D01*
X008639Y003615D01*
X008642Y003589D01*
X008652Y003565D01*
X008663Y003551D01*
X008668Y003543D01*
Y003497D01*
X008663Y003489D01*
X008652Y003476D01*
X008642Y003451D01*
X008639Y003425D01*
X008642Y003399D01*
X008652Y003374D01*
X008668Y003353D01*
X008689Y003337D01*
X008714Y003327D01*
X008740Y003324D01*
X008766Y003327D01*
X008791Y003337D01*
X008812Y003353D01*
X008828Y003374D01*
X008838Y003399D01*
X008841Y003425D01*
X008838Y003451D01*
X008828Y003476D01*
X008817Y003489D01*
X008812Y003497D01*
Y003543D01*
X008817Y003551D01*
X008828Y003565D01*
X008838Y003589D01*
X008841Y003615D01*
X008838Y003642D01*
X008828Y003666D01*
X008812Y003687D01*
X008791Y003703D01*
X008766Y003713D01*
X008740Y003717D01*
D02*
G37*
G36*
X007216Y003526D02*
X007190Y003523D01*
X007165Y003513D01*
X007144Y003497D01*
X007128Y003476D01*
X007118Y003451D01*
X007115Y003425D01*
X007118Y003399D01*
X007128Y003374D01*
X007144Y003353D01*
X007165Y003337D01*
X007190Y003327D01*
X007216Y003324D01*
X007242Y003327D01*
X007267Y003337D01*
X007288Y003353D01*
X007304Y003374D01*
X007314Y003399D01*
X007317Y003425D01*
X007314Y003451D01*
X007304Y003476D01*
X007288Y003497D01*
X007267Y003513D01*
X007242Y003523D01*
X007216Y003526D01*
D02*
G37*
G36*
X004924Y003717D02*
X004898Y003713D01*
X004873Y003703D01*
X004852Y003687D01*
X004836Y003666D01*
X004826Y003642D01*
X004823Y003615D01*
X004826Y003589D01*
X004836Y003565D01*
X004845Y003554D01*
X004852Y003541D01*
X004848Y003497D01*
X004832Y003476D01*
X004822Y003451D01*
X004819Y003425D01*
X004822Y003399D01*
X004832Y003374D01*
X004848Y003353D01*
X004869Y003337D01*
X004894Y003327D01*
X004920Y003324D01*
X004946Y003327D01*
X004971Y003337D01*
X004992Y003353D01*
X005008Y003374D01*
X005018Y003399D01*
X005021Y003425D01*
X005018Y003451D01*
X005008Y003476D01*
X004999Y003487D01*
X004992Y003499D01*
X004996Y003544D01*
X005012Y003565D01*
X005022Y003589D01*
X005025Y003615D01*
X005022Y003642D01*
X005012Y003666D01*
X004996Y003687D01*
X004975Y003703D01*
X004950Y003713D01*
X004924Y003717D01*
D02*
G37*
G36*
X003400Y003526D02*
X003374Y003523D01*
X003349Y003513D01*
X003328Y003497D01*
X003312Y003476D01*
X003302Y003451D01*
X003299Y003425D01*
X003302Y003399D01*
X003312Y003374D01*
X003328Y003353D01*
X003349Y003337D01*
X003374Y003327D01*
X003400Y003324D01*
X003426Y003327D01*
X003451Y003337D01*
X003472Y003353D01*
X003488Y003374D01*
X003498Y003399D01*
X003501Y003425D01*
X003498Y003451D01*
X003488Y003476D01*
X003472Y003497D01*
X003451Y003513D01*
X003426Y003523D01*
X003400Y003526D01*
D02*
G37*
G36*
X011025Y003526D02*
X010999Y003523D01*
X010974Y003513D01*
X010953Y003497D01*
X010937Y003476D01*
X010927Y003451D01*
X010924Y003425D01*
X010927Y003399D01*
X010937Y003374D01*
X010953Y003353D01*
X010974Y003337D01*
X010999Y003327D01*
X011025Y003324D01*
X011051Y003327D01*
X011076Y003337D01*
X011097Y003353D01*
X011113Y003374D01*
X011123Y003399D01*
X011126Y003425D01*
X011123Y003451D01*
X011113Y003476D01*
X011097Y003497D01*
X011076Y003513D01*
X011051Y003523D01*
X011025Y003526D01*
D02*
G37*
G36*
X006840Y003396D02*
X006818Y003392D01*
X006800Y003380D01*
X006788Y003362D01*
X006784Y003340D01*
X006788Y003318D01*
X006800Y003300D01*
X006818Y003288D01*
X006840Y003284D01*
X006862Y003288D01*
X006880Y003300D01*
X006892Y003318D01*
X006896Y003340D01*
X006892Y003362D01*
X006880Y003380D01*
X006862Y003392D01*
X006840Y003396D01*
D02*
G37*
%LPD*%
D12*
X010210Y004960D02*
X010530Y004640D01*
X009154Y005131D02*
X009310Y004975D01*
X010195D01*
X010210Y004960D01*
X009127Y005065D02*
X009282Y004910D01*
X010168D02*
X010503Y004575D01*
X009282Y004910D02*
X010168D01*
X007572Y005250D02*
X007616Y005206D01*
X008017Y005131D02*
X009154D01*
X007070Y005250D02*
X007220D01*
X007941Y005206D02*
X008017Y005131D01*
X007220Y005250D02*
X007572D01*
X007616Y005206D02*
X007941D01*
X007205Y005185D02*
X007545D01*
X007589Y005141D02*
X007914D01*
X007990Y005065D02*
X009127D01*
X007914Y005141D02*
X007990Y005065D01*
X007545Y005185D02*
X007589Y005141D01*
X011962Y004950D02*
X011978D01*
X010363Y004530D02*
X010449Y004444D01*
X008170Y004710D02*
X008350Y004530D01*
X010363D01*
X010449Y004444D02*
X011969D01*
X012135Y004610D01*
X012178Y004809D02*
Y004950D01*
X012135Y004766D02*
X012178Y004809D01*
X012135Y004610D02*
Y004766D01*
X008040Y004710D02*
X008170D01*
X012006Y004830D02*
X012027Y004809D01*
X011873Y004740D02*
X011963Y004830D01*
X012006D01*
X012070Y004638D02*
Y004766D01*
X012027Y004809D02*
X012070Y004766D01*
X012027Y004809D02*
Y004809D01*
X011730Y004740D02*
X011873D01*
X011942Y004509D02*
X012070Y004638D01*
X011980Y004640D02*
Y004740D01*
X011915Y004575D02*
X011980Y004640D01*
X010476Y004509D02*
X011942D01*
X010145Y004840D02*
X010476Y004509D01*
X009657Y004840D02*
X010145D01*
X009568Y004750D02*
X009657Y004840D01*
X011537Y004575D02*
X011915D01*
X010503D02*
X011537D01*
X007090Y005070D02*
X007205Y005185D01*
X007040Y005280D02*
X007070Y005250D01*
X010530Y004640D02*
X011510D01*
X011603Y004733D01*
Y004840D01*
X007040Y005280D02*
Y006390D01*
X006980Y006450D02*
X007040Y006390D01*
X006900Y006450D02*
X006980D01*
X006840Y006390D02*
X006900Y006450D01*
X006840Y006210D02*
Y006390D01*
X007760Y004550D02*
X008000Y004790D01*
X005080Y004780D02*
X005310Y004550D01*
X007760D01*
X006804Y005718D02*
X006880Y005642D01*
Y005020D02*
X007050Y004850D01*
X006880Y005020D02*
Y005642D01*
X006800Y004980D02*
X007000Y004780D01*
X006800Y005206D02*
X006804Y005210D01*
X006800Y004980D02*
Y005206D01*
X006930Y006360D02*
X006960Y006330D01*
Y005050D02*
X007090Y004920D01*
X006960Y005050D02*
Y006330D01*
X005850Y005117D02*
Y006240D01*
X005950Y007400D02*
X005990Y007440D01*
X005850Y006240D02*
X005950Y006340D01*
Y007400D01*
X005990Y007440D02*
X006760D01*
X006793Y007407D01*
Y007358D02*
Y007407D01*
Y006977D02*
X006793D01*
X013762Y005052D02*
X014004D01*
X014226Y004830D01*
X013452Y004422D02*
X013762Y004732D01*
X013255Y004422D02*
Y004740D01*
Y004422D02*
X013452D01*
X013762Y004732D02*
Y005052D01*
X007000Y004780D02*
X007510D01*
X009270Y004830D02*
X009290D01*
X007962Y005000D02*
X009100D01*
X009270Y004830D01*
X007887Y005075D02*
X007962Y005000D01*
X007595Y005075D02*
X007885D01*
X007887D01*
X007090Y004920D02*
X007440D01*
X007595Y005075D01*
X007050Y004850D02*
X007470D01*
X007630Y005010D02*
X007860D01*
X007470Y004850D02*
X007630Y005010D01*
X007510Y004780D02*
X007621Y004891D01*
X007651D01*
X007690Y004930D01*
X007860Y005010D02*
X007940Y004930D01*
X009488Y004830D02*
X009568Y004750D01*
X009410Y004830D02*
X009488D01*
X009320Y004740D02*
X009410Y004830D01*
X009250Y004740D02*
X009320D01*
X009060Y004930D02*
X009250Y004740D01*
X007940Y004860D02*
X009020D01*
X009210Y004670D02*
X009390D01*
X009020Y004860D02*
X009210Y004670D01*
X009165Y004605D02*
X009405D01*
X008000Y004790D02*
X008980D01*
X009165Y004605D01*
X007940Y004930D02*
X009060D01*
X007445Y004615D02*
X007655Y004825D01*
X007775D02*
X007830Y004880D01*
X007655Y004825D02*
X007775D01*
X005345Y004615D02*
X007445D01*
X007830Y004750D02*
X007940Y004860D01*
X004508Y004470D02*
X007800D01*
X008040Y004710D01*
X005080Y005764D02*
X005116Y005800D01*
X005080Y004780D02*
Y005764D01*
X005116Y005800D02*
X005220D01*
X009441Y004721D02*
Y004750D01*
X009390Y004670D02*
X009441Y004721D01*
X009405Y004605D02*
X009546D01*
X009691Y004750D01*
Y004750D01*
X004228D02*
X004508Y004470D01*
X005220Y005800D02*
X005255Y005835D01*
Y006025D01*
X005170Y006110D02*
X005255Y006025D01*
X005250Y004710D02*
Y005620D01*
Y004710D02*
X005345Y004615D01*
X005170Y005700D02*
X005250Y005620D01*
X005320Y005080D02*
Y006390D01*
X005280Y006430D02*
Y006630D01*
Y006430D02*
X005320Y006390D01*
X005280Y006630D02*
X005320Y006670D01*
Y007145D01*
X005403Y007228D01*
X005320Y005080D02*
X005497Y004903D01*
X005621Y004889D02*
X005850Y005117D01*
X005920Y005060D02*
Y006195D01*
X005747Y004888D02*
X005920Y005060D01*
Y006195D02*
X006725D01*
X004340Y004850D02*
X004870Y005380D01*
Y005628D01*
X004871Y005988D02*
X005070Y006188D01*
X004871Y005628D02*
Y005988D01*
X004870Y005628D02*
X004871Y005628D01*
X005070Y006188D02*
Y007010D01*
X004805Y005655D02*
Y006015D01*
X005005Y006215D02*
Y007055D01*
X004805Y006015D02*
X005005Y006215D01*
X004749Y005599D02*
X004805Y005655D01*
X005747Y004750D02*
Y004888D01*
X005497Y004750D02*
Y004903D01*
X005621Y004750D02*
Y004889D01*
X006725Y006195D02*
X006802Y006118D01*
Y006099D02*
Y006118D01*
X005310Y007270D02*
Y007450D01*
X005240Y007200D02*
X005310Y007270D01*
X005150Y007200D02*
X005240D01*
X005005Y007055D02*
X005150Y007200D01*
X004078Y004850D02*
X004340D01*
X003978Y004750D02*
X004078Y004850D01*
X004545Y005599D02*
X004749D01*
X005070Y007010D02*
X005170Y007110D01*
D13*
X013340Y009190D02*
Y009390D01*
Y009590D02*
Y009790D01*
X013340Y009390D02*
Y009590D01*
X013540Y009590D02*
Y009790D01*
X013540Y009190D02*
Y009590D01*
X013740Y009590D02*
Y009790D01*
X013740Y009190D02*
Y009590D01*
X012340Y009590D02*
Y009790D01*
Y009390D02*
Y009590D01*
X012140D02*
Y009790D01*
Y009390D02*
Y009590D01*
X011940D02*
Y009790D01*
Y009390D02*
Y009590D01*
X011740D02*
Y009790D01*
Y009390D02*
Y009590D01*
X005840Y009250D02*
Y009382D01*
X005928Y009470D02*
X006610D01*
X005840Y009382D02*
X005928Y009470D01*
X005737Y009250D02*
X005840D01*
X005730Y009350D02*
X005740D01*
X004460Y008080D02*
X005730Y009350D01*
X004491Y008005D02*
X005737Y009250D01*
X004522Y007929D02*
X005766Y009172D01*
X005962D01*
X006140Y009350D01*
X009590Y008200D02*
X009750D01*
X010150Y008600D01*
Y008690D01*
X009410Y008380D02*
X009590Y008200D01*
X009410Y008380D02*
Y008490D01*
Y008780D02*
X009590Y008960D01*
X009410Y008680D02*
Y008780D01*
X011340Y009390D02*
Y009790D01*
X011140Y009390D02*
Y009790D01*
X008330Y008840D02*
Y009090D01*
X008560Y008680D02*
Y009090D01*
X008330Y008200D02*
Y008840D01*
Y009090D02*
Y009590D01*
X008560Y008430D02*
Y008490D01*
X008330Y008200D02*
X008560Y008430D01*
X007730Y008960D02*
Y009590D01*
X007930Y008710D02*
Y009590D01*
X008130Y008453D02*
Y009590D01*
X007730Y009590D02*
X007730Y009590D01*
X008130Y009590D02*
X008130Y009590D01*
X011540Y009390D02*
Y009590D01*
Y009790D01*
X010940Y009390D02*
Y009790D01*
X007730Y009590D02*
Y009790D01*
X007930Y009590D02*
Y009790D01*
X008130Y009590D02*
Y009790D01*
X008330Y009590D02*
Y009790D01*
X010450Y005050D02*
X010560D01*
X011090Y005580D02*
Y006190D01*
X010560Y005050D02*
X011090Y005580D01*
X011870Y005290D02*
X013140D01*
X013310Y005460D02*
Y006490D01*
X013140Y005290D02*
X013310Y005460D01*
Y006490D02*
X013430Y006610D01*
X013690D01*
X013710Y006590D02*
X013930D01*
X013690Y006610D02*
X013710Y006590D01*
X011340Y005820D02*
X011870Y005290D01*
X011120Y006220D02*
X011310D01*
X011090Y006190D02*
X011120Y006220D01*
X011340Y005820D02*
Y006190D01*
X011310Y006220D02*
X011340Y006190D01*
X013930Y006590D02*
Y008600D01*
X013740Y009190D02*
X014150Y008780D01*
X014040Y005370D02*
X014150Y005480D01*
X014150Y008780D01*
X014040Y005770D02*
Y008690D01*
X013540Y009190D02*
X014040Y008690D01*
X013340Y009190D02*
X013930Y008600D01*
X014040Y005770D02*
X014040Y005770D01*
X003990Y007686D02*
X004232Y007929D01*
X003872Y007569D02*
X003990Y007686D01*
X003914Y007718D02*
X004201Y008005D01*
X003914Y007718D02*
Y007718D01*
X003841Y007645D02*
X003914Y007718D01*
X003839Y007749D02*
X004170Y008080D01*
X003839Y007749D02*
Y007749D01*
X003810Y007720D02*
X003839Y007749D01*
X003060Y007720D02*
X003810D01*
X004170Y008080D02*
X004200D01*
X004460D01*
X004201Y008005D02*
X004491D01*
X004232Y007929D02*
X004522D01*
X003122Y007569D02*
X003802D01*
X003872D01*
X003091Y007645D02*
X003815D01*
X003841D01*
X002976Y007234D02*
Y007423D01*
X003122Y007569D01*
X003107Y007103D02*
X003155D01*
X002976Y007234D02*
X003107Y007103D01*
X003101Y006849D02*
X003155D01*
X002895Y007055D02*
X003101Y006849D01*
X002895Y007055D02*
Y007449D01*
X006610Y009470D02*
X006730Y009350D01*
X002895Y007449D02*
X003091Y007645D01*
X003099Y006591D02*
X003156D01*
X002820Y006870D02*
Y007480D01*
Y006870D02*
X003099Y006591D01*
X002820Y007480D02*
X003060Y007720D01*
D56*
X012264Y008888D02*
X012438D01*
X012580Y009030D02*
X012580D01*
X012438Y008888D02*
X012580Y009030D01*
X010596Y004740D02*
X011230D01*
X009235Y006101D02*
X010596Y004740D01*
X014390Y008888D02*
Y009320D01*
X010940Y008320D02*
Y009070D01*
X010740Y009270D02*
Y009590D01*
Y009270D02*
X010940Y009070D01*
Y008320D02*
X011134Y008126D01*
X012866D01*
X010740Y009590D02*
Y009790D01*
X010540Y009590D02*
Y009790D01*
Y008326D02*
Y009590D01*
Y008326D02*
X010740Y008126D01*
X011216Y004977D02*
X011353Y004840D01*
X011216Y004977D02*
Y006096D01*
D57*
X012720Y003380D02*
Y004520D01*
X012940Y004740D02*
X013005D01*
X012720Y004520D02*
X012940Y004740D01*
X012550Y002990D02*
Y003210D01*
X012720Y003380D01*
X003907Y007490D02*
X004100D01*
X004210Y007600D02*
X007060D01*
X004100Y007490D02*
X004210Y007600D01*
X003153Y007357D02*
Y007463D01*
X003179Y007489D01*
X003906D01*
X003907Y007490D01*
X013270Y004980D02*
Y005190D01*
X013400Y005320D02*
Y006450D01*
X013270Y005190D02*
X013400Y005320D01*
X011962Y004950D02*
X011972Y004960D01*
X011853Y004840D02*
X011962Y004950D01*
X006040Y007353D02*
X006390D01*
X006040Y006590D02*
X006387D01*
X006388Y006589D01*
X011730Y004870D02*
X011910Y005050D01*
X012850Y005160D02*
X013026D01*
X011910Y005050D02*
X012740D01*
X012850Y005160D01*
X011972Y004960D02*
X012784D01*
X012878Y005054D01*
X003040Y005873D02*
X003147Y005980D01*
X003040Y004340D02*
X003340Y004040D01*
X003040Y004340D02*
Y005873D01*
X010350Y004040D02*
X010510Y004200D01*
X003340Y004040D02*
X010350D01*
X013400Y006450D02*
X013470Y006520D01*
X013130Y004840D02*
X013270Y004980D01*
X013470Y006520D02*
X013652D01*
X013762Y006410D01*
X013420Y004940D02*
X013505Y004855D01*
X013420Y005110D02*
X013508Y005198D01*
X013420Y004940D02*
Y005110D01*
X013127Y004840D02*
X013130D01*
X013505Y004740D02*
Y004855D01*
X013508Y005198D02*
Y006410D01*
X011730Y004740D02*
Y004870D01*
X013026Y005160D02*
X013134Y005052D01*
X012627Y002912D02*
X012988D01*
X012550Y002989D02*
Y002990D01*
Y002989D02*
X012627Y002912D01*
X013367Y004602D02*
X013505Y004740D01*
X013367Y004520D02*
Y004602D01*
X013110Y004520D02*
Y004610D01*
X013127Y004628D01*
Y004840D01*
X013367Y004088D02*
Y004330D01*
X013621D01*
X013110Y004091D02*
X013113Y004088D01*
X013110Y004091D02*
Y004340D01*
X013621Y004088D02*
Y004330D01*
X012859Y004088D02*
Y004330D01*
X013060D01*
X012986Y002914D02*
X012988Y002912D01*
X013494D02*
Y003110D01*
X013240Y002912D02*
Y003110D01*
X013494Y002912D02*
X013748D01*
X013240D02*
X013494D01*
X012988D02*
X013240D01*
X012859Y003110D02*
Y003481D01*
X012986Y003608D01*
Y004088D01*
X013113Y003110D02*
Y003481D01*
X013240Y003608D01*
Y004088D01*
X013367Y003110D02*
Y003481D01*
X013494Y003608D01*
Y004088D01*
X013748Y003608D02*
Y004088D01*
X013621Y003481D02*
X013748Y003608D01*
X013621Y003110D02*
Y003481D01*
X012986Y002914D02*
Y003110D01*
X013748Y002912D02*
Y003110D01*
X008943Y004184D02*
X009039Y004280D01*
X010067D02*
X010067Y004280D01*
X009039Y004280D02*
X010067D01*
X004950Y005350D02*
Y005741D01*
X005119Y005910D01*
X004351Y004751D02*
X004950Y005350D01*
X004705Y005725D02*
X004730Y005700D01*
X004695Y005725D02*
X004705D01*
X004693Y005726D02*
X004695Y005725D01*
X004543Y005726D02*
X004693D01*
X003560Y006111D02*
X003800D01*
X003560Y005984D02*
X003800D01*
X003560Y005857D02*
X003800D01*
X003560Y005730D02*
X003800D01*
X003560Y005603D02*
X003800D01*
X003560Y005476D02*
X003800D01*
X003560Y005349D02*
X003800D01*
X003558Y005220D02*
X003800D01*
X006220Y004180D02*
X006250D01*
X005010D02*
X006220D01*
X004720D02*
X005010D01*
Y004180D02*
Y004330D01*
Y004180D02*
X005010Y004180D01*
X005370Y006470D02*
X005606D01*
X005370Y006590D02*
X005607D01*
X005610Y006593D01*
X005370Y006470D02*
Y006590D01*
X005606Y006470D02*
X005610Y006466D01*
X006000Y006098D02*
X006395D01*
X006000Y005842D02*
X006393D01*
X006000Y005969D02*
X006393D01*
X004338Y005472D02*
X004543D01*
X004338Y005726D02*
X004543D01*
X004336D02*
X004338D01*
X005120Y005910D02*
X005170D01*
X005119D02*
X005120D01*
X004351Y004750D02*
Y004751D01*
X004543Y005218D02*
Y005218D01*
X003900Y004970D02*
X004295D01*
X004543Y005218D01*
X004338Y005218D02*
X004543D01*
X003700Y004770D02*
X003900Y004970D01*
X003700Y004640D02*
Y004770D01*
Y004640D02*
X003750Y004590D01*
X004067D01*
X004228Y004750D01*
X004338Y005980D02*
X004543D01*
X004336D02*
X004338D01*
X005615Y005338D02*
X005617D01*
X005410D02*
X005615D01*
Y005592D02*
X005617D01*
X005410D02*
X005615D01*
Y005846D02*
X005617D01*
X005410D02*
X005615D01*
Y006100D02*
X005617D01*
X005410D02*
X005615D01*
X005610Y006593D02*
X005612D01*
X005610Y006847D02*
X005612D01*
X005405D02*
X005610D01*
Y007101D02*
X005612D01*
X005405D02*
X005610D01*
X005405Y007355D02*
X005610D01*
X004338Y006466D02*
X004543D01*
X004336D02*
X004338D01*
Y006720D02*
X004543D01*
X004336D02*
X004338D01*
Y006974D02*
X004543D01*
X004336D02*
X004338D01*
X006040Y007351D02*
Y007353D01*
X005403Y007228D02*
X005405Y007230D01*
X005403Y006974D02*
X005405Y006976D01*
Y007101D01*
Y007230D02*
Y007355D01*
X005403Y006720D02*
X005405Y006722D01*
Y006847D01*
X005403Y007228D02*
X005610D01*
X005403Y006974D02*
X005610D01*
X005403Y006720D02*
X005610D01*
X006392Y007355D02*
X006587D01*
X006392Y007228D02*
X006587D01*
X006392Y006974D02*
X006587D01*
X006392Y006847D02*
X006587D01*
X006392Y006593D02*
X006587D01*
X006392Y006466D02*
X006587D01*
X006392Y007101D02*
X006587D01*
X006392Y006720D02*
X006587D01*
X006040Y007224D02*
X006388D01*
X006040Y006970D02*
X006388D01*
X006040Y006843D02*
X006388D01*
X006040Y006462D02*
X006388D01*
X006040Y007097D02*
X006388D01*
X006040Y006716D02*
X006388D01*
X005408Y005211D02*
X005410Y005213D01*
Y005338D01*
X005408Y005211D02*
X005615D01*
X005408Y005465D02*
X005410Y005467D01*
Y005592D01*
X005408Y005465D02*
X005615D01*
X005408Y005719D02*
X005410Y005721D01*
Y005846D01*
X005408Y005719D02*
X005615D01*
X005408Y005973D02*
X005410Y005975D01*
Y006100D01*
X005408Y005973D02*
X005615D01*
X004338Y005345D02*
X004545D01*
X004543Y005218D02*
Y005343D01*
X004545Y005345D01*
X004338Y005599D02*
X004545D01*
X004543Y005472D02*
Y005597D01*
X004545Y005599D01*
X004338Y005853D02*
X004545D01*
X004543Y005726D02*
Y005851D01*
X004545Y005853D01*
X004338Y006107D02*
X004545D01*
X004543Y005980D02*
Y006105D01*
X004545Y006107D01*
X004338Y006593D02*
X004545D01*
X004543Y006466D02*
Y006591D01*
X004545Y006593D01*
X004338Y006847D02*
X004545D01*
X004543Y006720D02*
Y006845D01*
X004545Y006847D01*
X004338Y007101D02*
X004545D01*
X004543Y006974D02*
Y007099D01*
X004545Y007101D01*
X004338Y007355D02*
X004545D01*
X004336Y007228D02*
X004543D01*
Y007353D01*
X004545Y007355D01*
X003360Y005218D02*
X003556D01*
X003360Y005345D02*
X003556D01*
X003360Y005472D02*
X003556D01*
X003360Y005599D02*
X003556D01*
X003360Y005726D02*
X003556D01*
X003360Y005853D02*
X003556D01*
X003360Y005980D02*
X003556D01*
X003360Y006107D02*
X003556D01*
X006397Y006100D02*
X006593D01*
X006397Y005973D02*
X006593D01*
X006397Y005846D02*
X006593D01*
X006397Y005719D02*
X006593D01*
X006397Y005592D02*
X006593D01*
X006397Y005465D02*
X006593D01*
X006397Y005338D02*
X006593D01*
X006397Y005211D02*
X006593D01*
X006000Y005715D02*
X006393D01*
X006000Y005588D02*
X006393D01*
X006000Y005461D02*
X006393D01*
X006000Y005334D02*
X006393D01*
X006000Y005207D02*
X006393D01*
X003560Y007359D02*
X003800D01*
X003560Y007232D02*
X003800D01*
X003560Y007105D02*
X003800D01*
X003560Y006978D02*
X003800D01*
X003560Y006851D02*
X003800D01*
X003560Y006724D02*
X003800D01*
X003560Y006597D02*
X003800D01*
X003558Y006468D02*
X003800D01*
X003360Y007355D02*
X003556D01*
X003360Y007228D02*
X003556D01*
X003360Y007101D02*
X003556D01*
X003360Y006974D02*
X003556D01*
X003360Y006847D02*
X003556D01*
X003360Y006720D02*
X003556D01*
X003360Y006593D02*
X003556D01*
X003360Y006466D02*
X003556D01*
X008846Y004280D02*
X008943Y004184D01*
X008543Y004280D02*
X008846D01*
X007515D02*
X008543D01*
X007419Y004184D02*
X007515Y004280D01*
X003600Y004180D02*
X004720D01*
X004727Y004187D01*
Y004280D01*
D60*
X012859Y004088D02*
D03*
X012986D02*
D03*
X013113D02*
D03*
X013240D02*
D03*
X013367D02*
D03*
X013494D02*
D03*
X013621D02*
D03*
X013748D02*
D03*
X012859Y003110D02*
D03*
X012986D02*
D03*
X013113D02*
D03*
X013240D02*
D03*
X013367D02*
D03*
X013494D02*
D03*
X013621D02*
D03*
D61*
X013748D02*
D03*
D65*
X009410Y008680D02*
D03*
Y008490D02*
D03*
X008560Y008680D02*
D03*
Y008490D02*
D03*
X013367Y004520D02*
D03*
Y004330D02*
D03*
X013110Y004520D02*
D03*
Y004330D02*
D03*
D66*
X004338Y007355D02*
D03*
Y007228D02*
D03*
Y007101D02*
D03*
Y006974D02*
D03*
Y006847D02*
D03*
Y006720D02*
D03*
Y006593D02*
D03*
Y006466D02*
D03*
X003360Y007355D02*
D03*
Y007228D02*
D03*
Y007101D02*
D03*
Y006974D02*
D03*
Y006847D02*
D03*
Y006720D02*
D03*
Y006593D02*
D03*
X004338Y005980D02*
D03*
Y005853D02*
D03*
Y005726D02*
D03*
Y005599D02*
D03*
Y005472D02*
D03*
Y005345D02*
D03*
Y005218D02*
D03*
X003360Y006107D02*
D03*
Y005980D02*
D03*
Y005853D02*
D03*
Y005726D02*
D03*
Y005599D02*
D03*
Y005472D02*
D03*
Y005345D02*
D03*
Y005218D02*
D03*
X006593Y005973D02*
D03*
Y005846D02*
D03*
Y005719D02*
D03*
Y005592D02*
D03*
Y005465D02*
D03*
Y005338D02*
D03*
Y005211D02*
D03*
X005615Y006100D02*
D03*
Y005973D02*
D03*
Y005846D02*
D03*
Y005719D02*
D03*
Y005592D02*
D03*
Y005465D02*
D03*
Y005338D02*
D03*
Y005211D02*
D03*
X006587Y007228D02*
D03*
Y007101D02*
D03*
Y006974D02*
D03*
Y006847D02*
D03*
Y006720D02*
D03*
Y006593D02*
D03*
Y006466D02*
D03*
X005610Y007355D02*
D03*
Y007228D02*
D03*
Y007101D02*
D03*
Y006974D02*
D03*
Y006847D02*
D03*
Y006720D02*
D03*
Y006593D02*
D03*
Y006466D02*
D03*
D67*
X003360D02*
D03*
X004338Y006107D02*
D03*
X006593Y006100D02*
D03*
X006587Y007355D02*
D03*
D83*
X011925Y009200D02*
X012950D01*
X011738Y009388D02*
X011925Y009200D01*
X011738Y009388D02*
X011738D01*
X012210Y009320D02*
X012510D01*
X012070Y009260D02*
X012975D01*
X012140Y009390D02*
X012210Y009320D01*
X011940Y009390D02*
X012070Y009260D01*
X011940Y009390D02*
X011940D01*
X012747Y009140D02*
X012923D01*
X013320Y007323D02*
Y008743D01*
X012923Y009140D02*
X013320Y008743D01*
X012730Y009122D02*
X012747Y009140D01*
X012570Y009320D02*
X013000D01*
X012569Y009320D02*
X012570Y009320D01*
X012511Y009320D02*
X012569D01*
X012510Y009320D02*
X012511Y009320D01*
X008780Y006670D02*
X010350D01*
X010380Y006700D02*
X010400D01*
X010350Y006670D02*
X010380Y006700D01*
X010400D02*
X010401Y006700D01*
X010459D01*
X010460Y006700D01*
X012697D01*
X008140Y007310D02*
X008780Y006670D01*
X008140Y007310D02*
Y008200D01*
X008080Y008260D02*
X008140Y008200D01*
X010530Y005390D02*
Y006160D01*
X010940Y006570D02*
X012730Y006570D01*
X010530Y006160D02*
X010940Y006570D01*
X012697Y006700D02*
X013320Y007323D01*
X007998Y008260D02*
X008080D01*
X010430Y006630D02*
X012705D01*
X013380Y007305D01*
X012730Y006570D02*
X013440Y007280D01*
X013380Y007305D02*
Y008770D01*
X013440Y007280D02*
Y008795D01*
X012975Y009260D02*
X013440Y008795D01*
X012950Y009200D02*
X013380Y008770D01*
X013000Y009320D02*
X013500Y008820D01*
Y007260D02*
Y008820D01*
X012512Y006272D02*
X013500Y007260D01*
X012512Y005382D02*
Y006272D01*
D85*
X012540Y009590D02*
D03*
X012340D02*
D03*
X012740Y009790D02*
D03*
Y009590D02*
D03*
X012540Y009790D02*
D03*
X012340D02*
D03*
X012140D02*
D03*
Y009590D02*
D03*
X011940Y009790D02*
D03*
X012940D02*
D03*
X013140Y009590D02*
D03*
Y009790D02*
D03*
X012940Y009590D02*
D03*
X013340Y009790D02*
D03*
X013540Y009590D02*
D03*
Y009790D02*
D03*
X013340Y009590D02*
D03*
X013740Y009790D02*
D03*
Y009590D02*
D03*
X010540D02*
D03*
X010340D02*
D03*
X010740Y009790D02*
D03*
Y009590D02*
D03*
X010540Y009790D02*
D03*
X010340D02*
D03*
X010140D02*
D03*
Y009590D02*
D03*
X009940Y009790D02*
D03*
X010940D02*
D03*
X011140Y009590D02*
D03*
Y009790D02*
D03*
X010940Y009590D02*
D03*
X011340Y009790D02*
D03*
X011540Y009590D02*
D03*
Y009790D02*
D03*
X011340Y009590D02*
D03*
X011740Y009790D02*
D03*
Y009590D02*
D03*
X007140D02*
D03*
X006940D02*
D03*
X007340Y009790D02*
D03*
Y009590D02*
D03*
X007140Y009790D02*
D03*
X006940D02*
D03*
X006740D02*
D03*
Y009590D02*
D03*
X006540Y009790D02*
D03*
X007540D02*
D03*
X007740Y009590D02*
D03*
Y009790D02*
D03*
X007540Y009590D02*
D03*
X007940Y009790D02*
D03*
X008140Y009590D02*
D03*
Y009790D02*
D03*
X007940Y009590D02*
D03*
X008340Y009790D02*
D03*
Y009590D02*
D03*
X005140D02*
D03*
X004940D02*
D03*
X005340Y009790D02*
D03*
Y009590D02*
D03*
X005140Y009790D02*
D03*
X004940D02*
D03*
X004740D02*
D03*
Y009590D02*
D03*
X004540Y009790D02*
D03*
X005540D02*
D03*
X005740Y009590D02*
D03*
Y009790D02*
D03*
X005540Y009590D02*
D03*
X005940Y009790D02*
D03*
X006140Y009590D02*
D03*
Y009790D02*
D03*
X005940Y009590D02*
D03*
X006340Y009790D02*
D03*
Y009590D02*
D03*
D86*
X011940D02*
D03*
X009940D02*
D03*
X006540D02*
D03*
X004540D02*
D03*
D87*
X012549Y003615D02*
D03*
X011025Y003425D02*
D03*
X010264Y003615D02*
D03*
X008740Y003425D02*
D03*
Y003615D02*
D03*
X007216Y003425D02*
D03*
X014074Y003615D02*
D03*
X012550Y003425D02*
D03*
X004924Y003615D02*
D03*
X003400Y003425D02*
D03*
X006444Y003615D02*
D03*
X004920Y003425D02*
D03*
D88*
X010740Y008888D02*
D03*
X012866D02*
D03*
D89*
X010740Y008634D02*
D03*
Y008126D02*
D03*
Y007110D02*
D03*
X012264D02*
D03*
Y007872D02*
D03*
Y008888D02*
D03*
X012866Y008634D02*
D03*
Y008126D02*
D03*
Y007110D02*
D03*
X014390D02*
D03*
Y007872D02*
D03*
Y008888D02*
D03*
D90*
X010637Y004327D02*
D03*
X010510Y004200D02*
D03*
X014350Y004300D02*
D03*
X014223Y004173D02*
D03*
X014353Y004957D02*
D03*
X014226Y004830D02*
D03*
X007145Y009340D02*
D03*
X008878Y009222D02*
D03*
X009407Y009610D02*
D03*
X012580Y009030D02*
D03*
X014390Y009320D02*
D03*
X006720Y008980D02*
D03*
X007410Y008975D02*
D03*
X009235Y007341D02*
D03*
X009940Y007345D02*
D03*
X009235Y006101D02*
D03*
X009940Y006105D02*
D03*
X011920Y006100D02*
D03*
X011216Y006096D02*
D03*
X008420Y007600D02*
D03*
X007060D02*
D03*
D91*
X010764Y004200D02*
D03*
X014477Y004173D02*
D03*
X014480Y004830D02*
D03*
D92*
X003720Y007961D02*
D03*
Y008850D02*
D03*
X003120Y007960D02*
D03*
Y008849D02*
D03*
D93*
X002941Y009693D02*
D03*
Y006292D02*
D03*
X006840Y002891D02*
D03*
X010640D02*
D03*
X014541Y006292D02*
D03*
Y009693D02*
D03*
D94*
X002941Y002891D02*
D03*
X014541D02*
D03*
D95*
X014402Y003612D02*
D03*
X003075Y003820D02*
D03*
X009585Y007882D02*
D03*
D96*
X013340Y009390D02*
D03*
X013540D02*
D03*
X013740D02*
D03*
X011738Y009388D02*
D03*
X012340Y009393D02*
D03*
X012140Y009390D02*
D03*
X011940D02*
D03*
X012730Y009122D02*
D03*
X005740Y009350D02*
D03*
X005938D02*
D03*
X006140D02*
D03*
X006340D02*
D03*
X006540D02*
D03*
X008643Y009820D02*
D03*
X009788Y009975D02*
D03*
X009503Y009830D02*
D03*
X009645Y009275D02*
D03*
X010150Y008690D02*
D03*
X009590Y008450D02*
D03*
Y008710D02*
D03*
Y008200D02*
D03*
Y008960D02*
D03*
X008560Y009090D02*
D03*
X007730Y008960D02*
D03*
X007930Y008710D02*
D03*
X008130Y008453D02*
D03*
X008330Y008200D02*
D03*
X011540Y009390D02*
D03*
X011340D02*
D03*
X011140D02*
D03*
X010940D02*
D03*
X009350Y007240D02*
D03*
X009833Y007452D02*
D03*
X009836Y007250D02*
D03*
X009347Y007452D02*
D03*
X010540Y009390D02*
D03*
X010740D02*
D03*
X013930Y006590D02*
D03*
X010450Y005050D02*
D03*
X007090Y005070D02*
D03*
X006040Y006590D02*
D03*
X014040Y005370D02*
D03*
X014050Y005770D02*
D03*
X011353Y004840D02*
D03*
X011230Y004740D02*
D03*
X011480D02*
D03*
X011603Y004840D02*
D03*
X011730Y004740D02*
D03*
X012103Y004840D02*
D03*
X012230Y004740D02*
D03*
X011853Y004840D02*
D03*
X011980Y004740D02*
D03*
X012353Y004840D02*
D03*
X011890Y006460D02*
D03*
X010740Y006240D02*
D03*
X006820Y008880D02*
D03*
X006817Y009082D02*
D03*
X007998Y008072D02*
D03*
X007998Y008260D02*
D03*
X006332Y008388D02*
D03*
X010842Y005513D02*
D03*
X008862Y006758D02*
D03*
X008860Y005520D02*
D03*
X010430Y006630D02*
D03*
X012512Y005382D02*
D03*
X010530Y005390D02*
D03*
X014460Y005470D02*
D03*
Y005870D02*
D03*
X010310Y006308D02*
D03*
X012512Y005194D02*
D03*
X010530Y005202D02*
D03*
X010760Y004870D02*
D03*
X010790Y003580D02*
D03*
X012878Y005054D02*
D03*
X013134Y005052D02*
D03*
X013508D02*
D03*
X013762D02*
D03*
Y006410D02*
D03*
X013508D02*
D03*
X013134D02*
D03*
X012878Y006408D02*
D03*
X012550Y002990D02*
D03*
X013877Y004840D02*
D03*
X013627D02*
D03*
X013377D02*
D03*
X013127D02*
D03*
X012755Y004740D02*
D03*
X013005D02*
D03*
X013255D02*
D03*
X013505D02*
D03*
X009820Y004160D02*
D03*
X009200D02*
D03*
X008290Y004150D02*
D03*
X007417Y004699D02*
D03*
X007310Y005570D02*
D03*
Y005460D02*
D03*
Y005350D02*
D03*
X008470D02*
D03*
Y005460D02*
D03*
Y005570D02*
D03*
X006840Y003640D02*
D03*
Y003340D02*
D03*
X007317Y005088D02*
D03*
X007690Y004930D02*
D03*
X009290Y004830D02*
D03*
X007830Y004880D02*
D03*
Y004750D02*
D03*
X007690D02*
D03*
X004730Y005810D02*
D03*
X008040Y004710D02*
D03*
X005590Y008700D02*
D03*
X004260Y007800D02*
D03*
X004060Y007610D02*
D03*
X003800Y006468D02*
D03*
Y005220D02*
D03*
X003558D02*
D03*
X005770Y008700D02*
D03*
X006250Y004180D02*
D03*
X005010Y004330D02*
D03*
X006930Y006360D02*
D03*
X006840Y006210D02*
D03*
X005370Y006590D02*
D03*
Y006470D02*
D03*
X006000Y005969D02*
D03*
Y006100D02*
D03*
X005310Y007450D02*
D03*
X006802Y006099D02*
D03*
X004730Y005700D02*
D03*
X004160Y007700D02*
D03*
X006730Y009350D02*
D03*
X005680Y008700D02*
D03*
X006793Y007231D02*
D03*
Y007104D02*
D03*
Y006723D02*
D03*
Y006469D02*
D03*
X005170Y005910D02*
D03*
X005170Y005500D02*
D03*
X005170Y006710D02*
D03*
X006793Y007358D02*
D03*
Y006977D02*
D03*
Y006850D02*
D03*
Y006596D02*
D03*
X006390Y007226D02*
D03*
Y006972D02*
D03*
Y006845D02*
D03*
Y006591D02*
D03*
X006040Y007224D02*
D03*
Y006970D02*
D03*
Y006843D02*
D03*
Y006462D02*
D03*
X005403Y007228D02*
D03*
Y006974D02*
D03*
X005405Y006847D02*
D03*
X006390Y007353D02*
D03*
Y007099D02*
D03*
Y006718D02*
D03*
Y006464D02*
D03*
X006040Y007351D02*
D03*
Y007097D02*
D03*
Y006716D02*
D03*
X005405Y007101D02*
D03*
Y007355D02*
D03*
X005403Y006720D02*
D03*
X005170Y005700D02*
D03*
X005170Y006110D02*
D03*
Y006310D02*
D03*
Y006510D02*
D03*
X005170Y006910D02*
D03*
Y007110D02*
D03*
X005170Y007310D02*
D03*
X004760Y006410D02*
D03*
X004760Y006810D02*
D03*
Y007210D02*
D03*
X006804Y005972D02*
D03*
Y005718D02*
D03*
X006802Y005845D02*
D03*
X006804Y005464D02*
D03*
X006802Y005591D02*
D03*
X006804Y005210D02*
D03*
X006802Y005337D02*
D03*
X003145Y005345D02*
D03*
X003147Y005218D02*
D03*
X003145Y005599D02*
D03*
X003147Y005472D02*
D03*
X003145Y005853D02*
D03*
X003147Y005726D02*
D03*
Y005980D02*
D03*
X005410Y005338D02*
D03*
X005408Y005211D02*
D03*
X005410Y005592D02*
D03*
X005408Y005465D02*
D03*
X005410Y005846D02*
D03*
X005408Y005719D02*
D03*
X005410Y006100D02*
D03*
X005408Y005973D02*
D03*
X004545Y005345D02*
D03*
X004543Y005218D02*
D03*
X004545Y005599D02*
D03*
X004543Y005472D02*
D03*
X004545Y005853D02*
D03*
X004543Y005726D02*
D03*
X004545Y006107D02*
D03*
X004543Y005980D02*
D03*
X004545Y006593D02*
D03*
X004543Y006466D02*
D03*
X004545Y006847D02*
D03*
X004543Y006720D02*
D03*
X004545Y007101D02*
D03*
X004543Y006974D02*
D03*
X004545Y007355D02*
D03*
X004543Y007228D02*
D03*
X003156Y006591D02*
D03*
X003155Y006722D02*
D03*
Y006849D02*
D03*
Y006976D02*
D03*
Y007103D02*
D03*
Y007230D02*
D03*
X003153Y007357D02*
D03*
X003800Y005349D02*
D03*
Y005476D02*
D03*
Y005603D02*
D03*
Y005730D02*
D03*
Y005857D02*
D03*
Y005984D02*
D03*
Y006111D02*
D03*
X003558Y005347D02*
D03*
Y005474D02*
D03*
Y005601D02*
D03*
Y005728D02*
D03*
Y005855D02*
D03*
Y005982D02*
D03*
Y006109D02*
D03*
X006000Y005842D02*
D03*
Y005715D02*
D03*
Y005588D02*
D03*
Y005461D02*
D03*
Y005334D02*
D03*
Y005207D02*
D03*
X006395Y006098D02*
D03*
Y005971D02*
D03*
Y005844D02*
D03*
Y005717D02*
D03*
Y005590D02*
D03*
Y005463D02*
D03*
Y005336D02*
D03*
Y005209D02*
D03*
X003558Y007357D02*
D03*
Y007230D02*
D03*
Y007103D02*
D03*
Y006976D02*
D03*
Y006849D02*
D03*
Y006722D02*
D03*
Y006595D02*
D03*
Y006468D02*
D03*
X003800Y007359D02*
D03*
Y007232D02*
D03*
Y007105D02*
D03*
Y006978D02*
D03*
Y006851D02*
D03*
Y006724D02*
D03*
Y006597D02*
D03*
X008941Y004699D02*
D03*
X010067Y004699D02*
D03*
X008543D02*
D03*
X009568Y004750D02*
D03*
X009441D02*
D03*
X009691D02*
D03*
X005497D02*
D03*
X005747D02*
D03*
X005621D02*
D03*
X005871D02*
D03*
X004351D02*
D03*
X004101D02*
D03*
X010067Y004280D02*
D03*
X008543D02*
D03*
X008943Y004184D02*
D03*
X007419D02*
D03*
X004228Y004750D02*
D03*
X003978D02*
D03*
X007670Y004153D02*
D03*
X004478Y004700D02*
D03*
X005997D02*
D03*
X005371Y004699D02*
D03*
X003851D02*
D03*
X003600Y004180D02*
D03*
X004727Y004280D02*
D03*
M02*
