G04*
G04 #@! TF.GenerationSoftware,Altium Limited,Altium Designer,20.1.11 (218)*
G04*
G04 Layer_Color=3707366*
%FSAX42Y42*%
%MOMM*%
G71*
G04*
G04 #@! TF.SameCoordinates,D071A55E-5AEF-410E-9220-4307AC36CE94*
G04*
G04*
G04 #@! TF.FilePolarity,Positive*
G04*
G01*
G75*
%ADD10C,0.20*%
%ADD11C,0.25*%
%ADD15C,0.03*%
%ADD16C,0.15*%
%ADD18C,0.16*%
G36*
X005901Y003170D02*
X005904Y003170D01*
X005907Y003169D01*
X005909Y003169D01*
X005912Y003168D01*
X005914Y003167D01*
X005916Y003166D01*
X005918Y003166D01*
X005920Y003165D01*
X005922Y003164D01*
X005923Y003163D01*
X005924Y003163D01*
X005925Y003162D01*
X005926Y003161D01*
X005926Y003161D01*
X005926Y003161D01*
X005928Y003159D01*
X005930Y003157D01*
X005932Y003155D01*
X005933Y003153D01*
X005935Y003150D01*
X005936Y003148D01*
X005937Y003146D01*
X005937Y003143D01*
X005938Y003141D01*
X005939Y003139D01*
X005939Y003137D01*
X005939Y003135D01*
X005940Y003134D01*
X005940Y003133D01*
X005940Y003133D01*
Y003133D01*
X005940Y003132D01*
Y003132D01*
Y003132D01*
X005916Y003130D01*
X005915Y003132D01*
X005915Y003133D01*
X005915Y003135D01*
X005914Y003137D01*
X005914Y003138D01*
X005914Y003139D01*
X005913Y003140D01*
X005913Y003141D01*
X005912Y003142D01*
X005912Y003143D01*
X005912Y003144D01*
X005911Y003144D01*
X005911Y003145D01*
X005911Y003145D01*
X005910Y003145D01*
X005910Y003145D01*
X005909Y003146D01*
X005909Y003147D01*
X005908Y003147D01*
X005907Y003148D01*
X005904Y003149D01*
X005903Y003149D01*
X005901Y003149D01*
X005900Y003150D01*
X005899D01*
X005899Y003150D01*
X005898D01*
X005897Y003150D01*
X005895Y003149D01*
X005893Y003149D01*
X005891Y003148D01*
X005889Y003147D01*
X005888Y003147D01*
X005888Y003147D01*
X005887Y003146D01*
X005887Y003146D01*
X005886Y003146D01*
X005886Y003145D01*
X005886Y003145D01*
X005886Y003145D01*
X005885Y003144D01*
X005884Y003143D01*
X005883Y003141D01*
X005883Y003139D01*
X005882Y003137D01*
X005882Y003135D01*
X005882Y003135D01*
Y003134D01*
X005881Y003133D01*
Y003133D01*
Y003133D01*
Y003133D01*
X005882Y003131D01*
X005882Y003130D01*
X005882Y003127D01*
X005883Y003125D01*
X005884Y003122D01*
X005885Y003121D01*
X005885Y003120D01*
X005885Y003120D01*
X005886Y003119D01*
X005886Y003118D01*
X005886Y003118D01*
X005886Y003118D01*
X005887Y003118D01*
X005887Y003116D01*
X005888Y003115D01*
X005890Y003114D01*
X005891Y003112D01*
X005893Y003110D01*
X005895Y003109D01*
X005898Y003105D01*
X005900Y003103D01*
X005901Y003102D01*
X005903Y003100D01*
X005904Y003099D01*
X005905Y003098D01*
X005906Y003097D01*
X005907Y003097D01*
X005907Y003097D01*
X005907Y003097D01*
X005911Y003093D01*
X005914Y003090D01*
X005917Y003087D01*
X005920Y003084D01*
X005922Y003081D01*
X005925Y003079D01*
X005927Y003076D01*
X005928Y003074D01*
X005930Y003072D01*
X005931Y003071D01*
X005932Y003069D01*
X005933Y003068D01*
X005934Y003067D01*
X005934Y003067D01*
X005934Y003066D01*
X005935Y003066D01*
X005936Y003064D01*
X005937Y003062D01*
X005938Y003059D01*
X005939Y003057D01*
X005940Y003055D01*
X005940Y003053D01*
X005941Y003051D01*
X005941Y003049D01*
X005942Y003048D01*
X005942Y003046D01*
X005942Y003045D01*
X005942Y003044D01*
X005943Y003043D01*
X005943Y003042D01*
X005943Y003042D01*
Y003042D01*
X005857D01*
Y003064D01*
X005906D01*
X005905Y003066D01*
X005904Y003067D01*
X005903Y003068D01*
X005902Y003069D01*
X005902Y003070D01*
X005901Y003071D01*
X005901Y003071D01*
X005901Y003071D01*
X005900Y003072D01*
X005899Y003073D01*
X005898Y003074D01*
X005897Y003075D01*
X005895Y003077D01*
X005892Y003079D01*
X005891Y003081D01*
X005890Y003082D01*
X005889Y003083D01*
X005888Y003083D01*
X005887Y003084D01*
X005886Y003085D01*
X005886Y003085D01*
X005886Y003085D01*
X005884Y003087D01*
X005882Y003089D01*
X005880Y003091D01*
X005878Y003092D01*
X005877Y003094D01*
X005876Y003095D01*
X005875Y003096D01*
X005874Y003097D01*
X005873Y003098D01*
X005872Y003099D01*
X005871Y003100D01*
X005871Y003101D01*
X005870Y003101D01*
X005870Y003101D01*
X005870Y003101D01*
X005870Y003102D01*
X005867Y003105D01*
X005865Y003108D01*
X005864Y003110D01*
X005863Y003112D01*
X005862Y003113D01*
X005862Y003114D01*
X005861Y003115D01*
X005861Y003116D01*
X005861Y003116D01*
X005860Y003117D01*
X005860Y003117D01*
X005860Y003118D01*
Y003118D01*
X005859Y003121D01*
X005858Y003124D01*
X005858Y003127D01*
X005857Y003129D01*
X005857Y003130D01*
X005857Y003131D01*
X005857Y003132D01*
X005857Y003133D01*
Y003133D01*
Y003134D01*
Y003134D01*
Y003134D01*
X005857Y003137D01*
X005857Y003140D01*
X005858Y003142D01*
X005859Y003145D01*
X005859Y003147D01*
X005860Y003149D01*
X005861Y003151D01*
X005862Y003153D01*
X005863Y003154D01*
X005864Y003156D01*
X005865Y003157D01*
X005866Y003158D01*
X005867Y003159D01*
X005867Y003159D01*
X005868Y003160D01*
X005868Y003160D01*
X005870Y003162D01*
X005872Y003163D01*
X005875Y003164D01*
X005877Y003166D01*
X005879Y003167D01*
X005882Y003168D01*
X005884Y003168D01*
X005887Y003169D01*
X005889Y003169D01*
X005891Y003169D01*
X005893Y003170D01*
X005894Y003170D01*
X005896Y003170D01*
X005897Y003170D01*
X005898D01*
X005901Y003170D01*
D02*
G37*
G36*
X005702Y003170D02*
X005705Y003170D01*
X005708Y003169D01*
X005711Y003169D01*
X005713Y003168D01*
X005715Y003167D01*
X005718Y003166D01*
X005720Y003166D01*
X005721Y003165D01*
X005723Y003164D01*
X005724Y003163D01*
X005726Y003163D01*
X005726Y003162D01*
X005727Y003161D01*
X005728Y003161D01*
X005728Y003161D01*
X005730Y003159D01*
X005731Y003157D01*
X005733Y003155D01*
X005735Y003153D01*
X005736Y003150D01*
X005737Y003148D01*
X005738Y003146D01*
X005739Y003143D01*
X005739Y003141D01*
X005740Y003139D01*
X005740Y003137D01*
X005741Y003135D01*
X005741Y003134D01*
X005741Y003133D01*
X005741Y003133D01*
Y003133D01*
X005741Y003132D01*
Y003132D01*
Y003132D01*
X005717Y003130D01*
X005717Y003132D01*
X005716Y003133D01*
X005716Y003135D01*
X005716Y003137D01*
X005715Y003138D01*
X005715Y003139D01*
X005714Y003140D01*
X005714Y003141D01*
X005713Y003142D01*
X005713Y003143D01*
X005713Y003144D01*
X005712Y003144D01*
X005712Y003145D01*
X005712Y003145D01*
X005712Y003145D01*
X005712Y003145D01*
X005711Y003146D01*
X005710Y003147D01*
X005709Y003147D01*
X005708Y003148D01*
X005706Y003149D01*
X005704Y003149D01*
X005702Y003149D01*
X005701Y003150D01*
X005701D01*
X005700Y003150D01*
X005699D01*
X005698Y003150D01*
X005697Y003149D01*
X005694Y003149D01*
X005692Y003148D01*
X005690Y003147D01*
X005690Y003147D01*
X005689Y003147D01*
X005688Y003146D01*
X005688Y003146D01*
X005688Y003146D01*
X005687Y003145D01*
X005687Y003145D01*
X005687Y003145D01*
X005686Y003144D01*
X005686Y003143D01*
X005685Y003141D01*
X005684Y003139D01*
X005683Y003137D01*
X005683Y003135D01*
X005683Y003135D01*
Y003134D01*
X005683Y003133D01*
Y003133D01*
Y003133D01*
Y003133D01*
X005683Y003131D01*
X005683Y003130D01*
X005684Y003127D01*
X005684Y003125D01*
X005685Y003122D01*
X005686Y003121D01*
X005686Y003120D01*
X005687Y003120D01*
X005687Y003119D01*
X005687Y003118D01*
X005688Y003118D01*
X005688Y003118D01*
X005688Y003118D01*
X005689Y003116D01*
X005690Y003115D01*
X005691Y003114D01*
X005693Y003112D01*
X005694Y003110D01*
X005696Y003109D01*
X005699Y003105D01*
X005701Y003103D01*
X005703Y003102D01*
X005704Y003100D01*
X005705Y003099D01*
X005707Y003098D01*
X005707Y003097D01*
X005708Y003097D01*
X005708Y003097D01*
X005708Y003097D01*
X005712Y003093D01*
X005715Y003090D01*
X005718Y003087D01*
X005721Y003084D01*
X005724Y003081D01*
X005726Y003079D01*
X005728Y003076D01*
X005730Y003074D01*
X005731Y003072D01*
X005732Y003071D01*
X005734Y003069D01*
X005734Y003068D01*
X005735Y003067D01*
X005735Y003067D01*
X005736Y003066D01*
X005736Y003066D01*
X005737Y003064D01*
X005738Y003062D01*
X005739Y003059D01*
X005740Y003057D01*
X005741Y003055D01*
X005741Y003053D01*
X005742Y003051D01*
X005742Y003049D01*
X005743Y003048D01*
X005743Y003046D01*
X005744Y003045D01*
X005744Y003044D01*
X005744Y003043D01*
X005744Y003042D01*
X005744Y003042D01*
Y003042D01*
X005658Y003042D01*
Y003064D01*
X005707Y003064D01*
X005706Y003066D01*
X005705Y003067D01*
X005704Y003068D01*
X005704Y003069D01*
X005703Y003070D01*
X005702Y003071D01*
X005702Y003071D01*
X005702Y003071D01*
X005701Y003072D01*
X005700Y003073D01*
X005699Y003074D01*
X005698Y003075D01*
X005696Y003077D01*
X005693Y003079D01*
X005692Y003081D01*
X005691Y003082D01*
X005690Y003083D01*
X005689Y003083D01*
X005688Y003084D01*
X005688Y003085D01*
X005687Y003085D01*
X005687Y003085D01*
X005685Y003087D01*
X005683Y003089D01*
X005681Y003091D01*
X005680Y003092D01*
X005678Y003094D01*
X005677Y003095D01*
X005676Y003096D01*
X005675Y003097D01*
X005674Y003098D01*
X005673Y003099D01*
X005672Y003100D01*
X005672Y003101D01*
X005671Y003101D01*
X005671Y003101D01*
X005671Y003101D01*
X005671Y003102D01*
X005669Y003105D01*
X005667Y003108D01*
X005665Y003110D01*
X005664Y003112D01*
X005664Y003113D01*
X005663Y003114D01*
X005663Y003115D01*
X005662Y003116D01*
X005662Y003116D01*
X005662Y003117D01*
X005661Y003117D01*
X005661Y003118D01*
Y003118D01*
X005660Y003121D01*
X005659Y003124D01*
X005659Y003127D01*
X005658Y003129D01*
X005658Y003130D01*
X005658Y003131D01*
X005658Y003132D01*
X005658Y003133D01*
Y003133D01*
Y003134D01*
Y003134D01*
Y003134D01*
X005658Y003137D01*
X005659Y003140D01*
X005659Y003142D01*
X005660Y003145D01*
X005661Y003147D01*
X005662Y003149D01*
X005663Y003151D01*
X005664Y003153D01*
X005665Y003154D01*
X005666Y003156D01*
X005666Y003157D01*
X005667Y003158D01*
X005668Y003159D01*
X005669Y003159D01*
X005669Y003160D01*
X005669Y003160D01*
X005671Y003162D01*
X005673Y003163D01*
X005676Y003164D01*
X005678Y003166D01*
X005681Y003167D01*
X005683Y003168D01*
X005686Y003168D01*
X005688Y003169D01*
X005690Y003169D01*
X005692Y003169D01*
X005694Y003170D01*
X005696Y003170D01*
X005697Y003170D01*
X005698Y003170D01*
X005699D01*
X005702Y003170D01*
D02*
G37*
G36*
X006395Y003168D02*
X006396Y003166D01*
X006397Y003164D01*
X006398Y003162D01*
X006399Y003160D01*
X006401Y003158D01*
X006402Y003157D01*
X006403Y003155D01*
X006404Y003154D01*
X006405Y003153D01*
X006406Y003152D01*
X006407Y003151D01*
X006408Y003150D01*
X006409Y003150D01*
X006409Y003150D01*
X006409Y003149D01*
X006411Y003148D01*
X006413Y003146D01*
X006415Y003145D01*
X006417Y003144D01*
X006419Y003143D01*
X006421Y003142D01*
X006422Y003141D01*
X006424Y003140D01*
X006425Y003140D01*
X006426Y003139D01*
X006427Y003139D01*
X006428Y003138D01*
X006429Y003138D01*
X006430Y003138D01*
X006430Y003138D01*
X006430D01*
Y003115D01*
X006427Y003117D01*
X006423Y003118D01*
X006420Y003119D01*
X006417Y003121D01*
X006415Y003122D01*
X006412Y003124D01*
X006410Y003125D01*
X006407Y003127D01*
X006405Y003128D01*
X006404Y003130D01*
X006402Y003131D01*
X006401Y003132D01*
X006400Y003133D01*
X006399Y003133D01*
X006398Y003134D01*
X006398Y003134D01*
Y003042D01*
X006374D01*
Y003170D01*
X006394D01*
X006395Y003168D01*
D02*
G37*
G36*
X006295D02*
X006296Y003166D01*
X006297Y003164D01*
X006299Y003162D01*
X006300Y003160D01*
X006301Y003158D01*
X006302Y003157D01*
X006304Y003155D01*
X006305Y003154D01*
X006306Y003153D01*
X006307Y003152D01*
X006308Y003151D01*
X006309Y003150D01*
X006309Y003150D01*
X006310Y003150D01*
X006310Y003149D01*
X006312Y003148D01*
X006314Y003146D01*
X006316Y003145D01*
X006318Y003144D01*
X006320Y003143D01*
X006321Y003142D01*
X006323Y003141D01*
X006324Y003140D01*
X006326Y003140D01*
X006327Y003139D01*
X006328Y003139D01*
X006329Y003138D01*
X006330Y003138D01*
X006330Y003138D01*
X006331Y003138D01*
X006331D01*
Y003115D01*
X006327Y003117D01*
X006324Y003118D01*
X006321Y003119D01*
X006318Y003121D01*
X006315Y003122D01*
X006313Y003124D01*
X006310Y003125D01*
X006308Y003127D01*
X006306Y003128D01*
X006304Y003130D01*
X006303Y003131D01*
X006301Y003132D01*
X006300Y003133D01*
X006300Y003133D01*
X006299Y003134D01*
X006299Y003134D01*
Y003042D01*
X006274D01*
Y003170D01*
X006294D01*
X006295Y003168D01*
D02*
G37*
G36*
X006053Y003170D02*
X006056Y003169D01*
X006059Y003169D01*
X006062Y003168D01*
X006064Y003167D01*
X006067Y003166D01*
X006069Y003165D01*
X006071Y003164D01*
X006073Y003163D01*
X006075Y003162D01*
X006076Y003161D01*
X006077Y003160D01*
X006078Y003159D01*
X006079Y003159D01*
X006079Y003158D01*
X006079Y003158D01*
X006081Y003156D01*
X006083Y003153D01*
X006084Y003151D01*
X006086Y003148D01*
X006087Y003145D01*
X006088Y003143D01*
X006089Y003140D01*
X006089Y003138D01*
X006090Y003136D01*
X006090Y003133D01*
X006090Y003132D01*
X006091Y003130D01*
X006091Y003129D01*
Y003128D01*
X006091Y003128D01*
Y003127D01*
Y003127D01*
Y003127D01*
Y003127D01*
X006091Y003123D01*
X006090Y003120D01*
X006090Y003117D01*
X006089Y003114D01*
X006088Y003111D01*
X006087Y003109D01*
X006086Y003107D01*
X006085Y003105D01*
X006084Y003103D01*
X006083Y003101D01*
X006082Y003100D01*
X006081Y003099D01*
X006081Y003098D01*
X006080Y003097D01*
X006080Y003096D01*
X006080Y003096D01*
X006078Y003094D01*
X006076Y003093D01*
X006073Y003091D01*
X006071Y003090D01*
X006069Y003089D01*
X006067Y003088D01*
X006065Y003087D01*
X006063Y003086D01*
X006061Y003086D01*
X006059Y003085D01*
X006057Y003085D01*
X006056Y003085D01*
X006055Y003085D01*
X006054Y003085D01*
X006054D01*
X006051Y003085D01*
X006049Y003085D01*
X006046Y003086D01*
X006044Y003087D01*
X006042Y003087D01*
X006040Y003088D01*
X006039Y003089D01*
X006037Y003090D01*
X006035Y003091D01*
X006034Y003092D01*
X006033Y003093D01*
X006032Y003094D01*
X006032Y003095D01*
X006031Y003095D01*
X006031Y003095D01*
X006031Y003096D01*
X006031Y003092D01*
X006031Y003088D01*
X006032Y003085D01*
X006032Y003082D01*
X006033Y003079D01*
X006033Y003077D01*
X006034Y003075D01*
X006035Y003073D01*
X006035Y003071D01*
X006036Y003070D01*
X006036Y003069D01*
X006037Y003068D01*
X006037Y003067D01*
X006037Y003067D01*
X006037Y003067D01*
X006037Y003067D01*
X006038Y003065D01*
X006039Y003064D01*
X006041Y003063D01*
X006042Y003063D01*
X006043Y003062D01*
X006044Y003061D01*
X006045Y003061D01*
X006046Y003060D01*
X006048Y003060D01*
X006048Y003060D01*
X006049Y003060D01*
X006050D01*
X006050Y003060D01*
X006050D01*
X006052Y003060D01*
X006054Y003060D01*
X006056Y003061D01*
X006057Y003061D01*
X006059Y003062D01*
X006059Y003062D01*
X006060Y003063D01*
X006060Y003063D01*
X006061Y003065D01*
X006062Y003066D01*
X006063Y003068D01*
X006064Y003070D01*
X006064Y003071D01*
X006064Y003072D01*
X006064Y003073D01*
X006064Y003073D01*
X006065Y003074D01*
Y003074D01*
Y003074D01*
X006088Y003071D01*
X006088Y003068D01*
X006087Y003066D01*
X006086Y003063D01*
X006085Y003061D01*
X006084Y003059D01*
X006083Y003057D01*
X006082Y003055D01*
X006081Y003053D01*
X006080Y003052D01*
X006079Y003051D01*
X006079Y003050D01*
X006078Y003049D01*
X006077Y003048D01*
X006077Y003048D01*
X006077Y003047D01*
X006076Y003047D01*
X006075Y003046D01*
X006073Y003045D01*
X006071Y003044D01*
X006069Y003043D01*
X006067Y003042D01*
X006065Y003041D01*
X006063Y003041D01*
X006061Y003040D01*
X006059Y003040D01*
X006057Y003040D01*
X006056Y003040D01*
X006055Y003039D01*
X006054D01*
X006053Y003039D01*
X006052D01*
X006048Y003039D01*
X006045Y003040D01*
X006041Y003041D01*
X006038Y003042D01*
X006035Y003043D01*
X006032Y003044D01*
X006030Y003046D01*
X006027Y003047D01*
X006025Y003049D01*
X006023Y003050D01*
X006022Y003051D01*
X006021Y003052D01*
X006020Y003053D01*
X006019Y003054D01*
X006018Y003055D01*
X006018Y003055D01*
X006017Y003056D01*
X006016Y003058D01*
X006015Y003060D01*
X006014Y003061D01*
X006012Y003065D01*
X006011Y003069D01*
X006010Y003073D01*
X006008Y003078D01*
X006008Y003082D01*
X006007Y003086D01*
X006006Y003090D01*
X006006Y003093D01*
X006006Y003095D01*
X006006Y003097D01*
X006006Y003098D01*
X006005Y003100D01*
X006005Y003101D01*
Y003102D01*
Y003103D01*
X006005Y003104D01*
Y003105D01*
Y003105D01*
Y003105D01*
Y003105D01*
Y003109D01*
X006005Y003112D01*
X006006Y003115D01*
X006006Y003117D01*
X006006Y003120D01*
X006006Y003123D01*
X006007Y003125D01*
X006007Y003128D01*
X006008Y003130D01*
X006008Y003132D01*
X006009Y003134D01*
X006009Y003136D01*
X006010Y003138D01*
X006010Y003140D01*
X006011Y003142D01*
X006011Y003143D01*
X006012Y003145D01*
X006013Y003146D01*
X006013Y003147D01*
X006014Y003148D01*
X006014Y003149D01*
X006015Y003150D01*
X006015Y003151D01*
X006016Y003152D01*
X006016Y003153D01*
X006017Y003153D01*
X006017Y003154D01*
X006017Y003154D01*
X006018Y003155D01*
X006018Y003155D01*
X006020Y003158D01*
X006023Y003160D01*
X006025Y003162D01*
X006028Y003164D01*
X006031Y003165D01*
X006033Y003166D01*
X006036Y003167D01*
X006038Y003168D01*
X006041Y003169D01*
X006043Y003169D01*
X006045Y003170D01*
X006046Y003170D01*
X006048Y003170D01*
X006048D01*
X006049Y003170D01*
X006050D01*
X006053Y003170D01*
D02*
G37*
G36*
X006233Y003042D02*
X006208D01*
Y003066D01*
X006233D01*
Y003042D01*
D02*
G37*
G36*
X005984D02*
X005960D01*
Y003066D01*
X005984D01*
Y003042D01*
D02*
G37*
G36*
X006150Y003170D02*
X006153Y003169D01*
X006156Y003169D01*
X006159Y003168D01*
X006162Y003167D01*
X006164Y003166D01*
X006166Y003165D01*
X006168Y003163D01*
X006170Y003162D01*
X006171Y003161D01*
X006173Y003160D01*
X006174Y003159D01*
X006175Y003158D01*
X006175Y003157D01*
X006176Y003157D01*
X006176Y003157D01*
X006177Y003155D01*
X006178Y003154D01*
X006179Y003152D01*
X006180Y003150D01*
X006182Y003146D01*
X006183Y003142D01*
X006184Y003138D01*
X006185Y003133D01*
X006186Y003129D01*
X006187Y003125D01*
X006187Y003121D01*
X006188Y003117D01*
X006188Y003115D01*
X006188Y003114D01*
X006188Y003112D01*
X006188Y003111D01*
X006188Y003109D01*
Y003108D01*
Y003107D01*
X006188Y003106D01*
Y003106D01*
Y003105D01*
Y003105D01*
Y003105D01*
Y003101D01*
X006188Y003098D01*
X006188Y003095D01*
X006188Y003092D01*
X006187Y003089D01*
X006187Y003086D01*
X006187Y003084D01*
X006186Y003081D01*
X006186Y003079D01*
X006186Y003077D01*
X006185Y003074D01*
X006185Y003072D01*
X006184Y003071D01*
X006184Y003069D01*
X006183Y003067D01*
X006182Y003065D01*
X006182Y003064D01*
X006181Y003063D01*
X006181Y003061D01*
X006180Y003060D01*
X006180Y003059D01*
X006179Y003058D01*
X006179Y003057D01*
X006179Y003056D01*
X006178Y003056D01*
X006178Y003055D01*
X006178Y003055D01*
X006177Y003054D01*
X006177Y003054D01*
X006177Y003054D01*
X006175Y003051D01*
X006172Y003049D01*
X006170Y003047D01*
X006167Y003045D01*
X006165Y003044D01*
X006162Y003043D01*
X006160Y003042D01*
X006157Y003041D01*
X006155Y003041D01*
X006153Y003040D01*
X006151Y003040D01*
X006150Y003040D01*
X006148Y003039D01*
X006148Y003039D01*
X006147D01*
X006143Y003040D01*
X006140Y003040D01*
X006137Y003041D01*
X006134Y003041D01*
X006132Y003042D01*
X006129Y003044D01*
X006127Y003045D01*
X006125Y003046D01*
X006124Y003047D01*
X006122Y003048D01*
X006121Y003049D01*
X006120Y003050D01*
X006119Y003051D01*
X006118Y003052D01*
X006118Y003052D01*
X006118Y003052D01*
X006117Y003054D01*
X006115Y003056D01*
X006114Y003057D01*
X006114Y003059D01*
X006112Y003063D01*
X006110Y003067D01*
X006109Y003072D01*
X006108Y003076D01*
X006107Y003080D01*
X006107Y003084D01*
X006106Y003089D01*
X006106Y003092D01*
X006106Y003094D01*
X006105Y003096D01*
X006105Y003097D01*
X006105Y003099D01*
X006105Y003100D01*
Y003101D01*
X006105Y003102D01*
Y003103D01*
Y003104D01*
Y003104D01*
Y003105D01*
Y003105D01*
Y003108D01*
X006105Y003111D01*
X006105Y003114D01*
X006106Y003117D01*
X006106Y003120D01*
X006106Y003123D01*
X006107Y003126D01*
X006107Y003128D01*
X006108Y003131D01*
X006108Y003133D01*
X006109Y003135D01*
X006109Y003137D01*
X006110Y003139D01*
X006110Y003141D01*
X006111Y003143D01*
X006111Y003144D01*
X006112Y003146D01*
X006113Y003147D01*
X006113Y003149D01*
X006114Y003150D01*
X006114Y003151D01*
X006115Y003152D01*
X006115Y003153D01*
X006116Y003154D01*
X006116Y003154D01*
X006116Y003155D01*
X006117Y003155D01*
X006117Y003156D01*
X006117Y003156D01*
X006117Y003157D01*
X006118Y003157D01*
X006120Y003159D01*
X006122Y003161D01*
X006124Y003163D01*
X006127Y003164D01*
X006129Y003166D01*
X006131Y003167D01*
X006134Y003168D01*
X006136Y003168D01*
X006138Y003169D01*
X006140Y003169D01*
X006142Y003170D01*
X006144Y003170D01*
X006145Y003170D01*
X006146Y003170D01*
X006147D01*
X006150Y003170D01*
D02*
G37*
G36*
X005802D02*
X005805Y003169D01*
X005809Y003169D01*
X005811Y003168D01*
X005814Y003167D01*
X005816Y003166D01*
X005818Y003165D01*
X005820Y003163D01*
X005822Y003162D01*
X005824Y003161D01*
X005825Y003160D01*
X005826Y003159D01*
X005827Y003158D01*
X005827Y003157D01*
X005828Y003157D01*
X005828Y003157D01*
X005829Y003155D01*
X005830Y003154D01*
X005831Y003152D01*
X005832Y003150D01*
X005834Y003146D01*
X005835Y003142D01*
X005836Y003138D01*
X005837Y003133D01*
X005838Y003129D01*
X005839Y003125D01*
X005839Y003121D01*
X005840Y003117D01*
X005840Y003115D01*
X005840Y003114D01*
X005840Y003112D01*
X005840Y003111D01*
X005840Y003109D01*
Y003108D01*
Y003107D01*
X005840Y003106D01*
Y003106D01*
Y003105D01*
Y003105D01*
Y003105D01*
Y003101D01*
X005840Y003098D01*
X005840Y003095D01*
X005840Y003092D01*
X005840Y003089D01*
X005839Y003086D01*
X005839Y003084D01*
X005839Y003081D01*
X005838Y003079D01*
X005838Y003077D01*
X005837Y003074D01*
X005837Y003072D01*
X005836Y003071D01*
X005836Y003069D01*
X005835Y003067D01*
X005835Y003065D01*
X005834Y003064D01*
X005834Y003063D01*
X005833Y003061D01*
X005833Y003060D01*
X005832Y003059D01*
X005832Y003058D01*
X005831Y003057D01*
X005831Y003056D01*
X005830Y003056D01*
X005830Y003055D01*
X005830Y003055D01*
X005829Y003054D01*
X005829Y003054D01*
X005829Y003054D01*
X005827Y003051D01*
X005824Y003049D01*
X005822Y003047D01*
X005820Y003045D01*
X005817Y003044D01*
X005814Y003043D01*
X005812Y003042D01*
X005810Y003041D01*
X005807Y003041D01*
X005805Y003040D01*
X005804Y003040D01*
X005802Y003040D01*
X005801Y003039D01*
X005800Y003039D01*
X005799D01*
X005795Y003040D01*
X005792Y003040D01*
X005789Y003041D01*
X005787Y003041D01*
X005784Y003042D01*
X005782Y003044D01*
X005779Y003045D01*
X005777Y003046D01*
X005776Y003047D01*
X005774Y003048D01*
X005773Y003049D01*
X005772Y003050D01*
X005771Y003051D01*
X005770Y003052D01*
X005770Y003052D01*
X005770Y003052D01*
X005769Y003054D01*
X005768Y003056D01*
X005767Y003057D01*
X005766Y003059D01*
X005764Y003063D01*
X005763Y003067D01*
X005761Y003072D01*
X005760Y003076D01*
X005760Y003080D01*
X005759Y003084D01*
X005758Y003089D01*
X005758Y003092D01*
X005758Y003094D01*
X005758Y003096D01*
X005758Y003097D01*
X005757Y003099D01*
X005757Y003100D01*
Y003101D01*
X005757Y003102D01*
Y003103D01*
Y003104D01*
Y003104D01*
Y003105D01*
Y003105D01*
Y003108D01*
X005757Y003111D01*
X005758Y003114D01*
X005758Y003117D01*
X005758Y003120D01*
X005758Y003123D01*
X005759Y003126D01*
X005759Y003128D01*
X005760Y003131D01*
X005760Y003133D01*
X005761Y003135D01*
X005761Y003137D01*
X005762Y003139D01*
X005762Y003141D01*
X005763Y003143D01*
X005764Y003144D01*
X005764Y003146D01*
X005765Y003147D01*
X005765Y003149D01*
X005766Y003150D01*
X005766Y003151D01*
X005767Y003152D01*
X005767Y003153D01*
X005768Y003154D01*
X005768Y003154D01*
X005769Y003155D01*
X005769Y003155D01*
X005769Y003156D01*
X005770Y003156D01*
X005770Y003157D01*
X005770Y003157D01*
X005772Y003159D01*
X005774Y003161D01*
X005776Y003163D01*
X005779Y003164D01*
X005781Y003166D01*
X005784Y003167D01*
X005786Y003168D01*
X005788Y003168D01*
X005790Y003169D01*
X005792Y003169D01*
X005794Y003170D01*
X005796Y003170D01*
X005797Y003170D01*
X005798Y003170D01*
X005799D01*
X005802Y003170D01*
D02*
G37*
G36*
X005604Y003170D02*
X005607Y003169D01*
X005610Y003169D01*
X005613Y003168D01*
X005615Y003167D01*
X005617Y003166D01*
X005620Y003165D01*
X005622Y003163D01*
X005623Y003162D01*
X005625Y003161D01*
X005626Y003160D01*
X005627Y003159D01*
X005628Y003158D01*
X005629Y003157D01*
X005629Y003157D01*
X005629Y003157D01*
X005630Y003155D01*
X005631Y003154D01*
X005632Y003152D01*
X005633Y003150D01*
X005635Y003146D01*
X005636Y003142D01*
X005638Y003138D01*
X005639Y003133D01*
X005639Y003129D01*
X005640Y003125D01*
X005641Y003121D01*
X005641Y003117D01*
X005641Y003115D01*
X005641Y003114D01*
X005641Y003112D01*
X005641Y003111D01*
X005642Y003109D01*
Y003108D01*
Y003107D01*
X005642Y003106D01*
Y003106D01*
Y003105D01*
Y003105D01*
Y003105D01*
Y003101D01*
X005642Y003098D01*
X005641Y003095D01*
X005641Y003092D01*
X005641Y003089D01*
X005641Y003086D01*
X005640Y003084D01*
X005640Y003081D01*
X005639Y003079D01*
X005639Y003077D01*
X005638Y003074D01*
X005638Y003072D01*
X005638Y003071D01*
X005637Y003069D01*
X005636Y003067D01*
X005636Y003065D01*
X005635Y003064D01*
X005635Y003063D01*
X005634Y003061D01*
X005634Y003060D01*
X005633Y003059D01*
X005633Y003058D01*
X005632Y003057D01*
X005632Y003056D01*
X005632Y003056D01*
X005631Y003055D01*
X005631Y003055D01*
X005631Y003054D01*
X005630Y003054D01*
X005630Y003054D01*
X005628Y003051D01*
X005626Y003049D01*
X005623Y003047D01*
X005621Y003045D01*
X005618Y003044D01*
X005616Y003043D01*
X005613Y003042D01*
X005611Y003041D01*
X005609Y003041D01*
X005607Y003040D01*
X005605Y003040D01*
X005603Y003040D01*
X005602Y003039D01*
X005601Y003039D01*
X005600D01*
X005597Y003040D01*
X005594Y003040D01*
X005590Y003041D01*
X005588Y003041D01*
X005585Y003042D01*
X005583Y003044D01*
X005581Y003045D01*
X005579Y003046D01*
X005577Y003047D01*
X005575Y003048D01*
X005574Y003049D01*
X005573Y003050D01*
X005572Y003051D01*
X005572Y003052D01*
X005571Y003052D01*
X005571Y003052D01*
X005570Y003054D01*
X005569Y003056D01*
X005568Y003057D01*
X005567Y003059D01*
X005565Y003063D01*
X005564Y003067D01*
X005563Y003072D01*
X005562Y003076D01*
X005561Y003080D01*
X005560Y003084D01*
X005560Y003089D01*
X005559Y003092D01*
X005559Y003094D01*
X005559Y003096D01*
X005559Y003097D01*
X005559Y003099D01*
X005559Y003100D01*
Y003101D01*
X005559Y003102D01*
Y003103D01*
Y003104D01*
Y003104D01*
Y003105D01*
Y003105D01*
Y003108D01*
X005559Y003111D01*
X005559Y003114D01*
X005559Y003117D01*
X005559Y003120D01*
X005560Y003123D01*
X005560Y003126D01*
X005560Y003128D01*
X005561Y003131D01*
X005561Y003133D01*
X005562Y003135D01*
X005562Y003137D01*
X005563Y003139D01*
X005564Y003141D01*
X005564Y003143D01*
X005565Y003144D01*
X005565Y003146D01*
X005566Y003147D01*
X005567Y003149D01*
X005567Y003150D01*
X005568Y003151D01*
X005568Y003152D01*
X005569Y003153D01*
X005569Y003154D01*
X005570Y003154D01*
X005570Y003155D01*
X005570Y003155D01*
X005571Y003156D01*
X005571Y003156D01*
X005571Y003157D01*
X005571Y003157D01*
X005573Y003159D01*
X005575Y003161D01*
X005578Y003163D01*
X005580Y003164D01*
X005582Y003166D01*
X005585Y003167D01*
X005587Y003168D01*
X005589Y003168D01*
X005592Y003169D01*
X005594Y003169D01*
X005595Y003170D01*
X005597Y003170D01*
X005598Y003170D01*
X005599Y003170D01*
X005600D01*
X005604Y003170D01*
D02*
G37*
G36*
X003826Y002980D02*
X003851D01*
Y002960D01*
X003830D01*
X003835Y002935D01*
X003851D01*
Y002915D01*
X003839D01*
X003846Y002881D01*
X003826D01*
X003820Y002915D01*
X003800D01*
X003807Y002881D01*
X003787D01*
X003780Y002915D01*
X003755D01*
Y002935D01*
X003777D01*
X003771Y002960D01*
X003755D01*
Y002980D01*
X003767D01*
X003761Y003014D01*
X003781D01*
X003787Y002980D01*
X003806D01*
X003800Y003014D01*
X003819D01*
X003826Y002980D01*
D02*
G37*
G36*
X006032Y003012D02*
X006035Y003012D01*
X006038Y003011D01*
X006041Y003011D01*
X006043Y003010D01*
X006046Y003009D01*
X006048Y003008D01*
X006050Y003008D01*
X006052Y003007D01*
X006053Y003006D01*
X006055Y003005D01*
X006056Y003005D01*
X006057Y003004D01*
X006057Y003004D01*
X006058Y003003D01*
X006058Y003003D01*
X006060Y003001D01*
X006062Y002999D01*
X006063Y002997D01*
X006065Y002995D01*
X006066Y002993D01*
X006067Y002990D01*
X006068Y002988D01*
X006069Y002985D01*
X006070Y002983D01*
X006070Y002981D01*
X006071Y002979D01*
X006071Y002977D01*
X006071Y002976D01*
X006071Y002975D01*
X006071Y002975D01*
Y002975D01*
X006071Y002974D01*
Y002974D01*
Y002974D01*
X006047Y002972D01*
X006047Y002974D01*
X006047Y002975D01*
X006046Y002977D01*
X006046Y002979D01*
X006045Y002980D01*
X006045Y002981D01*
X006045Y002982D01*
X006044Y002983D01*
X006044Y002984D01*
X006043Y002985D01*
X006043Y002986D01*
X006043Y002986D01*
X006042Y002987D01*
X006042Y002987D01*
X006042Y002987D01*
X006042Y002987D01*
X006041Y002988D01*
X006040Y002989D01*
X006039Y002989D01*
X006038Y002990D01*
X006036Y002991D01*
X006034Y002991D01*
X006032Y002991D01*
X006031Y002992D01*
X006031D01*
X006030Y002992D01*
X006029D01*
X006028Y002992D01*
X006027Y002991D01*
X006024Y002991D01*
X006022Y002990D01*
X006020Y002989D01*
X006020Y002989D01*
X006019Y002989D01*
X006019Y002988D01*
X006018Y002988D01*
X006018Y002988D01*
X006017Y002987D01*
X006017Y002987D01*
X006017Y002987D01*
X006017Y002986D01*
X006016Y002985D01*
X006015Y002983D01*
X006014Y002981D01*
X006013Y002979D01*
X006013Y002977D01*
X006013Y002977D01*
Y002976D01*
X006013Y002975D01*
Y002975D01*
Y002975D01*
Y002975D01*
X006013Y002973D01*
X006013Y002972D01*
X006014Y002969D01*
X006014Y002967D01*
X006015Y002964D01*
X006016Y002963D01*
X006016Y002962D01*
X006017Y002962D01*
X006017Y002961D01*
X006017Y002960D01*
X006018Y002960D01*
X006018Y002960D01*
X006018Y002960D01*
X006019Y002958D01*
X006020Y002957D01*
X006021Y002956D01*
X006023Y002954D01*
X006024Y002952D01*
X006026Y002951D01*
X006029Y002947D01*
X006031Y002945D01*
X006033Y002944D01*
X006034Y002942D01*
X006036Y002941D01*
X006037Y002940D01*
X006038Y002939D01*
X006038Y002939D01*
X006038Y002939D01*
X006038Y002939D01*
X006042Y002935D01*
X006045Y002932D01*
X006048Y002929D01*
X006051Y002926D01*
X006054Y002923D01*
X006056Y002921D01*
X006058Y002918D01*
X006060Y002916D01*
X006061Y002914D01*
X006063Y002913D01*
X006064Y002911D01*
X006065Y002910D01*
X006065Y002909D01*
X006066Y002909D01*
X006066Y002908D01*
X006066Y002908D01*
X006067Y002906D01*
X006068Y002904D01*
X006069Y002901D01*
X006070Y002899D01*
X006071Y002897D01*
X006072Y002895D01*
X006072Y002893D01*
X006073Y002891D01*
X006073Y002890D01*
X006073Y002888D01*
X006074Y002887D01*
X006074Y002886D01*
X006074Y002885D01*
X006074Y002884D01*
X006074Y002884D01*
Y002884D01*
X005988D01*
Y002906D01*
X006037D01*
X006036Y002908D01*
X006035Y002909D01*
X006035Y002910D01*
X006034Y002911D01*
X006033Y002912D01*
X006033Y002913D01*
X006032Y002913D01*
X006032Y002913D01*
X006031Y002914D01*
X006030Y002915D01*
X006030Y002916D01*
X006028Y002917D01*
X006026Y002919D01*
X006023Y002921D01*
X006022Y002923D01*
X006021Y002924D01*
X006020Y002925D01*
X006019Y002925D01*
X006018Y002926D01*
X006018Y002927D01*
X006017Y002927D01*
X006017Y002927D01*
X006015Y002929D01*
X006013Y002931D01*
X006011Y002933D01*
X006010Y002934D01*
X006008Y002936D01*
X006007Y002937D01*
X006006Y002938D01*
X006005Y002939D01*
X006004Y002940D01*
X006003Y002941D01*
X006003Y002942D01*
X006002Y002943D01*
X006002Y002943D01*
X006001Y002943D01*
X006001Y002944D01*
X006001Y002944D01*
X005999Y002947D01*
X005997Y002950D01*
X005995Y002952D01*
X005994Y002954D01*
X005994Y002955D01*
X005993Y002956D01*
X005993Y002957D01*
X005992Y002958D01*
X005992Y002958D01*
X005992Y002959D01*
X005992Y002959D01*
X005991Y002960D01*
Y002960D01*
X005990Y002963D01*
X005990Y002966D01*
X005989Y002969D01*
X005989Y002971D01*
X005989Y002972D01*
X005988Y002973D01*
X005988Y002974D01*
X005988Y002975D01*
Y002975D01*
Y002976D01*
Y002976D01*
Y002976D01*
X005988Y002979D01*
X005989Y002982D01*
X005989Y002984D01*
X005990Y002987D01*
X005991Y002989D01*
X005992Y002991D01*
X005993Y002993D01*
X005994Y002995D01*
X005995Y002996D01*
X005996Y002998D01*
X005997Y002999D01*
X005997Y003000D01*
X005998Y003001D01*
X005999Y003001D01*
X005999Y003002D01*
X005999Y003002D01*
X006001Y003004D01*
X006004Y003005D01*
X006006Y003006D01*
X006008Y003008D01*
X006011Y003009D01*
X006013Y003010D01*
X006016Y003010D01*
X006018Y003011D01*
X006020Y003011D01*
X006022Y003011D01*
X006024Y003012D01*
X006026Y003012D01*
X006027Y003012D01*
X006028Y003012D01*
X006029D01*
X006032Y003012D01*
D02*
G37*
G36*
X003704Y003010D02*
X003705Y003008D01*
X003706Y003006D01*
X003707Y003004D01*
X003708Y003002D01*
X003710Y003000D01*
X003711Y002999D01*
X003712Y002997D01*
X003713Y002996D01*
X003715Y002995D01*
X003716Y002994D01*
X003717Y002993D01*
X003717Y002992D01*
X003718Y002992D01*
X003718Y002992D01*
X003718Y002991D01*
X003720Y002990D01*
X003723Y002988D01*
X003724Y002987D01*
X003726Y002986D01*
X003728Y002985D01*
X003730Y002984D01*
X003731Y002983D01*
X003733Y002982D01*
X003734Y002982D01*
X003736Y002981D01*
X003737Y002981D01*
X003737Y002980D01*
X003738Y002980D01*
X003739Y002980D01*
X003739Y002980D01*
X003739D01*
Y002957D01*
X003736Y002959D01*
X003733Y002960D01*
X003729Y002961D01*
X003726Y002963D01*
X003724Y002964D01*
X003721Y002966D01*
X003719Y002967D01*
X003717Y002969D01*
X003714Y002970D01*
X003713Y002972D01*
X003711Y002973D01*
X003710Y002974D01*
X003709Y002975D01*
X003708Y002975D01*
X003708Y002976D01*
X003707Y002976D01*
Y002884D01*
X003683D01*
Y003012D01*
X003703D01*
X003704Y003010D01*
D02*
G37*
G36*
X005813Y002952D02*
X005788D01*
Y002976D01*
X005813D01*
Y002952D01*
D02*
G37*
G36*
X003956Y002978D02*
X003959Y002978D01*
X003962Y002978D01*
X003965Y002977D01*
X003967Y002977D01*
X003969Y002976D01*
X003971Y002976D01*
X003973Y002975D01*
X003975Y002974D01*
X003976Y002974D01*
X003977Y002973D01*
X003978Y002973D01*
X003979Y002972D01*
X003980Y002972D01*
X003980Y002972D01*
X003980Y002972D01*
X003982Y002970D01*
X003983Y002969D01*
X003985Y002968D01*
X003986Y002966D01*
X003987Y002964D01*
X003988Y002963D01*
X003989Y002961D01*
X003990Y002959D01*
X003991Y002958D01*
X003991Y002957D01*
X003992Y002955D01*
X003992Y002954D01*
X003992Y002953D01*
X003993Y002952D01*
X003993Y002952D01*
X003993Y002952D01*
X003971Y002948D01*
X003970Y002950D01*
X003969Y002952D01*
X003968Y002954D01*
X003967Y002955D01*
X003966Y002956D01*
X003965Y002957D01*
X003965Y002957D01*
X003965Y002957D01*
X003963Y002958D01*
X003962Y002958D01*
X003960Y002959D01*
X003958Y002959D01*
X003957Y002959D01*
X003956D01*
X003956Y002960D01*
X003953D01*
X003951Y002959D01*
X003950Y002959D01*
X003948Y002959D01*
X003947Y002959D01*
X003946Y002959D01*
X003945Y002958D01*
X003944Y002958D01*
X003943Y002958D01*
X003943Y002957D01*
X003942Y002957D01*
X003942Y002957D01*
X003942Y002957D01*
X003941Y002957D01*
X003941Y002957D01*
X003941Y002956D01*
X003940Y002955D01*
X003939Y002954D01*
X003939Y002952D01*
X003938Y002950D01*
X003938Y002949D01*
X003938Y002948D01*
Y002948D01*
X003938Y002947D01*
Y002947D01*
Y002947D01*
Y002946D01*
Y002944D01*
X003939Y002944D01*
X003941Y002943D01*
X003942Y002942D01*
X003944Y002942D01*
X003948Y002941D01*
X003952Y002940D01*
X003954Y002940D01*
X003956Y002939D01*
X003957Y002939D01*
X003959Y002939D01*
X003960Y002938D01*
X003961Y002938D01*
X003961Y002938D01*
X003962D01*
X003964Y002937D01*
X003966Y002937D01*
X003968Y002937D01*
X003970Y002936D01*
X003972Y002936D01*
X003973Y002935D01*
X003975Y002935D01*
X003976Y002934D01*
X003977Y002934D01*
X003978Y002933D01*
X003979Y002933D01*
X003980Y002933D01*
X003980Y002933D01*
X003981Y002932D01*
X003981Y002932D01*
X003981D01*
X003984Y002931D01*
X003986Y002929D01*
X003987Y002928D01*
X003989Y002926D01*
X003990Y002925D01*
X003991Y002924D01*
X003991Y002923D01*
X003991Y002923D01*
X003992Y002923D01*
X003992Y002923D01*
X003993Y002920D01*
X003994Y002918D01*
X003994Y002916D01*
X003995Y002914D01*
X003995Y002913D01*
X003995Y002912D01*
X003995Y002911D01*
Y002910D01*
X003995Y002910D01*
Y002909D01*
Y002909D01*
Y002909D01*
X003995Y002907D01*
X003995Y002905D01*
X003995Y002903D01*
X003994Y002901D01*
X003993Y002899D01*
X003993Y002897D01*
X003992Y002896D01*
X003991Y002895D01*
X003990Y002893D01*
X003990Y002892D01*
X003989Y002891D01*
X003988Y002891D01*
X003988Y002890D01*
X003987Y002890D01*
X003987Y002889D01*
X003987Y002889D01*
X003986Y002888D01*
X003984Y002887D01*
X003982Y002886D01*
X003980Y002885D01*
X003978Y002884D01*
X003976Y002883D01*
X003975Y002883D01*
X003973Y002882D01*
X003971Y002882D01*
X003970Y002882D01*
X003968Y002882D01*
X003967Y002882D01*
X003966D01*
X003965Y002881D01*
X003965D01*
X003962Y002882D01*
X003959Y002882D01*
X003956Y002882D01*
X003955Y002883D01*
X003954Y002883D01*
X003953Y002883D01*
X003952Y002884D01*
X003951Y002884D01*
X003951Y002884D01*
X003950Y002884D01*
X003950Y002884D01*
X003949Y002885D01*
X003949D01*
X003947Y002886D01*
X003944Y002887D01*
X003942Y002889D01*
X003940Y002890D01*
X003939Y002891D01*
X003938Y002892D01*
X003937Y002892D01*
X003937Y002893D01*
X003936Y002893D01*
X003936Y002893D01*
X003936Y002894D01*
X003936Y002894D01*
X003936Y002893D01*
X003936Y002893D01*
X003935Y002892D01*
X003935Y002892D01*
X003935Y002891D01*
X003935Y002891D01*
Y002891D01*
X003935Y002889D01*
X003934Y002888D01*
X003934Y002886D01*
X003933Y002885D01*
X003933Y002885D01*
X003933Y002884D01*
X003933Y002884D01*
Y002884D01*
X003908D01*
X003909Y002886D01*
X003910Y002888D01*
X003911Y002890D01*
X003912Y002892D01*
X003912Y002894D01*
X003912Y002894D01*
X003913Y002895D01*
X003913Y002895D01*
Y002896D01*
X003913Y002896D01*
Y002896D01*
X003913Y002897D01*
X003913Y002898D01*
X003913Y002900D01*
X003913Y002901D01*
X003914Y002904D01*
X003914Y002907D01*
X003914Y002909D01*
Y002910D01*
X003914Y002911D01*
Y002912D01*
Y002913D01*
Y002913D01*
Y002914D01*
Y002914D01*
X003914Y002943D01*
Y002945D01*
X003914Y002948D01*
X003914Y002951D01*
X003914Y002953D01*
X003914Y002955D01*
X003915Y002957D01*
X003915Y002958D01*
X003915Y002960D01*
X003915Y002961D01*
X003916Y002962D01*
X003916Y002963D01*
X003916Y002963D01*
X003917Y002964D01*
X003917Y002964D01*
X003917Y002964D01*
Y002965D01*
X003918Y002966D01*
X003918Y002967D01*
X003920Y002969D01*
X003922Y002970D01*
X003924Y002972D01*
X003925Y002973D01*
X003926Y002973D01*
X003927Y002974D01*
X003927Y002974D01*
X003928Y002974D01*
X003928Y002974D01*
X003928D01*
X003930Y002975D01*
X003931Y002976D01*
X003933Y002976D01*
X003935Y002977D01*
X003939Y002977D01*
X003941Y002978D01*
X003943Y002978D01*
X003945Y002978D01*
X003947Y002978D01*
X003949Y002978D01*
X003950D01*
X003951Y002978D01*
X003953D01*
X003956Y002978D01*
D02*
G37*
G36*
X005967Y002884D02*
X005943D01*
Y002984D01*
X005917Y002884D01*
X005893D01*
X005867Y002984D01*
X005867Y002884D01*
X005843D01*
Y003012D01*
X005882D01*
X005905Y002924D01*
X005928Y003012D01*
X005967D01*
Y002884D01*
D02*
G37*
G36*
X005709D02*
X005685Y002884D01*
Y002984D01*
X005659Y002884D01*
X005635D01*
X005609Y002984D01*
X005609Y002884D01*
X005585D01*
Y003012D01*
X005624D01*
X005647Y002924D01*
X005670Y003012D01*
X005709Y003012D01*
Y002884D01*
D02*
G37*
G36*
X004746Y002884D02*
X004725D01*
Y002945D01*
X004703Y002884D01*
X004682D01*
X004660Y002945D01*
Y002884D01*
X004639D01*
Y002976D01*
X004669D01*
X004692Y002912D01*
X004715Y002976D01*
X004746D01*
Y002884D01*
D02*
G37*
G36*
X004613D02*
X004592D01*
Y002945D01*
X004571Y002884D01*
X004550D01*
X004527Y002945D01*
Y002884D01*
X004506D01*
Y002976D01*
X004537D01*
X004560Y002912D01*
X004583Y002976D01*
X004613D01*
Y002884D01*
D02*
G37*
G36*
X005313Y002883D02*
X005314Y002881D01*
X005315Y002878D01*
X005316Y002876D01*
X005317Y002874D01*
X005318Y002873D01*
X005318Y002873D01*
X005319Y002872D01*
X005319Y002871D01*
X005319Y002871D01*
X005320Y002871D01*
X005320Y002871D01*
X005320Y002871D01*
X005321Y002870D01*
X005321Y002869D01*
X005322Y002868D01*
X005323Y002868D01*
X005325Y002867D01*
X005327Y002866D01*
X005329Y002866D01*
X005330Y002866D01*
X005331Y002866D01*
X005331Y002865D01*
X005332D01*
X005334Y002866D01*
X005336Y002866D01*
X005338Y002866D01*
X005339Y002866D01*
X005341Y002866D01*
X005341Y002866D01*
X005342Y002866D01*
X005342Y002867D01*
X005342D01*
X005343Y002867D01*
X005343D01*
X005340Y002848D01*
X005338Y002847D01*
X005335Y002847D01*
X005333Y002846D01*
X005331Y002846D01*
X005330Y002846D01*
X005328D01*
X005328Y002846D01*
X005327D01*
X005324Y002846D01*
X005322Y002846D01*
X005320Y002846D01*
X005318Y002847D01*
X005317Y002847D01*
X005316Y002847D01*
X005316Y002847D01*
X005315Y002847D01*
X005315Y002847D01*
X005314Y002847D01*
X005314Y002848D01*
X005314D01*
X005312Y002848D01*
X005310Y002849D01*
X005309Y002849D01*
X005307Y002850D01*
X005306Y002851D01*
X005305Y002851D01*
X005305Y002852D01*
X005305Y002852D01*
X005303Y002853D01*
X005302Y002854D01*
X005301Y002855D01*
X005300Y002856D01*
X005299Y002857D01*
X005299Y002858D01*
X005298Y002858D01*
X005298Y002859D01*
X005297Y002860D01*
X005296Y002862D01*
X005295Y002864D01*
X005294Y002866D01*
X005293Y002868D01*
X005293Y002869D01*
X005292Y002870D01*
X005292Y002870D01*
X005292Y002871D01*
X005292Y002871D01*
Y002871D01*
X005286Y002887D01*
X005253Y002976D01*
X005279D01*
X005300Y002910D01*
X005322Y002976D01*
X005349D01*
X005313Y002883D01*
D02*
G37*
G36*
X004458D02*
X004459Y002881D01*
X004460Y002878D01*
X004461Y002876D01*
X004462Y002874D01*
X004463Y002873D01*
X004463Y002873D01*
X004464Y002872D01*
X004464Y002871D01*
X004464Y002871D01*
X004464Y002871D01*
X004464Y002871D01*
X004465Y002871D01*
X004465Y002870D01*
X004466Y002869D01*
X004467Y002868D01*
X004468Y002868D01*
X004470Y002867D01*
X004472Y002866D01*
X004474Y002866D01*
X004475Y002866D01*
X004476Y002866D01*
X004476Y002865D01*
X004477D01*
X004479Y002866D01*
X004481Y002866D01*
X004482Y002866D01*
X004484Y002866D01*
X004485Y002866D01*
X004486Y002866D01*
X004486Y002866D01*
X004487Y002867D01*
X004487D01*
X004487Y002867D01*
X004488D01*
X004485Y002848D01*
X004483Y002847D01*
X004480Y002847D01*
X004478Y002846D01*
X004476Y002846D01*
X004475Y002846D01*
X004473D01*
X004473Y002846D01*
X004472D01*
X004469Y002846D01*
X004467Y002846D01*
X004464Y002846D01*
X004463Y002847D01*
X004462Y002847D01*
X004461Y002847D01*
X004460Y002847D01*
X004460Y002847D01*
X004459Y002847D01*
X004459Y002847D01*
X004459Y002848D01*
X004459D01*
X004457Y002848D01*
X004455Y002849D01*
X004454Y002849D01*
X004452Y002850D01*
X004451Y002851D01*
X004450Y002851D01*
X004450Y002852D01*
X004450Y002852D01*
X004448Y002853D01*
X004447Y002854D01*
X004446Y002855D01*
X004445Y002856D01*
X004444Y002857D01*
X004443Y002858D01*
X004443Y002858D01*
X004443Y002859D01*
X004442Y002860D01*
X004441Y002862D01*
X004440Y002864D01*
X004439Y002866D01*
X004438Y002868D01*
X004438Y002869D01*
X004437Y002870D01*
X004437Y002870D01*
X004437Y002871D01*
X004437Y002871D01*
Y002871D01*
X004431Y002887D01*
X004398Y002976D01*
X004424D01*
X004445Y002910D01*
X004467Y002976D01*
X004493D01*
X004458Y002883D01*
D02*
G37*
G36*
X006430Y002884D02*
X006367D01*
X006364Y002884D01*
X006361Y002884D01*
X006359Y002884D01*
X006357Y002884D01*
X006355Y002885D01*
X006353Y002885D01*
X006352Y002885D01*
X006350Y002886D01*
X006349Y002886D01*
X006348Y002886D01*
X006347Y002886D01*
X006346Y002887D01*
X006346Y002887D01*
X006345Y002887D01*
X006345D01*
X006344Y002888D01*
X006342Y002888D01*
X006339Y002890D01*
X006337Y002892D01*
X006335Y002893D01*
X006334Y002894D01*
X006333Y002896D01*
X006332Y002896D01*
X006332Y002897D01*
X006331Y002898D01*
X006331Y002899D01*
X006330Y002899D01*
X006330Y002899D01*
X006330Y002900D01*
X006329Y002901D01*
X006328Y002903D01*
X006327Y002905D01*
X006326Y002907D01*
X006325Y002909D01*
X006325Y002911D01*
X006324Y002913D01*
X006324Y002914D01*
X006324Y002916D01*
X006323Y002917D01*
X006323Y002919D01*
X006323Y002920D01*
X006323Y002921D01*
Y002921D01*
Y002922D01*
Y002922D01*
X006323Y002924D01*
X006323Y002926D01*
X006324Y002929D01*
X006324Y002931D01*
X006325Y002933D01*
X006325Y002934D01*
X006326Y002936D01*
X006326Y002938D01*
X006327Y002939D01*
X006328Y002940D01*
X006328Y002941D01*
X006329Y002942D01*
X006329Y002943D01*
X006330Y002944D01*
X006330Y002944D01*
X006330Y002944D01*
X006331Y002946D01*
X006332Y002947D01*
X006334Y002949D01*
X006335Y002950D01*
X006337Y002951D01*
X006338Y002952D01*
X006339Y002953D01*
X006340Y002954D01*
X006342Y002955D01*
X006343Y002955D01*
X006344Y002956D01*
X006344Y002956D01*
X006345Y002957D01*
X006345Y002957D01*
X006346Y002957D01*
X006346D01*
X006348Y002958D01*
X006350Y002958D01*
X006354Y002959D01*
X006358Y002960D01*
X006360Y002960D01*
X006361Y002960D01*
X006363Y002960D01*
X006365Y002960D01*
X006366Y002960D01*
X006367D01*
X006368Y002960D01*
X006404D01*
Y002990D01*
X006334D01*
Y003012D01*
X006430D01*
Y002884D01*
D02*
G37*
G36*
X006083Y003012D02*
X006085D01*
X006089Y003012D01*
X006092Y003012D01*
X006094Y003012D01*
X006097Y003011D01*
X006099Y003011D01*
X006101Y003011D01*
X006103Y003010D01*
X006105Y003010D01*
X006106Y003009D01*
X006108Y003009D01*
X006109Y003008D01*
X006110Y003008D01*
X006110Y003008D01*
X006111Y003007D01*
X006111Y003007D01*
X006111Y003007D01*
X006113Y003006D01*
X006114Y003005D01*
X006116Y003003D01*
X006117Y003001D01*
X006119Y002999D01*
X006120Y002997D01*
X006121Y002995D01*
X006122Y002992D01*
X006124Y002990D01*
X006125Y002988D01*
X006125Y002986D01*
X006126Y002985D01*
X006127Y002983D01*
X006127Y002983D01*
X006127Y002982D01*
X006127Y002982D01*
X006127Y002982D01*
X006127Y002982D01*
Y002981D01*
X006129Y002978D01*
X006130Y002976D01*
X006131Y002973D01*
X006132Y002971D01*
X006132Y002970D01*
X006133Y002968D01*
X006134Y002967D01*
X006135Y002965D01*
X006135Y002964D01*
X006136Y002963D01*
X006136Y002963D01*
X006136Y002962D01*
X006137Y002962D01*
X006137Y002962D01*
X006137Y002962D01*
Y002961D01*
X006138Y002961D01*
X006138Y002960D01*
X006140Y002959D01*
X006142Y002958D01*
X006144Y002958D01*
X006146Y002958D01*
X006146Y002957D01*
X006147Y002957D01*
X006148Y002957D01*
X006148Y002957D01*
X006149D01*
Y003012D01*
X006174D01*
Y002884D01*
X006149D01*
Y002940D01*
X006146Y002940D01*
X006144Y002939D01*
X006143Y002939D01*
X006141Y002938D01*
X006140Y002938D01*
X006140Y002937D01*
X006139Y002937D01*
X006139Y002937D01*
X006138Y002937D01*
X006138Y002936D01*
X006137Y002935D01*
X006136Y002934D01*
X006135Y002932D01*
X006134Y002930D01*
X006132Y002929D01*
X006132Y002928D01*
X006132Y002927D01*
X006131Y002926D01*
X006131Y002926D01*
X006131Y002925D01*
X006131Y002925D01*
X006130Y002924D01*
X006130Y002924D01*
X006129Y002923D01*
X006129Y002922D01*
X006128Y002921D01*
X006128Y002920D01*
X006128Y002920D01*
X006127Y002919D01*
X006127Y002919D01*
X006127Y002919D01*
X006127Y002918D01*
X006126Y002918D01*
X006126Y002917D01*
X006126Y002917D01*
X006126Y002917D01*
X006111Y002884D01*
X006080D01*
X006098Y002919D01*
X006099Y002921D01*
X006100Y002923D01*
X006101Y002926D01*
X006103Y002928D01*
X006104Y002929D01*
X006105Y002931D01*
X006106Y002933D01*
X006106Y002934D01*
X006107Y002935D01*
X006108Y002936D01*
X006109Y002937D01*
X006109Y002938D01*
X006110Y002939D01*
X006110Y002939D01*
X006110Y002939D01*
X006110Y002940D01*
X006111Y002941D01*
X006112Y002942D01*
X006114Y002943D01*
X006115Y002944D01*
X006116Y002945D01*
X006117Y002946D01*
X006118Y002947D01*
X006119Y002947D01*
X006120Y002948D01*
X006121Y002948D01*
X006122Y002949D01*
X006123Y002949D01*
X006124Y002949D01*
X006124Y002949D01*
X006124Y002949D01*
X006124D01*
X006123Y002950D01*
X006122Y002951D01*
X006121Y002952D01*
X006120Y002952D01*
X006118Y002954D01*
X006117Y002955D01*
X006116Y002956D01*
X006115Y002957D01*
X006115Y002958D01*
X006115Y002958D01*
Y002958D01*
X006114Y002960D01*
X006113Y002961D01*
X006112Y002963D01*
X006111Y002965D01*
X006110Y002967D01*
X006110Y002967D01*
X006110Y002968D01*
X006110Y002968D01*
X006110Y002969D01*
X006110Y002969D01*
Y002969D01*
X006109Y002971D01*
X006108Y002973D01*
X006107Y002975D01*
X006107Y002977D01*
X006106Y002978D01*
X006105Y002980D01*
X006105Y002981D01*
X006104Y002982D01*
X006104Y002983D01*
X006104Y002983D01*
X006103Y002984D01*
X006103Y002984D01*
X006103Y002985D01*
X006103Y002985D01*
X006103Y002985D01*
X006102Y002987D01*
X006101Y002988D01*
X006100Y002989D01*
X006099Y002990D01*
X006098Y002990D01*
X006097Y002991D01*
X006097Y002991D01*
X006097Y002991D01*
X006096Y002992D01*
X006095Y002992D01*
X006093Y002992D01*
X006092Y002993D01*
X006090Y002993D01*
X006088Y002993D01*
X006087D01*
X006087Y002993D01*
X006082D01*
Y003012D01*
X006083D01*
X006083Y003012D01*
D02*
G37*
G36*
X005813Y002884D02*
X005788D01*
Y002908D01*
X005813D01*
Y002884D01*
D02*
G37*
G36*
X005124Y002884D02*
X005071D01*
X005068Y002884D01*
X005064Y002884D01*
X005061Y002884D01*
X005059Y002885D01*
X005056Y002885D01*
X005054Y002886D01*
X005052Y002886D01*
X005050Y002887D01*
X005049Y002888D01*
X005047Y002888D01*
X005046Y002889D01*
X005045Y002889D01*
X005044Y002890D01*
X005044Y002890D01*
X005043Y002890D01*
X005043Y002890D01*
X005042Y002892D01*
X005040Y002893D01*
X005039Y002895D01*
X005038Y002896D01*
X005037Y002898D01*
X005036Y002900D01*
X005036Y002901D01*
X005035Y002903D01*
X005035Y002905D01*
X005034Y002906D01*
X005034Y002907D01*
X005034Y002908D01*
X005034Y002909D01*
X005034Y002910D01*
Y002910D01*
Y002911D01*
X005034Y002912D01*
X005034Y002914D01*
X005035Y002917D01*
X005035Y002918D01*
X005036Y002920D01*
X005036Y002921D01*
X005037Y002922D01*
X005037Y002923D01*
X005038Y002924D01*
X005038Y002925D01*
X005038Y002925D01*
X005039Y002926D01*
X005039Y002926D01*
X005039Y002927D01*
X005039Y002927D01*
X005040Y002928D01*
X005041Y002929D01*
X005042Y002930D01*
X005043Y002931D01*
X005044Y002932D01*
X005046Y002933D01*
X005048Y002934D01*
X005049Y002935D01*
X005050Y002935D01*
X005051Y002935D01*
X005051Y002935D01*
X005052Y002936D01*
X005052Y002936D01*
X005052D01*
X005054Y002936D01*
X005055Y002936D01*
X005057Y002937D01*
X005059Y002937D01*
X005063Y002937D01*
X005066Y002938D01*
X005068Y002938D01*
X005069Y002938D01*
X005071D01*
X005072Y002938D01*
X005099D01*
Y002976D01*
X005124D01*
Y002884D01*
D02*
G37*
G36*
X004873Y003012D02*
X004875D01*
X004878Y003012D01*
X004881Y003012D01*
X004884Y003012D01*
X004887Y003011D01*
X004889Y003011D01*
X004891Y003011D01*
X004893Y003010D01*
X004895Y003010D01*
X004896Y003009D01*
X004897Y003009D01*
X004898Y003008D01*
X004899Y003008D01*
X004900Y003008D01*
X004901Y003007D01*
X004901Y003007D01*
X004901Y003007D01*
X004902Y003006D01*
X004904Y003005D01*
X004905Y003003D01*
X004907Y003001D01*
X004908Y002999D01*
X004910Y002997D01*
X004911Y002995D01*
X004912Y002992D01*
X004913Y002990D01*
X004914Y002988D01*
X004915Y002986D01*
X004916Y002985D01*
X004916Y002983D01*
X004916Y002983D01*
X004917Y002982D01*
X004917Y002982D01*
X004917Y002982D01*
X004917Y002982D01*
Y002981D01*
X004918Y002978D01*
X004919Y002976D01*
X004920Y002973D01*
X004921Y002971D01*
X004922Y002970D01*
X004923Y002968D01*
X004924Y002967D01*
X004924Y002965D01*
X004925Y002964D01*
X004925Y002963D01*
X004926Y002963D01*
X004926Y002962D01*
X004926Y002962D01*
X004926Y002962D01*
X004926Y002962D01*
Y002961D01*
X004927Y002961D01*
X004928Y002960D01*
X004930Y002959D01*
X004931Y002958D01*
X004933Y002958D01*
X004935Y002958D01*
X004936Y002957D01*
X004937Y002957D01*
X004937Y002957D01*
X004938Y002957D01*
X004938D01*
Y003012D01*
X004964D01*
Y002884D01*
X004938D01*
Y002940D01*
X004936Y002940D01*
X004934Y002939D01*
X004932Y002939D01*
X004931Y002938D01*
X004930Y002938D01*
X004929Y002937D01*
X004929Y002937D01*
X004928Y002937D01*
X004928Y002937D01*
X004927Y002936D01*
X004926Y002935D01*
X004926Y002934D01*
X004924Y002932D01*
X004923Y002930D01*
X004922Y002929D01*
X004921Y002928D01*
X004921Y002927D01*
X004921Y002926D01*
X004920Y002926D01*
X004920Y002925D01*
X004920Y002925D01*
X004920Y002924D01*
X004919Y002924D01*
X004919Y002923D01*
X004919Y002922D01*
X004918Y002921D01*
X004918Y002920D01*
X004917Y002920D01*
X004917Y002919D01*
X004917Y002919D01*
X004917Y002919D01*
X004916Y002918D01*
X004916Y002918D01*
X004916Y002917D01*
X004916Y002917D01*
X004915Y002917D01*
X004900Y002884D01*
X004870D01*
X004887Y002919D01*
X004889Y002921D01*
X004890Y002923D01*
X004891Y002926D01*
X004892Y002928D01*
X004893Y002929D01*
X004894Y002931D01*
X004895Y002933D01*
X004896Y002934D01*
X004897Y002935D01*
X004898Y002936D01*
X004898Y002937D01*
X004899Y002938D01*
X004899Y002939D01*
X004899Y002939D01*
X004900Y002939D01*
X004900Y002940D01*
X004901Y002941D01*
X004902Y002942D01*
X004903Y002943D01*
X004904Y002944D01*
X004905Y002945D01*
X004907Y002946D01*
X004908Y002947D01*
X004909Y002947D01*
X004910Y002948D01*
X004911Y002948D01*
X004912Y002949D01*
X004912Y002949D01*
X004913Y002949D01*
X004914Y002949D01*
X004914Y002949D01*
X004914D01*
X004913Y002950D01*
X004912Y002951D01*
X004910Y002952D01*
X004909Y002952D01*
X004908Y002954D01*
X004906Y002955D01*
X004905Y002956D01*
X004905Y002957D01*
X004904Y002958D01*
X004904Y002958D01*
Y002958D01*
X004903Y002960D01*
X004902Y002961D01*
X004901Y002963D01*
X004901Y002965D01*
X004900Y002967D01*
X004900Y002967D01*
X004899Y002968D01*
X004899Y002968D01*
X004899Y002969D01*
X004899Y002969D01*
Y002969D01*
X004898Y002971D01*
X004898Y002973D01*
X004897Y002975D01*
X004896Y002977D01*
X004896Y002978D01*
X004895Y002980D01*
X004894Y002981D01*
X004894Y002982D01*
X004894Y002983D01*
X004893Y002983D01*
X004893Y002984D01*
X004893Y002984D01*
X004893Y002985D01*
X004892Y002985D01*
X004892Y002985D01*
X004891Y002987D01*
X004890Y002988D01*
X004889Y002989D01*
X004889Y002990D01*
X004888Y002990D01*
X004887Y002991D01*
X004887Y002991D01*
X004886Y002991D01*
X004886Y002992D01*
X004885Y002992D01*
X004883Y002992D01*
X004881Y002993D01*
X004879Y002993D01*
X004877Y002993D01*
X004877D01*
X004876Y002993D01*
X004871D01*
Y003012D01*
X004872D01*
X004873Y003012D01*
D02*
G37*
G36*
X004393Y002957D02*
X004364D01*
Y002884D01*
X004339D01*
Y002957D01*
X004310D01*
Y002976D01*
X004393D01*
Y002957D01*
D02*
G37*
G36*
X004197Y002957D02*
X004167D01*
Y002884D01*
X004142D01*
Y002957D01*
X004113D01*
Y002976D01*
X004197D01*
Y002957D01*
D02*
G37*
G36*
X003641Y002884D02*
X003617D01*
Y002908D01*
X003641D01*
Y002884D01*
D02*
G37*
G36*
X005231Y002923D02*
Y002920D01*
X005231Y002918D01*
Y002915D01*
X005231Y002914D01*
X005231Y002912D01*
X005231Y002910D01*
X005231Y002909D01*
X005231Y002908D01*
X005232Y002907D01*
X005232Y002906D01*
X005232Y002906D01*
X005232Y002905D01*
X005232Y002905D01*
Y002905D01*
X005232Y002904D01*
X005233Y002903D01*
X005233Y002903D01*
X005234Y002902D01*
X005235Y002902D01*
X005236Y002901D01*
X005237Y002901D01*
X005238Y002901D01*
X005240D01*
X005241Y002901D01*
X005243D01*
X005243Y002901D01*
X005244D01*
X005245Y002902D01*
X005246D01*
X005247Y002902D01*
X005248D01*
Y002884D01*
X005246Y002883D01*
X005245Y002883D01*
X005243Y002883D01*
X005242Y002883D01*
X005240Y002883D01*
X005239Y002882D01*
X005238Y002882D01*
X005237Y002882D01*
X005236Y002882D01*
X005234D01*
X005234Y002882D01*
X005231D01*
X005229Y002882D01*
X005228Y002882D01*
X005226Y002882D01*
X005225Y002882D01*
X005224Y002883D01*
X005223Y002883D01*
X005222Y002883D01*
X005221Y002883D01*
X005220Y002883D01*
X005220Y002883D01*
X005219Y002884D01*
X005219Y002884D01*
X005219Y002884D01*
X005219Y002884D01*
X005218D01*
X005218Y002884D01*
X005217Y002885D01*
X005215Y002886D01*
X005214Y002887D01*
X005213Y002889D01*
X005212Y002890D01*
X005211Y002891D01*
X005211Y002892D01*
X005211Y002892D01*
X005210Y002892D01*
Y002892D01*
X005210Y002894D01*
X005209Y002895D01*
X005209Y002897D01*
X005208Y002899D01*
X005208Y002902D01*
X005207Y002906D01*
X005207Y002908D01*
X005207Y002909D01*
X005207Y002911D01*
Y002912D01*
X005207Y002913D01*
Y002914D01*
Y002915D01*
Y002915D01*
Y002956D01*
X005173D01*
Y002884D01*
X005149D01*
Y002976D01*
X005231D01*
Y002923D01*
D02*
G37*
G36*
X005520Y002978D02*
X005523Y002978D01*
X005525Y002978D01*
X005527Y002977D01*
X005529Y002977D01*
X005531Y002976D01*
X005533Y002976D01*
X005535Y002975D01*
X005537Y002975D01*
X005538Y002974D01*
X005539Y002974D01*
X005540Y002973D01*
X005541Y002973D01*
X005542Y002973D01*
X005542Y002972D01*
X005542Y002972D01*
X005544Y002971D01*
X005546Y002970D01*
X005548Y002968D01*
X005550Y002967D01*
X005551Y002966D01*
X005552Y002964D01*
X005554Y002963D01*
X005555Y002961D01*
X005556Y002960D01*
X005557Y002959D01*
X005557Y002958D01*
X005558Y002957D01*
X005559Y002956D01*
X005559Y002955D01*
X005559Y002955D01*
X005559Y002955D01*
X005560Y002953D01*
X005561Y002951D01*
X005562Y002948D01*
X005563Y002946D01*
X005563Y002944D01*
X005564Y002942D01*
X005564Y002940D01*
X005565Y002939D01*
X005565Y002937D01*
X005565Y002936D01*
X005565Y002934D01*
X005565Y002933D01*
X005565Y002932D01*
Y002932D01*
Y002931D01*
Y002931D01*
X005565Y002928D01*
X005565Y002925D01*
X005565Y002923D01*
X005564Y002920D01*
X005564Y002918D01*
X005563Y002916D01*
X005563Y002914D01*
X005562Y002912D01*
X005562Y002910D01*
X005561Y002908D01*
X005561Y002907D01*
X005560Y002906D01*
X005560Y002905D01*
X005560Y002905D01*
X005559Y002904D01*
X005559Y002904D01*
X005558Y002902D01*
X005557Y002900D01*
X005555Y002898D01*
X005554Y002897D01*
X005553Y002895D01*
X005551Y002894D01*
X005550Y002893D01*
X005548Y002891D01*
X005547Y002890D01*
X005546Y002890D01*
X005545Y002889D01*
X005544Y002888D01*
X005543Y002888D01*
X005542Y002887D01*
X005542Y002887D01*
X005542Y002887D01*
X005539Y002886D01*
X005537Y002885D01*
X005535Y002885D01*
X005533Y002884D01*
X005531Y002883D01*
X005529Y002883D01*
X005527Y002882D01*
X005525Y002882D01*
X005524Y002882D01*
X005522Y002882D01*
X005521Y002882D01*
X005519Y002882D01*
X005519Y002881D01*
X005517D01*
X005514Y002882D01*
X005510Y002882D01*
X005507Y002883D01*
X005503Y002884D01*
X005500Y002885D01*
X005497Y002886D01*
X005495Y002887D01*
X005492Y002888D01*
X005490Y002890D01*
X005489Y002891D01*
X005487Y002892D01*
X005486Y002893D01*
X005485Y002894D01*
X005484Y002895D01*
X005483Y002895D01*
X005483Y002895D01*
X005481Y002898D01*
X005479Y002901D01*
X005477Y002904D01*
X005475Y002907D01*
X005474Y002909D01*
X005473Y002912D01*
X005472Y002915D01*
X005471Y002918D01*
X005471Y002920D01*
X005470Y002923D01*
X005470Y002925D01*
X005470Y002927D01*
X005470Y002928D01*
Y002929D01*
X005470Y002929D01*
Y002930D01*
Y002930D01*
Y002930D01*
Y002930D01*
X005470Y002934D01*
X005470Y002938D01*
X005471Y002941D01*
X005472Y002944D01*
X005473Y002947D01*
X005474Y002950D01*
X005475Y002953D01*
X005476Y002955D01*
X005478Y002957D01*
X005479Y002959D01*
X005480Y002961D01*
X005481Y002962D01*
X005482Y002963D01*
X005483Y002964D01*
X005483Y002964D01*
X005483Y002965D01*
X005486Y002967D01*
X005488Y002969D01*
X005491Y002971D01*
X005494Y002973D01*
X005497Y002974D01*
X005500Y002975D01*
X005503Y002976D01*
X005505Y002977D01*
X005508Y002977D01*
X005510Y002978D01*
X005512Y002978D01*
X005514Y002978D01*
X005516Y002978D01*
X005516D01*
X005517Y002978D01*
X005518D01*
X005520Y002978D01*
D02*
G37*
G36*
X004816D02*
X004818Y002978D01*
X004821Y002978D01*
X004823Y002977D01*
X004825Y002977D01*
X004827Y002976D01*
X004829Y002976D01*
X004831Y002975D01*
X004832Y002975D01*
X004834Y002974D01*
X004835Y002974D01*
X004836Y002973D01*
X004837Y002973D01*
X004838Y002973D01*
X004838Y002972D01*
X004838Y002972D01*
X004840Y002971D01*
X004842Y002970D01*
X004844Y002968D01*
X004845Y002967D01*
X004847Y002966D01*
X004848Y002964D01*
X004850Y002963D01*
X004851Y002961D01*
X004852Y002960D01*
X004853Y002959D01*
X004853Y002958D01*
X004854Y002957D01*
X004854Y002956D01*
X004855Y002955D01*
X004855Y002955D01*
X004855Y002955D01*
X004856Y002953D01*
X004857Y002951D01*
X004858Y002948D01*
X004859Y002946D01*
X004859Y002944D01*
X004860Y002942D01*
X004860Y002940D01*
X004860Y002939D01*
X004861Y002937D01*
X004861Y002936D01*
X004861Y002934D01*
X004861Y002933D01*
X004861Y002932D01*
Y002932D01*
Y002931D01*
Y002931D01*
X004861Y002928D01*
X004861Y002925D01*
X004861Y002923D01*
X004860Y002920D01*
X004860Y002918D01*
X004859Y002916D01*
X004859Y002914D01*
X004858Y002912D01*
X004858Y002910D01*
X004857Y002908D01*
X004856Y002907D01*
X004856Y002906D01*
X004856Y002905D01*
X004855Y002905D01*
X004855Y002904D01*
X004855Y002904D01*
X004854Y002902D01*
X004853Y002900D01*
X004851Y002898D01*
X004850Y002897D01*
X004848Y002895D01*
X004847Y002894D01*
X004845Y002893D01*
X004844Y002891D01*
X004843Y002890D01*
X004842Y002890D01*
X004840Y002889D01*
X004839Y002888D01*
X004839Y002888D01*
X004838Y002887D01*
X004838Y002887D01*
X004838Y002887D01*
X004835Y002886D01*
X004833Y002885D01*
X004831Y002885D01*
X004829Y002884D01*
X004827Y002883D01*
X004825Y002883D01*
X004823Y002882D01*
X004821Y002882D01*
X004819Y002882D01*
X004818Y002882D01*
X004817Y002882D01*
X004815Y002882D01*
X004815Y002881D01*
X004813D01*
X004809Y002882D01*
X004806Y002882D01*
X004802Y002883D01*
X004799Y002884D01*
X004796Y002885D01*
X004793Y002886D01*
X004791Y002887D01*
X004788Y002888D01*
X004786Y002890D01*
X004784Y002891D01*
X004783Y002892D01*
X004781Y002893D01*
X004780Y002894D01*
X004780Y002895D01*
X004779Y002895D01*
X004779Y002895D01*
X004777Y002898D01*
X004774Y002901D01*
X004773Y002904D01*
X004771Y002907D01*
X004770Y002909D01*
X004769Y002912D01*
X004768Y002915D01*
X004767Y002918D01*
X004767Y002920D01*
X004766Y002923D01*
X004766Y002925D01*
X004766Y002927D01*
X004766Y002928D01*
Y002929D01*
X004765Y002929D01*
Y002930D01*
Y002930D01*
Y002930D01*
Y002930D01*
X004766Y002934D01*
X004766Y002938D01*
X004767Y002941D01*
X004768Y002944D01*
X004769Y002947D01*
X004770Y002950D01*
X004771Y002953D01*
X004772Y002955D01*
X004773Y002957D01*
X004775Y002959D01*
X004776Y002961D01*
X004777Y002962D01*
X004778Y002963D01*
X004778Y002964D01*
X004779Y002964D01*
X004779Y002965D01*
X004782Y002967D01*
X004784Y002969D01*
X004787Y002971D01*
X004790Y002973D01*
X004793Y002974D01*
X004796Y002975D01*
X004799Y002976D01*
X004801Y002977D01*
X004804Y002977D01*
X004806Y002978D01*
X004808Y002978D01*
X004810Y002978D01*
X004811Y002978D01*
X004812D01*
X004812Y002978D01*
X004813D01*
X004816Y002978D01*
D02*
G37*
G36*
X004255D02*
X004258Y002978D01*
X004260Y002978D01*
X004262Y002977D01*
X004265Y002977D01*
X004267Y002976D01*
X004269Y002976D01*
X004270Y002975D01*
X004272Y002975D01*
X004273Y002974D01*
X004275Y002974D01*
X004276Y002973D01*
X004276Y002973D01*
X004277Y002973D01*
X004277Y002972D01*
X004278Y002972D01*
X004280Y002971D01*
X004281Y002970D01*
X004283Y002968D01*
X004285Y002967D01*
X004286Y002966D01*
X004288Y002964D01*
X004289Y002963D01*
X004290Y002961D01*
X004291Y002960D01*
X004292Y002959D01*
X004293Y002958D01*
X004293Y002957D01*
X004294Y002956D01*
X004294Y002955D01*
X004294Y002955D01*
X004295Y002955D01*
X004296Y002953D01*
X004296Y002951D01*
X004297Y002948D01*
X004298Y002946D01*
X004299Y002944D01*
X004299Y002942D01*
X004299Y002940D01*
X004300Y002939D01*
X004300Y002937D01*
X004300Y002936D01*
X004300Y002934D01*
X004300Y002933D01*
X004301Y002932D01*
Y002932D01*
Y002931D01*
Y002931D01*
X004300Y002928D01*
X004300Y002925D01*
X004300Y002923D01*
X004300Y002920D01*
X004299Y002918D01*
X004299Y002916D01*
X004298Y002914D01*
X004298Y002912D01*
X004297Y002910D01*
X004296Y002908D01*
X004296Y002907D01*
X004295Y002906D01*
X004295Y002905D01*
X004295Y002905D01*
X004295Y002904D01*
X004295Y002904D01*
X004293Y002902D01*
X004292Y002900D01*
X004291Y002898D01*
X004289Y002897D01*
X004288Y002895D01*
X004286Y002894D01*
X004285Y002893D01*
X004284Y002891D01*
X004282Y002890D01*
X004281Y002890D01*
X004280Y002889D01*
X004279Y002888D01*
X004278Y002888D01*
X004277Y002887D01*
X004277Y002887D01*
X004277Y002887D01*
X004275Y002886D01*
X004273Y002885D01*
X004270Y002885D01*
X004268Y002884D01*
X004266Y002883D01*
X004264Y002883D01*
X004262Y002882D01*
X004261Y002882D01*
X004259Y002882D01*
X004257Y002882D01*
X004256Y002882D01*
X004255Y002882D01*
X004254Y002881D01*
X004253D01*
X004249Y002882D01*
X004245Y002882D01*
X004242Y002883D01*
X004239Y002884D01*
X004236Y002885D01*
X004233Y002886D01*
X004230Y002887D01*
X004228Y002888D01*
X004226Y002890D01*
X004224Y002891D01*
X004222Y002892D01*
X004221Y002893D01*
X004220Y002894D01*
X004219Y002895D01*
X004219Y002895D01*
X004218Y002895D01*
X004216Y002898D01*
X004214Y002901D01*
X004212Y002904D01*
X004211Y002907D01*
X004209Y002909D01*
X004208Y002912D01*
X004207Y002915D01*
X004207Y002918D01*
X004206Y002920D01*
X004206Y002923D01*
X004205Y002925D01*
X004205Y002927D01*
X004205Y002928D01*
Y002929D01*
X004205Y002929D01*
Y002930D01*
Y002930D01*
Y002930D01*
Y002930D01*
X004205Y002934D01*
X004205Y002938D01*
X004206Y002941D01*
X004207Y002944D01*
X004208Y002947D01*
X004209Y002950D01*
X004210Y002953D01*
X004212Y002955D01*
X004213Y002957D01*
X004214Y002959D01*
X004215Y002961D01*
X004216Y002962D01*
X004217Y002963D01*
X004218Y002964D01*
X004218Y002964D01*
X004218Y002965D01*
X004221Y002967D01*
X004224Y002969D01*
X004226Y002971D01*
X004229Y002973D01*
X004232Y002974D01*
X004235Y002975D01*
X004238Y002976D01*
X004241Y002977D01*
X004243Y002977D01*
X004245Y002978D01*
X004248Y002978D01*
X004249Y002978D01*
X004251Y002978D01*
X004251Y002978D01*
X004252Y002978D01*
X004253D01*
X004255Y002978D01*
D02*
G37*
G36*
X003559Y003012D02*
X003562Y003011D01*
X003565Y003011D01*
X003568Y003010D01*
X003570Y003009D01*
X003573Y003008D01*
X003575Y003007D01*
X003577Y003005D01*
X003578Y003004D01*
X003580Y003003D01*
X003581Y003002D01*
X003582Y003001D01*
X003583Y003000D01*
X003584Y002999D01*
X003584Y002999D01*
X003584Y002999D01*
X003585Y002997D01*
X003587Y002996D01*
X003587Y002994D01*
X003588Y002992D01*
X003590Y002988D01*
X003592Y002984D01*
X003593Y002980D01*
X003594Y002975D01*
X003595Y002971D01*
X003595Y002967D01*
X003596Y002963D01*
X003596Y002959D01*
X003596Y002957D01*
X003596Y002956D01*
X003597Y002954D01*
X003597Y002953D01*
X003597Y002951D01*
Y002950D01*
Y002949D01*
X003597Y002948D01*
Y002948D01*
Y002947D01*
Y002947D01*
Y002947D01*
Y002943D01*
X003597Y002940D01*
X003597Y002937D01*
X003596Y002934D01*
X003596Y002931D01*
X003596Y002928D01*
X003595Y002926D01*
X003595Y002923D01*
X003595Y002921D01*
X003594Y002919D01*
X003594Y002917D01*
X003593Y002914D01*
X003593Y002913D01*
X003592Y002911D01*
X003592Y002909D01*
X003591Y002907D01*
X003591Y002906D01*
X003590Y002905D01*
X003589Y002903D01*
X003589Y002902D01*
X003589Y002901D01*
X003588Y002900D01*
X003588Y002899D01*
X003587Y002898D01*
X003587Y002898D01*
X003586Y002897D01*
X003586Y002897D01*
X003586Y002896D01*
X003585Y002896D01*
X003585Y002896D01*
X003583Y002893D01*
X003581Y002891D01*
X003578Y002889D01*
X003576Y002887D01*
X003573Y002886D01*
X003571Y002885D01*
X003568Y002884D01*
X003566Y002883D01*
X003564Y002883D01*
X003562Y002882D01*
X003560Y002882D01*
X003558Y002882D01*
X003557Y002881D01*
X003556Y002881D01*
X003555D01*
X003552Y002882D01*
X003549Y002882D01*
X003546Y002883D01*
X003543Y002883D01*
X003540Y002884D01*
X003538Y002886D01*
X003536Y002887D01*
X003534Y002888D01*
X003532Y002889D01*
X003530Y002890D01*
X003529Y002891D01*
X003528Y002892D01*
X003527Y002893D01*
X003527Y002894D01*
X003526Y002894D01*
X003526Y002894D01*
X003525Y002896D01*
X003524Y002898D01*
X003523Y002899D01*
X003522Y002901D01*
X003520Y002905D01*
X003519Y002909D01*
X003518Y002914D01*
X003517Y002918D01*
X003516Y002922D01*
X003515Y002926D01*
X003515Y002931D01*
X003514Y002934D01*
X003514Y002936D01*
X003514Y002938D01*
X003514Y002939D01*
X003514Y002941D01*
X003514Y002942D01*
Y002943D01*
X003514Y002944D01*
Y002945D01*
Y002946D01*
Y002946D01*
Y002947D01*
Y002947D01*
Y002950D01*
X003514Y002953D01*
X003514Y002956D01*
X003514Y002959D01*
X003514Y002962D01*
X003515Y002965D01*
X003515Y002968D01*
X003516Y002970D01*
X003516Y002973D01*
X003517Y002975D01*
X003517Y002977D01*
X003518Y002979D01*
X003518Y002981D01*
X003519Y002983D01*
X003519Y002985D01*
X003520Y002986D01*
X003521Y002988D01*
X003521Y002989D01*
X003522Y002991D01*
X003522Y002992D01*
X003523Y002993D01*
X003523Y002994D01*
X003524Y002995D01*
X003524Y002996D01*
X003525Y002996D01*
X003525Y002997D01*
X003525Y002997D01*
X003526Y002998D01*
X003526Y002998D01*
X003526Y002999D01*
X003526Y002999D01*
X003528Y003001D01*
X003530Y003003D01*
X003533Y003005D01*
X003535Y003006D01*
X003538Y003008D01*
X003540Y003009D01*
X003542Y003010D01*
X003545Y003010D01*
X003547Y003011D01*
X003549Y003011D01*
X003551Y003012D01*
X003552Y003012D01*
X003554Y003012D01*
X003554Y003012D01*
X003555D01*
X003559Y003012D01*
D02*
G37*
G36*
X005439Y002973D02*
X005439Y002970D01*
X005439Y002967D01*
X005439Y002964D01*
X005439Y002961D01*
X005439Y002958D01*
X005439Y002956D01*
X005440Y002953D01*
X005440Y002951D01*
X005440Y002948D01*
X005440Y002946D01*
X005440Y002944D01*
X005441Y002942D01*
X005441Y002941D01*
X005441Y002939D01*
X005441Y002937D01*
X005442Y002936D01*
X005442Y002934D01*
X005442Y002933D01*
X005442Y002932D01*
X005442Y002931D01*
X005442Y002930D01*
X005443Y002929D01*
X005443Y002928D01*
X005443Y002928D01*
X005443Y002927D01*
X005443Y002926D01*
X005443Y002926D01*
X005443Y002926D01*
X005443Y002925D01*
X005444Y002923D01*
X005445Y002920D01*
X005446Y002918D01*
X005447Y002916D01*
X005448Y002914D01*
X005448Y002912D01*
X005449Y002910D01*
X005450Y002909D01*
X005451Y002908D01*
X005452Y002907D01*
X005452Y002906D01*
X005453Y002905D01*
X005453Y002904D01*
X005453Y002904D01*
X005454Y002904D01*
X005454Y002904D01*
X005464D01*
Y002859D01*
X005444D01*
Y002884D01*
X005374D01*
Y002859D01*
X005354D01*
Y002904D01*
X005364D01*
Y002976D01*
X005439D01*
X005439Y002973D01*
D02*
G37*
G36*
X006292Y002998D02*
Y002992D01*
X006292Y002986D01*
X006292Y002981D01*
X006292Y002975D01*
X006292Y002970D01*
X006293Y002966D01*
X006293Y002964D01*
X006293Y002962D01*
X006293Y002960D01*
X006293Y002958D01*
X006293Y002956D01*
X006293Y002955D01*
X006293Y002953D01*
X006294Y002952D01*
X006294Y002950D01*
X006294Y002949D01*
X006294Y002948D01*
X006294Y002947D01*
X006294Y002946D01*
Y002945D01*
X006294Y002945D01*
X006294Y002944D01*
Y002944D01*
X006294Y002943D01*
Y002943D01*
Y002943D01*
X006295Y002939D01*
X006296Y002935D01*
X006296Y002931D01*
X006297Y002928D01*
X006298Y002925D01*
X006299Y002921D01*
X006300Y002919D01*
X006301Y002916D01*
X006301Y002914D01*
X006302Y002911D01*
X006303Y002909D01*
X006304Y002908D01*
X006304Y002907D01*
X006304Y002906D01*
X006305Y002905D01*
X006305Y002905D01*
Y002905D01*
X006316D01*
Y002856D01*
X006294D01*
Y002884D01*
X006214D01*
Y002856D01*
X006192D01*
Y002905D01*
X006203D01*
Y003012D01*
X006292D01*
Y002998D01*
D02*
G37*
G36*
X004050Y002978D02*
X004054Y002978D01*
X004056Y002977D01*
X004058Y002977D01*
X004059Y002976D01*
X004060Y002976D01*
X004061Y002975D01*
X004062Y002975D01*
X004063Y002975D01*
X004063Y002974D01*
X004064Y002974D01*
X004064Y002974D01*
X004064Y002974D01*
X004067Y002972D01*
X004069Y002970D01*
X004071Y002968D01*
X004073Y002967D01*
X004074Y002966D01*
X004074Y002965D01*
X004075Y002964D01*
X004075Y002964D01*
X004076Y002963D01*
X004076Y002963D01*
X004076Y002963D01*
X004076Y002963D01*
Y002976D01*
X004099D01*
Y002848D01*
X004074D01*
Y002895D01*
X004073Y002894D01*
X004072Y002892D01*
X004071Y002891D01*
X004069Y002890D01*
X004068Y002889D01*
X004067Y002888D01*
X004065Y002887D01*
X004064Y002886D01*
X004064Y002886D01*
X004063Y002885D01*
X004062Y002885D01*
X004062Y002885D01*
X004062Y002885D01*
X004061Y002885D01*
X004061D01*
X004059Y002883D01*
X004056Y002883D01*
X004054Y002882D01*
X004052Y002882D01*
X004051Y002882D01*
X004050Y002882D01*
X004049Y002882D01*
X004049D01*
X004048Y002881D01*
X004047D01*
X004044Y002882D01*
X004041Y002882D01*
X004039Y002883D01*
X004036Y002883D01*
X004034Y002884D01*
X004031Y002886D01*
X004029Y002887D01*
X004027Y002888D01*
X004026Y002889D01*
X004024Y002890D01*
X004023Y002891D01*
X004022Y002892D01*
X004021Y002893D01*
X004020Y002894D01*
X004020Y002894D01*
X004020Y002894D01*
X004018Y002897D01*
X004016Y002900D01*
X004014Y002902D01*
X004013Y002905D01*
X004012Y002908D01*
X004011Y002911D01*
X004010Y002914D01*
X004010Y002917D01*
X004009Y002920D01*
X004009Y002922D01*
X004009Y002925D01*
X004008Y002927D01*
X004008Y002927D01*
Y002928D01*
X004008Y002929D01*
Y002929D01*
Y002930D01*
Y002930D01*
Y002930D01*
Y002930D01*
X004008Y002935D01*
X004009Y002938D01*
X004009Y002942D01*
X004010Y002945D01*
X004011Y002949D01*
X004012Y002952D01*
X004013Y002954D01*
X004014Y002957D01*
X004015Y002959D01*
X004016Y002961D01*
X004017Y002962D01*
X004018Y002963D01*
X004019Y002964D01*
X004019Y002965D01*
X004019Y002966D01*
X004020Y002966D01*
X004022Y002968D01*
X004024Y002970D01*
X004026Y002972D01*
X004029Y002973D01*
X004031Y002974D01*
X004033Y002975D01*
X004035Y002976D01*
X004038Y002977D01*
X004040Y002977D01*
X004041Y002978D01*
X004043Y002978D01*
X004044Y002978D01*
X004045Y002978D01*
X004046Y002978D01*
X004049D01*
X004050Y002978D01*
D02*
G37*
%LPC*%
G36*
X006051Y003150D02*
X006051D01*
X006050Y003150D01*
X006048Y003149D01*
X006047Y003149D01*
X006046Y003149D01*
X006044Y003148D01*
X006042Y003146D01*
X006041Y003146D01*
X006040Y003145D01*
X006040Y003145D01*
X006039Y003144D01*
X006039Y003144D01*
X006038Y003143D01*
X006038Y003143D01*
X006038Y003143D01*
X006037Y003142D01*
X006036Y003140D01*
X006036Y003139D01*
X006035Y003137D01*
X006034Y003136D01*
X006034Y003134D01*
X006033Y003131D01*
X006033Y003130D01*
X006033Y003129D01*
X006033Y003128D01*
X006033Y003127D01*
X006033Y003126D01*
Y003125D01*
Y003125D01*
Y003125D01*
X006033Y003123D01*
X006033Y003121D01*
X006033Y003119D01*
X006033Y003118D01*
X006034Y003116D01*
X006034Y003115D01*
X006035Y003114D01*
X006035Y003112D01*
X006036Y003111D01*
X006036Y003111D01*
X006037Y003110D01*
X006037Y003109D01*
X006037Y003109D01*
X006037Y003109D01*
X006038Y003108D01*
X006038Y003108D01*
X006039Y003107D01*
X006039Y003106D01*
X006040Y003106D01*
X006042Y003105D01*
X006043Y003105D01*
X006044Y003104D01*
X006045Y003104D01*
X006047Y003103D01*
X006048Y003103D01*
X006048Y003103D01*
X006049Y003103D01*
X006050D01*
X006051Y003103D01*
X006052Y003103D01*
X006053Y003103D01*
X006055Y003104D01*
X006057Y003105D01*
X006058Y003106D01*
X006059Y003106D01*
X006060Y003107D01*
X006060Y003107D01*
X006061Y003108D01*
X006061Y003108D01*
X006062Y003108D01*
X006062Y003108D01*
X006062Y003109D01*
X006063Y003110D01*
X006063Y003111D01*
X006064Y003112D01*
X006065Y003114D01*
X006065Y003117D01*
X006066Y003120D01*
X006066Y003121D01*
X006066Y003122D01*
X006066Y003124D01*
X006066Y003125D01*
X006067Y003126D01*
Y003126D01*
Y003127D01*
Y003127D01*
X006066Y003129D01*
X006066Y003131D01*
X006066Y003133D01*
X006066Y003135D01*
X006066Y003136D01*
X006065Y003138D01*
X006065Y003139D01*
X006064Y003140D01*
X006064Y003141D01*
X006064Y003142D01*
X006063Y003143D01*
X006063Y003143D01*
X006062Y003144D01*
X006062Y003144D01*
X006062Y003144D01*
X006062Y003144D01*
X006061Y003145D01*
X006060Y003146D01*
X006059Y003147D01*
X006058Y003147D01*
X006057Y003148D01*
X006057Y003148D01*
X006055Y003149D01*
X006053Y003149D01*
X006053Y003149D01*
X006052Y003150D01*
X006051Y003150D01*
D02*
G37*
G36*
X006147D02*
X006147D01*
X006145Y003150D01*
X006144Y003149D01*
X006142Y003149D01*
X006141Y003148D01*
X006140Y003148D01*
X006139Y003147D01*
X006139Y003147D01*
X006139Y003147D01*
X006138Y003146D01*
X006138Y003145D01*
X006136Y003144D01*
X006135Y003142D01*
X006135Y003140D01*
X006134Y003138D01*
X006134Y003138D01*
X006133Y003137D01*
X006133Y003136D01*
X006133Y003136D01*
X006133Y003136D01*
Y003136D01*
X006133Y003134D01*
X006132Y003132D01*
X006132Y003130D01*
X006132Y003127D01*
X006131Y003125D01*
X006131Y003122D01*
X006131Y003119D01*
X006131Y003117D01*
X006131Y003114D01*
X006131Y003112D01*
Y003110D01*
X006131Y003108D01*
Y003107D01*
Y003106D01*
Y003106D01*
Y003105D01*
Y003105D01*
Y003105D01*
Y003105D01*
Y003101D01*
X006131Y003097D01*
X006131Y003093D01*
X006131Y003090D01*
X006131Y003087D01*
X006132Y003085D01*
X006132Y003082D01*
X006132Y003080D01*
X006132Y003078D01*
X006132Y003077D01*
X006133Y003076D01*
X006133Y003074D01*
X006133Y003074D01*
X006133Y003073D01*
X006133Y003073D01*
Y003073D01*
X006134Y003071D01*
X006134Y003070D01*
X006135Y003069D01*
X006135Y003068D01*
X006135Y003067D01*
X006136Y003066D01*
X006137Y003065D01*
X006138Y003064D01*
X006138Y003063D01*
X006139Y003063D01*
X006139Y003062D01*
X006140Y003062D01*
X006141Y003061D01*
X006143Y003060D01*
X006144Y003060D01*
X006145Y003060D01*
X006146Y003060D01*
X006147Y003060D01*
X006147D01*
X006148Y003060D01*
X006150Y003060D01*
X006151Y003061D01*
X006152Y003061D01*
X006153Y003062D01*
X006154Y003062D01*
X006154Y003062D01*
X006155Y003062D01*
X006155Y003063D01*
X006156Y003064D01*
X006157Y003065D01*
X006158Y003067D01*
X006159Y003069D01*
X006159Y003071D01*
X006160Y003072D01*
X006160Y003072D01*
X006160Y003073D01*
X006160Y003073D01*
X006160Y003074D01*
Y003074D01*
X006161Y003075D01*
X006161Y003077D01*
X006161Y003080D01*
X006162Y003082D01*
X006162Y003085D01*
X006162Y003087D01*
X006162Y003090D01*
X006162Y003092D01*
X006162Y003095D01*
X006163Y003097D01*
Y003099D01*
X006163Y003101D01*
Y003103D01*
Y003103D01*
Y003104D01*
Y003104D01*
Y003104D01*
Y003105D01*
Y003105D01*
Y003109D01*
X006163Y003112D01*
X006162Y003116D01*
X006162Y003119D01*
X006162Y003122D01*
X006162Y003125D01*
X006162Y003127D01*
X006161Y003129D01*
X006161Y003131D01*
X006161Y003132D01*
X006161Y003134D01*
X006160Y003135D01*
X006160Y003136D01*
X006160Y003136D01*
X006160Y003137D01*
Y003137D01*
X006160Y003138D01*
X006159Y003139D01*
X006159Y003140D01*
X006158Y003141D01*
X006158Y003142D01*
X006158Y003143D01*
X006157Y003144D01*
X006156Y003145D01*
X006155Y003146D01*
X006155Y003147D01*
X006155Y003147D01*
X006153Y003148D01*
X006152Y003148D01*
X006151Y003149D01*
X006149Y003149D01*
X006148Y003149D01*
X006147Y003150D01*
D02*
G37*
G36*
X005800D02*
X005799D01*
X005797Y003150D01*
X005796Y003149D01*
X005794Y003149D01*
X005793Y003148D01*
X005792Y003148D01*
X005792Y003147D01*
X005791Y003147D01*
X005791Y003147D01*
X005790Y003146D01*
X005790Y003145D01*
X005789Y003144D01*
X005788Y003142D01*
X005787Y003140D01*
X005786Y003138D01*
X005786Y003138D01*
X005786Y003137D01*
X005785Y003136D01*
X005785Y003136D01*
X005785Y003136D01*
Y003136D01*
X005785Y003134D01*
X005784Y003132D01*
X005784Y003130D01*
X005784Y003127D01*
X005784Y003125D01*
X005783Y003122D01*
X005783Y003119D01*
X005783Y003117D01*
X005783Y003114D01*
X005783Y003112D01*
Y003110D01*
X005783Y003108D01*
Y003107D01*
Y003106D01*
Y003106D01*
Y003105D01*
Y003105D01*
Y003105D01*
Y003105D01*
Y003101D01*
X005783Y003097D01*
X005783Y003093D01*
X005783Y003090D01*
X005783Y003087D01*
X005784Y003085D01*
X005784Y003082D01*
X005784Y003080D01*
X005784Y003078D01*
X005785Y003077D01*
X005785Y003076D01*
X005785Y003074D01*
X005785Y003074D01*
X005785Y003073D01*
X005785Y003073D01*
Y003073D01*
X005786Y003071D01*
X005786Y003070D01*
X005787Y003069D01*
X005787Y003068D01*
X005788Y003067D01*
X005788Y003066D01*
X005789Y003065D01*
X005790Y003064D01*
X005790Y003063D01*
X005791Y003063D01*
X005791Y003062D01*
X005792Y003062D01*
X005794Y003061D01*
X005795Y003060D01*
X005796Y003060D01*
X005797Y003060D01*
X005798Y003060D01*
X005799Y003060D01*
X005799D01*
X005800Y003060D01*
X005802Y003060D01*
X005803Y003061D01*
X005805Y003061D01*
X005805Y003062D01*
X005806Y003062D01*
X005807Y003062D01*
X005807Y003062D01*
X005807Y003063D01*
X005808Y003064D01*
X005809Y003065D01*
X005810Y003067D01*
X005811Y003069D01*
X005812Y003071D01*
X005812Y003072D01*
X005812Y003072D01*
X005812Y003073D01*
X005812Y003073D01*
X005813Y003074D01*
Y003074D01*
X005813Y003075D01*
X005813Y003077D01*
X005814Y003080D01*
X005814Y003082D01*
X005814Y003085D01*
X005814Y003087D01*
X005814Y003090D01*
X005815Y003092D01*
X005815Y003095D01*
X005815Y003097D01*
Y003099D01*
X005815Y003101D01*
Y003103D01*
Y003103D01*
Y003104D01*
Y003104D01*
Y003104D01*
Y003105D01*
Y003105D01*
Y003109D01*
X005815Y003112D01*
X005815Y003116D01*
X005814Y003119D01*
X005814Y003122D01*
X005814Y003125D01*
X005814Y003127D01*
X005814Y003129D01*
X005813Y003131D01*
X005813Y003132D01*
X005813Y003134D01*
X005813Y003135D01*
X005812Y003136D01*
X005812Y003136D01*
X005812Y003137D01*
Y003137D01*
X005812Y003138D01*
X005811Y003139D01*
X005811Y003140D01*
X005811Y003141D01*
X005810Y003142D01*
X005810Y003143D01*
X005809Y003144D01*
X005808Y003145D01*
X005807Y003146D01*
X005807Y003147D01*
X005807Y003147D01*
X005805Y003148D01*
X005804Y003148D01*
X005803Y003149D01*
X005802Y003149D01*
X005800Y003149D01*
X005800Y003150D01*
D02*
G37*
G36*
X005601Y003150D02*
X005600D01*
X005599Y003150D01*
X005597Y003149D01*
X005596Y003149D01*
X005594Y003148D01*
X005594Y003148D01*
X005593Y003147D01*
X005592Y003147D01*
X005592Y003147D01*
X005592Y003146D01*
X005591Y003145D01*
X005590Y003144D01*
X005589Y003142D01*
X005588Y003140D01*
X005587Y003138D01*
X005587Y003138D01*
X005587Y003137D01*
X005587Y003136D01*
X005587Y003136D01*
X005586Y003136D01*
Y003136D01*
X005586Y003134D01*
X005586Y003132D01*
X005585Y003130D01*
X005585Y003127D01*
X005585Y003125D01*
X005585Y003122D01*
X005584Y003119D01*
X005584Y003117D01*
X005584Y003114D01*
X005584Y003112D01*
Y003110D01*
X005584Y003108D01*
Y003107D01*
Y003106D01*
Y003106D01*
Y003105D01*
Y003105D01*
Y003105D01*
Y003105D01*
Y003101D01*
X005584Y003097D01*
X005584Y003093D01*
X005584Y003090D01*
X005585Y003087D01*
X005585Y003085D01*
X005585Y003082D01*
X005585Y003080D01*
X005586Y003078D01*
X005586Y003077D01*
X005586Y003076D01*
X005586Y003074D01*
X005586Y003074D01*
X005587Y003073D01*
X005587Y003073D01*
Y003073D01*
X005587Y003071D01*
X005588Y003070D01*
X005588Y003069D01*
X005588Y003068D01*
X005589Y003067D01*
X005589Y003066D01*
X005590Y003065D01*
X005591Y003064D01*
X005592Y003063D01*
X005592Y003063D01*
X005592Y003062D01*
X005594Y003062D01*
X005595Y003061D01*
X005596Y003060D01*
X005597Y003060D01*
X005599Y003060D01*
X005599Y003060D01*
X005600Y003060D01*
X005600D01*
X005602Y003060D01*
X005603Y003060D01*
X005605Y003061D01*
X005606Y003061D01*
X005607Y003062D01*
X005607Y003062D01*
X005608Y003062D01*
X005608Y003062D01*
X005609Y003063D01*
X005609Y003064D01*
X005610Y003065D01*
X005611Y003067D01*
X005612Y003069D01*
X005613Y003071D01*
X005613Y003072D01*
X005613Y003072D01*
X005614Y003073D01*
X005614Y003073D01*
X005614Y003074D01*
Y003074D01*
X005614Y003075D01*
X005615Y003077D01*
X005615Y003080D01*
X005615Y003082D01*
X005615Y003085D01*
X005615Y003087D01*
X005616Y003090D01*
X005616Y003092D01*
X005616Y003095D01*
X005616Y003097D01*
Y003099D01*
X005616Y003101D01*
Y003103D01*
Y003103D01*
Y003104D01*
Y003104D01*
Y003104D01*
Y003105D01*
Y003105D01*
Y003109D01*
X005616Y003112D01*
X005616Y003116D01*
X005616Y003119D01*
X005615Y003122D01*
X005615Y003125D01*
X005615Y003127D01*
X005615Y003129D01*
X005615Y003131D01*
X005614Y003132D01*
X005614Y003134D01*
X005614Y003135D01*
X005614Y003136D01*
X005614Y003136D01*
X005614Y003137D01*
Y003137D01*
X005613Y003138D01*
X005613Y003139D01*
X005612Y003140D01*
X005612Y003141D01*
X005611Y003142D01*
X005611Y003143D01*
X005610Y003144D01*
X005609Y003145D01*
X005609Y003146D01*
X005608Y003147D01*
X005608Y003147D01*
X005607Y003148D01*
X005605Y003148D01*
X005604Y003149D01*
X005603Y003149D01*
X005602Y003149D01*
X005601Y003150D01*
D02*
G37*
G36*
X003810Y002960D02*
X003791D01*
X003796Y002935D01*
X003816D01*
X003810Y002960D01*
D02*
G37*
G36*
X003938Y002928D02*
X003938D01*
Y002923D01*
Y002922D01*
Y002920D01*
X003938Y002919D01*
X003938Y002918D01*
X003938Y002916D01*
Y002915D01*
X003938Y002915D01*
X003938Y002914D01*
X003938Y002913D01*
X003938Y002913D01*
X003938Y002912D01*
X003939Y002912D01*
X003939Y002911D01*
X003939Y002911D01*
X003939Y002909D01*
X003940Y002908D01*
X003941Y002907D01*
X003942Y002905D01*
X003943Y002904D01*
X003944Y002904D01*
X003944Y002903D01*
X003945Y002903D01*
X003945D01*
X003946Y002902D01*
X003947Y002902D01*
X003949Y002901D01*
X003951Y002900D01*
X003953Y002899D01*
X003955Y002899D01*
X003956Y002899D01*
X003956D01*
X003957Y002899D01*
X003957D01*
X003959Y002899D01*
X003961Y002899D01*
X003963Y002900D01*
X003964Y002901D01*
X003965Y002901D01*
X003966Y002902D01*
X003967Y002902D01*
X003967Y002902D01*
X003968Y002904D01*
X003969Y002905D01*
X003970Y002907D01*
X003970Y002908D01*
X003971Y002909D01*
X003971Y002910D01*
X003971Y002911D01*
Y002911D01*
Y002911D01*
Y002911D01*
X003971Y002912D01*
X003971Y002913D01*
X003970Y002915D01*
X003969Y002916D01*
X003968Y002918D01*
X003968Y002919D01*
X003967Y002919D01*
X003966Y002920D01*
X003966Y002920D01*
X003966D01*
X003965Y002920D01*
X003965Y002921D01*
X003964Y002921D01*
X003963Y002922D01*
X003960Y002922D01*
X003958Y002923D01*
X003956Y002923D01*
X003955Y002924D01*
X003954Y002924D01*
X003954Y002924D01*
X003953Y002924D01*
X003953Y002924D01*
X003953D01*
X003951Y002925D01*
X003949Y002925D01*
X003948Y002925D01*
X003946Y002926D01*
X003945Y002926D01*
X003944Y002926D01*
X003942Y002927D01*
X003941Y002927D01*
X003941Y002927D01*
X003940Y002927D01*
X003939Y002928D01*
X003939Y002928D01*
X003938Y002928D01*
X003938Y002928D01*
X003938Y002928D01*
D02*
G37*
G36*
X006404Y002939D02*
X006375D01*
X006373Y002939D01*
X006370Y002939D01*
X006368Y002938D01*
X006366Y002938D01*
X006364Y002938D01*
X006363Y002937D01*
X006361Y002937D01*
X006360Y002937D01*
X006359Y002936D01*
X006358Y002936D01*
X006358Y002936D01*
X006357Y002935D01*
X006357Y002935D01*
X006356Y002935D01*
X006356Y002935D01*
X006355Y002934D01*
X006354Y002933D01*
X006353Y002932D01*
X006353Y002931D01*
X006352Y002930D01*
X006352Y002929D01*
X006351Y002928D01*
X006351Y002927D01*
X006350Y002925D01*
X006350Y002924D01*
X006350Y002923D01*
X006350Y002923D01*
Y002922D01*
Y002922D01*
Y002922D01*
X006350Y002920D01*
X006351Y002918D01*
X006351Y002916D01*
X006352Y002914D01*
X006353Y002913D01*
X006353Y002912D01*
X006353Y002912D01*
X006354Y002912D01*
X006354Y002912D01*
Y002912D01*
X006355Y002910D01*
X006357Y002909D01*
X006358Y002908D01*
X006359Y002907D01*
X006360Y002907D01*
X006361Y002906D01*
X006362Y002906D01*
X006362Y002906D01*
X006362Y002906D01*
X006362D01*
X006363Y002906D01*
X006364Y002906D01*
X006366Y002906D01*
X006367Y002906D01*
X006370Y002905D01*
X006372Y002905D01*
X006374Y002905D01*
X006375D01*
X006376Y002905D01*
X006404D01*
Y002939D01*
D02*
G37*
G36*
X005099Y002923D02*
X005081D01*
X005078Y002923D01*
X005076Y002923D01*
X005075Y002922D01*
X005073Y002922D01*
X005071Y002922D01*
X005070Y002922D01*
X005069Y002921D01*
X005068Y002921D01*
X005067Y002921D01*
X005066Y002921D01*
X005066Y002921D01*
X005065Y002920D01*
X005065Y002920D01*
X005065Y002920D01*
X005065D01*
X005064Y002920D01*
X005063Y002919D01*
X005062Y002918D01*
X005062Y002918D01*
X005061Y002917D01*
X005061Y002916D01*
X005060Y002915D01*
X005060Y002913D01*
X005060Y002913D01*
X005059Y002912D01*
X005059Y002912D01*
Y002911D01*
Y002911D01*
Y002911D01*
X005059Y002909D01*
X005060Y002908D01*
X005060Y002906D01*
X005061Y002905D01*
X005061Y002904D01*
X005062Y002903D01*
X005062Y002903D01*
X005062Y002903D01*
X005063Y002902D01*
X005064Y002901D01*
X005065Y002901D01*
X005066Y002901D01*
X005068Y002900D01*
X005070Y002900D01*
X005073Y002899D01*
X005074Y002899D01*
X005074D01*
X005075Y002899D01*
X005099D01*
Y002923D01*
D02*
G37*
G36*
X005518Y002958D02*
X005517D01*
X005516Y002958D01*
X005514Y002958D01*
X005512Y002958D01*
X005511Y002957D01*
X005510Y002957D01*
X005508Y002956D01*
X005507Y002955D01*
X005506Y002955D01*
X005505Y002954D01*
X005504Y002953D01*
X005503Y002953D01*
X005503Y002952D01*
X005502Y002952D01*
X005502Y002951D01*
X005501Y002951D01*
X005501Y002951D01*
X005500Y002950D01*
X005499Y002948D01*
X005498Y002946D01*
X005498Y002945D01*
X005497Y002943D01*
X005496Y002941D01*
X005496Y002939D01*
X005496Y002938D01*
X005495Y002936D01*
X005495Y002935D01*
X005495Y002933D01*
X005495Y002932D01*
X005495Y002931D01*
Y002931D01*
Y002930D01*
Y002930D01*
X005495Y002928D01*
X005495Y002925D01*
X005495Y002923D01*
X005496Y002921D01*
X005496Y002919D01*
X005497Y002917D01*
X005497Y002916D01*
X005498Y002914D01*
X005499Y002913D01*
X005499Y002912D01*
X005500Y002911D01*
X005500Y002910D01*
X005501Y002909D01*
X005501Y002909D01*
X005501Y002909D01*
X005501Y002909D01*
X005503Y002907D01*
X005504Y002906D01*
X005505Y002905D01*
X005507Y002904D01*
X005508Y002904D01*
X005509Y002903D01*
X005511Y002903D01*
X005512Y002902D01*
X005513Y002902D01*
X005514Y002902D01*
X005515Y002902D01*
X005516Y002902D01*
X005517D01*
X005517Y002901D01*
X005517D01*
X005519Y002902D01*
X005521Y002902D01*
X005523Y002902D01*
X005524Y002903D01*
X005526Y002903D01*
X005527Y002904D01*
X005528Y002904D01*
X005529Y002905D01*
X005530Y002906D01*
X005531Y002906D01*
X005532Y002907D01*
X005532Y002908D01*
X005533Y002908D01*
X005533Y002908D01*
X005534Y002909D01*
X005534Y002909D01*
X005535Y002910D01*
X005536Y002912D01*
X005537Y002913D01*
X005537Y002915D01*
X005538Y002917D01*
X005539Y002919D01*
X005539Y002920D01*
X005539Y002922D01*
X005540Y002924D01*
X005540Y002925D01*
X005540Y002926D01*
X005540Y002928D01*
X005540Y002929D01*
Y002929D01*
Y002930D01*
Y002930D01*
X005540Y002932D01*
X005540Y002935D01*
X005540Y002937D01*
X005539Y002939D01*
X005539Y002941D01*
X005538Y002943D01*
X005537Y002944D01*
X005537Y002946D01*
X005536Y002947D01*
X005536Y002948D01*
X005535Y002949D01*
X005535Y002950D01*
X005534Y002950D01*
X005534Y002951D01*
X005534Y002951D01*
X005534Y002951D01*
X005532Y002952D01*
X005531Y002953D01*
X005530Y002954D01*
X005528Y002955D01*
X005527Y002956D01*
X005526Y002957D01*
X005524Y002957D01*
X005523Y002957D01*
X005522Y002958D01*
X005521Y002958D01*
X005520Y002958D01*
X005519Y002958D01*
X005518Y002958D01*
D02*
G37*
G36*
X004814D02*
X004813D01*
X004812Y002958D01*
X004810Y002958D01*
X004808Y002958D01*
X004807Y002957D01*
X004805Y002957D01*
X004804Y002956D01*
X004803Y002955D01*
X004802Y002955D01*
X004801Y002954D01*
X004800Y002953D01*
X004799Y002953D01*
X004798Y002952D01*
X004798Y002952D01*
X004798Y002951D01*
X004797Y002951D01*
X004797Y002951D01*
X004796Y002950D01*
X004795Y002948D01*
X004794Y002946D01*
X004793Y002945D01*
X004793Y002943D01*
X004792Y002941D01*
X004792Y002939D01*
X004791Y002938D01*
X004791Y002936D01*
X004791Y002935D01*
X004791Y002933D01*
X004791Y002932D01*
X004791Y002931D01*
Y002931D01*
Y002930D01*
Y002930D01*
X004791Y002928D01*
X004791Y002925D01*
X004791Y002923D01*
X004792Y002921D01*
X004792Y002919D01*
X004793Y002917D01*
X004793Y002916D01*
X004794Y002914D01*
X004795Y002913D01*
X004795Y002912D01*
X004796Y002911D01*
X004796Y002910D01*
X004797Y002909D01*
X004797Y002909D01*
X004797Y002909D01*
X004797Y002909D01*
X004798Y002907D01*
X004800Y002906D01*
X004801Y002905D01*
X004802Y002904D01*
X004804Y002904D01*
X004805Y002903D01*
X004806Y002903D01*
X004808Y002902D01*
X004809Y002902D01*
X004810Y002902D01*
X004811Y002902D01*
X004812Y002902D01*
X004812D01*
X004813Y002901D01*
X004813D01*
X004815Y002902D01*
X004817Y002902D01*
X004818Y002902D01*
X004820Y002903D01*
X004821Y002903D01*
X004823Y002904D01*
X004824Y002904D01*
X004825Y002905D01*
X004826Y002906D01*
X004827Y002906D01*
X004828Y002907D01*
X004828Y002908D01*
X004829Y002908D01*
X004829Y002908D01*
X004829Y002909D01*
X004829Y002909D01*
X004831Y002910D01*
X004832Y002912D01*
X004832Y002913D01*
X004833Y002915D01*
X004834Y002917D01*
X004834Y002919D01*
X004835Y002920D01*
X004835Y002922D01*
X004835Y002924D01*
X004836Y002925D01*
X004836Y002926D01*
X004836Y002928D01*
X004836Y002929D01*
Y002929D01*
Y002930D01*
Y002930D01*
X004836Y002932D01*
X004836Y002935D01*
X004835Y002937D01*
X004835Y002939D01*
X004834Y002941D01*
X004834Y002943D01*
X004833Y002944D01*
X004833Y002946D01*
X004832Y002947D01*
X004832Y002948D01*
X004831Y002949D01*
X004831Y002950D01*
X004830Y002950D01*
X004830Y002951D01*
X004830Y002951D01*
X004829Y002951D01*
X004828Y002952D01*
X004827Y002953D01*
X004826Y002954D01*
X004824Y002955D01*
X004823Y002956D01*
X004821Y002957D01*
X004820Y002957D01*
X004819Y002957D01*
X004818Y002958D01*
X004817Y002958D01*
X004816Y002958D01*
X004815Y002958D01*
X004814Y002958D01*
D02*
G37*
G36*
X004254D02*
X004253D01*
X004251Y002958D01*
X004249Y002958D01*
X004248Y002958D01*
X004246Y002957D01*
X004245Y002957D01*
X004243Y002956D01*
X004242Y002955D01*
X004241Y002955D01*
X004240Y002954D01*
X004239Y002953D01*
X004238Y002953D01*
X004238Y002952D01*
X004237Y002952D01*
X004237Y002951D01*
X004237Y002951D01*
X004237Y002951D01*
X004235Y002950D01*
X004235Y002948D01*
X004234Y002946D01*
X004233Y002945D01*
X004232Y002943D01*
X004232Y002941D01*
X004231Y002939D01*
X004231Y002938D01*
X004231Y002936D01*
X004230Y002935D01*
X004230Y002933D01*
X004230Y002932D01*
X004230Y002931D01*
Y002931D01*
Y002930D01*
Y002930D01*
X004230Y002928D01*
X004230Y002925D01*
X004231Y002923D01*
X004231Y002921D01*
X004232Y002919D01*
X004232Y002917D01*
X004233Y002916D01*
X004233Y002914D01*
X004234Y002913D01*
X004235Y002912D01*
X004235Y002911D01*
X004236Y002910D01*
X004236Y002909D01*
X004236Y002909D01*
X004237Y002909D01*
X004237Y002909D01*
X004238Y002907D01*
X004239Y002906D01*
X004241Y002905D01*
X004242Y002904D01*
X004243Y002904D01*
X004245Y002903D01*
X004246Y002903D01*
X004247Y002902D01*
X004248Y002902D01*
X004249Y002902D01*
X004250Y002902D01*
X004251Y002902D01*
X004252D01*
X004252Y002901D01*
X004253D01*
X004255Y002902D01*
X004256Y002902D01*
X004258Y002902D01*
X004259Y002903D01*
X004261Y002903D01*
X004262Y002904D01*
X004263Y002904D01*
X004264Y002905D01*
X004265Y002906D01*
X004266Y002906D01*
X004267Y002907D01*
X004268Y002908D01*
X004268Y002908D01*
X004269Y002908D01*
X004269Y002909D01*
X004269Y002909D01*
X004270Y002910D01*
X004271Y002912D01*
X004272Y002913D01*
X004273Y002915D01*
X004273Y002917D01*
X004274Y002919D01*
X004274Y002920D01*
X004275Y002922D01*
X004275Y002924D01*
X004275Y002925D01*
X004275Y002926D01*
X004275Y002928D01*
X004275Y002929D01*
Y002929D01*
Y002930D01*
Y002930D01*
X004275Y002932D01*
X004275Y002935D01*
X004275Y002937D01*
X004274Y002939D01*
X004274Y002941D01*
X004273Y002943D01*
X004273Y002944D01*
X004272Y002946D01*
X004272Y002947D01*
X004271Y002948D01*
X004270Y002949D01*
X004270Y002950D01*
X004269Y002950D01*
X004269Y002951D01*
X004269Y002951D01*
X004269Y002951D01*
X004268Y002952D01*
X004266Y002953D01*
X004265Y002954D01*
X004264Y002955D01*
X004262Y002956D01*
X004261Y002957D01*
X004260Y002957D01*
X004258Y002957D01*
X004257Y002958D01*
X004256Y002958D01*
X004255Y002958D01*
X004254Y002958D01*
X004254Y002958D01*
D02*
G37*
G36*
X003556Y002992D02*
X003555D01*
X003554Y002992D01*
X003552Y002991D01*
X003551Y002991D01*
X003550Y002990D01*
X003549Y002990D01*
X003548Y002989D01*
X003548Y002989D01*
X003547Y002989D01*
X003547Y002988D01*
X003546Y002988D01*
X003545Y002986D01*
X003544Y002984D01*
X003543Y002982D01*
X003543Y002980D01*
X003542Y002980D01*
X003542Y002979D01*
X003542Y002978D01*
X003542Y002978D01*
X003542Y002978D01*
Y002978D01*
X003541Y002976D01*
X003541Y002974D01*
X003540Y002972D01*
X003540Y002969D01*
X003540Y002967D01*
X003540Y002964D01*
X003540Y002961D01*
X003540Y002959D01*
X003539Y002956D01*
X003539Y002954D01*
Y002952D01*
X003539Y002950D01*
Y002949D01*
Y002948D01*
Y002948D01*
Y002947D01*
Y002947D01*
Y002947D01*
Y002947D01*
Y002943D01*
X003539Y002939D01*
X003540Y002935D01*
X003540Y002932D01*
X003540Y002929D01*
X003540Y002927D01*
X003540Y002924D01*
X003541Y002922D01*
X003541Y002920D01*
X003541Y002919D01*
X003541Y002918D01*
X003541Y002917D01*
X003542Y002916D01*
X003542Y002915D01*
X003542Y002915D01*
Y002915D01*
X003542Y002913D01*
X003543Y002912D01*
X003543Y002911D01*
X003544Y002910D01*
X003544Y002909D01*
X003544Y002908D01*
X003545Y002907D01*
X003546Y002906D01*
X003547Y002905D01*
X003547Y002905D01*
X003547Y002904D01*
X003549Y002904D01*
X003550Y002903D01*
X003551Y002902D01*
X003553Y002902D01*
X003554Y002902D01*
X003555Y002902D01*
X003555Y002902D01*
X003555D01*
X003557Y002902D01*
X003558Y002902D01*
X003560Y002903D01*
X003561Y002903D01*
X003562Y002904D01*
X003563Y002904D01*
X003563Y002904D01*
X003563Y002904D01*
X003564Y002905D01*
X003564Y002906D01*
X003566Y002907D01*
X003567Y002909D01*
X003567Y002911D01*
X003568Y002913D01*
X003568Y002914D01*
X003568Y002914D01*
X003569Y002915D01*
X003569Y002915D01*
X003569Y002916D01*
Y002916D01*
X003569Y002917D01*
X003570Y002919D01*
X003570Y002922D01*
X003570Y002924D01*
X003570Y002927D01*
X003571Y002929D01*
X003571Y002932D01*
X003571Y002934D01*
X003571Y002937D01*
X003571Y002939D01*
Y002941D01*
X003571Y002943D01*
Y002945D01*
Y002945D01*
Y002946D01*
Y002946D01*
Y002946D01*
Y002947D01*
Y002947D01*
Y002951D01*
X003571Y002955D01*
X003571Y002958D01*
X003571Y002961D01*
X003571Y002964D01*
X003570Y002967D01*
X003570Y002969D01*
X003570Y002971D01*
X003570Y002973D01*
X003570Y002974D01*
X003569Y002976D01*
X003569Y002977D01*
X003569Y002978D01*
X003569Y002978D01*
X003569Y002979D01*
Y002979D01*
X003568Y002980D01*
X003568Y002981D01*
X003567Y002982D01*
X003567Y002983D01*
X003567Y002984D01*
X003566Y002985D01*
X003565Y002986D01*
X003564Y002988D01*
X003564Y002988D01*
X003563Y002989D01*
X003563Y002989D01*
X003562Y002990D01*
X003560Y002990D01*
X003559Y002991D01*
X003558Y002991D01*
X003557Y002991D01*
X003556Y002992D01*
D02*
G37*
G36*
X005418Y002956D02*
X005388D01*
Y002904D01*
X005430D01*
X005429Y002905D01*
X005428Y002907D01*
X005427Y002908D01*
X005426Y002910D01*
X005425Y002912D01*
X005425Y002914D01*
X005423Y002918D01*
X005422Y002922D01*
X005421Y002926D01*
X005420Y002931D01*
X005420Y002935D01*
X005419Y002939D01*
X005419Y002943D01*
X005418Y002945D01*
X005418Y002947D01*
X005418Y002948D01*
X005418Y002950D01*
X005418Y002951D01*
X005418Y002953D01*
Y002954D01*
X005418Y002955D01*
X005418Y002955D01*
Y002956D01*
Y002956D01*
Y002956D01*
D02*
G37*
G36*
X006267Y002990D02*
X006229D01*
Y002905D01*
X006278D01*
X006277Y002908D01*
X006276Y002910D01*
X006275Y002913D01*
X006274Y002916D01*
X006273Y002920D01*
X006273Y002923D01*
X006272Y002930D01*
X006271Y002937D01*
X006270Y002944D01*
X006269Y002951D01*
X006268Y002958D01*
X006268Y002961D01*
X006268Y002964D01*
X006268Y002967D01*
X006268Y002970D01*
X006268Y002973D01*
X006267Y002976D01*
Y002978D01*
X006267Y002981D01*
X006267Y002983D01*
Y002985D01*
X006267Y002986D01*
Y002988D01*
Y002989D01*
Y002989D01*
Y002990D01*
Y002990D01*
D02*
G37*
G36*
X004055Y002959D02*
X004054D01*
X004052Y002959D01*
X004051Y002959D01*
X004049Y002958D01*
X004048Y002958D01*
X004047Y002957D01*
X004045Y002957D01*
X004044Y002956D01*
X004043Y002955D01*
X004042Y002955D01*
X004041Y002954D01*
X004041Y002953D01*
X004040Y002953D01*
X004040Y002952D01*
X004039Y002952D01*
X004039Y002952D01*
X004039Y002952D01*
X004038Y002950D01*
X004037Y002949D01*
X004036Y002947D01*
X004036Y002945D01*
X004035Y002944D01*
X004035Y002942D01*
X004034Y002938D01*
X004034Y002937D01*
X004034Y002935D01*
X004033Y002934D01*
X004033Y002933D01*
X004033Y002932D01*
Y002931D01*
Y002930D01*
Y002930D01*
X004033Y002927D01*
X004034Y002925D01*
X004034Y002922D01*
X004034Y002920D01*
X004035Y002918D01*
X004035Y002916D01*
X004036Y002915D01*
X004036Y002913D01*
X004037Y002912D01*
X004037Y002911D01*
X004038Y002910D01*
X004038Y002909D01*
X004038Y002908D01*
X004039Y002908D01*
X004039Y002908D01*
X004039Y002908D01*
X004040Y002907D01*
X004041Y002906D01*
X004042Y002905D01*
X004044Y002904D01*
X004045Y002903D01*
X004046Y002903D01*
X004047Y002902D01*
X004048Y002902D01*
X004049Y002901D01*
X004050Y002901D01*
X004051Y002901D01*
X004052Y002901D01*
X004052D01*
X004053Y002901D01*
X004053D01*
X004055Y002901D01*
X004057Y002901D01*
X004058Y002902D01*
X004060Y002902D01*
X004061Y002903D01*
X004062Y002903D01*
X004063Y002904D01*
X004064Y002905D01*
X004065Y002905D01*
X004066Y002906D01*
X004067Y002907D01*
X004067Y002907D01*
X004068Y002908D01*
X004068Y002908D01*
X004068Y002908D01*
X004068Y002908D01*
X004070Y002910D01*
X004071Y002911D01*
X004071Y002913D01*
X004072Y002915D01*
X004073Y002917D01*
X004073Y002919D01*
X004074Y002923D01*
X004074Y002924D01*
X004074Y002926D01*
X004074Y002928D01*
X004075Y002929D01*
X004075Y002930D01*
Y002931D01*
Y002931D01*
Y002931D01*
X004075Y002934D01*
X004074Y002936D01*
X004074Y002938D01*
X004074Y002940D01*
X004073Y002942D01*
X004073Y002944D01*
X004072Y002945D01*
X004072Y002947D01*
X004071Y002948D01*
X004071Y002949D01*
X004070Y002950D01*
X004070Y002951D01*
X004069Y002951D01*
X004069Y002952D01*
X004069Y002952D01*
X004069Y002952D01*
X004068Y002953D01*
X004066Y002954D01*
X004065Y002955D01*
X004064Y002956D01*
X004063Y002957D01*
X004061Y002957D01*
X004060Y002958D01*
X004059Y002958D01*
X004058Y002958D01*
X004057Y002959D01*
X004056Y002959D01*
X004055Y002959D01*
X004055Y002959D01*
D02*
G37*
%LPD*%
D10*
X013812Y003629D02*
G03*
X013812Y003565I000000J-000032D01*
G01*
X003879Y006403D02*
G03*
X003815Y006403I-000032J000000D01*
G01*
X003819Y006171D02*
G03*
X003883Y006171I000032J000000D01*
G01*
X006074Y006163D02*
G03*
X006137Y006163I000032J000000D01*
G01*
X006069Y007418D02*
G03*
X006132Y007418I000032J000000D01*
G01*
X012796Y003305D02*
X013812D01*
X012796D02*
Y003888D01*
X013812D01*
Y003629D02*
Y003888D01*
Y003305D02*
Y003565D01*
X003555Y006403D02*
Y007418D01*
X004138D01*
Y006403D02*
Y007418D01*
X003879Y006403D02*
X004138D01*
X003555D02*
X003815D01*
X003883Y006171D02*
X004142D01*
X003559D02*
X003819D01*
X003559Y005154D02*
Y006171D01*
Y005154D02*
X004142D01*
Y006171D01*
X006137Y006163D02*
X006397D01*
X005814D02*
X006074D01*
X005814Y005147D02*
Y006163D01*
Y005147D02*
X006397D01*
Y006163D01*
X006132Y007418D02*
X006392D01*
X005809D02*
X006069D01*
X005809Y006403D02*
Y007418D01*
Y006403D02*
X006392D01*
Y007418D01*
D11*
X013838Y003110D02*
G03*
X013838Y003110I-000010J000000D01*
G01*
X003370Y006386D02*
G03*
X003370Y006386I-000010J000000D01*
G01*
X004348Y006187D02*
G03*
X004348Y006187I-000010J000000D01*
G01*
X006603Y006180D02*
G03*
X006603Y006180I-000010J000000D01*
G01*
X006598Y007435D02*
G03*
X006598Y007435I-000010J000000D01*
G01*
D15*
X003358Y003941D02*
X004082D01*
X003358Y003944D02*
X004087D01*
X003358Y003946D02*
X004092D01*
X003355Y003949D02*
X004097D01*
X003355Y003951D02*
X004102D01*
X003637Y003784D02*
X003924D01*
X003640Y003786D02*
X003927D01*
X003640Y003789D02*
X003927D01*
X003640Y003791D02*
X003929D01*
X003642Y003794D02*
X003929D01*
X003642Y003796D02*
X003932D01*
X003640Y003799D02*
X003934D01*
X003640Y003801D02*
X003934D01*
X003640Y003804D02*
X003937D01*
X004211Y003862D02*
X004234D01*
X004404Y003659D02*
X004427D01*
X004176Y003456D02*
X004221D01*
X003990Y003659D02*
X004016D01*
X003591Y003768D02*
X003655D01*
X003589Y003771D02*
X003655D01*
X003586Y003773D02*
X003657D01*
X003586Y003776D02*
X003660D01*
X003584Y003779D02*
X003612D01*
X003584Y003781D02*
X003609D01*
X003584Y003784D02*
X003607D01*
X003581Y003786D02*
X003607D01*
X003581Y003789D02*
X003604D01*
X003581Y003791D02*
X003604D01*
X003581Y003794D02*
X003604D01*
X003581Y003796D02*
X003604D01*
X003581Y003799D02*
X003604D01*
X003581Y003801D02*
X003604D01*
X003581Y003804D02*
X003607D01*
X003584Y003806D02*
X003607D01*
X003584Y003809D02*
X003609D01*
X003584Y003812D02*
X003614D01*
X003586Y003814D02*
X003660D01*
X003586Y003817D02*
X003657D01*
X003589Y003819D02*
X003655D01*
X003591Y003822D02*
X003652D01*
X003594Y003824D02*
X003652D01*
X003597Y003827D02*
X003647D01*
X003355Y003931D02*
X004064D01*
X003355Y003933D02*
X004069D01*
X003358Y003936D02*
X004074D01*
X003358Y003939D02*
X004077D01*
X003599Y003829D02*
X003645D01*
X003599Y003761D02*
X003645D01*
X003597Y003763D02*
X003650D01*
X003594Y003766D02*
X003652D01*
X003373Y003735D02*
X003421D01*
X003373Y003738D02*
X003421D01*
X003373Y003740D02*
X003421D01*
X003538Y003619D02*
X003619D01*
X003541Y003621D02*
X003617D01*
X003297Y003636D02*
X003500D01*
X003297Y003639D02*
X003500D01*
X003297Y003641D02*
X003500D01*
X003297Y003644D02*
X003500D01*
X003541Y003532D02*
X003617D01*
X003538Y003535D02*
X003619D01*
X003602Y003611D02*
X003627D01*
X003599Y003613D02*
X003624D01*
X003591Y003616D02*
X003622D01*
X003543Y003624D02*
X003614D01*
X003548Y003626D02*
X003609D01*
X003551Y003629D02*
X003607D01*
X003558Y003631D02*
X003602D01*
X003556Y003522D02*
X003602D01*
X003551Y003525D02*
X003607D01*
X003546Y003527D02*
X003612D01*
X003543Y003530D02*
X003614D01*
X003594Y003537D02*
X003622D01*
X003599Y003540D02*
X003624D01*
X004343Y003984D02*
X004425D01*
X004326Y003987D02*
X004417D01*
X004127D02*
X004221D01*
X004135Y003989D02*
X004247D01*
X004143Y003992D02*
X004404D01*
X004150Y003994D02*
X004397D01*
X004160Y003997D02*
X004386D01*
X004168Y004000D02*
X004379D01*
X004178Y004002D02*
X004369D01*
X004191Y004005D02*
X004356D01*
X004397Y003972D02*
X004453D01*
X004386Y003974D02*
X004447D01*
X004379Y003977D02*
X004442D01*
X004366Y003979D02*
X004437D01*
X004356Y003982D02*
X004430D01*
X004409Y003967D02*
X004463D01*
X004404Y003969D02*
X004458D01*
X004206Y004007D02*
X004343D01*
X004211Y003865D02*
X004234D01*
X004211Y003867D02*
X004234D01*
X004209Y003870D02*
X004234D01*
X004209Y003873D02*
X004234D01*
X004209Y003875D02*
X004234D01*
X003975Y003888D02*
X004008D01*
X003978Y003890D02*
X004011D01*
X003980Y003893D02*
X004013D01*
X003983Y003895D02*
X004016D01*
X003985Y003898D02*
X004018D01*
X003988Y003900D02*
X004021D01*
X003990Y003903D02*
X004026D01*
X003993Y003906D02*
X004028D01*
X003995Y003908D02*
X004031D01*
X004000Y003911D02*
X004036D01*
X004003Y003913D02*
X004038D01*
X004005Y003916D02*
X004041D01*
X004008Y003918D02*
X004046D01*
X004191Y003738D02*
X004356D01*
X004414Y003822D02*
X004442D01*
X004402Y003662D02*
X004427D01*
X004399Y003664D02*
X004425D01*
X004399Y003667D02*
X004425D01*
X004397Y003669D02*
X004422D01*
X004397Y003672D02*
X004422D01*
X004394Y003674D02*
X004419D01*
X004392Y003677D02*
X004419D01*
X004389Y003679D02*
X004417D01*
X004389Y003682D02*
X004414D01*
X004386Y003685D02*
X004414D01*
X004211Y003860D02*
X004234D01*
X004211Y003674D02*
X004232D01*
X004209Y003677D02*
X004232D01*
X004168Y003723D02*
X004211D01*
X004173Y003725D02*
X004216D01*
X004176Y003728D02*
X004221D01*
X004178Y003730D02*
X004229D01*
X004183Y003733D02*
X004239D01*
X004188Y003735D02*
X004252D01*
X004196Y003740D02*
X004351D01*
X004201Y003743D02*
X004346D01*
X004206Y003746D02*
X004341D01*
X004211Y003748D02*
X004336D01*
X003993Y003662D02*
X004016D01*
X003993Y003664D02*
X004016D01*
X003993Y003667D02*
X004016D01*
X003995Y003669D02*
X004018D01*
X003995Y003672D02*
X004018D01*
X003995Y003674D02*
X004018D01*
X003995Y003677D02*
X004021D01*
X003998Y003679D02*
X004021D01*
X003998Y003682D02*
X004021D01*
X003998Y003685D02*
X004023D01*
X004000Y003687D02*
X004023D01*
X004000Y003690D02*
X004026D01*
X004000Y003692D02*
X004026D01*
X004003Y003695D02*
X004026D01*
X004003Y003697D02*
X004028D01*
X004005Y003700D02*
X004028D01*
X004005Y003702D02*
X004031D01*
X004005Y003705D02*
X004031D01*
X004008Y003707D02*
X004033D01*
X004008Y003710D02*
X004033D01*
X004414Y003626D02*
X004437D01*
X004414Y003629D02*
X004437D01*
X004414Y003631D02*
X004437D01*
X004414Y003634D02*
X004437D01*
X004412Y003636D02*
X004435D01*
X004412Y003639D02*
X004435D01*
X004412Y003641D02*
X004435D01*
X004409Y003644D02*
X004435D01*
X004409Y003646D02*
X004432D01*
X004407Y003649D02*
X004432D01*
X004407Y003652D02*
X004430D01*
X004404Y003654D02*
X004430D01*
X004404Y003657D02*
X004430D01*
X004386Y003499D02*
X004414D01*
X004389Y003502D02*
X004414D01*
X004389Y003504D02*
X004417D01*
X004392Y003507D02*
X004419D01*
X004394Y003509D02*
X004419D01*
X004397Y003512D02*
X004422D01*
X004397Y003514D02*
X004422D01*
X004399Y003517D02*
X004425D01*
X004399Y003519D02*
X004425D01*
X004402Y003522D02*
X004427D01*
X004402Y003525D02*
X004427D01*
X004404Y003527D02*
X004430D01*
X004404Y003530D02*
X004430D01*
X004407Y003532D02*
X004430D01*
X004407Y003535D02*
X004432D01*
X004409Y003537D02*
X004432D01*
X004409Y003540D02*
X004435D01*
X004412Y003542D02*
X004435D01*
X004412Y003545D02*
X004435D01*
X004412Y003547D02*
X004435D01*
X004414Y003550D02*
X004437D01*
X004414Y003553D02*
X004437D01*
X004414Y003555D02*
X004437D01*
X004414Y003558D02*
X004437D01*
X004173Y003459D02*
X004216D01*
X004168Y003461D02*
X004211D01*
X004204Y003519D02*
X004226D01*
X004206Y003522D02*
X004226D01*
X004209Y003525D02*
X004229D01*
X004209Y003527D02*
X004232D01*
X004211Y003530D02*
X004232D01*
X004211Y003532D02*
X004234D01*
X003960Y003619D02*
X004041D01*
X003962Y003621D02*
X004038D01*
X003965Y003624D02*
X004036D01*
X003967Y003626D02*
X004031D01*
X003972Y003629D02*
X004026D01*
X003978Y003631D02*
X004021D01*
X003985Y003634D02*
X004013D01*
X003990Y003657D02*
X004013D01*
X004008Y003474D02*
X004033D01*
X004008Y003476D02*
X004031D01*
X004005Y003479D02*
X004031D01*
X004005Y003481D02*
X004031D01*
X004005Y003484D02*
X004028D01*
X004003Y003486D02*
X004028D01*
X004003Y003489D02*
X004026D01*
X004000Y003492D02*
X004026D01*
X004000Y003494D02*
X004023D01*
X003985Y003519D02*
X004016D01*
X003978Y003522D02*
X004023D01*
X003972Y003525D02*
X004028D01*
X003967Y003527D02*
X004033D01*
X003965Y003530D02*
X004036D01*
X003962Y003532D02*
X004038D01*
X003960Y003535D02*
X004041D01*
X004196Y003443D02*
X004353D01*
X004191Y003446D02*
X004356D01*
X004188Y003314D02*
X004359D01*
X004181Y003316D02*
X004366D01*
X004173Y003319D02*
X004374D01*
X004168Y003321D02*
X004381D01*
X004150Y003329D02*
X004221D01*
X004412Y003362D02*
X004422D01*
X004414Y003365D02*
X004419D01*
X004409Y003339D02*
X004417D01*
X004407Y003342D02*
X004422D01*
X004407Y003344D02*
X004425D01*
X004404Y003347D02*
X004430D01*
X004404Y003349D02*
X004430D01*
X004402Y003352D02*
X004430D01*
X004402Y003354D02*
X004427D01*
X004402Y003357D02*
X004425D01*
X004407Y003359D02*
X004425D01*
X004211Y003436D02*
X004336D01*
X004206Y003438D02*
X004341D01*
X004201Y003441D02*
X004348D01*
X004186Y003448D02*
X004249D01*
X004183Y003451D02*
X004237D01*
X004178Y003453D02*
X004229D01*
X004209Y003309D02*
X004341D01*
X004199Y003311D02*
X004351D01*
X004160Y003324D02*
X004272D01*
X004155Y003326D02*
X004237D01*
X004008Y003265D02*
X004011D01*
X004005Y003268D02*
X004013D01*
X004000Y003271D02*
X004016D01*
X003998Y003273D02*
X004018D01*
X004188Y003154D02*
X004219D01*
X004188Y003156D02*
X004216D01*
X003988Y003230D02*
X004011D01*
X003988Y003232D02*
X004011D01*
X003988Y003235D02*
X004011D01*
X003988Y003238D02*
X004011D01*
X003988Y003240D02*
X004011D01*
X003988Y003243D02*
X004011D01*
X003988Y003245D02*
X004011D01*
X003988Y003248D02*
X004011D01*
X003988Y003250D02*
X004011D01*
X004605Y003812D02*
X004620D01*
X004602Y003814D02*
X004625D01*
X004600Y003817D02*
X004628D01*
X004600Y003819D02*
X004625D01*
X004597Y003822D02*
X004625D01*
X004595Y003824D02*
X004623D01*
X004595Y003827D02*
X004623D01*
X004592Y003829D02*
X004620D01*
X004590Y003832D02*
X004618D01*
X004605Y003362D02*
X004625D01*
X004602Y003365D02*
X004625D01*
X004600Y003367D02*
X004628D01*
X004602Y003370D02*
X004628D01*
X004602Y003372D02*
X004630D01*
X004605Y003375D02*
X004628D01*
X004607Y003377D02*
X004625D01*
X004607Y003380D02*
X004620D01*
X004618Y003354D02*
X004620D01*
X004613Y003357D02*
X004620D01*
X004610Y003359D02*
X004623D01*
X003495Y003253D02*
X003520D01*
X003442D02*
X003467D01*
X003952Y003862D02*
X003980D01*
X003858Y003659D02*
X003881D01*
X003876Y003456D02*
X003899D01*
X004168Y003862D02*
X004191D01*
X004120Y003659D02*
X004145D01*
X004018Y003456D02*
X004044D01*
X004028Y003253D02*
X004056D01*
X004341Y003862D02*
X004364D01*
X004298D02*
X004320D01*
X003995Y003276D02*
X004018D01*
X003993Y003278D02*
X004021D01*
X003993Y003281D02*
X004023D01*
X003995Y003283D02*
X004021D01*
X003998Y003286D02*
X004018D01*
X004000Y003288D02*
X004016D01*
X004003Y003291D02*
X004013D01*
X004005Y003293D02*
X004011D01*
X004186Y003159D02*
X004214D01*
X004407Y003197D02*
X004417D01*
X004407Y003199D02*
X004422D01*
X004407Y003202D02*
X004430D01*
X004404Y003205D02*
X004430D01*
X004404Y003207D02*
X004430D01*
X004404Y003210D02*
X004427D01*
X004402Y003212D02*
X004427D01*
X004402Y003215D02*
X004425D01*
X004404Y003217D02*
X004425D01*
X004412Y003220D02*
X004425D01*
X004186Y003161D02*
X004211D01*
X004186Y003210D02*
X004211D01*
X004186Y003212D02*
X004211D01*
X004188Y003215D02*
X004214D01*
X004188Y003217D02*
X004216D01*
X004191Y003220D02*
X004219D01*
X004191Y003222D02*
X004224D01*
X004193Y003225D02*
X004226D01*
X004196Y003227D02*
X004234D01*
X004199Y003230D02*
X004295D01*
X004201Y003232D02*
X004292D01*
X004204Y003235D02*
X004290D01*
X004206Y003238D02*
X004287D01*
X004209Y003240D02*
X004285D01*
X004211Y003131D02*
X004282D01*
X004209Y003133D02*
X004285D01*
X004204Y003136D02*
X004290D01*
X004201Y003138D02*
X004292D01*
X004199Y003141D02*
X004295D01*
X004196Y003144D02*
X004239D01*
X004193Y003146D02*
X004232D01*
X004193Y003149D02*
X004224D01*
X004191Y003151D02*
X004221D01*
X004254Y003862D02*
X004277D01*
X004326Y003456D02*
X004374D01*
X004313Y003659D02*
X004333D01*
X004221D02*
X004242D01*
X004564Y003862D02*
X004595D01*
X004544Y003659D02*
X004557D01*
X004480Y003253D02*
X004503D01*
X004663Y003659D02*
X004689D01*
X004646Y003456D02*
X004663D01*
X003312Y003972D02*
X003365D01*
X003315Y003974D02*
X003363D01*
X003320Y003977D02*
X003358D01*
X003325Y003979D02*
X003353D01*
X003337Y003982D02*
X003340D01*
X003330Y003900D02*
X003348D01*
X003322Y003903D02*
X003355D01*
X003317Y003906D02*
X003360D01*
X003315Y003908D02*
X003363D01*
X003310Y003911D02*
X003368D01*
X003307Y003913D02*
X003370D01*
X003307Y003916D02*
X003373D01*
X003304Y003918D02*
X003373D01*
X003302Y003921D02*
X003376D01*
X003304Y003961D02*
X003376D01*
X003304Y003964D02*
X003373D01*
X003307Y003967D02*
X003370D01*
X003310Y003969D02*
X003368D01*
X003348Y003923D02*
X003376D01*
X003350Y003926D02*
X003378D01*
X003353Y003928D02*
X003378D01*
X003353Y003954D02*
X003378D01*
X003350Y003956D02*
X003378D01*
X003343Y003959D02*
X003376D01*
X003302Y003923D02*
X003330D01*
X003299Y003926D02*
X003327D01*
X003299Y003928D02*
X003325D01*
X003299Y003931D02*
X003322D01*
X003299Y003933D02*
X003322D01*
X003297Y003936D02*
X003320D01*
X003297Y003939D02*
X003320D01*
X003297Y003941D02*
X003320D01*
X003297Y003944D02*
X003320D01*
X003297Y003946D02*
X003320D01*
X003299Y003949D02*
X003322D01*
X003299Y003951D02*
X003322D01*
X003299Y003954D02*
X003325D01*
X003302Y003956D02*
X003327D01*
X003302Y003959D02*
X003335D01*
X003337Y003674D02*
X003348D01*
X003337Y003677D02*
X003348D01*
X003335Y003679D02*
X003345D01*
X003332Y003682D02*
X003345D01*
X003332Y003685D02*
X003343D01*
X003330Y003687D02*
X003340D01*
X003330Y003690D02*
X003340D01*
X003327Y003692D02*
X003337D01*
X003325Y003695D02*
X003337D01*
X003325Y003697D02*
X003340D01*
X003322Y003700D02*
X003340D01*
X003322Y003702D02*
X003343D01*
X003332Y003705D02*
X003343D01*
X003335Y003707D02*
X003345D01*
X003335Y003710D02*
X003345D01*
X003337Y003713D02*
X003348D01*
X003337Y003715D02*
X003350D01*
X003343Y003667D02*
X003353D01*
X003340Y003669D02*
X003350D01*
X003340Y003672D02*
X003350D01*
X003340Y003718D02*
X003350D01*
X003343Y003720D02*
X003353D01*
X003343Y003723D02*
X003353D01*
X003345Y003725D02*
X003355D01*
X003345Y003728D02*
X003358D01*
X003348Y003730D02*
X003358D01*
X003350Y003733D02*
X003360D01*
X003350Y003735D02*
X003360D01*
X003353Y003738D02*
X003363D01*
X003353Y003740D02*
X003365D01*
X003320Y003705D02*
X003330D01*
X003317Y003707D02*
X003330D01*
X003317Y003710D02*
X003327D01*
X003315Y003713D02*
X003325D01*
X003315Y003715D02*
X003325D01*
X003312Y003718D02*
X003322D01*
X003310Y003720D02*
X003322D01*
X003310Y003723D02*
X003320D01*
X003307Y003725D02*
X003317D01*
X003307Y003728D02*
X003317D01*
X003304Y003730D02*
X003315D01*
X003302Y003733D02*
X003315D01*
X003302Y003735D02*
X003312D01*
X003299Y003738D02*
X003310D01*
X003299Y003740D02*
X003310D01*
X003492Y003667D02*
X003500D01*
X003444D02*
X003454D01*
X003411D02*
X003421D01*
X003492Y003669D02*
X003500D01*
X003444D02*
X003454D01*
X003411D02*
X003421D01*
X003492Y003672D02*
X003500D01*
X003444D02*
X003454D01*
X003411D02*
X003421D01*
X003492Y003674D02*
X003500D01*
X003444D02*
X003454D01*
X003411D02*
X003421D01*
X003492Y003677D02*
X003500D01*
X003444D02*
X003454D01*
X003411D02*
X003421D01*
X003492Y003679D02*
X003500D01*
X003444D02*
X003454D01*
X003411D02*
X003421D01*
X003492Y003682D02*
X003500D01*
X003444D02*
X003454D01*
X003411D02*
X003421D01*
X003492Y003685D02*
X003500D01*
X003444D02*
X003454D01*
X003411D02*
X003421D01*
X003492Y003687D02*
X003500D01*
X003444D02*
X003454D01*
X003411D02*
X003421D01*
X003492Y003690D02*
X003500D01*
X003444D02*
X003454D01*
X003411D02*
X003421D01*
X003492Y003692D02*
X003500D01*
X003444D02*
X003454D01*
X003411D02*
X003421D01*
X003492Y003695D02*
X003500D01*
X003444D02*
X003454D01*
X003411D02*
X003421D01*
X003492Y003697D02*
X003500D01*
X003444D02*
X003454D01*
X003411D02*
X003421D01*
X003492Y003700D02*
X003500D01*
X003444D02*
X003454D01*
X003411D02*
X003421D01*
X003444Y003702D02*
X003500D01*
X003411D02*
X003421D01*
X003444Y003705D02*
X003500D01*
X003411D02*
X003421D01*
X003444Y003707D02*
X003500D01*
X003411D02*
X003421D01*
X003492Y003710D02*
X003500D01*
X003444D02*
X003454D01*
X003411D02*
X003421D01*
X003492Y003713D02*
X003500D01*
X003444D02*
X003454D01*
X003411D02*
X003421D01*
X003492Y003715D02*
X003500D01*
X003444D02*
X003454D01*
X003411D02*
X003421D01*
X003492Y003718D02*
X003500D01*
X003444D02*
X003454D01*
X003411D02*
X003421D01*
X003492Y003720D02*
X003500D01*
X003444D02*
X003454D01*
X003411D02*
X003421D01*
X003492Y003723D02*
X003500D01*
X003444D02*
X003454D01*
X003411D02*
X003421D01*
X003492Y003725D02*
X003500D01*
X003444D02*
X003454D01*
X003411D02*
X003421D01*
X003492Y003728D02*
X003500D01*
X003444D02*
X003454D01*
X003411D02*
X003421D01*
X003492Y003730D02*
X003500D01*
X003444D02*
X003454D01*
X003411D02*
X003421D01*
X003500Y003245D02*
X003541D01*
X003497Y003248D02*
X003541D01*
X003497Y003250D02*
X003541D01*
X003561Y003230D02*
X003584D01*
X003561Y003232D02*
X003584D01*
X003561Y003235D02*
X003584D01*
X003561Y003238D02*
X003584D01*
X003561Y003240D02*
X003584D01*
X003561Y003243D02*
X003584D01*
X003561Y003245D02*
X003584D01*
X003561Y003248D02*
X003584D01*
X003561Y003250D02*
X003584D01*
X003477Y003199D02*
X003485D01*
X003464Y003202D02*
X003495D01*
X003459Y003205D02*
X003500D01*
X003457Y003207D02*
X003505D01*
X003454Y003210D02*
X003508D01*
X003452Y003212D02*
X003510D01*
X003449Y003215D02*
X003513D01*
X003447Y003217D02*
X003515D01*
X003444Y003220D02*
X003515D01*
X003485Y003222D02*
X003518D01*
X003444D02*
X003475D01*
X003492Y003225D02*
X003518D01*
X003442D02*
X003470D01*
X003495Y003227D02*
X003520D01*
X003442D02*
X003467D01*
X003442Y003230D02*
X003464D01*
X003439Y003232D02*
X003464D01*
X003439Y003235D02*
X003462D01*
X003439Y003238D02*
X003462D01*
X003439Y003240D02*
X003462D01*
X003439Y003243D02*
X003462D01*
X003439Y003245D02*
X003462D01*
X003439Y003248D02*
X003462D01*
X003442Y003250D02*
X003464D01*
X003632Y003779D02*
X003660D01*
X003635Y003781D02*
X003660D01*
X003637Y003806D02*
X003663D01*
X003635Y003809D02*
X003660D01*
X003632Y003812D02*
X003660D01*
X003604Y003832D02*
X003640D01*
X003492Y003733D02*
X003500D01*
X003444D02*
X003454D01*
X003411D02*
X003421D01*
X003492Y003735D02*
X003500D01*
X003444D02*
X003454D01*
X003492Y003738D02*
X003500D01*
X003444D02*
X003454D01*
X003492Y003740D02*
X003500D01*
X003444D02*
X003454D01*
X003541Y003606D02*
X003548D01*
X003538Y003608D02*
X003551D01*
X003536Y003611D02*
X003556D01*
X003533Y003613D02*
X003558D01*
X003536Y003616D02*
X003566D01*
X003536Y003537D02*
X003563D01*
X003536Y003540D02*
X003558D01*
X003536Y003542D02*
X003553D01*
X003538Y003545D02*
X003551D01*
X003541Y003547D02*
X003548D01*
X003543Y003603D02*
X003546D01*
X003566Y003634D02*
X003591D01*
X003563Y003519D02*
X003594D01*
X003543Y003550D02*
X003546D01*
X003492Y003255D02*
X003520D01*
X003442D02*
X003470D01*
X003487Y003258D02*
X003518D01*
X003444D02*
X003475D01*
X003444Y003260D02*
X003518D01*
X003447Y003263D02*
X003515D01*
X003449Y003265D02*
X003513D01*
X003449Y003268D02*
X003510D01*
X003452Y003271D02*
X003508D01*
X003457Y003273D02*
X003505D01*
X003459Y003276D02*
X003503D01*
X003464Y003278D02*
X003497D01*
X003472Y003281D02*
X003490D01*
X003497Y003230D02*
X003541D01*
X003497Y003232D02*
X003541D01*
X003497Y003235D02*
X003541D01*
X003500Y003238D02*
X003541D01*
X003500Y003240D02*
X003541D01*
X003500Y003243D02*
X003541D01*
X003612Y003834D02*
X003635D01*
X003609Y003756D02*
X003635D01*
X003604Y003758D02*
X003642D01*
X003744Y003611D02*
X003767D01*
X003739Y003613D02*
X003764D01*
X003734Y003616D02*
X003762D01*
X003678Y003619D02*
X003762D01*
X003683Y003621D02*
X003757D01*
X003685Y003624D02*
X003754D01*
X003688Y003626D02*
X003751D01*
X003693Y003629D02*
X003746D01*
X003696Y003522D02*
X003744D01*
X003693Y003525D02*
X003746D01*
X003688Y003527D02*
X003751D01*
X003685Y003530D02*
X003754D01*
X003680Y003532D02*
X003759D01*
X003721Y003535D02*
X003762D01*
X003734Y003537D02*
X003764D01*
X003739Y003540D02*
X003764D01*
X003744Y003542D02*
X003767D01*
X003759Y003565D02*
X003777D01*
X003663D02*
X003680D01*
X003619D02*
X003637D01*
X003759Y003568D02*
X003777D01*
X003759Y003570D02*
X003777D01*
X003762Y003573D02*
X003777D01*
X003762Y003575D02*
X003779D01*
X003762Y003578D02*
X003779D01*
X003762Y003580D02*
X003777D01*
X003759Y003583D02*
X003777D01*
X003759Y003586D02*
X003777D01*
X003759Y003588D02*
X003777D01*
X003759Y003591D02*
X003777D01*
X003757Y003593D02*
X003777D01*
X003757Y003596D02*
X003774D01*
X003754Y003598D02*
X003774D01*
X003754Y003601D02*
X003774D01*
X003751Y003603D02*
X003772D01*
X003749Y003606D02*
X003769D01*
X003746Y003608D02*
X003769D01*
X003746Y003545D02*
X003769D01*
X003749Y003547D02*
X003772D01*
X003751Y003550D02*
X003772D01*
X003754Y003553D02*
X003774D01*
X003757Y003555D02*
X003774D01*
X003757Y003558D02*
X003774D01*
X003759Y003560D02*
X003777D01*
X003759Y003563D02*
X003777D01*
X003663Y003568D02*
X003680D01*
X003619D02*
X003637D01*
X003660Y003570D02*
X003680D01*
X003619D02*
X003637D01*
X003660Y003573D02*
X003678D01*
X003619D02*
X003637D01*
X003660Y003575D02*
X003678D01*
X003619D02*
X003637D01*
X003660Y003578D02*
X003678D01*
X003619D02*
X003637D01*
X003660Y003580D02*
X003678D01*
X003619D02*
X003637D01*
X003660Y003583D02*
X003680D01*
X003619D02*
X003637D01*
X003663Y003586D02*
X003680D01*
X003619D02*
X003637D01*
X003663Y003588D02*
X003680D01*
X003619D02*
X003637D01*
X003663Y003591D02*
X003680D01*
X003617D02*
X003637D01*
X003663Y003593D02*
X003683D01*
X003617D02*
X003635D01*
X003665Y003596D02*
X003683D01*
X003614D02*
X003635D01*
X003665Y003598D02*
X003685D01*
X003614D02*
X003635D01*
X003665Y003601D02*
X003685D01*
X003612D02*
X003632D01*
X003668Y003603D02*
X003688D01*
X003612D02*
X003632D01*
X003668Y003606D02*
X003690D01*
X003609D02*
X003630D01*
X003670Y003608D02*
X003693D01*
X003607D02*
X003630D01*
X003673Y003611D02*
X003696D01*
X003675Y003613D02*
X003701D01*
X003675Y003616D02*
X003706D01*
X003698Y003631D02*
X003741D01*
X003706Y003634D02*
X003734D01*
X003706Y003519D02*
X003734D01*
X003678Y003535D02*
X003718D01*
X003675Y003537D02*
X003706D01*
X003673Y003540D02*
X003701D01*
X003673Y003542D02*
X003696D01*
X003604D02*
X003627D01*
X003670Y003545D02*
X003693D01*
X003607D02*
X003630D01*
X003668Y003547D02*
X003690D01*
X003609D02*
X003630D01*
X003668Y003550D02*
X003688D01*
X003612D02*
X003632D01*
X003665Y003553D02*
X003685D01*
X003614D02*
X003632D01*
X003665Y003555D02*
X003685D01*
X003614D02*
X003635D01*
X003663Y003558D02*
X003683D01*
X003617D02*
X003635D01*
X003663Y003560D02*
X003683D01*
X003617D02*
X003635D01*
X003663Y003563D02*
X003680D01*
X003617D02*
X003637D01*
X003731Y003230D02*
X003754D01*
X003731Y003232D02*
X003754D01*
X003731Y003235D02*
X003754D01*
X003731Y003238D02*
X003754D01*
X003731Y003240D02*
X003754D01*
X003731Y003243D02*
X003754D01*
X003731Y003245D02*
X003754D01*
X003731Y003248D02*
X003754D01*
X003731Y003250D02*
X003754D01*
X003774Y003230D02*
X003797D01*
X003774Y003232D02*
X003797D01*
X003774Y003235D02*
X003797D01*
X003774Y003238D02*
X003797D01*
X003774Y003240D02*
X003797D01*
X003774Y003243D02*
X003797D01*
X003774Y003245D02*
X003797D01*
X003774Y003248D02*
X003797D01*
X003774Y003250D02*
X003797D01*
X003690Y003230D02*
X003713D01*
X003647D02*
X003670D01*
X003604D02*
X003627D01*
X003690Y003232D02*
X003713D01*
X003647D02*
X003670D01*
X003604D02*
X003627D01*
X003690Y003235D02*
X003713D01*
X003647D02*
X003670D01*
X003604D02*
X003627D01*
X003690Y003238D02*
X003713D01*
X003647D02*
X003670D01*
X003604D02*
X003627D01*
X003690Y003240D02*
X003713D01*
X003647D02*
X003670D01*
X003604D02*
X003627D01*
X003690Y003243D02*
X003713D01*
X003647D02*
X003670D01*
X003604D02*
X003627D01*
X003690Y003245D02*
X003713D01*
X003647D02*
X003670D01*
X003604D02*
X003627D01*
X003690Y003248D02*
X003713D01*
X003647D02*
X003670D01*
X003604D02*
X003627D01*
X003690Y003250D02*
X003713D01*
X003647D02*
X003670D01*
X003604D02*
X003627D01*
X003955Y003865D02*
X003983D01*
X003955Y003867D02*
X003985D01*
X003957Y003870D02*
X003988D01*
X003960Y003873D02*
X003990D01*
X003962Y003875D02*
X003993D01*
X003965Y003878D02*
X003995D01*
X003967Y003880D02*
X003998D01*
X003970Y003883D02*
X004000D01*
X003972Y003885D02*
X004003D01*
X003919Y003819D02*
X003947D01*
X003922Y003822D02*
X003950D01*
X003922Y003824D02*
X003950D01*
X003924Y003827D02*
X003952D01*
X003927Y003829D02*
X003955D01*
X003929Y003832D02*
X003955D01*
X003929Y003834D02*
X003957D01*
X003932Y003837D02*
X003960D01*
X003934Y003840D02*
X003962D01*
X003934Y003842D02*
X003965D01*
X003937Y003845D02*
X003965D01*
X003939Y003847D02*
X003967D01*
X003942Y003850D02*
X003970D01*
X003942Y003852D02*
X003972D01*
X003944Y003855D02*
X003975D01*
X003947Y003857D02*
X003978D01*
X003891Y003768D02*
X003917D01*
X003950Y003860D02*
X003978D01*
X003894Y003771D02*
X003919D01*
X003894Y003773D02*
X003919D01*
X003896Y003776D02*
X003922D01*
X003896Y003779D02*
X003922D01*
X003899Y003781D02*
X003924D01*
X003911Y003806D02*
X003937D01*
X003914Y003809D02*
X003939D01*
X003914Y003812D02*
X003942D01*
X003917Y003814D02*
X003942D01*
X003919Y003817D02*
X003944D01*
X003858Y003662D02*
X003881D01*
X003858Y003664D02*
X003881D01*
X003861Y003667D02*
X003884D01*
X003861Y003669D02*
X003884D01*
X003861Y003672D02*
X003884D01*
X003861Y003674D02*
X003884D01*
X003861Y003677D02*
X003884D01*
X003863Y003679D02*
X003886D01*
X003863Y003682D02*
X003886D01*
X003863Y003685D02*
X003886D01*
X003863Y003687D02*
X003886D01*
X003863Y003690D02*
X003889D01*
X003866Y003692D02*
X003889D01*
X003866Y003695D02*
X003889D01*
X003866Y003697D02*
X003889D01*
X003866Y003700D02*
X003891D01*
X003868Y003702D02*
X003891D01*
X003868Y003705D02*
X003891D01*
X003868Y003707D02*
X003894D01*
X003871Y003710D02*
X003894D01*
X003871Y003713D02*
X003894D01*
X003871Y003715D02*
X003894D01*
X003873Y003718D02*
X003896D01*
X003873Y003720D02*
X003896D01*
X003873Y003723D02*
X003899D01*
X003873Y003725D02*
X003899D01*
X003876Y003728D02*
X003899D01*
X003876Y003730D02*
X003901D01*
X003878Y003733D02*
X003901D01*
X003878Y003735D02*
X003901D01*
X003878Y003738D02*
X003904D01*
X003881Y003740D02*
X003904D01*
X003881Y003743D02*
X003906D01*
X003881Y003746D02*
X003906D01*
X003884Y003748D02*
X003906D01*
X003884Y003751D02*
X003909D01*
X003886Y003753D02*
X003909D01*
X003886Y003756D02*
X003911D01*
X003886Y003758D02*
X003911D01*
X003889Y003761D02*
X003914D01*
X003889Y003763D02*
X003914D01*
X003891Y003766D02*
X003917D01*
X003909Y003565D02*
X003927D01*
X003861D02*
X003873D01*
X003807D02*
X003825D01*
X003965Y003603D02*
X003967D01*
X003962Y003606D02*
X003970D01*
X003960Y003608D02*
X003972D01*
X003957Y003611D02*
X003975D01*
X003955Y003613D02*
X003980D01*
X003957Y003616D02*
X003988D01*
X003957Y003537D02*
X003985D01*
X003955Y003540D02*
X003980D01*
X003957Y003542D02*
X003975D01*
X003960Y003545D02*
X003972D01*
X003962Y003547D02*
X003967D01*
X003909Y003568D02*
X003927D01*
X003858D02*
X003876D01*
X003807D02*
X003825D01*
X003909Y003570D02*
X003927D01*
X003856D02*
X003878D01*
X003807D02*
X003825D01*
X003909Y003573D02*
X003927D01*
X003853D02*
X003881D01*
X003807D02*
X003825D01*
X003909Y003575D02*
X003927D01*
X003851D02*
X003884D01*
X003807D02*
X003825D01*
X003909Y003578D02*
X003927D01*
X003848D02*
X003886D01*
X003807D02*
X003825D01*
X003909Y003580D02*
X003927D01*
X003868D02*
X003889D01*
X003845D02*
X003866D01*
X003807D02*
X003825D01*
X003909Y003583D02*
X003927D01*
X003871D02*
X003889D01*
X003845D02*
X003863D01*
X003807D02*
X003825D01*
X003909Y003586D02*
X003927D01*
X003873D02*
X003891D01*
X003843D02*
X003861D01*
X003807D02*
X003825D01*
X003909Y003588D02*
X003927D01*
X003876D02*
X003894D01*
X003840D02*
X003858D01*
X003807D02*
X003825D01*
X003909Y003591D02*
X003927D01*
X003878D02*
X003896D01*
X003838D02*
X003856D01*
X003807D02*
X003825D01*
X003909Y003593D02*
X003927D01*
X003878D02*
X003899D01*
X003835D02*
X003856D01*
X003807D02*
X003825D01*
X003909Y003596D02*
X003927D01*
X003881D02*
X003901D01*
X003833D02*
X003853D01*
X003807D02*
X003825D01*
X003909Y003598D02*
X003927D01*
X003884D02*
X003904D01*
X003830D02*
X003851D01*
X003807D02*
X003825D01*
X003909Y003601D02*
X003927D01*
X003886D02*
X003906D01*
X003828D02*
X003848D01*
X003807D02*
X003825D01*
X003909Y003603D02*
X003927D01*
X003889D02*
X003906D01*
X003828D02*
X003845D01*
X003807D02*
X003825D01*
X003891Y003606D02*
X003927D01*
X003807D02*
X003843D01*
X003894Y003608D02*
X003927D01*
X003807D02*
X003840D01*
X003896Y003611D02*
X003927D01*
X003807D02*
X003838D01*
X003899Y003613D02*
X003927D01*
X003807D02*
X003838D01*
X003899Y003616D02*
X003927D01*
X003807D02*
X003835D01*
X003901Y003619D02*
X003927D01*
X003807D02*
X003833D01*
X003904Y003621D02*
X003927D01*
X003807D02*
X003830D01*
X003906Y003624D02*
X003927D01*
X003807D02*
X003828D01*
X003909Y003626D02*
X003927D01*
X003807D02*
X003825D01*
X003911Y003629D02*
X003927D01*
X003807D02*
X003823D01*
X003914Y003631D02*
X003927D01*
X003807D02*
X003820D01*
X003858Y003657D02*
X003881D01*
X003873Y003459D02*
X003899D01*
X003873Y003461D02*
X003896D01*
X003873Y003464D02*
X003896D01*
X003871Y003466D02*
X003896D01*
X003871Y003469D02*
X003894D01*
X003871Y003471D02*
X003894D01*
X003871Y003474D02*
X003894D01*
X003868Y003476D02*
X003891D01*
X003868Y003479D02*
X003891D01*
X003868Y003481D02*
X003891D01*
X003866Y003484D02*
X003891D01*
X003866Y003486D02*
X003889D01*
X003866Y003489D02*
X003889D01*
X003866Y003492D02*
X003889D01*
X003863Y003494D02*
X003889D01*
X003909Y003519D02*
X003927D01*
X003807D02*
X003825D01*
X003909Y003522D02*
X003927D01*
X003807D02*
X003825D01*
X003909Y003525D02*
X003927D01*
X003807D02*
X003825D01*
X003909Y003527D02*
X003927D01*
X003807D02*
X003825D01*
X003909Y003530D02*
X003927D01*
X003807D02*
X003825D01*
X003909Y003532D02*
X003927D01*
X003807D02*
X003825D01*
X003909Y003535D02*
X003927D01*
X003807D02*
X003825D01*
X003909Y003537D02*
X003927D01*
X003807D02*
X003825D01*
X003909Y003540D02*
X003927D01*
X003807D02*
X003825D01*
X003909Y003542D02*
X003927D01*
X003807D02*
X003825D01*
X003909Y003545D02*
X003927D01*
X003807D02*
X003825D01*
X003909Y003547D02*
X003927D01*
X003807D02*
X003825D01*
X003909Y003550D02*
X003927D01*
X003807D02*
X003825D01*
X003909Y003553D02*
X003927D01*
X003807D02*
X003825D01*
X003909Y003555D02*
X003927D01*
X003807D02*
X003825D01*
X003909Y003558D02*
X003927D01*
X003866D02*
X003868D01*
X003807D02*
X003825D01*
X003909Y003560D02*
X003927D01*
X003863D02*
X003871D01*
X003807D02*
X003825D01*
X003909Y003563D02*
X003927D01*
X003863D02*
X003871D01*
X003807D02*
X003825D01*
X003922Y003362D02*
X003947D01*
X003919Y003365D02*
X003947D01*
X003944Y003329D02*
X003950D01*
X003942Y003332D02*
X003952D01*
X003942Y003334D02*
X003955D01*
X003939Y003337D02*
X003960D01*
X003937Y003339D02*
X003962D01*
X003934Y003342D02*
X003962D01*
X003934Y003344D02*
X003962D01*
X003932Y003347D02*
X003960D01*
X003929Y003349D02*
X003957D01*
X003929Y003352D02*
X003955D01*
X003927Y003354D02*
X003955D01*
X003924Y003357D02*
X003952D01*
X003922Y003359D02*
X003950D01*
X003975Y003296D02*
X003978D01*
X003972Y003299D02*
X003980D01*
X003970Y003301D02*
X003983D01*
X003967Y003304D02*
X003985D01*
X003965Y003306D02*
X003988D01*
X003962Y003309D02*
X003990D01*
X003962Y003311D02*
X003990D01*
X003965Y003314D02*
X003988D01*
X003967Y003316D02*
X003985D01*
X003970Y003319D02*
X003983D01*
X003972Y003321D02*
X003980D01*
X003975Y003324D02*
X003978D01*
X003919Y003367D02*
X003944D01*
X003917Y003370D02*
X003942D01*
X003914Y003372D02*
X003942D01*
X003914Y003375D02*
X003939D01*
X003911Y003377D02*
X003937D01*
X003909Y003380D02*
X003937D01*
X003909Y003382D02*
X003934D01*
X003906Y003385D02*
X003934D01*
X003906Y003387D02*
X003932D01*
X003904Y003390D02*
X003929D01*
X003904Y003392D02*
X003929D01*
X003901Y003395D02*
X003927D01*
X003901Y003398D02*
X003927D01*
X003899Y003400D02*
X003924D01*
X003899Y003403D02*
X003924D01*
X003896Y003405D02*
X003922D01*
X003896Y003408D02*
X003919D01*
X003894Y003410D02*
X003919D01*
X003894Y003413D02*
X003917D01*
X003891Y003415D02*
X003917D01*
X003891Y003418D02*
X003914D01*
X003889Y003420D02*
X003914D01*
X003889Y003423D02*
X003914D01*
X003886Y003426D02*
X003911D01*
X003886Y003428D02*
X003911D01*
X003886Y003431D02*
X003909D01*
X003884Y003433D02*
X003909D01*
X003884Y003436D02*
X003906D01*
X003881Y003438D02*
X003906D01*
X003881Y003441D02*
X003904D01*
X003881Y003443D02*
X003904D01*
X003878Y003446D02*
X003904D01*
X003878Y003448D02*
X003901D01*
X003876Y003451D02*
X003901D01*
X003876Y003453D02*
X003901D01*
X003944Y003230D02*
X003967D01*
X003944Y003232D02*
X003967D01*
X003944Y003235D02*
X003967D01*
X003944Y003238D02*
X003967D01*
X003944Y003240D02*
X003967D01*
X003944Y003243D02*
X003967D01*
X003944Y003245D02*
X003967D01*
X003944Y003248D02*
X003967D01*
X003944Y003250D02*
X003967D01*
X003904Y003230D02*
X003924D01*
X003861D02*
X003884D01*
X003817D02*
X003840D01*
X003904Y003232D02*
X003924D01*
X003861D02*
X003884D01*
X003817D02*
X003840D01*
X003904Y003235D02*
X003924D01*
X003861D02*
X003884D01*
X003817D02*
X003840D01*
X003904Y003238D02*
X003924D01*
X003861D02*
X003884D01*
X003817D02*
X003840D01*
X004140Y003850D02*
X004153D01*
X004145Y003852D02*
X004153D01*
X004125Y003667D02*
X004150D01*
X004125Y003669D02*
X004150D01*
X004127Y003672D02*
X004153D01*
X004127Y003674D02*
X004155D01*
X004130Y003677D02*
X004155D01*
X004130Y003679D02*
X004158D01*
X004132Y003682D02*
X004160D01*
X004135Y003685D02*
X004163D01*
X004135Y003687D02*
X004163D01*
X004138Y003690D02*
X004165D01*
X004140Y003692D02*
X004168D01*
X004143Y003695D02*
X004171D01*
X004143Y003697D02*
X004173D01*
X004145Y003700D02*
X004176D01*
X004148Y003702D02*
X004178D01*
X004150Y003705D02*
X004183D01*
X004044Y003768D02*
X004072D01*
X004173Y003842D02*
X004178D01*
X004173Y003845D02*
X004186D01*
X004171Y003847D02*
X004193D01*
X004171Y003850D02*
X004193D01*
X004171Y003852D02*
X004193D01*
X004168Y003855D02*
X004193D01*
X004168Y003857D02*
X004191D01*
X004165Y003860D02*
X004191D01*
X004153Y003707D02*
X004186D01*
X004155Y003710D02*
X004188D01*
X004158Y003713D02*
X004193D01*
X004160Y003715D02*
X004196D01*
X004163Y003718D02*
X004201D01*
X004165Y003720D02*
X004206D01*
X004046Y003771D02*
X004074D01*
X004049Y003773D02*
X004077D01*
X004049Y003776D02*
X004079D01*
X004051Y003779D02*
X004082D01*
X004054Y003781D02*
X004084D01*
X004056Y003784D02*
X004087D01*
X004059Y003786D02*
X004089D01*
X004061Y003789D02*
X004092D01*
X004064Y003791D02*
X004094D01*
X003904Y003240D02*
X003924D01*
X003861D02*
X003884D01*
X003817D02*
X003840D01*
X003904Y003243D02*
X003924D01*
X003861D02*
X003884D01*
X003817D02*
X003840D01*
X003904Y003245D02*
X003924D01*
X003861D02*
X003884D01*
X003817D02*
X003840D01*
X003904Y003248D02*
X003924D01*
X003861D02*
X003884D01*
X003817D02*
X003840D01*
X003904Y003250D02*
X003924D01*
X003861D02*
X003884D01*
X003817D02*
X003840D01*
X004092Y003972D02*
X004153D01*
X004097Y003974D02*
X004160D01*
X004102Y003977D02*
X004171D01*
X004110Y003979D02*
X004181D01*
X004115Y003982D02*
X004191D01*
X004122Y003984D02*
X004204D01*
X004173Y003865D02*
X004188D01*
X004181Y003867D02*
X004188D01*
X004011Y003921D02*
X004049D01*
X004016Y003923D02*
X004054D01*
X004018Y003926D02*
X004056D01*
X004021Y003928D02*
X004061D01*
X004059Y003954D02*
X004107D01*
X004064Y003956D02*
X004112D01*
X004069Y003959D02*
X004120D01*
X004072Y003961D02*
X004125D01*
X004077Y003964D02*
X004132D01*
X004082Y003967D02*
X004138D01*
X004087Y003969D02*
X004145D01*
X004107Y003829D02*
X004150D01*
X004110Y003832D02*
X004155D01*
X004115Y003834D02*
X004160D01*
X004120Y003837D02*
X004158D01*
X004122Y003840D02*
X004158D01*
X004127Y003842D02*
X004158D01*
X004132Y003845D02*
X004155D01*
X004135Y003847D02*
X004155D01*
X004066Y003794D02*
X004097D01*
X004069Y003796D02*
X004102D01*
X004072Y003799D02*
X004105D01*
X004074Y003801D02*
X004107D01*
X004077Y003804D02*
X004110D01*
X004079Y003806D02*
X004115D01*
X004082Y003809D02*
X004117D01*
X004084Y003812D02*
X004120D01*
X004087Y003814D02*
X004125D01*
X004089Y003817D02*
X004127D01*
X004094Y003819D02*
X004132D01*
X004097Y003822D02*
X004138D01*
X004099Y003824D02*
X004140D01*
X004105Y003827D02*
X004145D01*
X004122Y003662D02*
X004148D01*
X004122Y003664D02*
X004148D01*
X004011Y003713D02*
X004036D01*
X004011Y003715D02*
X004036D01*
X004013Y003718D02*
X004038D01*
X004013Y003720D02*
X004038D01*
X004016Y003723D02*
X004041D01*
X004016Y003725D02*
X004041D01*
X004018Y003728D02*
X004044D01*
X004018Y003730D02*
X004044D01*
X004021Y003733D02*
X004046D01*
X004021Y003735D02*
X004049D01*
X004023Y003738D02*
X004049D01*
X004023Y003740D02*
X004051D01*
X004026Y003743D02*
X004054D01*
X004028Y003746D02*
X004054D01*
X004028Y003748D02*
X004056D01*
X004031Y003751D02*
X004059D01*
X004033Y003753D02*
X004059D01*
X004033Y003756D02*
X004061D01*
X004036Y003758D02*
X004064D01*
X004038Y003761D02*
X004066D01*
X004038Y003763D02*
X004069D01*
X004041Y003766D02*
X004072D01*
X004077Y003565D02*
X004193D01*
X004077Y003568D02*
X004193D01*
X004077Y003570D02*
X004193D01*
X004077Y003573D02*
X004193D01*
X004077Y003575D02*
X004193D01*
X004077Y003578D02*
X004193D01*
X004077Y003580D02*
X004193D01*
X004077Y003583D02*
X004193D01*
X004077Y003586D02*
X004193D01*
X004077Y003588D02*
X004193D01*
X004077Y003591D02*
X004191D01*
X004079Y003593D02*
X004191D01*
X004079Y003596D02*
X004191D01*
X004079Y003598D02*
X004188D01*
X004082Y003601D02*
X004188D01*
X004082Y003603D02*
X004186D01*
X004084Y003606D02*
X004186D01*
X004084Y003608D02*
X004183D01*
X004087Y003611D02*
X004181D01*
X004089Y003613D02*
X004181D01*
X004092Y003616D02*
X004178D01*
X004094Y003619D02*
X004176D01*
X004097Y003621D02*
X004173D01*
X004099Y003624D02*
X004168D01*
X004102Y003626D02*
X004165D01*
X004107Y003629D02*
X004160D01*
X004112Y003631D02*
X004155D01*
X004150Y003479D02*
X004183D01*
X004148Y003481D02*
X004178D01*
X004145Y003484D02*
X004176D01*
X004143Y003486D02*
X004173D01*
X004143Y003489D02*
X004171D01*
X004140Y003492D02*
X004168D01*
X004138Y003494D02*
X004165D01*
X004120Y003519D02*
X004150D01*
X004112Y003522D02*
X004158D01*
X004107Y003525D02*
X004163D01*
X004102Y003527D02*
X004168D01*
X004099Y003530D02*
X004171D01*
X004097Y003532D02*
X004173D01*
X004092Y003535D02*
X004176D01*
X004092Y003537D02*
X004178D01*
X004089Y003540D02*
X004181D01*
X004087Y003542D02*
X004183D01*
X004084Y003545D02*
X004183D01*
X004084Y003547D02*
X004186D01*
X004082Y003550D02*
X004186D01*
X004082Y003553D02*
X004188D01*
X004079Y003555D02*
X004188D01*
X004079Y003558D02*
X004191D01*
X004079Y003560D02*
X004191D01*
X004077Y003563D02*
X004191D01*
X004038Y003565D02*
X004059D01*
X004165Y003464D02*
X004206D01*
X004163Y003466D02*
X004201D01*
X004160Y003469D02*
X004196D01*
X004158Y003471D02*
X004193D01*
X004155Y003474D02*
X004188D01*
X004153Y003476D02*
X004186D01*
X004041Y003568D02*
X004059D01*
X004041Y003570D02*
X004059D01*
X004041Y003573D02*
X004059D01*
X004041Y003575D02*
X004059D01*
X004041Y003578D02*
X004059D01*
X004041Y003580D02*
X004059D01*
X004041Y003583D02*
X004059D01*
X004041Y003586D02*
X004059D01*
X004038Y003588D02*
X004059D01*
X004038Y003591D02*
X004056D01*
X004038Y003593D02*
X004056D01*
X004036Y003596D02*
X004056D01*
X004036Y003598D02*
X004054D01*
X004033Y003601D02*
X004054D01*
X004031Y003603D02*
X004051D01*
X004031Y003606D02*
X004051D01*
X004026Y003608D02*
X004049D01*
X004023Y003611D02*
X004049D01*
X004018Y003613D02*
X004046D01*
X004013Y003616D02*
X004044D01*
X004122Y003634D02*
X004148D01*
X004120Y003657D02*
X004143D01*
X004016Y003459D02*
X004041D01*
X004016Y003461D02*
X004041D01*
X004013Y003464D02*
X004038D01*
X004013Y003466D02*
X004036D01*
X004011Y003469D02*
X004036D01*
X004011Y003471D02*
X004033D01*
X004016Y003537D02*
X004044D01*
X004021Y003540D02*
X004046D01*
X004023Y003542D02*
X004049D01*
X004028Y003545D02*
X004049D01*
X004031Y003547D02*
X004051D01*
X004033Y003550D02*
X004054D01*
X004033Y003553D02*
X004054D01*
X004036Y003555D02*
X004056D01*
X004036Y003558D02*
X004056D01*
X004038Y003560D02*
X004056D01*
X004038Y003563D02*
X004056D01*
X004145Y003332D02*
X004209D01*
X004140Y003334D02*
X004201D01*
X004135Y003337D02*
X004193D01*
X004130Y003339D02*
X004183D01*
X004125Y003342D02*
X004178D01*
X004122Y003344D02*
X004171D01*
X004117Y003347D02*
X004165D01*
X004115Y003349D02*
X004160D01*
X004110Y003352D02*
X004155D01*
X004107Y003354D02*
X004150D01*
X004097Y003362D02*
X004135D01*
X004092Y003365D02*
X004132D01*
X004089Y003367D02*
X004127D01*
X004087Y003370D02*
X004125D01*
X004084Y003372D02*
X004120D01*
X004082Y003375D02*
X004117D01*
X004079Y003377D02*
X004112D01*
X004077Y003380D02*
X004110D01*
X004072Y003382D02*
X004107D01*
X004069Y003385D02*
X004105D01*
X004066Y003387D02*
X004099D01*
X004064Y003390D02*
X004097D01*
X004064Y003392D02*
X004094D01*
X004061Y003395D02*
X004092D01*
X004059Y003398D02*
X004089D01*
X004056Y003400D02*
X004087D01*
X004054Y003403D02*
X004084D01*
X004051Y003405D02*
X004082D01*
X004049Y003408D02*
X004079D01*
X004046Y003410D02*
X004077D01*
X004046Y003413D02*
X004074D01*
X004044Y003415D02*
X004072D01*
X004041Y003418D02*
X004069D01*
X004038Y003420D02*
X004066D01*
X004038Y003423D02*
X004066D01*
X004036Y003426D02*
X004064D01*
X004033Y003428D02*
X004061D01*
X004033Y003431D02*
X004059D01*
X004031Y003433D02*
X004059D01*
X004028Y003436D02*
X004056D01*
X004028Y003438D02*
X004054D01*
X004026Y003441D02*
X004051D01*
X004023Y003443D02*
X004051D01*
X004023Y003446D02*
X004049D01*
X004021Y003448D02*
X004049D01*
X004021Y003451D02*
X004046D01*
X004018Y003453D02*
X004044D01*
X004031Y003255D02*
X004056D01*
X004031Y003258D02*
X004056D01*
X004033Y003260D02*
X004054D01*
X004036Y003263D02*
X004049D01*
X004036Y003265D02*
X004046D01*
X004038Y003268D02*
X004041D01*
X004102Y003357D02*
X004145D01*
X004099Y003359D02*
X004140D01*
X004145Y003192D02*
X004171D01*
X004148Y003194D02*
X004171D01*
X004148Y003197D02*
X004171D01*
X004148Y003199D02*
X004173D01*
X004148Y003202D02*
X004173D01*
X004150Y003205D02*
X004173D01*
X004150Y003207D02*
X004173D01*
X004150Y003210D02*
X004163D01*
X004186Y003164D02*
X004209D01*
X004183Y003166D02*
X004209D01*
X004183Y003169D02*
X004206D01*
X004183Y003172D02*
X004206D01*
X004181Y003174D02*
X004206D01*
X004181Y003177D02*
X004204D01*
X004181Y003179D02*
X004204D01*
X004181Y003182D02*
X004204D01*
X004181Y003184D02*
X004204D01*
X004181Y003187D02*
X004204D01*
X004160D02*
X004168D01*
X004181Y003189D02*
X004204D01*
X004153D02*
X004171D01*
X004181Y003192D02*
X004204D01*
X004181Y003194D02*
X004204D01*
X004181Y003197D02*
X004204D01*
X004183Y003199D02*
X004206D01*
X004183Y003202D02*
X004206D01*
X004183Y003205D02*
X004209D01*
X004183Y003207D02*
X004209D01*
X004153Y003212D02*
X004155D01*
X004122Y003199D02*
X004125D01*
X004115Y003202D02*
X004127D01*
X004110Y003205D02*
X004127D01*
X004105Y003207D02*
X004130D01*
X004105Y003210D02*
X004130D01*
X004107Y003212D02*
X004130D01*
X004107Y003215D02*
X004132D01*
X004107Y003217D02*
X004132D01*
X004082D02*
X004084D01*
X004110Y003220D02*
X004132D01*
X004077D02*
X004087D01*
X004110Y003222D02*
X004127D01*
X004072D02*
X004087D01*
X004112Y003225D02*
X004120D01*
X004066D02*
X004089D01*
X004112Y003227D02*
X004115D01*
X004064D02*
X004089D01*
X004066Y003230D02*
X004092D01*
X004066Y003232D02*
X004092D01*
X004069Y003235D02*
X004094D01*
X004069Y003238D02*
X004092D01*
X004072Y003240D02*
X004087D01*
X004044D02*
X004046D01*
X004074Y003243D02*
X004082D01*
X004038D02*
X004049D01*
X004074Y003245D02*
X004079D01*
X004036D02*
X004051D01*
X004031Y003248D02*
X004051D01*
X004028Y003250D02*
X004054D01*
X004300Y003989D02*
X004412D01*
X004341Y003865D02*
X004364D01*
X004341Y003867D02*
X004366D01*
X004341Y003870D02*
X004359D01*
X004224Y004010D02*
X004326D01*
X004252Y004012D02*
X004295D01*
X004298Y003865D02*
X004320D01*
X004254D02*
X004277D01*
X004298Y003867D02*
X004320D01*
X004254D02*
X004277D01*
X004298Y003870D02*
X004320D01*
X004254D02*
X004277D01*
X004343Y003873D02*
X004351D01*
X004298D02*
X004320D01*
X004254D02*
X004277D01*
X004298Y003875D02*
X004320D01*
X004254D02*
X004277D01*
X004298Y003878D02*
X004323D01*
X004254D02*
X004277D01*
X004219D02*
X004232D01*
X004298Y003880D02*
X004313D01*
X004254D02*
X004277D01*
X004267Y003883D02*
X004277D01*
X004348Y003850D02*
X004361D01*
X004338Y003852D02*
X004361D01*
X004338Y003855D02*
X004361D01*
X004338Y003857D02*
X004364D01*
X004338Y003860D02*
X004364D01*
X004351Y003715D02*
X004386D01*
X004346Y003718D02*
X004384D01*
X004343Y003720D02*
X004381D01*
X004338Y003723D02*
X004379D01*
X004333Y003725D02*
X004376D01*
X004326Y003728D02*
X004371D01*
X004318Y003730D02*
X004369D01*
X004310Y003733D02*
X004364D01*
X004298Y003735D02*
X004361D01*
X004394Y003832D02*
X004399D01*
X004389Y003834D02*
X004399D01*
X004384Y003837D02*
X004402D01*
X004376Y003840D02*
X004402D01*
X004379Y003842D02*
X004404D01*
X004379Y003845D02*
X004404D01*
X004381Y003847D02*
X004407D01*
X004356D02*
X004359D01*
X004381Y003850D02*
X004407D01*
X004381Y003852D02*
X004404D01*
X004384Y003855D02*
X004399D01*
X004384Y003857D02*
X004394D01*
X004384Y003687D02*
X004412D01*
X004381Y003690D02*
X004409D01*
X004379Y003692D02*
X004409D01*
X004376Y003695D02*
X004407D01*
X004374Y003697D02*
X004404D01*
X004371Y003700D02*
X004402D01*
X004369Y003702D02*
X004399D01*
X004366Y003705D02*
X004397D01*
X004361Y003707D02*
X004397D01*
X004359Y003710D02*
X004394D01*
X004356Y003713D02*
X004392D01*
X004214Y003855D02*
X004221D01*
X004310Y003857D02*
X004318D01*
X004214D02*
X004237D01*
X004298Y003860D02*
X004318D01*
X004254D02*
X004275D01*
X004313Y003662D02*
X004333D01*
X004219D02*
X004242D01*
X004313Y003664D02*
X004333D01*
X004216D02*
X004239D01*
X004313Y003667D02*
X004333D01*
X004216D02*
X004237D01*
X004313Y003669D02*
X004333D01*
X004214D02*
X004237D01*
X004313Y003672D02*
X004333D01*
X004214D02*
X004234D01*
X004313Y003674D02*
X004333D01*
X004313Y003677D02*
X004333D01*
X004219Y003751D02*
X004328D01*
X004226Y003753D02*
X004320D01*
X004237Y003756D02*
X004310D01*
X004252Y003758D02*
X004298D01*
X004333Y003459D02*
X004376D01*
X004338Y003461D02*
X004379D01*
X004343Y003464D02*
X004381D01*
X004348Y003466D02*
X004384D01*
X004351Y003469D02*
X004389D01*
X004313Y003565D02*
X004333D01*
X004234D02*
X004254D01*
X004356Y003471D02*
X004392D01*
X004359Y003474D02*
X004394D01*
X004364Y003476D02*
X004397D01*
X004366Y003479D02*
X004399D01*
X004369Y003481D02*
X004399D01*
X004371Y003484D02*
X004402D01*
X004374Y003486D02*
X004404D01*
X004376Y003489D02*
X004407D01*
X004379Y003492D02*
X004409D01*
X004381Y003494D02*
X004409D01*
X004384Y003497D02*
X004412D01*
X004313Y003568D02*
X004333D01*
X004234D02*
X004257D01*
X004313Y003570D02*
X004333D01*
X004237D02*
X004257D01*
X004313Y003573D02*
X004333D01*
X004239D02*
X004259D01*
X004313Y003575D02*
X004333D01*
X004239D02*
X004262D01*
X004313Y003578D02*
X004333D01*
X004242D02*
X004265D01*
X004313Y003580D02*
X004333D01*
X004244D02*
X004265D01*
X004313Y003583D02*
X004333D01*
X004244D02*
X004267D01*
X004313Y003586D02*
X004333D01*
X004247D02*
X004270D01*
X004313Y003588D02*
X004333D01*
X004249D02*
X004272D01*
X004313Y003591D02*
X004333D01*
X004252D02*
X004280D01*
X004252Y003593D02*
X004333D01*
X004257Y003596D02*
X004333D01*
X004259Y003598D02*
X004333D01*
X004265Y003601D02*
X004333D01*
X004259Y003603D02*
X004333D01*
X004257Y003606D02*
X004333D01*
X004254Y003608D02*
X004333D01*
X004313Y003611D02*
X004333D01*
X004254D02*
X004280D01*
X004313Y003613D02*
X004333D01*
X004252D02*
X004275D01*
X004313Y003616D02*
X004333D01*
X004249D02*
X004272D01*
X004313Y003619D02*
X004333D01*
X004247D02*
X004270D01*
X004313Y003621D02*
X004333D01*
X004247D02*
X004267D01*
X004313Y003624D02*
X004333D01*
X004244D02*
X004265D01*
X004313Y003626D02*
X004333D01*
X004242D02*
X004265D01*
X004313Y003629D02*
X004333D01*
X004242D02*
X004262D01*
X004313Y003631D02*
X004333D01*
X004239D02*
X004259D01*
X004313Y003634D02*
X004333D01*
X004237D02*
X004259D01*
X004313Y003636D02*
X004333D01*
X004237D02*
X004257D01*
X004313Y003639D02*
X004333D01*
X004234D02*
X004254D01*
X004313Y003641D02*
X004333D01*
X004232D02*
X004254D01*
X004313Y003644D02*
X004333D01*
X004232D02*
X004252D01*
X004313Y003646D02*
X004333D01*
X004229D02*
X004249D01*
X004313Y003649D02*
X004333D01*
X004226D02*
X004249D01*
X004313Y003652D02*
X004333D01*
X004226D02*
X004247D01*
X004313Y003654D02*
X004333D01*
X004224D02*
X004244D01*
X004313Y003657D02*
X004333D01*
X004221D02*
X004244D01*
X004313Y003519D02*
X004333D01*
X004313Y003522D02*
X004333D01*
X004313Y003525D02*
X004333D01*
X004313Y003527D02*
X004333D01*
X004313Y003530D02*
X004333D01*
X004313Y003532D02*
X004333D01*
X004313Y003535D02*
X004333D01*
X004214D02*
X004237D01*
X004313Y003537D02*
X004333D01*
X004216D02*
X004237D01*
X004313Y003540D02*
X004333D01*
X004216D02*
X004239D01*
X004313Y003542D02*
X004333D01*
X004219D02*
X004239D01*
X004313Y003545D02*
X004333D01*
X004221D02*
X004242D01*
X004313Y003547D02*
X004333D01*
X004221D02*
X004244D01*
X004313Y003550D02*
X004333D01*
X004224D02*
X004244D01*
X004313Y003553D02*
X004333D01*
X004226D02*
X004247D01*
X004313Y003555D02*
X004333D01*
X004226D02*
X004249D01*
X004313Y003558D02*
X004333D01*
X004229D02*
X004249D01*
X004313Y003560D02*
X004333D01*
X004232D02*
X004252D01*
X004313Y003563D02*
X004333D01*
X004232D02*
X004254D01*
X004298Y003448D02*
X004361D01*
X004310Y003451D02*
X004366D01*
X004318Y003453D02*
X004369D01*
X004287Y003324D02*
X004386D01*
X004313Y003326D02*
X004392D01*
X004328Y003329D02*
X004399D01*
X004338Y003332D02*
X004397D01*
X004348Y003334D02*
X004397D01*
X004409Y003337D02*
X004412D01*
X004356D02*
X004394D01*
X004364Y003339D02*
X004394D01*
X004371Y003342D02*
X004392D01*
X004376Y003344D02*
X004392D01*
X004384Y003347D02*
X004389D01*
X004249Y003426D02*
X004298D01*
X004237Y003428D02*
X004310D01*
X004226Y003431D02*
X004320D01*
X004219Y003433D02*
X004328D01*
X004237Y003304D02*
X004313D01*
X004221Y003306D02*
X004328D01*
X004280Y003159D02*
X004305D01*
X004366Y003184D02*
X004374D01*
X004364Y003187D02*
X004384D01*
X004364Y003189D02*
X004389D01*
X004364Y003192D02*
X004386D01*
X004364Y003194D02*
X004386D01*
X004364Y003197D02*
X004386D01*
X004361Y003199D02*
X004386D01*
X004361Y003202D02*
X004384D01*
X004361Y003205D02*
X004384D01*
X004371Y003207D02*
X004384D01*
X004282Y003161D02*
X004308D01*
X004285Y003164D02*
X004308D01*
X004285Y003166D02*
X004310D01*
X004287Y003169D02*
X004310D01*
X004287Y003172D02*
X004310D01*
X004287Y003174D02*
X004310D01*
X004320Y003177D02*
X004336D01*
X004287D02*
X004313D01*
X004320Y003179D02*
X004346D01*
X004290D02*
X004313D01*
X004320Y003182D02*
X004343D01*
X004290D02*
X004313D01*
X004320Y003184D02*
X004343D01*
X004290D02*
X004313D01*
X004320Y003187D02*
X004343D01*
X004290D02*
X004313D01*
X004320Y003189D02*
X004343D01*
X004290D02*
X004313D01*
X004320Y003192D02*
X004343D01*
X004290D02*
X004313D01*
X004320Y003194D02*
X004343D01*
X004290D02*
X004313D01*
X004318Y003197D02*
X004341D01*
X004287D02*
X004310D01*
X004333Y003199D02*
X004341D01*
X004287D02*
X004310D01*
X004287Y003202D02*
X004310D01*
X004285Y003205D02*
X004310D01*
X004285Y003207D02*
X004308D01*
X004282Y003210D02*
X004308D01*
X004282Y003212D02*
X004308D01*
X004280Y003215D02*
X004305D01*
X004277Y003217D02*
X004305D01*
X004275Y003220D02*
X004303D01*
X004270Y003222D02*
X004300D01*
X004267Y003225D02*
X004300D01*
X004259Y003227D02*
X004298D01*
X004214Y003243D02*
X004280D01*
X004216Y003245D02*
X004275D01*
X004224Y003248D02*
X004270D01*
X004232Y003250D02*
X004262D01*
X004239Y003121D02*
X004254D01*
X004226Y003123D02*
X004267D01*
X004221Y003126D02*
X004272D01*
X004216Y003128D02*
X004277D01*
X004254Y003144D02*
X004298D01*
X004262Y003146D02*
X004298D01*
X004267Y003149D02*
X004300D01*
X004272Y003151D02*
X004303D01*
X004275Y003154D02*
X004303D01*
X004277Y003156D02*
X004305D01*
X004557Y003870D02*
X004587D01*
X004554Y003873D02*
X004585D01*
X004554Y003875D02*
X004582D01*
X004552Y003878D02*
X004579D01*
X004549Y003880D02*
X004577D01*
X004546Y003883D02*
X004574D01*
X004541Y003885D02*
X004572D01*
X004539Y003888D02*
X004569D01*
X004536Y003890D02*
X004567D01*
X004534Y003893D02*
X004564D01*
X004531Y003895D02*
X004562D01*
X004529Y003898D02*
X004559D01*
X004526Y003900D02*
X004557D01*
X004562Y003865D02*
X004592D01*
X004559Y003867D02*
X004590D01*
X004524Y003903D02*
X004554D01*
X004519Y003906D02*
X004552D01*
X004516Y003908D02*
X004549D01*
X004513Y003911D02*
X004546D01*
X004508Y003913D02*
X004544D01*
X004506Y003916D02*
X004539D01*
X004503Y003918D02*
X004536D01*
X004498Y003921D02*
X004534D01*
X004496Y003923D02*
X004531D01*
X004491Y003926D02*
X004526D01*
X004488Y003928D02*
X004524D01*
X004483Y003931D02*
X004521D01*
X004480Y003933D02*
X004516D01*
X004475Y003936D02*
X004513D01*
X004470Y003939D02*
X004511D01*
X004468Y003941D02*
X004506D01*
X004463Y003944D02*
X004503D01*
X004458Y003946D02*
X004498D01*
X004453Y003949D02*
X004493D01*
X004447Y003951D02*
X004491D01*
X004442Y003954D02*
X004486D01*
X004437Y003956D02*
X004480D01*
X004430Y003959D02*
X004478D01*
X004425Y003961D02*
X004473D01*
X004417Y003964D02*
X004468D01*
X004554Y003662D02*
X004557D01*
X004498Y003768D02*
X004524D01*
X004442D02*
X004470D01*
X004607Y003806D02*
X004613D01*
X004605Y003809D02*
X004615D01*
X004587Y003834D02*
X004615D01*
X004587Y003837D02*
X004615D01*
X004585Y003840D02*
X004613D01*
X004582Y003842D02*
X004610D01*
X004579Y003845D02*
X004607D01*
X004577Y003847D02*
X004607D01*
X004577Y003850D02*
X004605D01*
X004574Y003852D02*
X004602D01*
X004572Y003855D02*
X004600D01*
X004569Y003857D02*
X004597D01*
X004567Y003860D02*
X004597D01*
X004501Y003771D02*
X004526D01*
X004442D02*
X004468D01*
X004503Y003773D02*
X004526D01*
X004440D02*
X004465D01*
X004503Y003776D02*
X004526D01*
X004440D02*
X004463D01*
X004506Y003779D02*
X004529D01*
X004440D02*
X004463D01*
X004506Y003781D02*
X004529D01*
X004440D02*
X004463D01*
X004506Y003784D02*
X004529D01*
X004440D02*
X004460D01*
X004506Y003786D02*
X004529D01*
X004440D02*
X004460D01*
X004506Y003789D02*
X004529D01*
X004440D02*
X004460D01*
X004506Y003791D02*
X004529D01*
X004440D02*
X004463D01*
X004506Y003794D02*
X004529D01*
X004440D02*
X004463D01*
X004503Y003796D02*
X004526D01*
X004440D02*
X004463D01*
X004503Y003799D02*
X004526D01*
X004440D02*
X004465D01*
X004501Y003801D02*
X004526D01*
X004442D02*
X004468D01*
X004498Y003804D02*
X004524D01*
X004442D02*
X004470D01*
X004493Y003806D02*
X004524D01*
X004442D02*
X004473D01*
X004445Y003809D02*
X004521D01*
X004447Y003812D02*
X004521D01*
X004427D02*
X004435D01*
X004447Y003814D02*
X004519D01*
X004425D02*
X004437D01*
X004450Y003817D02*
X004516D01*
X004419D02*
X004437D01*
X004453Y003819D02*
X004513D01*
X004417D02*
X004440D01*
X004455Y003822D02*
X004511D01*
X004460Y003824D02*
X004508D01*
X004417D02*
X004445D01*
X004465Y003827D02*
X004503D01*
X004417D02*
X004445D01*
X004470Y003829D02*
X004496D01*
X004419D02*
X004442D01*
X004422Y003832D02*
X004440D01*
X004422Y003834D02*
X004435D01*
X004425Y003837D02*
X004430D01*
X004425Y003840D02*
X004427D01*
X004529Y003677D02*
X004531D01*
X004529Y003679D02*
X004539D01*
X004526Y003682D02*
X004546D01*
X004526Y003685D02*
X004549D01*
X004524Y003687D02*
X004549D01*
X004524Y003690D02*
X004549D01*
X004524Y003692D02*
X004546D01*
X004521Y003695D02*
X004546D01*
X004524Y003697D02*
X004546D01*
X004529Y003700D02*
X004544D01*
X004536Y003702D02*
X004544D01*
X004511Y003718D02*
X004519D01*
X004508Y003720D02*
X004524D01*
X004508Y003723D02*
X004529D01*
X004506Y003725D02*
X004534D01*
X004506Y003728D02*
X004531D01*
X004503Y003730D02*
X004529D01*
X004503Y003733D02*
X004529D01*
X004506Y003735D02*
X004526D01*
X004508Y003738D02*
X004526D01*
X004513Y003740D02*
X004524D01*
X004519Y003743D02*
X004524D01*
X004473D02*
X004496D01*
X004465Y003746D02*
X004503D01*
X004460Y003748D02*
X004506D01*
X004458Y003751D02*
X004511D01*
X004453Y003753D02*
X004513D01*
X004450Y003756D02*
X004516D01*
X004447Y003758D02*
X004519D01*
X004447Y003761D02*
X004521D01*
X004445Y003763D02*
X004521D01*
X004493Y003766D02*
X004524D01*
X004442D02*
X004475D01*
X004541Y003565D02*
X004564D01*
X004541Y003568D02*
X004564D01*
X004541Y003570D02*
X004564D01*
X004541Y003573D02*
X004564D01*
X004541Y003596D02*
X004564D01*
X004541Y003598D02*
X004564D01*
X004541Y003601D02*
X004564D01*
X004541Y003603D02*
X004564D01*
X004541Y003606D02*
X004564D01*
X004541Y003608D02*
X004564D01*
X004541Y003611D02*
X004564D01*
X004541Y003613D02*
X004564D01*
X004541Y003616D02*
X004564D01*
X004539Y003639D02*
X004559D01*
X004536Y003641D02*
X004562D01*
X004536Y003644D02*
X004559D01*
X004536Y003646D02*
X004559D01*
X004536Y003649D02*
X004559D01*
X004536Y003652D02*
X004559D01*
X004534Y003654D02*
X004559D01*
X004534Y003657D02*
X004557D01*
X004531Y003519D02*
X004557D01*
X004534Y003522D02*
X004557D01*
X004534Y003525D02*
X004557D01*
X004534Y003527D02*
X004557D01*
Y003550D02*
X004562D01*
X004539Y003553D02*
X004562D01*
X004539Y003555D02*
X004562D01*
X004539Y003558D02*
X004562D01*
X004539Y003560D02*
X004564D01*
X004541Y003563D02*
X004564D01*
X004417Y003565D02*
X004440D01*
X004417Y003568D02*
X004440D01*
X004417Y003570D02*
X004440D01*
X004417Y003573D02*
X004440D01*
X004419Y003575D02*
X004442D01*
X004419Y003578D02*
X004442D01*
X004419Y003580D02*
X004442D01*
X004419Y003583D02*
X004442D01*
X004419Y003586D02*
X004442D01*
X004419Y003588D02*
X004442D01*
X004419Y003591D02*
X004442D01*
X004419Y003593D02*
X004442D01*
X004419Y003596D02*
X004442D01*
X004419Y003598D02*
X004442D01*
X004419Y003601D02*
X004442D01*
X004419Y003603D02*
X004442D01*
X004419Y003606D02*
X004442D01*
X004419Y003608D02*
X004440D01*
X004417Y003611D02*
X004440D01*
X004587Y003321D02*
X004595D01*
X004585Y003324D02*
X004595D01*
X004582Y003326D02*
X004597D01*
X004579Y003329D02*
X004600D01*
X004574Y003332D02*
X004602D01*
X004574Y003334D02*
X004605D01*
X004577Y003337D02*
X004605D01*
X004579Y003339D02*
X004602D01*
X004582Y003342D02*
X004600D01*
X004582Y003344D02*
X004595D01*
X004585Y003347D02*
X004592D01*
X004587Y003349D02*
X004590D01*
X004445Y003365D02*
X004455D01*
X004445Y003367D02*
X004458D01*
X004442Y003370D02*
X004460D01*
X004440Y003372D02*
X004463D01*
X004437Y003375D02*
X004468D01*
X004437Y003377D02*
X004465D01*
X004437Y003380D02*
X004463D01*
X004440Y003382D02*
X004460D01*
X004445Y003385D02*
X004458D01*
X004447Y003387D02*
X004455D01*
X004450Y003390D02*
X004455D01*
X004480Y003392D02*
X004486D01*
X004478Y003395D02*
X004488D01*
X004475Y003398D02*
X004491D01*
X004473Y003400D02*
X004493D01*
X004470Y003403D02*
X004493D01*
X004468Y003405D02*
X004496D01*
X004468Y003408D02*
X004498D01*
X004470Y003410D02*
X004496D01*
X004473Y003413D02*
X004493D01*
X004475Y003415D02*
X004488D01*
X004478Y003418D02*
X004486D01*
X004480Y003420D02*
X004483D01*
X004511Y003426D02*
X004513D01*
X004506Y003428D02*
X004513D01*
X004503Y003431D02*
X004516D01*
X004501Y003433D02*
X004519D01*
X004496Y003436D02*
X004519D01*
X004493Y003438D02*
X004521D01*
X004496Y003441D02*
X004521D01*
X004417Y003613D02*
X004440D01*
X004417Y003616D02*
X004440D01*
X004417Y003619D02*
X004440D01*
X004417Y003621D02*
X004440D01*
X004417Y003624D02*
X004440D01*
X004539Y003636D02*
X004544D01*
X004534Y003464D02*
X004536D01*
X004529Y003466D02*
X004536D01*
X004524Y003469D02*
X004536D01*
X004519Y003471D02*
X004539D01*
X004513Y003474D02*
X004539D01*
X004516Y003476D02*
X004541D01*
X004516Y003479D02*
X004541D01*
X004519Y003481D02*
X004544D01*
X004519Y003484D02*
X004544D01*
X004521Y003486D02*
X004541D01*
X004521Y003489D02*
X004534D01*
X004524Y003492D02*
X004529D01*
X004546Y003507D02*
X004552D01*
X004539Y003509D02*
X004552D01*
X004529Y003512D02*
X004554D01*
X004531Y003514D02*
X004554D01*
X004531Y003517D02*
X004554D01*
X004534Y003530D02*
X004552D01*
X004536Y003532D02*
X004541D01*
X004417Y003560D02*
X004440D01*
X004417Y003563D02*
X004440D01*
X004557Y003291D02*
X004564D01*
X004554Y003293D02*
X004567D01*
X004552Y003296D02*
X004569D01*
X004549Y003299D02*
X004572D01*
X004546Y003301D02*
X004574D01*
X004546Y003304D02*
X004574D01*
X004549Y003306D02*
X004572D01*
X004552Y003309D02*
X004569D01*
X004554Y003311D02*
X004567D01*
X004557Y003314D02*
X004564D01*
X004447Y003362D02*
X004453D01*
X004610Y003382D02*
X004615D01*
X004559Y003288D02*
X004562D01*
X004559Y003316D02*
X004562D01*
X004590Y003319D02*
X004592D01*
X004496Y003443D02*
X004524D01*
X004498Y003446D02*
X004521D01*
X004501Y003448D02*
X004519D01*
X004501Y003451D02*
X004513D01*
X004503Y003453D02*
X004508D01*
X004483Y003255D02*
X004501D01*
X004488Y003258D02*
X004501D01*
X004524Y003260D02*
X004531D01*
X004491D02*
X004498D01*
X004521Y003263D02*
X004534D01*
X004521Y003265D02*
X004536D01*
X004519Y003268D02*
X004539D01*
X004516Y003271D02*
X004544D01*
X004513Y003273D02*
X004544D01*
X004513Y003276D02*
X004541D01*
X004516Y003278D02*
X004539D01*
X004519Y003281D02*
X004536D01*
X004524Y003283D02*
X004534D01*
X004526Y003286D02*
X004534D01*
X004529Y003288D02*
X004531D01*
X004450Y003212D02*
X004453D01*
X004447Y003215D02*
X004458D01*
X004447Y003217D02*
X004463D01*
X004445Y003220D02*
X004468D01*
X004445Y003222D02*
X004470D01*
X004419D02*
X004422D01*
X004442Y003225D02*
X004470D01*
X004442Y003227D02*
X004468D01*
X004442Y003230D02*
X004468D01*
X004488Y003232D02*
X004491D01*
X004442D02*
X004465D01*
X004488Y003235D02*
X004493D01*
X004447D02*
X004463D01*
X004486Y003238D02*
X004498D01*
X004453D02*
X004463D01*
X004486Y003240D02*
X004501D01*
X004458D02*
X004460D01*
X004483Y003243D02*
X004506D01*
X004480Y003245D02*
X004508D01*
X004480Y003248D02*
X004506D01*
X004478Y003250D02*
X004506D01*
X004628Y003768D02*
X004630D01*
X004628Y003771D02*
X004635D01*
X004625Y003773D02*
X004640D01*
X004625Y003776D02*
X004646D01*
X004623Y003779D02*
X004651D01*
X004623Y003781D02*
X004648D01*
X004620Y003784D02*
X004648D01*
X004620Y003786D02*
X004646D01*
X004623Y003789D02*
X004646D01*
X004625Y003791D02*
X004643D01*
X004630Y003794D02*
X004640D01*
X004635Y003796D02*
X004640D01*
X004663Y003662D02*
X004686D01*
X004663Y003664D02*
X004686D01*
X004663Y003667D02*
X004686D01*
X004663Y003669D02*
X004686D01*
X004676Y003672D02*
X004686D01*
X004658Y003690D02*
X004663D01*
X004658Y003692D02*
X004673D01*
X004656Y003695D02*
X004681D01*
X004656Y003697D02*
X004679D01*
X004656Y003700D02*
X004679D01*
X004656Y003702D02*
X004679D01*
X004653Y003705D02*
X004679D01*
X004653Y003707D02*
X004676D01*
X004653Y003710D02*
X004676D01*
X004661Y003713D02*
X004676D01*
X004668Y003715D02*
X004673D01*
X004646Y003730D02*
X004651D01*
X004646Y003733D02*
X004656D01*
X004643Y003735D02*
X004663D01*
X004643Y003738D02*
X004666D01*
X004640Y003740D02*
X004666D01*
X004640Y003743D02*
X004666D01*
X004640Y003746D02*
X004663D01*
X004638Y003748D02*
X004663D01*
X004640Y003751D02*
X004661D01*
X004646Y003753D02*
X004661D01*
X004653Y003756D02*
X004661D01*
X004668Y003565D02*
X004691D01*
X004668Y003568D02*
X004691D01*
X004668Y003570D02*
X004691D01*
X004668Y003573D02*
X004691D01*
X004668Y003575D02*
X004691D01*
X004668Y003578D02*
X004694D01*
X004671Y003580D02*
X004694D01*
X004671Y003583D02*
X004694D01*
X004671Y003606D02*
X004694D01*
X004668Y003608D02*
X004694D01*
X004668Y003611D02*
X004691D01*
X004668Y003613D02*
X004691D01*
X004668Y003616D02*
X004691D01*
X004668Y003619D02*
X004691D01*
X004668Y003621D02*
X004691D01*
X004668Y003624D02*
X004691D01*
X004668Y003626D02*
X004691D01*
X004684Y003629D02*
X004691D01*
X004666Y003649D02*
X004681D01*
X004666Y003652D02*
X004689D01*
X004666Y003654D02*
X004689D01*
X004666Y003657D02*
X004689D01*
X004648Y003459D02*
X004656D01*
X004666Y003476D02*
X004676D01*
X004658Y003479D02*
X004679D01*
X004653Y003481D02*
X004679D01*
X004656Y003484D02*
X004679D01*
X004656Y003486D02*
X004679D01*
X004656Y003489D02*
X004681D01*
X004658Y003492D02*
X004681D01*
X004658Y003494D02*
X004681D01*
X004658Y003497D02*
X004681D01*
X004658Y003499D02*
X004671D01*
X004673Y003519D02*
X004686D01*
X004663Y003522D02*
X004686D01*
X004663Y003525D02*
X004686D01*
X004663Y003527D02*
X004689D01*
X004666Y003530D02*
X004689D01*
X004666Y003532D02*
X004689D01*
X004666Y003535D02*
X004689D01*
X004666Y003537D02*
X004689D01*
X004666Y003540D02*
X004689D01*
X004666Y003542D02*
X004673D01*
X004671Y003563D02*
X004691D01*
X004640Y003392D02*
X004643D01*
X004635Y003395D02*
X004643D01*
X004630Y003398D02*
X004646D01*
X004625Y003400D02*
X004646D01*
X004623Y003403D02*
X004648D01*
X004623Y003405D02*
X004648D01*
X004625Y003408D02*
X004651D01*
X004625Y003410D02*
X004651D01*
X004628Y003413D02*
X004651D01*
X004628Y003415D02*
X004646D01*
X004630Y003418D02*
X004640D01*
X004630Y003420D02*
X004635D01*
X004658Y003433D02*
X004661D01*
X004651Y003436D02*
X004663D01*
X004646Y003438D02*
X004663D01*
X004640Y003441D02*
X004666D01*
X004640Y003443D02*
X004666D01*
X004643Y003446D02*
X004666D01*
X004643Y003448D02*
X004668D01*
X004643Y003451D02*
X004668D01*
X004646Y003453D02*
X004668D01*
D16*
X009346Y008426D02*
X009474D01*
X009346Y008744D02*
X009474D01*
X009486Y008554D02*
Y008617D01*
X009334Y008554D02*
Y008617D01*
X008496Y008426D02*
X008624D01*
X008496Y008744D02*
X008624D01*
X008636Y008554D02*
Y008617D01*
X008484Y008554D02*
Y008617D01*
X013304Y004267D02*
X013430D01*
X013304Y004584D02*
X013430D01*
X013443Y004394D02*
Y004457D01*
X013291Y004394D02*
Y004457D01*
X013046Y004267D02*
X013174D01*
X013046Y004584D02*
X013174D01*
X013186Y004394D02*
Y004457D01*
X013034Y004394D02*
Y004457D01*
D18*
X013945Y003303D02*
X013892D01*
X013865Y003329D01*
X013892Y003356D01*
X013945D01*
Y003383D02*
X013865D01*
Y003423D01*
X013878Y003436D01*
X013932D01*
X013945Y003423D01*
Y003383D01*
X013865Y003462D02*
Y003489D01*
Y003476D01*
X013945D01*
X013932Y003462D01*
X013865Y003582D02*
Y003529D01*
X013918Y003582D01*
X013932D01*
X013945Y003569D01*
Y003542D01*
X013932Y003529D01*
X004147Y006290D02*
Y006237D01*
X004120Y006210D01*
X004093Y006237D01*
Y006290D01*
X004067D02*
Y006210D01*
X004027D01*
X004013Y006223D01*
Y006277D01*
X004027Y006290D01*
X004067D01*
X003987Y006210D02*
X003960D01*
X003973D01*
Y006290D01*
X003987Y006277D01*
X003920Y006210D02*
X003893D01*
X003907D01*
Y006290D01*
X003920Y006277D01*
X004137Y007540D02*
Y007487D01*
X004110Y007460D01*
X004083Y007487D01*
Y007540D01*
X004057D02*
Y007460D01*
X004017D01*
X004003Y007473D01*
Y007527D01*
X004017Y007540D01*
X004057D01*
X003977Y007473D02*
X003963Y007460D01*
X003937D01*
X003923Y007473D01*
Y007527D01*
X003937Y007540D01*
X003963D01*
X003977Y007527D01*
Y007513D01*
X003963Y007500D01*
X003923D01*
X006397Y007550D02*
Y007497D01*
X006370Y007470D01*
X006343Y007497D01*
Y007550D01*
X006317D02*
Y007470D01*
X006277D01*
X006263Y007483D01*
Y007537D01*
X006277Y007550D01*
X006317D01*
X006183D02*
X006210Y007537D01*
X006237Y007510D01*
Y007483D01*
X006223Y007470D01*
X006197D01*
X006183Y007483D01*
Y007497D01*
X006197Y007510D01*
X006237D01*
X006407Y006290D02*
Y006237D01*
X006380Y006210D01*
X006353Y006237D01*
Y006290D01*
X006327D02*
Y006210D01*
X006287D01*
X006273Y006223D01*
Y006277D01*
X006287Y006290D01*
X006327D01*
X006247Y006277D02*
X006233Y006290D01*
X006207D01*
X006193Y006277D01*
Y006263D01*
X006207Y006250D01*
X006220D01*
X006207D01*
X006193Y006237D01*
Y006223D01*
X006207Y006210D01*
X006233D01*
X006247Y006223D01*
X012920Y004313D02*
X013000D01*
Y004353D01*
X012987Y004367D01*
X012960D01*
X012947Y004353D01*
Y004313D01*
Y004340D02*
X012920Y004367D01*
Y004447D02*
Y004393D01*
X012973Y004447D01*
X012987D01*
X013000Y004433D01*
Y004407D01*
X012987Y004393D01*
Y004473D02*
X013000Y004487D01*
Y004513D01*
X012987Y004527D01*
X012933D01*
X012920Y004513D01*
Y004487D01*
X012933Y004473D01*
X012987D01*
X013470Y004330D02*
X013550D01*
Y004370D01*
X013537Y004383D01*
X013510D01*
X013497Y004370D01*
Y004330D01*
Y004357D02*
X013470Y004383D01*
Y004410D02*
Y004437D01*
Y004423D01*
X013550D01*
X013537Y004410D01*
X013483Y004477D02*
X013470Y004490D01*
Y004517D01*
X013483Y004530D01*
X013537D01*
X013550Y004517D01*
Y004490D01*
X013537Y004477D01*
X013523D01*
X013510Y004490D01*
Y004530D01*
X008597Y008307D02*
X008610Y008293D01*
Y008267D01*
X008597Y008253D01*
X008543D01*
X008530Y008267D01*
Y008293D01*
X008543Y008307D01*
X008530Y008387D02*
Y008333D01*
X008583Y008387D01*
X008597D01*
X008610Y008373D01*
Y008347D01*
X008597Y008333D01*
X009437Y008330D02*
X009450Y008317D01*
Y008290D01*
X009437Y008277D01*
X009383D01*
X009370Y008290D01*
Y008317D01*
X009383Y008330D01*
X009370Y008357D02*
Y008383D01*
Y008370D01*
X009450D01*
X009437Y008357D01*
M02*
