G04*
G04 #@! TF.GenerationSoftware,Altium Limited,Altium Designer,20.1.11 (218)*
G04*
G04 Layer_Physical_Order=2*
G04 Layer_Color=36540*
%FSAX42Y42*%
%MOMM*%
G71*
G04*
G04 #@! TF.SameCoordinates,D071A55E-5AEF-410E-9220-4307AC36CE94*
G04*
G04*
G04 #@! TF.FilePolarity,Positive*
G04*
G01*
G75*
%ADD12C,0.40*%
%ADD13C,0.50*%
%ADD85C,1.37*%
%ADD88R,1.52X1.52*%
%ADD89C,1.52*%
%ADD90C,1.20*%
%ADD91P,1.70X4X270.0*%
%ADD95C,1.50*%
%ADD96C,0.60*%
%ADD97C,2.00*%
G36*
X014690Y009981D02*
X014640Y009950D01*
X014627Y009955D01*
X014585Y009965D01*
X014541Y009969D01*
X014498Y009965D01*
X014456Y009955D01*
X014416Y009939D01*
X014379Y009916D01*
X014346Y009888D01*
X014318Y009855D01*
X014295Y009818D01*
X014279Y009778D01*
X014269Y009736D01*
X014265Y009693D01*
X014269Y009649D01*
X014279Y009607D01*
X014295Y009567D01*
X014318Y009530D01*
X014346Y009497D01*
X014379Y009469D01*
X014395Y009459D01*
X014390Y009410D01*
X014387Y009406D01*
X014368Y009403D01*
X014347Y009395D01*
X014329Y009381D01*
X014315Y009363D01*
X014307Y009342D01*
X014304Y009320D01*
X014307Y009298D01*
X014315Y009277D01*
X014329Y009259D01*
X014347Y009245D01*
X014368Y009237D01*
X014390Y009234D01*
X014412Y009237D01*
X014433Y009245D01*
X014451Y009259D01*
X014465Y009277D01*
X014473Y009298D01*
X014476Y009320D01*
X014473Y009342D01*
X014465Y009363D01*
X014452Y009379D01*
X014453Y009384D01*
X014475Y009425D01*
X014498Y009420D01*
X014541Y009416D01*
X014585Y009420D01*
X014627Y009430D01*
X014640Y009435D01*
X014690Y009404D01*
Y006580D01*
X014640Y006549D01*
X014627Y006554D01*
X014585Y006564D01*
X014541Y006568D01*
X014498Y006564D01*
X014456Y006554D01*
X014416Y006538D01*
X014379Y006515D01*
X014346Y006487D01*
X014318Y006454D01*
X014295Y006417D01*
X014279Y006377D01*
X014269Y006335D01*
X014265Y006292D01*
X014269Y006248D01*
X014279Y006206D01*
X014295Y006166D01*
X014318Y006129D01*
X014346Y006096D01*
X014379Y006068D01*
X014416Y006045D01*
X014456Y006029D01*
X014498Y006019D01*
X014541Y006015D01*
X014585Y006019D01*
X014627Y006029D01*
X014640Y006034D01*
X014690Y006003D01*
Y003235D01*
X014643Y003201D01*
X014640Y003202D01*
X014593Y003213D01*
X014541Y003217D01*
X014490Y003213D01*
X014441Y003201D01*
X014393Y003181D01*
X014350Y003155D01*
X014311Y003121D01*
X014277Y003082D01*
X014251Y003039D01*
X014231Y002991D01*
X014219Y002942D01*
X014215Y002891D01*
X014216Y002877D01*
X014182Y002840D01*
X010961D01*
X010916Y002890D01*
X010916Y002891D01*
X010913Y002934D01*
X010903Y002976D01*
X010886Y003016D01*
X010864Y003053D01*
X010835Y003086D01*
X010802Y003114D01*
X010765Y003137D01*
X010725Y003153D01*
X010683Y003163D01*
X010640Y003167D01*
X010597Y003163D01*
X010555Y003153D01*
X010515Y003137D01*
X010478Y003114D01*
X010445Y003086D01*
X010417Y003053D01*
X010394Y003016D01*
X010377Y002976D01*
X010367Y002934D01*
X010364Y002891D01*
X010364Y002890D01*
X010319Y002840D01*
X007161D01*
X007116Y002890D01*
X007116Y002891D01*
X007113Y002934D01*
X007103Y002976D01*
X007086Y003016D01*
X007064Y003053D01*
X007036Y003086D01*
X007003Y003114D01*
X006966Y003137D01*
X006926Y003153D01*
X006883Y003163D01*
X006840Y003167D01*
X006797Y003163D01*
X006755Y003153D01*
X006715Y003137D01*
X006678Y003114D01*
X006645Y003086D01*
X006617Y003053D01*
X006594Y003016D01*
X006577Y002976D01*
X006567Y002934D01*
X006564Y002891D01*
X006564Y002890D01*
X006519Y002840D01*
X003301D01*
X003267Y002877D01*
X003268Y002891D01*
X003264Y002942D01*
X003252Y002991D01*
X003232Y003039D01*
X003205Y003082D01*
X003172Y003121D01*
X003133Y003155D01*
X003090Y003181D01*
X003042Y003201D01*
X002992Y003213D01*
X002941Y003217D01*
X002890Y003213D01*
X002840Y003201D01*
X002840Y003201D01*
X002790Y003234D01*
Y006006D01*
X002840Y006035D01*
X002856Y006029D01*
X002898Y006019D01*
X002941Y006015D01*
X002985Y006019D01*
X003027Y006029D01*
X003067Y006045D01*
X003098Y006006D01*
X003095Y006002D01*
X003091Y005980D01*
X003095Y005958D01*
X003103Y005947D01*
X003107Y005938D01*
X003105Y005894D01*
X003102Y005888D01*
X003093Y005875D01*
X003089Y005853D01*
X003093Y005831D01*
X003102Y005818D01*
X003105Y005812D01*
X003107Y005768D01*
X003103Y005759D01*
X003095Y005748D01*
X003091Y005726D01*
X003095Y005704D01*
X003103Y005693D01*
X003107Y005684D01*
X003105Y005640D01*
X003102Y005634D01*
X003093Y005621D01*
X003089Y005599D01*
X003093Y005577D01*
X003102Y005564D01*
X003105Y005558D01*
X003107Y005514D01*
X003103Y005505D01*
X003095Y005494D01*
X003091Y005472D01*
X003095Y005450D01*
X003103Y005439D01*
X003107Y005430D01*
X003105Y005386D01*
X003102Y005380D01*
X003093Y005367D01*
X003089Y005345D01*
X003093Y005323D01*
X003100Y005312D01*
X003105Y005304D01*
X003107Y005260D01*
X003102Y005250D01*
X003095Y005240D01*
X003091Y005218D01*
X003095Y005196D01*
X003107Y005178D01*
X003126Y005166D01*
X003147Y005162D01*
X003169Y005166D01*
X003187Y005178D01*
X003199Y005196D01*
X003204Y005218D01*
X003199Y005240D01*
X003192Y005251D01*
X003187Y005259D01*
X003185Y005303D01*
X003190Y005313D01*
X003197Y005323D01*
X003198Y005325D01*
X003452Y005579D01*
X003454Y005582D01*
X003495Y005580D01*
X003507Y005578D01*
X003513Y005569D01*
X003518Y005559D01*
Y005516D01*
X003513Y005506D01*
X003506Y005496D01*
X003501Y005474D01*
X003506Y005452D01*
X003513Y005442D01*
X003518Y005432D01*
Y005389D01*
X003513Y005379D01*
X003506Y005369D01*
X003501Y005347D01*
X003506Y005325D01*
X003513Y005315D01*
X003518Y005305D01*
Y005262D01*
X003513Y005252D01*
X003506Y005242D01*
X003501Y005220D01*
X003506Y005198D01*
X003518Y005180D01*
X003536Y005168D01*
X003558Y005164D01*
X003580Y005168D01*
X003598Y005180D01*
X003610Y005198D01*
X003614Y005220D01*
X003610Y005242D01*
X003603Y005252D01*
X003598Y005262D01*
Y005305D01*
X003603Y005315D01*
X003610Y005325D01*
X003614Y005347D01*
X003610Y005369D01*
X003603Y005379D01*
X003598Y005389D01*
Y005432D01*
X003603Y005442D01*
X003610Y005452D01*
X003614Y005474D01*
X003610Y005496D01*
X003603Y005506D01*
X003598Y005516D01*
Y005559D01*
X003603Y005569D01*
X003610Y005579D01*
X003614Y005601D01*
X003610Y005623D01*
X003603Y005633D01*
X003598Y005643D01*
Y005686D01*
X003603Y005696D01*
X003610Y005706D01*
X003614Y005728D01*
X003610Y005750D01*
X003603Y005760D01*
X003598Y005770D01*
Y005813D01*
X003603Y005823D01*
X003610Y005833D01*
X003614Y005855D01*
X003610Y005877D01*
X003603Y005887D01*
X003598Y005897D01*
Y005940D01*
X003603Y005950D01*
X003610Y005960D01*
X003614Y005982D01*
X003610Y006004D01*
X003603Y006014D01*
X003598Y006024D01*
Y006067D01*
X003603Y006077D01*
X003610Y006087D01*
X003614Y006109D01*
X003610Y006131D01*
X003598Y006149D01*
X003580Y006161D01*
X003558Y006165D01*
X003536Y006161D01*
X003518Y006149D01*
X003517Y006148D01*
X003467Y006163D01*
Y006414D01*
X003517Y006429D01*
X003518Y006428D01*
X003536Y006416D01*
X003558Y006412D01*
X003580Y006416D01*
X003598Y006428D01*
X003610Y006446D01*
X003614Y006468D01*
X003610Y006490D01*
X003603Y006500D01*
X003598Y006510D01*
Y006553D01*
X003603Y006563D01*
X003610Y006573D01*
X003614Y006595D01*
X003610Y006617D01*
X003603Y006627D01*
X003598Y006637D01*
Y006680D01*
X003603Y006690D01*
X003610Y006700D01*
X003614Y006722D01*
X003610Y006744D01*
X003603Y006754D01*
X003598Y006764D01*
Y006807D01*
X003603Y006817D01*
X003610Y006827D01*
X003614Y006849D01*
X003610Y006871D01*
X003603Y006881D01*
X003598Y006891D01*
Y006934D01*
X003603Y006944D01*
X003610Y006954D01*
X003614Y006976D01*
X003610Y006998D01*
X003603Y007008D01*
X003598Y007018D01*
Y007061D01*
X003603Y007071D01*
X003610Y007081D01*
X003614Y007103D01*
X003610Y007125D01*
X003603Y007135D01*
X003598Y007145D01*
Y007188D01*
X003603Y007198D01*
X003610Y007208D01*
X003614Y007230D01*
X003610Y007252D01*
X003603Y007262D01*
X003598Y007272D01*
Y007315D01*
X003603Y007325D01*
X003610Y007335D01*
X003614Y007357D01*
X003610Y007379D01*
X003598Y007397D01*
X003593Y007422D01*
X003631Y007469D01*
X004037D01*
X004056Y007422D01*
X003901Y007267D01*
X003853Y007275D01*
X003841Y007320D01*
X003845Y007327D01*
X003852Y007337D01*
X003856Y007359D01*
X003852Y007381D01*
X003840Y007399D01*
X003822Y007411D01*
X003800Y007415D01*
X003778Y007411D01*
X003760Y007399D01*
X003748Y007381D01*
X003744Y007359D01*
X003748Y007337D01*
X003755Y007327D01*
X003760Y007317D01*
Y007274D01*
X003755Y007264D01*
X003748Y007254D01*
X003744Y007232D01*
X003748Y007210D01*
X003756Y007198D01*
X003760Y007191D01*
Y007146D01*
X003756Y007139D01*
X003748Y007127D01*
X003744Y007105D01*
X003748Y007083D01*
X003756Y007071D01*
X003760Y007064D01*
Y007019D01*
X003756Y007012D01*
X003748Y007000D01*
X003744Y006978D01*
X003748Y006956D01*
X003756Y006944D01*
X003760Y006937D01*
Y006892D01*
X003756Y006885D01*
X003748Y006873D01*
X003744Y006851D01*
X003748Y006829D01*
X003756Y006817D01*
X003760Y006810D01*
Y006765D01*
X003756Y006758D01*
X003748Y006746D01*
X003744Y006724D01*
X003748Y006702D01*
X003756Y006690D01*
X003760Y006683D01*
Y006638D01*
X003756Y006631D01*
X003748Y006619D01*
X003744Y006597D01*
X003748Y006575D01*
X003757Y006562D01*
X003760Y006556D01*
Y006509D01*
X003757Y006503D01*
X003748Y006490D01*
X003744Y006468D01*
X003748Y006446D01*
X003760Y006428D01*
X003778Y006416D01*
X003800Y006412D01*
X003834Y006369D01*
Y006210D01*
X003800Y006167D01*
X003778Y006163D01*
X003760Y006151D01*
X003748Y006133D01*
X003744Y006111D01*
X003748Y006089D01*
X003756Y006077D01*
X003760Y006070D01*
Y006025D01*
X003756Y006018D01*
X003748Y006006D01*
X003744Y005984D01*
X003748Y005962D01*
X003756Y005950D01*
X003760Y005943D01*
Y005898D01*
X003756Y005891D01*
X003748Y005879D01*
X003744Y005857D01*
X003748Y005835D01*
X003756Y005823D01*
X003760Y005816D01*
Y005771D01*
X003756Y005764D01*
X003748Y005752D01*
X003744Y005730D01*
X003748Y005708D01*
X003756Y005696D01*
X003760Y005689D01*
Y005644D01*
X003756Y005637D01*
X003748Y005625D01*
X003744Y005603D01*
X003748Y005581D01*
X003756Y005569D01*
X003760Y005562D01*
Y005517D01*
X003756Y005510D01*
X003748Y005498D01*
X003744Y005476D01*
X003748Y005454D01*
X003756Y005442D01*
X003760Y005435D01*
Y005390D01*
X003756Y005383D01*
X003748Y005371D01*
X003744Y005349D01*
X003748Y005327D01*
X003757Y005314D01*
X003760Y005308D01*
Y005261D01*
X003757Y005255D01*
X003748Y005242D01*
X003744Y005220D01*
X003748Y005198D01*
X003760Y005180D01*
X003778Y005168D01*
X003800Y005164D01*
X003834Y005121D01*
Y005051D01*
X003702Y004918D01*
X003696Y004910D01*
X003694Y004900D01*
Y004570D01*
X003696Y004560D01*
X003702Y004552D01*
X003702Y004552D01*
X003741Y004512D01*
X003722Y004466D01*
X003453D01*
X003440Y004466D01*
X003440Y004466D01*
X003430Y004464D01*
X003422Y004458D01*
X003416Y004450D01*
X003414Y004440D01*
X003414Y004440D01*
X003414Y004427D01*
Y003990D01*
X003416Y003980D01*
X003422Y003972D01*
X003430Y003966D01*
X003440Y003964D01*
X009927Y003964D01*
X009940Y003964D01*
X009940Y003964D01*
X009950Y003966D01*
X009958Y003972D01*
X009964Y003980D01*
X009966Y003990D01*
X009966Y003990D01*
X009966Y004003D01*
Y004246D01*
X010002Y004255D01*
Y004255D01*
X010012Y004257D01*
X010016Y004257D01*
X010017Y004255D01*
X010027Y004240D01*
X010045Y004228D01*
X010067Y004224D01*
X010088Y004228D01*
X010107Y004240D01*
X010119Y004259D01*
X010123Y004280D01*
X010119Y004302D01*
X010107Y004320D01*
X010088Y004332D01*
X010067Y004337D01*
X010045Y004332D01*
X010027Y004320D01*
X010018Y004306D01*
X010016Y004304D01*
X010012Y004303D01*
X010002Y004305D01*
Y004305D01*
X009966Y004315D01*
Y004440D01*
X010014Y004454D01*
X010090D01*
X010100Y004456D01*
X010108Y004462D01*
X010208Y004562D01*
X010214Y004570D01*
X010216Y004580D01*
Y004652D01*
X010262Y004671D01*
X010561Y004372D01*
X010562Y004372D01*
X010562Y004370D01*
X010554Y004349D01*
X010551Y004329D01*
X010550Y004326D01*
X010550Y004324D01*
X010513Y004287D01*
X010511Y004287D01*
X010508Y004286D01*
X010488Y004283D01*
X010467Y004275D01*
X010449Y004261D01*
X010435Y004243D01*
X010427Y004222D01*
X010424Y004200D01*
X010427Y004178D01*
X010435Y004157D01*
X010449Y004139D01*
X010467Y004125D01*
X010488Y004117D01*
X010510Y004114D01*
X010532Y004117D01*
X010553Y004125D01*
X010571Y004139D01*
X010585Y004157D01*
X010593Y004178D01*
X010594Y004183D01*
X010645Y004191D01*
X010690Y004147D01*
X010753Y004211D01*
X010775Y004189D01*
X010711Y004126D01*
X010764Y004073D01*
X010812Y004121D01*
X010952Y003982D01*
X010960Y003976D01*
X010970Y003974D01*
X013997D01*
X014010Y003974D01*
X014010Y003974D01*
X014020Y003976D01*
X014028Y003982D01*
X014034Y003990D01*
X014036Y004000D01*
X014036Y004000D01*
X014036Y004013D01*
X014036Y004880D01*
X014034Y004890D01*
X014028Y004898D01*
X013958Y004968D01*
X013950Y004974D01*
X013940Y004976D01*
X013833D01*
X013827Y004983D01*
X013813Y005010D01*
X013810Y005025D01*
X013814Y005030D01*
X013818Y005052D01*
X013814Y005074D01*
X013802Y005092D01*
X013784Y005104D01*
X013762Y005109D01*
X013734Y005150D01*
X013728Y005158D01*
X013720Y005164D01*
X013710Y005166D01*
X012619D01*
X012574Y005194D01*
X012569Y005217D01*
X012556Y005237D01*
X012536Y005251D01*
X012527Y005252D01*
Y005194D01*
X012497D01*
Y005252D01*
X012489Y005251D01*
X012469Y005237D01*
X012456Y005217D01*
X012451Y005194D01*
X012406Y005166D01*
X011404D01*
X011304Y005304D01*
X011302Y005306D01*
X011300Y005308D01*
X011299Y005309D01*
X011297Y005311D01*
X011294Y005312D01*
X011292Y005313D01*
X010920Y005437D01*
X010899Y005489D01*
X010900Y005498D01*
X010842D01*
Y005513D01*
X010827D01*
Y005571D01*
X010819Y005569D01*
X010799Y005556D01*
X010786Y005536D01*
X010785Y005535D01*
X010742Y005502D01*
X010733Y005500D01*
X009927Y005769D01*
X009666Y005965D01*
X009526Y006246D01*
X009526Y007440D01*
X009524Y007450D01*
X009518Y007458D01*
X009118Y007858D01*
X009110Y007864D01*
X009100Y007866D01*
X006890Y007866D01*
X006886Y007869D01*
Y008484D01*
X006930D01*
X006940Y008486D01*
X006948Y008492D01*
X006954Y008500D01*
X006956Y008510D01*
X006956Y009190D01*
X006954Y009200D01*
X006948Y009208D01*
X006940Y009214D01*
X006930Y009216D01*
X006403Y009216D01*
X006390Y009216D01*
X006390Y009216D01*
X006380Y009214D01*
X006372Y009208D01*
X006366Y009200D01*
X006364Y009190D01*
X006364Y009190D01*
X006364Y009177D01*
Y008494D01*
X006332Y008449D01*
X006309Y008445D01*
X006289Y008431D01*
X006275Y008411D01*
X006274Y008403D01*
X006332D01*
Y008373D01*
X006274D01*
X006275Y008365D01*
X006289Y008345D01*
X006309Y008331D01*
X006332Y008327D01*
X006364Y008282D01*
Y007409D01*
X006365Y007407D01*
Y007404D01*
X006365Y007403D01*
X006350Y007393D01*
X006337Y007375D01*
X006333Y007353D01*
X006337Y007331D01*
X006345Y007319D01*
X006348Y007289D01*
X006345Y007260D01*
X006337Y007248D01*
X006333Y007226D01*
X006337Y007204D01*
X006345Y007192D01*
X006348Y007162D01*
X006345Y007133D01*
X006337Y007121D01*
X006333Y007099D01*
X006337Y007077D01*
X006345Y007065D01*
X006348Y007036D01*
X006345Y007006D01*
X006337Y006994D01*
X006333Y006972D01*
X006337Y006950D01*
X006345Y006938D01*
X006348Y006908D01*
X006345Y006879D01*
X006337Y006867D01*
X006333Y006845D01*
X006337Y006823D01*
X006345Y006813D01*
X006350Y006803D01*
Y006760D01*
X006345Y006750D01*
X006337Y006740D01*
X006333Y006718D01*
X006337Y006696D01*
X006345Y006686D01*
X006350Y006676D01*
Y006633D01*
X006345Y006623D01*
X006337Y006613D01*
X006333Y006591D01*
X006337Y006569D01*
X006345Y006559D01*
X006350Y006549D01*
Y006506D01*
X006345Y006496D01*
X006337Y006486D01*
X006333Y006464D01*
X006337Y006442D01*
X006350Y006424D01*
X006368Y006412D01*
X006390Y006408D01*
X006411Y006412D01*
X006430Y006424D01*
X006442Y006442D01*
X006446Y006464D01*
X006442Y006486D01*
X006435Y006496D01*
X006430Y006506D01*
Y006549D01*
X006435Y006559D01*
X006442Y006569D01*
X006446Y006591D01*
X006442Y006613D01*
X006435Y006623D01*
X006430Y006633D01*
Y006676D01*
X006435Y006686D01*
X006442Y006696D01*
X006446Y006718D01*
X006444Y006729D01*
X006481Y006756D01*
X006485Y006758D01*
X006745Y006498D01*
X006745Y006498D01*
X006741Y006491D01*
X006736Y006469D01*
X006741Y006447D01*
X006753Y006429D01*
X006771Y006417D01*
X006793Y006413D01*
X006814Y006417D01*
X006822Y006422D01*
X006822Y006422D01*
X006863Y006381D01*
X006864Y006380D01*
X006865Y006379D01*
X006868Y006377D01*
X006871Y006375D01*
X006874Y006360D01*
X006878Y006338D01*
X006890Y006320D01*
X006908Y006308D01*
X006930Y006304D01*
X006945Y006301D01*
X006947Y006298D01*
X006949Y006295D01*
X006950Y006294D01*
X006951Y006293D01*
X007492Y005751D01*
X007474Y005714D01*
X007467Y005706D01*
X007457Y005706D01*
X007150Y005706D01*
X007140Y005704D01*
X007132Y005698D01*
X007126Y005690D01*
X007124Y005680D01*
X007124Y005169D01*
X007090Y005126D01*
X007068Y005122D01*
X007050Y005110D01*
X007038Y005092D01*
X007034Y005070D01*
X007038Y005048D01*
X007050Y005030D01*
X007068Y005018D01*
X007090Y005014D01*
X007124Y004971D01*
X007124Y004480D01*
X007076Y004466D01*
X006078Y004466D01*
X006059Y004512D01*
X006108Y004562D01*
X006114Y004570D01*
X006116Y004580D01*
X006116Y004800D01*
X006114Y004810D01*
X006108Y004818D01*
X006008Y004918D01*
X006000Y004924D01*
X005990Y004926D01*
X004361D01*
X004236Y005051D01*
Y005170D01*
X004236Y006970D01*
X004236Y007099D01*
X004450Y007313D01*
X004455Y007313D01*
X004498Y007273D01*
X004501Y007265D01*
X004498Y007261D01*
X004491Y007250D01*
X004486Y007228D01*
X004491Y007206D01*
X004498Y007195D01*
X004503Y007187D01*
X004505Y007143D01*
X004500Y007133D01*
X004493Y007123D01*
X004488Y007101D01*
X004493Y007079D01*
X004500Y007069D01*
X004505Y007059D01*
X004503Y007015D01*
X004498Y007007D01*
X004491Y006996D01*
X004486Y006974D01*
X004491Y006952D01*
X004498Y006941D01*
X004503Y006933D01*
X004505Y006889D01*
X004500Y006879D01*
X004493Y006869D01*
X004488Y006847D01*
X004493Y006825D01*
X004500Y006815D01*
X004505Y006805D01*
X004503Y006761D01*
X004498Y006753D01*
X004491Y006742D01*
X004486Y006720D01*
X004491Y006698D01*
X004498Y006687D01*
X004503Y006679D01*
X004505Y006635D01*
X004500Y006625D01*
X004493Y006615D01*
X004488Y006593D01*
X004493Y006571D01*
X004500Y006561D01*
X004505Y006551D01*
X004503Y006507D01*
X004498Y006499D01*
X004491Y006488D01*
X004486Y006466D01*
X004491Y006444D01*
X004503Y006426D01*
X004521Y006414D01*
X004543Y006410D01*
X004564Y006414D01*
X004583Y006426D01*
X004595Y006444D01*
X004599Y006466D01*
X004595Y006488D01*
X004588Y006498D01*
X004583Y006508D01*
X004585Y006552D01*
X004590Y006560D01*
X004597Y006571D01*
X004601Y006593D01*
X004597Y006615D01*
X004590Y006626D01*
X004585Y006634D01*
X004583Y006678D01*
X004588Y006688D01*
X004595Y006698D01*
X004599Y006720D01*
X004595Y006742D01*
X004588Y006752D01*
X004583Y006762D01*
X004585Y006806D01*
X004590Y006814D01*
X004597Y006825D01*
X004601Y006847D01*
X004597Y006869D01*
X004590Y006880D01*
X004585Y006888D01*
X004583Y006932D01*
X004588Y006942D01*
X004595Y006952D01*
X004599Y006974D01*
X004595Y006996D01*
X004588Y007006D01*
X004583Y007016D01*
X004585Y007060D01*
X004590Y007068D01*
X004597Y007079D01*
X004601Y007101D01*
X004597Y007123D01*
X004590Y007134D01*
X004585Y007142D01*
X004583Y007186D01*
X004588Y007196D01*
X004595Y007206D01*
X004599Y007228D01*
X004595Y007250D01*
X004588Y007260D01*
X004583Y007270D01*
X004585Y007314D01*
X004590Y007322D01*
X004597Y007333D01*
X004601Y007355D01*
X004647Y007384D01*
X004650D01*
X004660Y007386D01*
X004668Y007392D01*
X005868Y008592D01*
X005874Y008600D01*
X005876Y008610D01*
Y008817D01*
X005876Y008830D01*
X005876Y008830D01*
X005874Y008840D01*
X005868Y008848D01*
X005860Y008854D01*
X005850Y008856D01*
X005850Y008856D01*
X005837Y008856D01*
X005500Y008856D01*
X005490Y008854D01*
X005482Y008848D01*
X004402Y007768D01*
X004377Y007744D01*
X004321Y007758D01*
X004312Y007778D01*
X004316Y007800D01*
X004312Y007822D01*
X004300Y007840D01*
X004282Y007852D01*
X004260Y007856D01*
X004238Y007852D01*
X004220Y007840D01*
X004208Y007822D01*
X004204Y007800D01*
X004205Y007795D01*
X004201Y007788D01*
X004177Y007764D01*
X004160Y007756D01*
X004138Y007752D01*
X004137Y007751D01*
X003530D01*
X003510Y007747D01*
X003494Y007736D01*
X003224Y007466D01*
X003213Y007450D01*
X003212Y007445D01*
X003200Y007434D01*
X003178Y007419D01*
X003159Y007412D01*
X003153Y007413D01*
X003131Y007409D01*
X003113Y007397D01*
X003101Y007379D01*
X003097Y007357D01*
X003101Y007335D01*
X003110Y007322D01*
X003113Y007316D01*
X003115Y007272D01*
X003111Y007263D01*
X003103Y007252D01*
X003099Y007230D01*
X003103Y007208D01*
X003111Y007196D01*
X003115Y007189D01*
Y007144D01*
X003111Y007137D01*
X003103Y007125D01*
X003099Y007103D01*
X003103Y007081D01*
X003111Y007069D01*
X003115Y007062D01*
Y007017D01*
X003111Y007010D01*
X003103Y006998D01*
X003099Y006976D01*
X003103Y006954D01*
X003111Y006942D01*
X003115Y006935D01*
Y006890D01*
X003111Y006883D01*
X003103Y006871D01*
X003099Y006849D01*
X003103Y006827D01*
X003111Y006815D01*
X003115Y006808D01*
Y006763D01*
X003111Y006756D01*
X003103Y006744D01*
X003099Y006722D01*
X003103Y006700D01*
X003113Y006685D01*
X003115Y006681D01*
X003116Y006633D01*
X003114Y006627D01*
X003104Y006613D01*
X003100Y006591D01*
X003103Y006574D01*
X003091Y006559D01*
X003070Y006541D01*
X003065Y006539D01*
X003027Y006554D01*
X002985Y006564D01*
X002941Y006568D01*
X002898Y006564D01*
X002856Y006554D01*
X002840Y006548D01*
X002790Y006577D01*
Y009407D01*
X002840Y009437D01*
X002856Y009430D01*
X002898Y009420D01*
X002941Y009416D01*
X002985Y009420D01*
X003027Y009430D01*
X003067Y009446D01*
X003104Y009469D01*
X003137Y009497D01*
X003165Y009530D01*
X003187Y009567D01*
X003204Y009607D01*
X003214Y009649D01*
X003218Y009693D01*
X003214Y009736D01*
X003204Y009778D01*
X003187Y009818D01*
X003165Y009855D01*
X003137Y009888D01*
X003104Y009916D01*
X003067Y009939D01*
X003027Y009955D01*
X002985Y009965D01*
X002941Y009969D01*
X002898Y009965D01*
X002856Y009955D01*
X002840Y009949D01*
X002790Y009978D01*
Y010040D01*
X014690D01*
Y009981D01*
D02*
G37*
G36*
X005850Y008610D02*
X004650Y007410D01*
X004552Y007410D01*
X004545Y007411D01*
X004537Y007410D01*
X004510D01*
X004210Y007110D01*
X004210Y006970D01*
X004210Y005170D01*
Y005040D01*
X004350Y004900D01*
X005990D01*
X006090Y004800D01*
X006090Y004580D01*
X005990Y004480D01*
X003860D01*
X003810Y004480D01*
X003720Y004570D01*
Y004900D01*
X003860Y005040D01*
X003860Y007190D01*
X004420Y007750D01*
X005500Y008830D01*
X005850Y008830D01*
Y008610D01*
D02*
G37*
G36*
X007122Y007302D02*
X007130Y007296D01*
X007140Y007294D01*
X008659Y007294D01*
X008834Y007119D01*
Y006816D01*
X008834Y006815D01*
X008834Y006814D01*
X008835Y006812D01*
X008819Y006801D01*
X008805Y006781D01*
X008804Y006773D01*
X008862D01*
Y006743D01*
X008804D01*
X008805Y006735D01*
X008819Y006715D01*
X008835Y006704D01*
X008834Y006702D01*
X008834Y006701D01*
X008834Y006700D01*
Y006069D01*
X008835Y006066D01*
X008835Y006063D01*
X008836Y006061D01*
X008836Y006059D01*
X008838Y006057D01*
X008839Y006054D01*
X009253Y005477D01*
X009255Y005475D01*
X009257Y005473D01*
X009259Y005472D01*
X009261Y005471D01*
X009263Y005470D01*
X009266Y005468D01*
X010106Y005185D01*
X010098Y005136D01*
X008181Y005136D01*
X007876Y005441D01*
X007876Y005890D01*
X007874Y005900D01*
X007868Y005908D01*
X007026Y006751D01*
X007026Y007332D01*
X007072Y007351D01*
X007122Y007302D01*
D02*
G37*
G36*
X009100Y007840D02*
X009500Y007440D01*
X009500Y006240D01*
X009646Y005947D01*
X009914Y005746D01*
X011283Y005288D01*
X011390Y005141D01*
Y005140D01*
X012500D01*
X012512Y005138D01*
X012525Y005140D01*
X013710D01*
Y005074D01*
X013710Y005074D01*
X013706Y005052D01*
X013710Y005030D01*
X013710Y005030D01*
Y004600D01*
X012910D01*
X012910Y004790D01*
X012905Y004795D01*
X012904Y004800D01*
X012901Y004804D01*
X012898Y004808D01*
X012898Y004808D01*
X012808Y004898D01*
X012808Y004898D01*
X012800Y004904D01*
X012795Y004905D01*
X012790Y004910D01*
X012700Y004910D01*
X012590Y004800D01*
X012590Y004600D01*
X010860D01*
X010474Y004986D01*
X010477Y005001D01*
X010490Y005010D01*
X010502Y005028D01*
X010506Y005050D01*
X010502Y005072D01*
X010490Y005090D01*
X010472Y005102D01*
X010450Y005106D01*
X010428Y005102D01*
X010410Y005090D01*
X010401Y005077D01*
X010386Y005074D01*
X010319Y005141D01*
X009274Y005493D01*
X008860Y006069D01*
Y006700D01*
X008862Y006702D01*
X008884Y006706D01*
X008902Y006718D01*
X008914Y006736D01*
X008918Y006758D01*
X008914Y006780D01*
X008902Y006798D01*
X008884Y006810D01*
X008862Y006814D01*
X008860Y006816D01*
Y007130D01*
X008670Y007320D01*
X007140Y007320D01*
X006890Y007570D01*
Y007840D01*
X009100Y007840D01*
D02*
G37*
G36*
X007470Y005070D02*
X007700Y004840D01*
X007790D01*
X007808Y004828D01*
X007830Y004824D01*
X007852Y004828D01*
X007870Y004840D01*
X007945D01*
X007994Y004791D01*
Y004740D01*
X007988Y004732D01*
X007984Y004710D01*
X007988Y004688D01*
X008000Y004670D01*
X008018Y004658D01*
X008040Y004654D01*
X008062Y004658D01*
X008080Y004670D01*
X008092Y004688D01*
X008096Y004710D01*
X008092Y004732D01*
X008086Y004740D01*
Y004810D01*
X008086Y004810D01*
X008083Y004827D01*
X008083Y004830D01*
X008089Y004840D01*
X009225Y004840D01*
X009234Y004830D01*
X009234Y004830D01*
X009238Y004808D01*
X009250Y004790D01*
X009268Y004778D01*
X009290Y004774D01*
X009312Y004778D01*
X009330Y004790D01*
X009342Y004808D01*
X009346Y004830D01*
X009346Y004830D01*
X009355Y004840D01*
X010090D01*
X010190Y004740D01*
Y004580D01*
X010090Y004480D01*
X007150Y004480D01*
X007150Y005680D01*
X007470Y005680D01*
Y005070D01*
D02*
G37*
G36*
X014010Y004880D02*
X014010Y004000D01*
X011110D01*
Y004280D01*
X012620D01*
Y004790D01*
X012710Y004880D01*
X012790Y004880D01*
X012880Y004790D01*
X012880Y004280D01*
X013740Y004280D01*
X013740Y004870D01*
X013820Y004950D01*
X013940D01*
X014010Y004880D01*
D02*
G37*
G36*
X006930Y009190D02*
X006930Y008510D01*
X006860D01*
Y007540D01*
X006930Y007470D01*
X007000Y007400D01*
X007000Y006740D01*
X007850Y005890D01*
X007850Y005430D01*
X008170Y005110D01*
X010280Y005110D01*
X011110Y004280D01*
X011110Y004000D01*
X010970D01*
X010827Y004143D01*
X010885Y004200D01*
X010764Y004321D01*
X010724Y004281D01*
X010713Y004288D01*
X010720Y004305D01*
X010723Y004327D01*
X010720Y004349D01*
X010712Y004370D01*
X010698Y004388D01*
X010680Y004402D01*
X010659Y004410D01*
X010637Y004413D01*
X010615Y004410D01*
X010594Y004402D01*
X010579Y004391D01*
X010100Y004870D01*
X009330D01*
X009312Y004882D01*
X009290Y004886D01*
X009268Y004882D01*
X009250Y004870D01*
X008045D01*
X007913Y005003D01*
X007913Y005003D01*
X007898Y005013D01*
X007880Y005016D01*
X007880Y005016D01*
X007730Y005016D01*
X007730Y005016D01*
X007712Y005013D01*
X007697Y005003D01*
X007697Y005003D01*
X007687Y004993D01*
X007540Y005140D01*
Y005740D01*
X006969Y006311D01*
X006970Y006320D01*
X006982Y006338D01*
X006986Y006360D01*
X006982Y006382D01*
X006970Y006400D01*
X006952Y006412D01*
X006930Y006416D01*
X006908Y006412D01*
X006890Y006400D01*
X006881Y006399D01*
X006840Y006440D01*
X006845Y006447D01*
X006849Y006469D01*
X006845Y006491D01*
X006833Y006509D01*
X006814Y006521D01*
X006793Y006525D01*
X006771Y006521D01*
X006764Y006516D01*
X006444Y006836D01*
X006446Y006845D01*
X006442Y006867D01*
X006430Y006885D01*
X006411Y006897D01*
X006390Y006901D01*
Y006916D01*
X006411Y006920D01*
X006430Y006932D01*
X006442Y006950D01*
X006446Y006972D01*
X006442Y006994D01*
X006430Y007012D01*
X006411Y007024D01*
X006390Y007028D01*
Y007043D01*
X006411Y007047D01*
X006430Y007059D01*
X006442Y007077D01*
X006446Y007099D01*
X006442Y007121D01*
X006430Y007139D01*
X006411Y007151D01*
X006390Y007155D01*
Y007170D01*
X006411Y007174D01*
X006430Y007186D01*
X006442Y007204D01*
X006446Y007226D01*
X006442Y007248D01*
X006430Y007266D01*
X006411Y007278D01*
X006390Y007282D01*
Y007297D01*
X006411Y007301D01*
X006430Y007313D01*
X006442Y007331D01*
X006446Y007353D01*
X006442Y007375D01*
X006430Y007393D01*
X006411Y007405D01*
X006390Y007409D01*
Y009190D01*
X006930Y009190D01*
D02*
G37*
G36*
X009940Y004440D02*
Y003990D01*
X003440Y003990D01*
Y004440D01*
X009940Y004440D01*
D02*
G37*
%LPC*%
G36*
X010470Y009966D02*
X010457Y009966D01*
X009831Y009966D01*
X009828Y009965D01*
X009826D01*
X009823Y009964D01*
X009821Y009964D01*
X009819Y009963D01*
X009816Y009962D01*
X009815Y009960D01*
X009812Y009958D01*
X009788Y009957D01*
X009763Y009958D01*
X009760Y009960D01*
X009759Y009962D01*
X009756Y009963D01*
X009754Y009964D01*
X009752Y009964D01*
X009749Y009965D01*
X009747Y009965D01*
X009744Y009966D01*
X009710Y009966D01*
X009710Y009966D01*
X009700Y009964D01*
X009692Y009958D01*
X009686Y009950D01*
X009684Y009940D01*
X009684Y009940D01*
X009684Y009927D01*
X009684Y009451D01*
X009684Y009450D01*
X009684Y009448D01*
X009685Y009445D01*
X009686Y009441D01*
X009687Y009440D01*
X009687Y009438D01*
X009690Y009436D01*
X009692Y009433D01*
X009693Y009432D01*
X009694Y009431D01*
X009864Y009298D01*
X009864Y008810D01*
Y007781D01*
X009692Y007608D01*
X009686Y007600D01*
X009684Y007590D01*
Y007220D01*
X009686Y007210D01*
X009692Y007202D01*
X009852Y007042D01*
X009860Y007036D01*
X009870Y007034D01*
X010090D01*
X010100Y007036D01*
X010108Y007042D01*
X010264Y007197D01*
X010314Y007176D01*
Y007072D01*
X009850Y006609D01*
X009830Y006583D01*
X009818Y006553D01*
X009813Y006520D01*
X009813Y006520D01*
Y006105D01*
X009818Y006073D01*
X009830Y006042D01*
X009850Y006016D01*
X009877Y005996D01*
X009907Y005983D01*
X009940Y005979D01*
X009973Y005983D01*
X010003Y005996D01*
X010029Y006016D01*
X010049Y006042D01*
X010062Y006073D01*
X010066Y006105D01*
Y006467D01*
X010529Y006931D01*
X010550Y006957D01*
X010562Y006987D01*
X010566Y007020D01*
X010566Y007020D01*
Y008578D01*
X010589Y008596D01*
X010592Y008596D01*
X010647Y008580D01*
X010647Y008580D01*
X010664Y008558D01*
X010686Y008541D01*
X010712Y008531D01*
X010725Y008529D01*
Y008634D01*
X010740D01*
Y008649D01*
X010845D01*
X010843Y008662D01*
X010833Y008688D01*
X010816Y008710D01*
X010797Y008724D01*
X010795Y008739D01*
X010798Y008779D01*
X010801Y008780D01*
X010809Y008786D01*
X010842D01*
Y008819D01*
X010848Y008827D01*
X010860Y008857D01*
X010864Y008890D01*
X010860Y008923D01*
X010848Y008953D01*
X010842Y008961D01*
Y008990D01*
X010814D01*
X010801Y009000D01*
X010771Y009012D01*
X010738Y009016D01*
X010670D01*
X010637Y009012D01*
X010607Y009000D01*
X010581Y008979D01*
X010581Y008979D01*
X010351Y008749D01*
X010336Y008730D01*
X010310Y008733D01*
X010286Y008744D01*
Y008799D01*
X010488Y009002D01*
X010494Y009010D01*
X010496Y009020D01*
Y009295D01*
X010498Y009299D01*
X010540Y009334D01*
X010562Y009338D01*
X010580Y009350D01*
X010592Y009368D01*
X010596Y009390D01*
X010592Y009412D01*
X010580Y009430D01*
X010562Y009442D01*
X010558Y009467D01*
X010565Y009498D01*
X010587Y009508D01*
X010607Y009523D01*
X010610Y009527D01*
X010622Y009531D01*
X010658D01*
X010670Y009527D01*
X010673Y009523D01*
X010693Y009508D01*
X010715Y009498D01*
X010740Y009495D01*
X010765Y009498D01*
X010787Y009508D01*
X010807Y009523D01*
X010810Y009527D01*
X010822Y009531D01*
X010858D01*
X010870Y009527D01*
X010873Y009523D01*
X010893Y009508D01*
X010915Y009498D01*
X010940Y009495D01*
X010965Y009498D01*
X010987Y009508D01*
X011007Y009523D01*
X011010Y009527D01*
X011022Y009531D01*
X011058D01*
X011070Y009527D01*
X011073Y009523D01*
X011093Y009508D01*
X011115Y009498D01*
X011140Y009495D01*
X011165Y009498D01*
X011187Y009508D01*
X011207Y009523D01*
X011210Y009527D01*
X011222Y009531D01*
X011258D01*
X011270Y009527D01*
X011273Y009523D01*
X011293Y009508D01*
X011315Y009498D01*
X011340Y009495D01*
X011365Y009498D01*
X011387Y009508D01*
X011407Y009523D01*
X011410Y009527D01*
X011422Y009531D01*
X011458D01*
X011470Y009527D01*
X011473Y009523D01*
X011493Y009508D01*
X011515Y009498D01*
X011540Y009495D01*
X011565Y009498D01*
X011587Y009508D01*
X011607Y009523D01*
X011610Y009527D01*
X011622Y009531D01*
X011658D01*
X011670Y009527D01*
X011673Y009523D01*
X011693Y009508D01*
X011715Y009498D01*
X011740Y009495D01*
X011765Y009498D01*
X011787Y009508D01*
X011796Y009515D01*
X011840Y009500D01*
X011846Y009496D01*
X011849Y009496D01*
X012031D01*
X012034Y009496D01*
X012040Y009500D01*
X012084Y009515D01*
X012093Y009508D01*
X012115Y009498D01*
X012140Y009495D01*
X012165Y009498D01*
X012187Y009508D01*
X012207Y009523D01*
X012210Y009527D01*
X012222Y009531D01*
X012258D01*
X012270Y009527D01*
X012273Y009523D01*
X012293Y009508D01*
X012306Y009502D01*
X012315Y009498D01*
X012316Y009498D01*
X012319Y009445D01*
X012318Y009445D01*
X012300Y009432D01*
X012288Y009414D01*
X012284Y009393D01*
X012288Y009371D01*
X012300Y009353D01*
X012318Y009340D01*
X012340Y009336D01*
X012362Y009340D01*
X012380Y009353D01*
X012392Y009371D01*
X012396Y009393D01*
X012392Y009414D01*
X012380Y009432D01*
X012362Y009445D01*
X012361Y009445D01*
X012364Y009498D01*
X012365Y009498D01*
X012372Y009501D01*
X012387Y009508D01*
X012407Y009523D01*
X012416Y009526D01*
X012461Y009525D01*
X012467Y009523D01*
X012470Y009520D01*
X012490Y009504D01*
X012514Y009494D01*
X012525Y009493D01*
Y009590D01*
X012555D01*
Y009493D01*
X012566Y009494D01*
X012590Y009504D01*
X012610Y009520D01*
X012613Y009523D01*
X012619Y009525D01*
X012664Y009526D01*
X012673Y009523D01*
X012693Y009508D01*
X012715Y009498D01*
X012740Y009495D01*
X012765Y009498D01*
X012787Y009508D01*
X012807Y009523D01*
X012810Y009527D01*
X012822Y009531D01*
X012858D01*
X012870Y009527D01*
X012873Y009523D01*
X012893Y009508D01*
X012915Y009498D01*
X012940Y009495D01*
X012965Y009498D01*
X012987Y009508D01*
X013007Y009523D01*
X013016Y009526D01*
X013061Y009525D01*
X013067Y009523D01*
X013070Y009520D01*
X013090Y009504D01*
X013114Y009494D01*
X013125Y009493D01*
Y009590D01*
X013155D01*
Y009493D01*
X013166Y009494D01*
X013190Y009504D01*
X013210Y009520D01*
X013213Y009523D01*
X013219Y009525D01*
X013264Y009526D01*
X013273Y009523D01*
X013293Y009508D01*
X013315Y009498D01*
X013340Y009495D01*
X013365Y009498D01*
X013387Y009508D01*
X013407Y009523D01*
X013410Y009527D01*
X013422Y009531D01*
X013458D01*
X013470Y009527D01*
X013473Y009523D01*
X013493Y009508D01*
X013515Y009498D01*
X013540Y009495D01*
X013565Y009498D01*
X013587Y009508D01*
X013607Y009523D01*
X013610Y009527D01*
X013622Y009531D01*
X013658D01*
X013670Y009527D01*
X013673Y009523D01*
X013693Y009508D01*
X013715Y009498D01*
X013740Y009495D01*
X013765Y009498D01*
X013787Y009508D01*
X013807Y009523D01*
X013822Y009543D01*
X013832Y009565D01*
X013835Y009590D01*
X013832Y009615D01*
X013822Y009637D01*
X013807Y009657D01*
X013803Y009660D01*
X013799Y009672D01*
Y009708D01*
X013803Y009720D01*
X013807Y009723D01*
X013822Y009743D01*
X013832Y009765D01*
X013835Y009790D01*
X013832Y009815D01*
X013822Y009837D01*
X013807Y009857D01*
X013787Y009872D01*
X013765Y009882D01*
X013740Y009885D01*
X013715Y009882D01*
X013693Y009872D01*
X013673Y009857D01*
X013670Y009853D01*
X013658Y009849D01*
X013622D01*
X013610Y009853D01*
X013607Y009857D01*
X013587Y009872D01*
X013565Y009882D01*
X013540Y009885D01*
X013515Y009882D01*
X013493Y009872D01*
X013473Y009857D01*
X013470Y009853D01*
X013458Y009849D01*
X013422D01*
X013410Y009853D01*
X013407Y009857D01*
X013387Y009872D01*
X013365Y009882D01*
X013340Y009885D01*
X013315Y009882D01*
X013293Y009872D01*
X013273Y009857D01*
X013264Y009854D01*
X013219Y009855D01*
X013213Y009857D01*
X013210Y009860D01*
X013190Y009876D01*
X013166Y009886D01*
X013155Y009887D01*
Y009790D01*
X013125D01*
Y009887D01*
X013114Y009886D01*
X013090Y009876D01*
X013070Y009860D01*
X013067Y009857D01*
X013061Y009855D01*
X013016Y009854D01*
X013007Y009857D01*
X012987Y009872D01*
X012965Y009882D01*
X012940Y009885D01*
X012915Y009882D01*
X012893Y009872D01*
X012873Y009857D01*
X012870Y009853D01*
X012858Y009849D01*
X012822D01*
X012810Y009853D01*
X012807Y009857D01*
X012787Y009872D01*
X012765Y009882D01*
X012740Y009885D01*
X012715Y009882D01*
X012693Y009872D01*
X012673Y009857D01*
X012664Y009854D01*
X012619Y009855D01*
X012613Y009857D01*
X012610Y009860D01*
X012590Y009876D01*
X012566Y009886D01*
X012555Y009887D01*
Y009790D01*
X012525D01*
Y009887D01*
X012514Y009886D01*
X012490Y009876D01*
X012470Y009860D01*
X012467Y009857D01*
X012461Y009855D01*
X012416Y009854D01*
X012407Y009857D01*
X012387Y009872D01*
X012365Y009882D01*
X012340Y009885D01*
X012315Y009882D01*
X012293Y009872D01*
X012273Y009857D01*
X012270Y009853D01*
X012258Y009849D01*
X012222D01*
X012210Y009853D01*
X012207Y009857D01*
X012187Y009872D01*
X012165Y009882D01*
X012140Y009885D01*
X012115Y009882D01*
X012093Y009872D01*
X012073Y009857D01*
X012070Y009853D01*
X012058Y009849D01*
X012022D01*
X012010Y009853D01*
X012007Y009857D01*
X011987Y009872D01*
X011965Y009882D01*
X011940Y009885D01*
X011915Y009882D01*
X011893Y009872D01*
X011873Y009857D01*
X011870Y009853D01*
X011858Y009849D01*
X011822D01*
X011810Y009853D01*
X011807Y009857D01*
X011787Y009872D01*
X011765Y009882D01*
X011740Y009885D01*
X011715Y009882D01*
X011693Y009872D01*
X011673Y009857D01*
X011670Y009853D01*
X011658Y009849D01*
X011622D01*
X011610Y009853D01*
X011607Y009857D01*
X011587Y009872D01*
X011565Y009882D01*
X011540Y009885D01*
X011515Y009882D01*
X011493Y009872D01*
X011473Y009857D01*
X011470Y009853D01*
X011458Y009849D01*
X011422D01*
X011410Y009853D01*
X011407Y009857D01*
X011387Y009872D01*
X011365Y009882D01*
X011340Y009885D01*
X011315Y009882D01*
X011293Y009872D01*
X011273Y009857D01*
X011270Y009853D01*
X011258Y009849D01*
X011222D01*
X011210Y009853D01*
X011207Y009857D01*
X011187Y009872D01*
X011165Y009882D01*
X011140Y009885D01*
X011115Y009882D01*
X011093Y009872D01*
X011073Y009857D01*
X011070Y009853D01*
X011058Y009849D01*
X011022D01*
X011010Y009853D01*
X011007Y009857D01*
X010987Y009872D01*
X010965Y009882D01*
X010940Y009885D01*
X010915Y009882D01*
X010893Y009872D01*
X010873Y009857D01*
X010870Y009853D01*
X010858Y009849D01*
X010822D01*
X010810Y009853D01*
X010807Y009857D01*
X010787Y009872D01*
X010765Y009882D01*
X010740Y009885D01*
X010715Y009882D01*
X010693Y009872D01*
X010673Y009857D01*
X010670Y009853D01*
X010658Y009849D01*
X010622D01*
X010610Y009853D01*
X010607Y009857D01*
X010587Y009872D01*
X010565Y009882D01*
X010540Y009885D01*
X010496Y009924D01*
X010496Y009940D01*
X010496Y009940D01*
X010494Y009950D01*
X010488Y009958D01*
X010480Y009964D01*
X010470Y009966D01*
X010470Y009966D01*
D02*
G37*
G36*
X007355Y009887D02*
Y009790D01*
X007325D01*
Y009887D01*
X007314Y009886D01*
X007290Y009876D01*
X007270Y009860D01*
X007267Y009857D01*
X007261Y009855D01*
X007216Y009854D01*
X007207Y009857D01*
X007187Y009872D01*
X007165Y009882D01*
X007140Y009885D01*
X007115Y009882D01*
X007093Y009872D01*
X007073Y009857D01*
X007070Y009853D01*
X007058Y009849D01*
X007022D01*
X007010Y009853D01*
X007007Y009857D01*
X006987Y009872D01*
X006965Y009882D01*
X006940Y009885D01*
X006915Y009882D01*
X006893Y009872D01*
X006873Y009857D01*
X006870Y009853D01*
X006858Y009849D01*
X006822D01*
X006810Y009853D01*
X006807Y009857D01*
X006787Y009872D01*
X006765Y009882D01*
X006740Y009885D01*
X006715Y009882D01*
X006693Y009872D01*
X006673Y009857D01*
X006670Y009853D01*
X006658Y009849D01*
X006622D01*
X006610Y009853D01*
X006607Y009857D01*
X006587Y009872D01*
X006565Y009882D01*
X006540Y009885D01*
X006515Y009882D01*
X006493Y009872D01*
X006473Y009857D01*
X006470Y009853D01*
X006458Y009849D01*
X006422D01*
X006410Y009853D01*
X006407Y009857D01*
X006387Y009872D01*
X006365Y009882D01*
X006340Y009885D01*
X006315Y009882D01*
X006293Y009872D01*
X006273Y009857D01*
X006270Y009853D01*
X006258Y009849D01*
X006222D01*
X006210Y009853D01*
X006207Y009857D01*
X006187Y009872D01*
X006165Y009882D01*
X006140Y009885D01*
X006115Y009882D01*
X006093Y009872D01*
X006073Y009857D01*
X006070Y009853D01*
X006058Y009849D01*
X006022D01*
X006010Y009853D01*
X006007Y009857D01*
X005987Y009872D01*
X005965Y009882D01*
X005940Y009885D01*
X005915Y009882D01*
X005893Y009872D01*
X005873Y009857D01*
X005870Y009853D01*
X005858Y009849D01*
X005822D01*
X005810Y009853D01*
X005807Y009857D01*
X005787Y009872D01*
X005765Y009882D01*
X005740Y009885D01*
X005715Y009882D01*
X005693Y009872D01*
X005673Y009857D01*
X005670Y009853D01*
X005658Y009849D01*
X005622D01*
X005610Y009853D01*
X005607Y009857D01*
X005587Y009872D01*
X005565Y009882D01*
X005540Y009885D01*
X005515Y009882D01*
X005493Y009872D01*
X005473Y009857D01*
X005470Y009853D01*
X005458Y009849D01*
X005422D01*
X005410Y009853D01*
X005407Y009857D01*
X005387Y009872D01*
X005365Y009882D01*
X005340Y009885D01*
X005315Y009882D01*
X005293Y009872D01*
X005273Y009857D01*
X005270Y009853D01*
X005258Y009849D01*
X005222D01*
X005210Y009853D01*
X005207Y009857D01*
X005187Y009872D01*
X005165Y009882D01*
X005140Y009885D01*
X005115Y009882D01*
X005093Y009872D01*
X005073Y009857D01*
X005070Y009853D01*
X005058Y009849D01*
X005022D01*
X005010Y009853D01*
X005007Y009857D01*
X004987Y009872D01*
X004965Y009882D01*
X004940Y009885D01*
X004915Y009882D01*
X004893Y009872D01*
X004873Y009857D01*
X004870Y009853D01*
X004858Y009849D01*
X004822D01*
X004810Y009853D01*
X004807Y009857D01*
X004787Y009872D01*
X004765Y009882D01*
X004740Y009885D01*
X004715Y009882D01*
X004693Y009872D01*
X004673Y009857D01*
X004670Y009853D01*
X004658Y009849D01*
X004622D01*
X004610Y009853D01*
X004607Y009857D01*
X004587Y009872D01*
X004565Y009882D01*
X004540Y009885D01*
X004515Y009882D01*
X004493Y009872D01*
X004473Y009857D01*
X004458Y009837D01*
X004448Y009815D01*
X004445Y009790D01*
X004448Y009765D01*
X004458Y009743D01*
X004465Y009734D01*
X004450Y009690D01*
X004446Y009684D01*
X004446Y009681D01*
Y009496D01*
X004631D01*
X004634Y009496D01*
X004640Y009500D01*
X004684Y009515D01*
X004693Y009508D01*
X004715Y009498D01*
X004740Y009495D01*
X004765Y009498D01*
X004787Y009508D01*
X004807Y009523D01*
X004810Y009527D01*
X004822Y009531D01*
X004858D01*
X004870Y009527D01*
X004873Y009523D01*
X004893Y009508D01*
X004915Y009498D01*
X004940Y009495D01*
X004965Y009498D01*
X004987Y009508D01*
X005007Y009523D01*
X005010Y009527D01*
X005022Y009531D01*
X005058D01*
X005070Y009527D01*
X005073Y009523D01*
X005093Y009508D01*
X005115Y009498D01*
X005140Y009495D01*
X005165Y009498D01*
X005187Y009508D01*
X005207Y009523D01*
X005210Y009527D01*
X005222Y009531D01*
X005258D01*
X005270Y009527D01*
X005273Y009523D01*
X005293Y009508D01*
X005315Y009498D01*
X005340Y009495D01*
X005365Y009498D01*
X005387Y009508D01*
X005407Y009523D01*
X005410Y009527D01*
X005422Y009531D01*
X005458D01*
X005470Y009527D01*
X005473Y009523D01*
X005493Y009508D01*
X005515Y009498D01*
X005540Y009495D01*
X005565Y009498D01*
X005587Y009508D01*
X005607Y009523D01*
X005610Y009527D01*
X005622Y009531D01*
X005658D01*
X005670Y009527D01*
X005673Y009523D01*
X005693Y009508D01*
X005715Y009498D01*
X005740Y009495D01*
X005765Y009498D01*
X005787Y009508D01*
X005807Y009523D01*
X005810Y009527D01*
X005822Y009531D01*
X005858D01*
X005870Y009527D01*
X005873Y009523D01*
X005893Y009508D01*
X005915Y009498D01*
X005940Y009495D01*
X005965Y009498D01*
X005987Y009508D01*
X006007Y009523D01*
X006010Y009527D01*
X006022Y009531D01*
X006058D01*
X006070Y009527D01*
X006073Y009523D01*
X006093Y009508D01*
X006115Y009498D01*
X006140Y009495D01*
X006165Y009498D01*
X006187Y009508D01*
X006207Y009523D01*
X006210Y009527D01*
X006222Y009531D01*
X006258D01*
X006270Y009527D01*
X006273Y009523D01*
X006293Y009508D01*
X006315Y009498D01*
X006340Y009495D01*
X006365Y009498D01*
X006387Y009508D01*
X006396Y009515D01*
X006440Y009500D01*
X006446Y009496D01*
X006449Y009496D01*
X006631D01*
X006634Y009496D01*
X006640Y009500D01*
X006684Y009515D01*
X006693Y009508D01*
X006715Y009498D01*
X006740Y009495D01*
X006765Y009498D01*
X006787Y009508D01*
X006807Y009523D01*
X006810Y009527D01*
X006822Y009531D01*
X006858D01*
X006870Y009527D01*
X006873Y009523D01*
X006893Y009508D01*
X006915Y009498D01*
X006940Y009495D01*
X006965Y009498D01*
X006987Y009508D01*
X007007Y009523D01*
X007010Y009527D01*
X007022Y009531D01*
X007058D01*
X007070Y009527D01*
X007073Y009523D01*
X007093Y009508D01*
X007115Y009498D01*
X007140Y009495D01*
X007165Y009498D01*
X007187Y009508D01*
X007207Y009523D01*
X007216Y009526D01*
X007261Y009525D01*
X007267Y009523D01*
X007270Y009520D01*
X007290Y009504D01*
X007314Y009494D01*
X007325Y009493D01*
Y009590D01*
X007355D01*
Y009493D01*
X007366Y009494D01*
X007390Y009504D01*
X007410Y009520D01*
X007413Y009523D01*
X007419Y009525D01*
X007464Y009526D01*
X007473Y009523D01*
X007493Y009508D01*
X007515Y009498D01*
X007540Y009495D01*
X007565Y009498D01*
X007587Y009508D01*
X007607Y009523D01*
X007610Y009527D01*
X007622Y009531D01*
X007658D01*
X007670Y009527D01*
X007673Y009523D01*
X007693Y009508D01*
X007715Y009498D01*
X007740Y009495D01*
X007765Y009498D01*
X007787Y009508D01*
X007807Y009523D01*
X007810Y009527D01*
X007822Y009531D01*
X007858D01*
X007870Y009527D01*
X007873Y009523D01*
X007893Y009508D01*
X007915Y009498D01*
X007940Y009495D01*
X007965Y009498D01*
X007987Y009508D01*
X008007Y009523D01*
X008010Y009527D01*
X008022Y009531D01*
X008058D01*
X008070Y009527D01*
X008073Y009523D01*
X008093Y009508D01*
X008115Y009498D01*
X008140Y009495D01*
X008165Y009498D01*
X008187Y009508D01*
X008207Y009523D01*
X008210Y009527D01*
X008222Y009531D01*
X008258D01*
X008270Y009527D01*
X008273Y009523D01*
X008293Y009508D01*
X008315Y009498D01*
X008340Y009495D01*
X008365Y009498D01*
X008387Y009508D01*
X008407Y009523D01*
X008422Y009543D01*
X008432Y009565D01*
X008435Y009590D01*
X008432Y009615D01*
X008422Y009637D01*
X008407Y009657D01*
X008403Y009660D01*
X008399Y009672D01*
Y009708D01*
X008403Y009720D01*
X008407Y009723D01*
X008422Y009743D01*
X008432Y009765D01*
X008435Y009790D01*
X008432Y009815D01*
X008422Y009837D01*
X008407Y009857D01*
X008387Y009872D01*
X008365Y009882D01*
X008340Y009885D01*
X008315Y009882D01*
X008293Y009872D01*
X008273Y009857D01*
X008270Y009853D01*
X008258Y009849D01*
X008222D01*
X008210Y009853D01*
X008207Y009857D01*
X008187Y009872D01*
X008165Y009882D01*
X008140Y009885D01*
X008115Y009882D01*
X008093Y009872D01*
X008073Y009857D01*
X008070Y009853D01*
X008058Y009849D01*
X008022D01*
X008010Y009853D01*
X008007Y009857D01*
X007987Y009872D01*
X007965Y009882D01*
X007940Y009885D01*
X007915Y009882D01*
X007893Y009872D01*
X007873Y009857D01*
X007870Y009853D01*
X007858Y009849D01*
X007822D01*
X007810Y009853D01*
X007807Y009857D01*
X007787Y009872D01*
X007765Y009882D01*
X007740Y009885D01*
X007715Y009882D01*
X007693Y009872D01*
X007673Y009857D01*
X007670Y009853D01*
X007658Y009849D01*
X007622D01*
X007610Y009853D01*
X007607Y009857D01*
X007587Y009872D01*
X007565Y009882D01*
X007540Y009885D01*
X007515Y009882D01*
X007493Y009872D01*
X007473Y009857D01*
X007464Y009854D01*
X007419Y009855D01*
X007413Y009857D01*
X007410Y009860D01*
X007390Y009876D01*
X007366Y009886D01*
X007355Y009887D01*
D02*
G37*
G36*
X013740Y009446D02*
X013718Y009442D01*
X013700Y009430D01*
X013688Y009412D01*
X013684Y009390D01*
X013688Y009368D01*
X013700Y009350D01*
X013718Y009338D01*
X013740Y009334D01*
X013762Y009338D01*
X013780Y009350D01*
X013792Y009368D01*
X013796Y009390D01*
X013792Y009412D01*
X013780Y009430D01*
X013762Y009442D01*
X013740Y009446D01*
D02*
G37*
G36*
X013540D02*
X013518Y009442D01*
X013500Y009430D01*
X013488Y009412D01*
X013484Y009390D01*
X013488Y009368D01*
X013500Y009350D01*
X013518Y009338D01*
X013540Y009334D01*
X013562Y009338D01*
X013580Y009350D01*
X013592Y009368D01*
X013596Y009390D01*
X013592Y009412D01*
X013580Y009430D01*
X013562Y009442D01*
X013540Y009446D01*
D02*
G37*
G36*
X013340D02*
X013318Y009442D01*
X013300Y009430D01*
X013288Y009412D01*
X013284Y009390D01*
X013288Y009368D01*
X013300Y009350D01*
X013318Y009338D01*
X013340Y009334D01*
X013362Y009338D01*
X013380Y009350D01*
X013392Y009368D01*
X013396Y009390D01*
X013392Y009412D01*
X013380Y009430D01*
X013362Y009442D01*
X013340Y009446D01*
D02*
G37*
G36*
X012140D02*
X012118Y009442D01*
X012100Y009430D01*
X012088Y009412D01*
X012084Y009390D01*
X012088Y009368D01*
X012100Y009350D01*
X012118Y009338D01*
X012140Y009334D01*
X012162Y009338D01*
X012180Y009350D01*
X012192Y009368D01*
X012196Y009390D01*
X012192Y009412D01*
X012180Y009430D01*
X012162Y009442D01*
X012140Y009446D01*
D02*
G37*
G36*
X011940D02*
X011918Y009442D01*
X011900Y009430D01*
X011888Y009412D01*
X011884Y009390D01*
X011888Y009368D01*
X011900Y009350D01*
X011918Y009338D01*
X011940Y009334D01*
X011962Y009338D01*
X011980Y009350D01*
X011992Y009368D01*
X011996Y009390D01*
X011992Y009412D01*
X011980Y009430D01*
X011962Y009442D01*
X011940Y009446D01*
D02*
G37*
G36*
X011540D02*
X011518Y009442D01*
X011500Y009430D01*
X011488Y009412D01*
X011484Y009390D01*
X011488Y009368D01*
X011500Y009350D01*
X011518Y009338D01*
X011540Y009334D01*
X011562Y009338D01*
X011580Y009350D01*
X011592Y009368D01*
X011596Y009390D01*
X011592Y009412D01*
X011580Y009430D01*
X011562Y009442D01*
X011540Y009446D01*
D02*
G37*
G36*
X011340D02*
X011318Y009442D01*
X011300Y009430D01*
X011288Y009412D01*
X011284Y009390D01*
X011288Y009368D01*
X011300Y009350D01*
X011318Y009338D01*
X011340Y009334D01*
X011362Y009338D01*
X011380Y009350D01*
X011392Y009368D01*
X011396Y009390D01*
X011392Y009412D01*
X011380Y009430D01*
X011362Y009442D01*
X011340Y009446D01*
D02*
G37*
G36*
X011140D02*
X011118Y009442D01*
X011100Y009430D01*
X011088Y009412D01*
X011084Y009390D01*
X011088Y009368D01*
X011100Y009350D01*
X011118Y009338D01*
X011140Y009334D01*
X011162Y009338D01*
X011180Y009350D01*
X011192Y009368D01*
X011196Y009390D01*
X011192Y009412D01*
X011180Y009430D01*
X011162Y009442D01*
X011140Y009446D01*
D02*
G37*
G36*
X010940D02*
X010918Y009442D01*
X010900Y009430D01*
X010888Y009412D01*
X010884Y009390D01*
X010888Y009368D01*
X010900Y009350D01*
X010918Y009338D01*
X010940Y009334D01*
X010962Y009338D01*
X010980Y009350D01*
X010992Y009368D01*
X010996Y009390D01*
X010992Y009412D01*
X010980Y009430D01*
X010962Y009442D01*
X010940Y009446D01*
D02*
G37*
G36*
X010740D02*
X010718Y009442D01*
X010700Y009430D01*
X010688Y009412D01*
X010684Y009390D01*
X010688Y009368D01*
X010700Y009350D01*
X010718Y009338D01*
X010740Y009334D01*
X010762Y009338D01*
X010780Y009350D01*
X010792Y009368D01*
X010796Y009390D01*
X010792Y009412D01*
X010780Y009430D01*
X010762Y009442D01*
X010740Y009446D01*
D02*
G37*
G36*
X011738Y009444D02*
X011716Y009440D01*
X011698Y009427D01*
X011685Y009409D01*
X011681Y009388D01*
X011685Y009366D01*
X011698Y009348D01*
X011716Y009335D01*
X011738Y009331D01*
X011759Y009335D01*
X011777Y009348D01*
X011790Y009366D01*
X011794Y009388D01*
X011790Y009409D01*
X011777Y009427D01*
X011759Y009440D01*
X011738Y009444D01*
D02*
G37*
G36*
X006730Y009406D02*
X006708Y009402D01*
X006690Y009390D01*
X006678Y009372D01*
X006674Y009350D01*
X006678Y009328D01*
X006690Y009310D01*
X006708Y009298D01*
X006730Y009294D01*
X006752Y009298D01*
X006770Y009310D01*
X006782Y009328D01*
X006786Y009350D01*
X006782Y009372D01*
X006770Y009390D01*
X006752Y009402D01*
X006730Y009406D01*
D02*
G37*
G36*
X006540D02*
X006518Y009402D01*
X006500Y009390D01*
X006488Y009372D01*
X006484Y009350D01*
X006488Y009328D01*
X006500Y009310D01*
X006518Y009298D01*
X006540Y009294D01*
X006562Y009298D01*
X006580Y009310D01*
X006592Y009328D01*
X006596Y009350D01*
X006592Y009372D01*
X006580Y009390D01*
X006562Y009402D01*
X006540Y009406D01*
D02*
G37*
G36*
X006340D02*
X006318Y009402D01*
X006300Y009390D01*
X006288Y009372D01*
X006284Y009350D01*
X006288Y009328D01*
X006300Y009310D01*
X006318Y009298D01*
X006340Y009294D01*
X006362Y009298D01*
X006380Y009310D01*
X006392Y009328D01*
X006396Y009350D01*
X006392Y009372D01*
X006380Y009390D01*
X006362Y009402D01*
X006340Y009406D01*
D02*
G37*
G36*
X006140D02*
X006118Y009402D01*
X006100Y009390D01*
X006088Y009372D01*
X006084Y009350D01*
X006088Y009328D01*
X006100Y009310D01*
X006118Y009298D01*
X006140Y009294D01*
X006162Y009298D01*
X006180Y009310D01*
X006192Y009328D01*
X006196Y009350D01*
X006192Y009372D01*
X006180Y009390D01*
X006162Y009402D01*
X006140Y009406D01*
D02*
G37*
G36*
X005938D02*
X005916Y009402D01*
X005898Y009390D01*
X005885Y009372D01*
X005881Y009350D01*
X005885Y009328D01*
X005898Y009310D01*
X005916Y009298D01*
X005938Y009294D01*
X005959Y009298D01*
X005977Y009310D01*
X005990Y009328D01*
X005994Y009350D01*
X005990Y009372D01*
X005977Y009390D01*
X005959Y009402D01*
X005938Y009406D01*
D02*
G37*
G36*
X005740D02*
X005718Y009402D01*
X005700Y009390D01*
X005688Y009372D01*
X005684Y009350D01*
X005688Y009328D01*
X005700Y009310D01*
X005718Y009298D01*
X005740Y009294D01*
X005762Y009298D01*
X005780Y009310D01*
X005792Y009328D01*
X005796Y009350D01*
X005792Y009372D01*
X005780Y009390D01*
X005762Y009402D01*
X005740Y009406D01*
D02*
G37*
G36*
X007145Y009426D02*
X007123Y009423D01*
X007102Y009415D01*
X007084Y009401D01*
X007070Y009383D01*
X007062Y009362D01*
X007059Y009340D01*
X007062Y009318D01*
X007070Y009297D01*
X007084Y009279D01*
X007102Y009265D01*
X007123Y009257D01*
X007145Y009254D01*
X007167Y009257D01*
X007188Y009265D01*
X007206Y009279D01*
X007220Y009297D01*
X007228Y009318D01*
X007231Y009340D01*
X007228Y009362D01*
X007220Y009383D01*
X007206Y009401D01*
X007188Y009415D01*
X007167Y009423D01*
X007145Y009426D01*
D02*
G37*
G36*
X012730Y009179D02*
X012708Y009175D01*
X012690Y009162D01*
X012678Y009144D01*
X012674Y009126D01*
X012659Y009116D01*
X012627Y009102D01*
X012623Y009105D01*
X012602Y009113D01*
X012580Y009116D01*
X012558Y009113D01*
X012537Y009105D01*
X012519Y009091D01*
X012505Y009073D01*
X012497Y009052D01*
X012494Y009030D01*
X012497Y009008D01*
X012505Y008987D01*
X012519Y008969D01*
X012537Y008955D01*
X012558Y008947D01*
X012580Y008944D01*
X012602Y008947D01*
X012611Y008950D01*
X012639Y008908D01*
X012501Y008769D01*
X012480Y008743D01*
X012468Y008713D01*
X012464Y008680D01*
X012464Y008680D01*
Y007122D01*
X012417Y007076D01*
X012378Y007095D01*
X012279D01*
Y006996D01*
X012298Y006957D01*
X012191Y006849D01*
X012170Y006823D01*
X012158Y006793D01*
X012154Y006760D01*
X012154Y006760D01*
Y006512D01*
X011831Y006189D01*
X011810Y006163D01*
X011798Y006133D01*
X011794Y006100D01*
X011798Y006067D01*
X011810Y006037D01*
X011831Y006011D01*
X011857Y005990D01*
X011887Y005978D01*
X011920Y005974D01*
X011953Y005978D01*
X011983Y005990D01*
X012009Y006011D01*
X012369Y006371D01*
X012369Y006371D01*
X012390Y006397D01*
X012397Y006415D01*
X012402Y006427D01*
X012406Y006460D01*
Y006708D01*
X012679Y006981D01*
X012700Y007007D01*
X012712Y007037D01*
X012716Y007070D01*
X012717Y007070D01*
X012766Y007073D01*
X012773Y007056D01*
X012790Y007034D01*
X012812Y007017D01*
X012838Y007007D01*
X012851Y007005D01*
Y007110D01*
Y007215D01*
X012838Y007213D01*
X012812Y007203D01*
X012790Y007186D01*
X012773Y007164D01*
X012766Y007147D01*
X012716Y007157D01*
Y008055D01*
X012727Y008101D01*
X012727Y008101D01*
Y008101D01*
X012766Y008104D01*
X012767Y008099D01*
X012777Y008075D01*
X012794Y008054D01*
X012815Y008037D01*
X012839Y008027D01*
X012866Y008024D01*
X012893Y008027D01*
X012917Y008037D01*
X012938Y008054D01*
X012955Y008075D01*
X012965Y008099D01*
X012968Y008126D01*
X012965Y008153D01*
X012955Y008177D01*
X012938Y008198D01*
X012917Y008215D01*
X012893Y008225D01*
X012866Y008228D01*
X012839Y008225D01*
X012815Y008215D01*
X012794Y008198D01*
X012777Y008177D01*
X012767Y008153D01*
X012766Y008148D01*
X012727Y008151D01*
Y008151D01*
X012727Y008151D01*
X012716Y008197D01*
Y008587D01*
X012766Y008597D01*
X012773Y008580D01*
X012790Y008558D01*
X012812Y008541D01*
X012838Y008531D01*
X012851Y008529D01*
Y008634D01*
X012866D01*
Y008649D01*
X012971D01*
X012969Y008662D01*
X012959Y008688D01*
X012942Y008710D01*
X012925Y008723D01*
X012923Y008743D01*
X012951Y008786D01*
X012968D01*
Y008814D01*
X012976Y008825D01*
X012988Y008855D01*
X012992Y008888D01*
X012988Y008921D01*
X012976Y008951D01*
X012968Y008962D01*
Y008990D01*
X012940D01*
X012929Y008998D01*
X012899Y009010D01*
X012866Y009014D01*
X012798D01*
X012798Y009014D01*
X012765Y009010D01*
X012735Y008998D01*
X012717Y008984D01*
X012686Y008997D01*
X012670Y009010D01*
X012671Y009040D01*
X012710Y009070D01*
X012730Y009066D01*
X012752Y009070D01*
X012770Y009083D01*
X012782Y009101D01*
X012786Y009122D01*
X012782Y009144D01*
X012770Y009162D01*
X012752Y009175D01*
X012730Y009179D01*
D02*
G37*
G36*
X008560Y009146D02*
X008538Y009142D01*
X008520Y009130D01*
X008508Y009112D01*
X008504Y009090D01*
X008508Y009068D01*
X008520Y009050D01*
X008538Y009038D01*
X008560Y009034D01*
X008582Y009038D01*
X008600Y009050D01*
X008612Y009068D01*
X008616Y009090D01*
X008612Y009112D01*
X008600Y009130D01*
X008582Y009142D01*
X008560Y009146D01*
D02*
G37*
G36*
X009590Y009016D02*
X009568Y009012D01*
X009550Y009000D01*
X009538Y008982D01*
X009534Y008960D01*
X009538Y008938D01*
X009550Y008920D01*
X009568Y008908D01*
X009590Y008904D01*
X009612Y008908D01*
X009630Y008920D01*
X009642Y008938D01*
X009646Y008960D01*
X009642Y008982D01*
X009630Y009000D01*
X009612Y009012D01*
X009590Y009016D01*
D02*
G37*
G36*
X007730D02*
X007708Y009012D01*
X007690Y009000D01*
X007678Y008982D01*
X007674Y008960D01*
X007678Y008938D01*
X007690Y008920D01*
X007708Y008908D01*
X007730Y008904D01*
X007752Y008908D01*
X007770Y008920D01*
X007782Y008938D01*
X007786Y008960D01*
X007782Y008982D01*
X007770Y009000D01*
X007752Y009012D01*
X007730Y009016D01*
D02*
G37*
G36*
X007410Y009062D02*
X007388Y009059D01*
X007367Y009050D01*
X007349Y009036D01*
X007335Y009019D01*
X007327Y008998D01*
X007324Y008975D01*
X007327Y008953D01*
X007335Y008932D01*
X007349Y008915D01*
X007367Y008901D01*
X007388Y008892D01*
X007410Y008889D01*
X007432Y008892D01*
X007453Y008901D01*
X007471Y008915D01*
X007484Y008932D01*
X007493Y008953D01*
X007496Y008975D01*
X007493Y008998D01*
X007484Y009019D01*
X007471Y009036D01*
X007453Y009050D01*
X007432Y009059D01*
X007410Y009062D01*
D02*
G37*
G36*
X014390Y008990D02*
X014363Y008987D01*
X014339Y008977D01*
X014318Y008960D01*
X014301Y008939D01*
X014291Y008915D01*
X014288Y008888D01*
X014291Y008861D01*
X014301Y008837D01*
X014318Y008816D01*
X014339Y008799D01*
X014363Y008789D01*
X014390Y008786D01*
X014417Y008789D01*
X014441Y008799D01*
X014462Y008816D01*
X014479Y008837D01*
X014489Y008861D01*
X014492Y008888D01*
X014489Y008915D01*
X014479Y008939D01*
X014462Y008960D01*
X014441Y008977D01*
X014417Y008987D01*
X014390Y008990D01*
D02*
G37*
G36*
X012264D02*
X012237Y008987D01*
X012213Y008977D01*
X012192Y008960D01*
X012175Y008939D01*
X012165Y008915D01*
X012162Y008888D01*
X012165Y008861D01*
X012175Y008837D01*
X012192Y008816D01*
X012213Y008799D01*
X012237Y008789D01*
X012264Y008786D01*
X012291Y008789D01*
X012315Y008799D01*
X012336Y008816D01*
X012353Y008837D01*
X012363Y008861D01*
X012366Y008888D01*
X012363Y008915D01*
X012353Y008939D01*
X012336Y008960D01*
X012315Y008977D01*
X012291Y008987D01*
X012264Y008990D01*
D02*
G37*
G36*
X003720Y009006D02*
X003690Y009003D01*
X003660Y008994D01*
X003633Y008980D01*
X003610Y008960D01*
X003590Y008937D01*
X003576Y008910D01*
X003567Y008880D01*
X003564Y008850D01*
X003567Y008820D01*
X003576Y008790D01*
X003590Y008763D01*
X003610Y008740D01*
X003633Y008720D01*
X003660Y008706D01*
X003690Y008697D01*
X003720Y008694D01*
X003750Y008697D01*
X003780Y008706D01*
X003807Y008720D01*
X003830Y008740D01*
X003850Y008763D01*
X003864Y008790D01*
X003873Y008820D01*
X003876Y008850D01*
X003873Y008880D01*
X003864Y008910D01*
X003850Y008937D01*
X003830Y008960D01*
X003807Y008980D01*
X003780Y008994D01*
X003750Y009003D01*
X003720Y009006D01*
D02*
G37*
G36*
X003120Y009005D02*
X003090Y009002D01*
X003060Y008993D01*
X003033Y008979D01*
X003010Y008959D01*
X002990Y008936D01*
X002976Y008909D01*
X002967Y008879D01*
X002964Y008849D01*
X002967Y008819D01*
X002976Y008789D01*
X002990Y008762D01*
X003010Y008739D01*
X003033Y008719D01*
X003060Y008705D01*
X003090Y008696D01*
X003120Y008693D01*
X003150Y008696D01*
X003180Y008705D01*
X003207Y008719D01*
X003230Y008739D01*
X003250Y008762D01*
X003264Y008789D01*
X003273Y008819D01*
X003276Y008849D01*
X003273Y008879D01*
X003264Y008909D01*
X003250Y008936D01*
X003230Y008959D01*
X003207Y008979D01*
X003180Y008993D01*
X003150Y009002D01*
X003120Y009005D01*
D02*
G37*
G36*
X009590Y008766D02*
X009568Y008762D01*
X009550Y008750D01*
X009538Y008732D01*
X009534Y008710D01*
X009538Y008688D01*
X009550Y008670D01*
X009568Y008658D01*
X009590Y008654D01*
X009612Y008658D01*
X009630Y008670D01*
X009642Y008688D01*
X009646Y008710D01*
X009642Y008732D01*
X009630Y008750D01*
X009612Y008762D01*
X009590Y008766D01*
D02*
G37*
G36*
X007930D02*
X007908Y008762D01*
X007890Y008750D01*
X007878Y008732D01*
X007874Y008710D01*
X007878Y008688D01*
X007890Y008670D01*
X007908Y008658D01*
X007930Y008654D01*
X007952Y008658D01*
X007970Y008670D01*
X007982Y008688D01*
X007986Y008710D01*
X007982Y008732D01*
X007970Y008750D01*
X007952Y008762D01*
X007930Y008766D01*
D02*
G37*
G36*
X012971Y008619D02*
X012881D01*
Y008529D01*
X012894Y008531D01*
X012920Y008541D01*
X012942Y008558D01*
X012959Y008580D01*
X012969Y008606D01*
X012971Y008619D01*
D02*
G37*
G36*
X010845D02*
X010755D01*
Y008529D01*
X010768Y008531D01*
X010794Y008541D01*
X010816Y008558D01*
X010833Y008580D01*
X010843Y008606D01*
X010845Y008619D01*
D02*
G37*
G36*
X008130Y008509D02*
X008108Y008505D01*
X008090Y008492D01*
X008078Y008474D01*
X008074Y008453D01*
X008078Y008431D01*
X008090Y008413D01*
X008108Y008400D01*
X008130Y008396D01*
X008152Y008400D01*
X008170Y008413D01*
X008182Y008431D01*
X008186Y008453D01*
X008182Y008474D01*
X008170Y008492D01*
X008152Y008505D01*
X008130Y008509D01*
D02*
G37*
G36*
X009590Y008506D02*
X009568Y008502D01*
X009550Y008490D01*
X009538Y008472D01*
X009534Y008450D01*
X009538Y008428D01*
X009550Y008410D01*
X009568Y008398D01*
X009590Y008394D01*
X009612Y008398D01*
X009630Y008410D01*
X009642Y008428D01*
X009646Y008450D01*
X009642Y008472D01*
X009630Y008490D01*
X009612Y008502D01*
X009590Y008506D01*
D02*
G37*
G36*
X007998Y008316D02*
X007976Y008312D01*
X007958Y008300D01*
X007946Y008282D01*
X007942Y008260D01*
X007946Y008238D01*
X007958Y008220D01*
X007976Y008208D01*
X007998Y008204D01*
X008020Y008208D01*
X008038Y008220D01*
X008050Y008238D01*
X008054Y008260D01*
X008050Y008282D01*
X008038Y008300D01*
X008020Y008312D01*
X007998Y008316D01*
D02*
G37*
G36*
X009590Y008256D02*
X009568Y008252D01*
X009550Y008240D01*
X009538Y008222D01*
X009534Y008200D01*
X009538Y008178D01*
X009550Y008160D01*
X009568Y008148D01*
X009590Y008144D01*
X009612Y008148D01*
X009630Y008160D01*
X009642Y008178D01*
X009646Y008200D01*
X009642Y008222D01*
X009630Y008240D01*
X009612Y008252D01*
X009590Y008256D01*
D02*
G37*
G36*
X008330D02*
X008308Y008252D01*
X008290Y008240D01*
X008278Y008222D01*
X008274Y008200D01*
X008278Y008178D01*
X008290Y008160D01*
X008308Y008148D01*
X008330Y008144D01*
X008352Y008148D01*
X008370Y008160D01*
X008382Y008178D01*
X008386Y008200D01*
X008382Y008222D01*
X008370Y008240D01*
X008352Y008252D01*
X008330Y008256D01*
D02*
G37*
G36*
X008013Y008130D02*
Y008087D01*
X008057D01*
X008055Y008095D01*
X008042Y008115D01*
X008022Y008129D01*
X008013Y008130D01*
D02*
G37*
G36*
X007983D02*
X007975Y008129D01*
X007955Y008115D01*
X007942Y008095D01*
X007940Y008087D01*
X007983D01*
Y008130D01*
D02*
G37*
G36*
X010740Y008228D02*
X010713Y008225D01*
X010689Y008215D01*
X010668Y008198D01*
X010651Y008177D01*
X010641Y008153D01*
X010638Y008126D01*
X010641Y008099D01*
X010651Y008075D01*
X010668Y008054D01*
X010689Y008037D01*
X010713Y008027D01*
X010740Y008024D01*
X010767Y008027D01*
X010791Y008037D01*
X010812Y008054D01*
X010829Y008075D01*
X010839Y008099D01*
X010842Y008126D01*
X010839Y008153D01*
X010829Y008177D01*
X010812Y008198D01*
X010791Y008215D01*
X010767Y008225D01*
X010740Y008228D01*
D02*
G37*
G36*
X008057Y008057D02*
X008013D01*
Y008014D01*
X008022Y008015D01*
X008042Y008029D01*
X008055Y008049D01*
X008057Y008057D01*
D02*
G37*
G36*
X007983D02*
X007940D01*
X007942Y008049D01*
X007955Y008029D01*
X007975Y008015D01*
X007983Y008014D01*
Y008057D01*
D02*
G37*
G36*
X009600Y007986D02*
Y007897D01*
X009689D01*
X009687Y007910D01*
X009677Y007935D01*
X009660Y007957D01*
X009638Y007974D01*
X009612Y007985D01*
X009600Y007986D01*
D02*
G37*
G36*
X009570D02*
X009558Y007985D01*
X009532Y007974D01*
X009510Y007957D01*
X009493Y007935D01*
X009483Y007910D01*
X009481Y007897D01*
X009570D01*
Y007986D01*
D02*
G37*
G36*
X003720Y008117D02*
X003690Y008114D01*
X003660Y008105D01*
X003633Y008091D01*
X003610Y008071D01*
X003590Y008048D01*
X003576Y008021D01*
X003567Y007991D01*
X003564Y007961D01*
X003567Y007931D01*
X003576Y007901D01*
X003590Y007874D01*
X003610Y007851D01*
X003633Y007831D01*
X003660Y007817D01*
X003690Y007808D01*
X003720Y007805D01*
X003750Y007808D01*
X003780Y007817D01*
X003807Y007831D01*
X003830Y007851D01*
X003850Y007874D01*
X003864Y007901D01*
X003873Y007931D01*
X003876Y007961D01*
X003873Y007991D01*
X003864Y008021D01*
X003850Y008048D01*
X003830Y008071D01*
X003807Y008091D01*
X003780Y008105D01*
X003750Y008114D01*
X003720Y008117D01*
D02*
G37*
G36*
X003120Y008116D02*
X003090Y008113D01*
X003060Y008104D01*
X003033Y008090D01*
X003010Y008070D01*
X002990Y008047D01*
X002976Y008020D01*
X002967Y007990D01*
X002964Y007960D01*
X002967Y007930D01*
X002976Y007900D01*
X002990Y007873D01*
X003010Y007850D01*
X003033Y007830D01*
X003060Y007816D01*
X003090Y007807D01*
X003120Y007804D01*
X003150Y007807D01*
X003180Y007816D01*
X003207Y007830D01*
X003230Y007850D01*
X003250Y007873D01*
X003264Y007900D01*
X003273Y007930D01*
X003276Y007960D01*
X003273Y007990D01*
X003264Y008020D01*
X003250Y008047D01*
X003230Y008070D01*
X003207Y008090D01*
X003180Y008104D01*
X003150Y008113D01*
X003120Y008116D01*
D02*
G37*
G36*
X009689Y007868D02*
X009600D01*
Y007779D01*
X009612Y007780D01*
X009638Y007791D01*
X009660Y007808D01*
X009677Y007830D01*
X009687Y007855D01*
X009689Y007868D01*
D02*
G37*
G36*
X009570D02*
X009481D01*
X009483Y007855D01*
X009493Y007830D01*
X009510Y007808D01*
X009532Y007791D01*
X009558Y007780D01*
X009570Y007779D01*
Y007868D01*
D02*
G37*
G36*
X014390Y007974D02*
X014363Y007971D01*
X014339Y007961D01*
X014318Y007944D01*
X014301Y007923D01*
X014291Y007899D01*
X014288Y007872D01*
X014291Y007845D01*
X014301Y007821D01*
X014318Y007800D01*
X014339Y007783D01*
X014363Y007773D01*
X014390Y007770D01*
X014417Y007773D01*
X014441Y007783D01*
X014462Y007800D01*
X014479Y007821D01*
X014489Y007845D01*
X014492Y007872D01*
X014489Y007899D01*
X014479Y007923D01*
X014462Y007944D01*
X014441Y007961D01*
X014417Y007971D01*
X014390Y007974D01*
D02*
G37*
G36*
X012264D02*
X012237Y007971D01*
X012213Y007961D01*
X012192Y007944D01*
X012175Y007923D01*
X012165Y007899D01*
X012162Y007872D01*
X012165Y007845D01*
X012175Y007821D01*
X012192Y007800D01*
X012213Y007783D01*
X012237Y007773D01*
X012264Y007770D01*
X012291Y007773D01*
X012315Y007783D01*
X012336Y007800D01*
X012353Y007821D01*
X012363Y007845D01*
X012366Y007872D01*
X012363Y007899D01*
X012353Y007923D01*
X012336Y007944D01*
X012315Y007961D01*
X012291Y007971D01*
X012264Y007974D01*
D02*
G37*
G36*
X005170Y007366D02*
X005148Y007362D01*
X005130Y007350D01*
X005118Y007332D01*
X005114Y007310D01*
X005118Y007288D01*
X005130Y007270D01*
X005148Y007258D01*
X005170Y007254D01*
X005192Y007258D01*
X005210Y007270D01*
X005222Y007288D01*
X005226Y007310D01*
X005222Y007332D01*
X005210Y007350D01*
X005192Y007362D01*
X005170Y007366D01*
D02*
G37*
G36*
X004760Y007266D02*
X004738Y007262D01*
X004720Y007250D01*
X004708Y007232D01*
X004704Y007210D01*
X004708Y007188D01*
X004720Y007170D01*
X004738Y007158D01*
X004760Y007154D01*
X004782Y007158D01*
X004800Y007170D01*
X004812Y007188D01*
X004816Y007210D01*
X004812Y007232D01*
X004800Y007250D01*
X004782Y007262D01*
X004760Y007266D01*
D02*
G37*
G36*
X014405Y007215D02*
Y007125D01*
X014495D01*
X014493Y007138D01*
X014483Y007164D01*
X014466Y007186D01*
X014444Y007203D01*
X014418Y007213D01*
X014405Y007215D01*
D02*
G37*
G36*
X014375D02*
X014362Y007213D01*
X014336Y007203D01*
X014314Y007186D01*
X014297Y007164D01*
X014287Y007138D01*
X014285Y007125D01*
X014375D01*
Y007215D01*
D02*
G37*
G36*
X012881D02*
Y007125D01*
X012971D01*
X012969Y007138D01*
X012959Y007164D01*
X012942Y007186D01*
X012920Y007203D01*
X012894Y007213D01*
X012881Y007215D01*
D02*
G37*
G36*
X012279D02*
Y007125D01*
X012369D01*
X012367Y007138D01*
X012357Y007164D01*
X012340Y007186D01*
X012318Y007203D01*
X012292Y007213D01*
X012279Y007215D01*
D02*
G37*
G36*
X012249D02*
X012236Y007213D01*
X012210Y007203D01*
X012188Y007186D01*
X012171Y007164D01*
X012161Y007138D01*
X012159Y007125D01*
X012249D01*
Y007215D01*
D02*
G37*
G36*
X010755D02*
Y007125D01*
X010845D01*
X010843Y007138D01*
X010833Y007164D01*
X010816Y007186D01*
X010794Y007203D01*
X010768Y007213D01*
X010755Y007215D01*
D02*
G37*
G36*
X010725D02*
X010712Y007213D01*
X010686Y007203D01*
X010664Y007186D01*
X010647Y007164D01*
X010637Y007138D01*
X010635Y007125D01*
X010725D01*
Y007215D01*
D02*
G37*
G36*
X005170Y007166D02*
X005148Y007162D01*
X005130Y007150D01*
X005118Y007132D01*
X005114Y007110D01*
X005118Y007088D01*
X005130Y007070D01*
X005148Y007058D01*
X005170Y007054D01*
X005192Y007058D01*
X005210Y007070D01*
X005222Y007088D01*
X005226Y007110D01*
X005222Y007132D01*
X005210Y007150D01*
X005192Y007162D01*
X005170Y007166D01*
D02*
G37*
G36*
X014495Y007095D02*
X014405D01*
Y007005D01*
X014418Y007007D01*
X014444Y007017D01*
X014466Y007034D01*
X014483Y007056D01*
X014493Y007082D01*
X014495Y007095D01*
D02*
G37*
G36*
X014375D02*
X014285D01*
X014287Y007082D01*
X014297Y007056D01*
X014314Y007034D01*
X014336Y007017D01*
X014362Y007007D01*
X014375Y007005D01*
Y007095D01*
D02*
G37*
G36*
X012971D02*
X012881D01*
Y007005D01*
X012894Y007007D01*
X012920Y007017D01*
X012942Y007034D01*
X012959Y007056D01*
X012969Y007082D01*
X012971Y007095D01*
D02*
G37*
G36*
X012249D02*
X012159D01*
X012161Y007082D01*
X012171Y007056D01*
X012188Y007034D01*
X012210Y007017D01*
X012236Y007007D01*
X012249Y007005D01*
Y007095D01*
D02*
G37*
G36*
X010845D02*
X010755D01*
Y007005D01*
X010768Y007007D01*
X010794Y007017D01*
X010816Y007034D01*
X010833Y007056D01*
X010843Y007082D01*
X010845Y007095D01*
D02*
G37*
G36*
X010725D02*
X010635D01*
X010637Y007082D01*
X010647Y007056D01*
X010664Y007034D01*
X010686Y007017D01*
X010712Y007007D01*
X010725Y007005D01*
Y007095D01*
D02*
G37*
G36*
X005170Y006966D02*
X005148Y006962D01*
X005130Y006950D01*
X005118Y006932D01*
X005114Y006910D01*
X005118Y006888D01*
X005130Y006870D01*
X005148Y006858D01*
X005170Y006854D01*
X005192Y006858D01*
X005210Y006870D01*
X005222Y006888D01*
X005226Y006910D01*
X005222Y006932D01*
X005210Y006950D01*
X005192Y006962D01*
X005170Y006966D01*
D02*
G37*
G36*
X004760Y006866D02*
X004738Y006862D01*
X004720Y006850D01*
X004708Y006832D01*
X004704Y006810D01*
X004708Y006788D01*
X004720Y006770D01*
X004738Y006758D01*
X004760Y006754D01*
X004782Y006758D01*
X004800Y006770D01*
X004812Y006788D01*
X004816Y006810D01*
X004812Y006832D01*
X004800Y006850D01*
X004782Y006862D01*
X004760Y006866D01*
D02*
G37*
G36*
X005170Y006766D02*
X005148Y006762D01*
X005130Y006750D01*
X005118Y006732D01*
X005114Y006710D01*
X005118Y006688D01*
X005130Y006670D01*
X005148Y006658D01*
X005170Y006654D01*
X005192Y006658D01*
X005210Y006670D01*
X005222Y006688D01*
X005226Y006710D01*
X005222Y006732D01*
X005210Y006750D01*
X005192Y006762D01*
X005170Y006766D01*
D02*
G37*
G36*
X010430Y006686D02*
X010408Y006682D01*
X010390Y006670D01*
X010378Y006652D01*
X010374Y006630D01*
X010378Y006608D01*
X010390Y006590D01*
X010408Y006578D01*
X010430Y006574D01*
X010452Y006578D01*
X010470Y006590D01*
X010482Y006608D01*
X010486Y006630D01*
X010482Y006652D01*
X010470Y006670D01*
X010452Y006682D01*
X010430Y006686D01*
D02*
G37*
G36*
X013930Y006646D02*
X013908Y006642D01*
X013890Y006630D01*
X013878Y006612D01*
X013874Y006590D01*
X013878Y006568D01*
X013890Y006550D01*
X013908Y006538D01*
X013930Y006534D01*
X013952Y006538D01*
X013970Y006550D01*
X013982Y006568D01*
X013986Y006590D01*
X013982Y006612D01*
X013970Y006630D01*
X013952Y006642D01*
X013930Y006646D01*
D02*
G37*
G36*
X011905Y006518D02*
Y006475D01*
X011948D01*
X011947Y006483D01*
X011933Y006503D01*
X011913Y006517D01*
X011905Y006518D01*
D02*
G37*
G36*
X011875D02*
X011867Y006517D01*
X011847Y006503D01*
X011833Y006483D01*
X011832Y006475D01*
X011875D01*
Y006518D01*
D02*
G37*
G36*
X005170Y006566D02*
X005148Y006562D01*
X005130Y006550D01*
X005118Y006532D01*
X005114Y006510D01*
X005118Y006488D01*
X005130Y006470D01*
X005148Y006458D01*
X005170Y006454D01*
X005192Y006458D01*
X005210Y006470D01*
X005222Y006488D01*
X005226Y006510D01*
X005222Y006532D01*
X005210Y006550D01*
X005192Y006562D01*
X005170Y006566D01*
D02*
G37*
G36*
X005310Y007506D02*
X005288Y007502D01*
X005270Y007490D01*
X005258Y007472D01*
X005254Y007450D01*
X005258Y007428D01*
X005270Y007410D01*
X005288Y007398D01*
X005308Y007394D01*
X005310Y007393D01*
X005348Y007355D01*
X005348Y007354D01*
X005352Y007333D01*
X005359Y007323D01*
X005365Y007313D01*
X005363Y007269D01*
X005358Y007261D01*
X005350Y007250D01*
X005346Y007228D01*
X005350Y007206D01*
X005358Y007195D01*
X005363Y007187D01*
X005365Y007143D01*
X005359Y007133D01*
X005352Y007123D01*
X005348Y007101D01*
X005352Y007079D01*
X005359Y007069D01*
X005365Y007059D01*
X005363Y007015D01*
X005358Y007007D01*
X005350Y006996D01*
X005346Y006974D01*
X005350Y006952D01*
X005358Y006941D01*
X005363Y006933D01*
X005365Y006889D01*
X005359Y006879D01*
X005352Y006869D01*
X005348Y006847D01*
X005352Y006825D01*
X005359Y006815D01*
X005365Y006805D01*
X005363Y006761D01*
X005358Y006753D01*
X005350Y006742D01*
X005346Y006720D01*
X005350Y006698D01*
X005353Y006694D01*
X005350Y006656D01*
X005339Y006636D01*
X005330Y006630D01*
X005318Y006612D01*
X005314Y006590D01*
X005318Y006568D01*
X005321Y006564D01*
X005330Y006550D01*
Y006510D01*
X005321Y006496D01*
X005318Y006492D01*
X005314Y006470D01*
X005318Y006448D01*
X005330Y006430D01*
X005348Y006418D01*
X005370Y006414D01*
X005392Y006418D01*
X005410Y006430D01*
X005422Y006448D01*
X005426Y006470D01*
X005422Y006492D01*
X005419Y006496D01*
X005410Y006510D01*
Y006550D01*
X005419Y006564D01*
X005422Y006568D01*
X005426Y006590D01*
X005422Y006612D01*
X005419Y006616D01*
X005423Y006654D01*
X005434Y006674D01*
X005443Y006680D01*
X005455Y006698D01*
X005459Y006720D01*
X005455Y006742D01*
X005448Y006752D01*
X005443Y006762D01*
X005445Y006806D01*
X005449Y006814D01*
X005457Y006825D01*
X005461Y006847D01*
X005457Y006869D01*
X005449Y006880D01*
X005445Y006888D01*
X005443Y006932D01*
X005448Y006942D01*
X005455Y006952D01*
X005459Y006974D01*
X005455Y006996D01*
X005448Y007006D01*
X005443Y007016D01*
X005445Y007060D01*
X005449Y007068D01*
X005457Y007079D01*
X005461Y007101D01*
X005457Y007123D01*
X005449Y007134D01*
X005445Y007142D01*
X005443Y007186D01*
X005448Y007196D01*
X005455Y007206D01*
X005459Y007228D01*
X005455Y007250D01*
X005448Y007260D01*
X005443Y007270D01*
X005445Y007314D01*
X005449Y007322D01*
X005457Y007333D01*
X005461Y007355D01*
X005457Y007377D01*
X005445Y007395D01*
X005426Y007407D01*
X005406Y007411D01*
X005404Y007412D01*
X005367Y007450D01*
X005366Y007451D01*
X005362Y007472D01*
X005350Y007490D01*
X005332Y007502D01*
X005310Y007506D01*
D02*
G37*
G36*
X006040Y007407D02*
X006018Y007403D01*
X006000Y007391D01*
X005988Y007373D01*
X005984Y007351D01*
X005988Y007329D01*
X005995Y007319D01*
X006000Y007309D01*
Y007266D01*
X005995Y007256D01*
X005988Y007246D01*
X005984Y007224D01*
X005988Y007202D01*
X005995Y007192D01*
X006000Y007182D01*
Y007139D01*
X005995Y007129D01*
X005988Y007119D01*
X005984Y007097D01*
X005988Y007075D01*
X005995Y007065D01*
X006000Y007055D01*
Y007012D01*
X005995Y007002D01*
X005988Y006992D01*
X005984Y006970D01*
X005988Y006948D01*
X005995Y006938D01*
X006000Y006928D01*
Y006885D01*
X005995Y006875D01*
X005988Y006865D01*
X005984Y006843D01*
X005988Y006821D01*
X005995Y006811D01*
X006000Y006801D01*
Y006758D01*
X005995Y006748D01*
X005988Y006738D01*
X005984Y006716D01*
X005988Y006694D01*
X005994Y006685D01*
X006000Y006675D01*
Y006631D01*
X005994Y006621D01*
X005988Y006612D01*
X005984Y006590D01*
X005988Y006568D01*
X005996Y006557D01*
X006000Y006548D01*
Y006504D01*
X005996Y006495D01*
X005988Y006484D01*
X005984Y006462D01*
X005988Y006440D01*
X006000Y006422D01*
X006018Y006410D01*
X006040Y006406D01*
X006062Y006410D01*
X006080Y006422D01*
X006092Y006440D01*
X006096Y006462D01*
X006092Y006484D01*
X006084Y006495D01*
X006080Y006504D01*
Y006548D01*
X006084Y006557D01*
X006092Y006568D01*
X006096Y006590D01*
X006092Y006612D01*
X006086Y006621D01*
X006080Y006631D01*
Y006675D01*
X006086Y006685D01*
X006092Y006694D01*
X006096Y006716D01*
X006092Y006738D01*
X006085Y006748D01*
X006080Y006758D01*
Y006801D01*
X006085Y006811D01*
X006092Y006821D01*
X006096Y006843D01*
X006092Y006865D01*
X006085Y006875D01*
X006080Y006885D01*
Y006928D01*
X006085Y006938D01*
X006092Y006948D01*
X006096Y006970D01*
X006092Y006992D01*
X006085Y007002D01*
X006080Y007012D01*
Y007055D01*
X006085Y007065D01*
X006092Y007075D01*
X006096Y007097D01*
X006092Y007119D01*
X006085Y007129D01*
X006080Y007139D01*
Y007182D01*
X006085Y007192D01*
X006092Y007202D01*
X006096Y007224D01*
X006092Y007246D01*
X006085Y007256D01*
X006080Y007266D01*
Y007309D01*
X006085Y007319D01*
X006092Y007329D01*
X006096Y007351D01*
X006092Y007373D01*
X006080Y007391D01*
X006062Y007403D01*
X006040Y007407D01*
D02*
G37*
G36*
X011948Y006445D02*
X011905D01*
Y006402D01*
X011913Y006403D01*
X011933Y006417D01*
X011947Y006437D01*
X011948Y006445D01*
D02*
G37*
G36*
X011875D02*
X011832D01*
X011833Y006437D01*
X011847Y006417D01*
X011867Y006403D01*
X011875Y006402D01*
Y006445D01*
D02*
G37*
G36*
X013762Y006466D02*
X013740Y006462D01*
X013722Y006450D01*
X013710Y006432D01*
X013706Y006410D01*
X013710Y006388D01*
X013722Y006370D01*
X013740Y006358D01*
X013762Y006354D01*
X013784Y006358D01*
X013802Y006370D01*
X013814Y006388D01*
X013818Y006410D01*
X013814Y006432D01*
X013802Y006450D01*
X013784Y006462D01*
X013762Y006466D01*
D02*
G37*
G36*
X013508D02*
X013486Y006462D01*
X013468Y006450D01*
X013456Y006432D01*
X013452Y006410D01*
X013456Y006388D01*
X013468Y006370D01*
X013486Y006358D01*
X013508Y006354D01*
X013530Y006358D01*
X013548Y006370D01*
X013560Y006388D01*
X013564Y006410D01*
X013560Y006432D01*
X013548Y006450D01*
X013530Y006462D01*
X013508Y006466D01*
D02*
G37*
G36*
X013134D02*
X013112Y006462D01*
X013094Y006450D01*
X013082Y006432D01*
X013078Y006410D01*
X013082Y006388D01*
X013094Y006370D01*
X013112Y006358D01*
X013134Y006354D01*
X013156Y006358D01*
X013174Y006370D01*
X013186Y006388D01*
X013190Y006410D01*
X013186Y006432D01*
X013174Y006450D01*
X013156Y006462D01*
X013134Y006466D01*
D02*
G37*
G36*
X004760D02*
X004738Y006462D01*
X004720Y006450D01*
X004708Y006432D01*
X004704Y006410D01*
X004708Y006388D01*
X004720Y006370D01*
X004738Y006358D01*
X004760Y006354D01*
X004782Y006358D01*
X004800Y006370D01*
X004812Y006388D01*
X004816Y006410D01*
X004812Y006432D01*
X004800Y006450D01*
X004782Y006462D01*
X004760Y006466D01*
D02*
G37*
G36*
X012878Y006464D02*
X012856Y006460D01*
X012838Y006448D01*
X012826Y006430D01*
X012822Y006408D01*
X012826Y006386D01*
X012838Y006368D01*
X012856Y006356D01*
X012878Y006352D01*
X012900Y006356D01*
X012918Y006368D01*
X012930Y006386D01*
X012934Y006408D01*
X012930Y006430D01*
X012918Y006448D01*
X012900Y006460D01*
X012878Y006464D01*
D02*
G37*
G36*
X010325Y006366D02*
Y006323D01*
X010368D01*
X010366Y006331D01*
X010353Y006351D01*
X010333Y006365D01*
X010325Y006366D01*
D02*
G37*
G36*
X010295D02*
X010286Y006365D01*
X010266Y006351D01*
X010253Y006331D01*
X010251Y006323D01*
X010295D01*
Y006366D01*
D02*
G37*
G36*
X010755Y006298D02*
Y006255D01*
X010798D01*
X010797Y006263D01*
X010783Y006283D01*
X010763Y006297D01*
X010755Y006298D01*
D02*
G37*
G36*
X010725D02*
X010717Y006297D01*
X010697Y006283D01*
X010683Y006263D01*
X010682Y006255D01*
X010725D01*
Y006298D01*
D02*
G37*
G36*
X005170Y006366D02*
X005148Y006362D01*
X005130Y006350D01*
X005118Y006332D01*
X005114Y006310D01*
X005118Y006288D01*
X005130Y006270D01*
X005148Y006258D01*
X005170Y006254D01*
X005192Y006258D01*
X005210Y006270D01*
X005222Y006288D01*
X005226Y006310D01*
X005222Y006332D01*
X005210Y006350D01*
X005192Y006362D01*
X005170Y006366D01*
D02*
G37*
G36*
X010368Y006293D02*
X010325D01*
Y006250D01*
X010333Y006251D01*
X010353Y006265D01*
X010366Y006285D01*
X010368Y006293D01*
D02*
G37*
G36*
X010295D02*
X010251D01*
X010253Y006285D01*
X010266Y006265D01*
X010286Y006251D01*
X010295Y006250D01*
Y006293D01*
D02*
G37*
G36*
X010798Y006225D02*
X010755D01*
Y006182D01*
X010763Y006183D01*
X010783Y006197D01*
X010797Y006217D01*
X010798Y006225D01*
D02*
G37*
G36*
X010725D02*
X010682D01*
X010683Y006217D01*
X010697Y006197D01*
X010717Y006183D01*
X010725Y006182D01*
Y006225D01*
D02*
G37*
G36*
X005170Y006166D02*
X005148Y006162D01*
X005130Y006150D01*
X005118Y006132D01*
X005114Y006110D01*
X005118Y006088D01*
X005130Y006070D01*
X005148Y006058D01*
X005170Y006054D01*
X005192Y006058D01*
X005210Y006070D01*
X005222Y006088D01*
X005226Y006110D01*
X005222Y006132D01*
X005210Y006150D01*
X005192Y006162D01*
X005170Y006166D01*
D02*
G37*
G36*
X011216Y006182D02*
X011193Y006179D01*
X011172Y006170D01*
X011155Y006156D01*
X011141Y006139D01*
X011132Y006118D01*
X011129Y006096D01*
X011132Y006073D01*
X011141Y006052D01*
X011155Y006035D01*
X011172Y006021D01*
X011193Y006012D01*
X011216Y006009D01*
X011238Y006012D01*
X011259Y006021D01*
X011276Y006035D01*
X011290Y006052D01*
X011299Y006073D01*
X011302Y006096D01*
X011299Y006118D01*
X011290Y006139D01*
X011276Y006156D01*
X011259Y006170D01*
X011238Y006179D01*
X011216Y006182D01*
D02*
G37*
G36*
X014475Y005928D02*
Y005885D01*
X014518D01*
X014517Y005893D01*
X014503Y005913D01*
X014483Y005927D01*
X014475Y005928D01*
D02*
G37*
G36*
X014445D02*
X014437Y005927D01*
X014417Y005913D01*
X014403Y005893D01*
X014402Y005885D01*
X014445D01*
Y005928D01*
D02*
G37*
G36*
X005170Y005966D02*
X005148Y005962D01*
X005130Y005950D01*
X005118Y005932D01*
X005114Y005910D01*
X005118Y005888D01*
X005130Y005870D01*
X005148Y005858D01*
X005170Y005854D01*
X005192Y005858D01*
X005210Y005870D01*
X005222Y005888D01*
X005226Y005910D01*
X005222Y005932D01*
X005210Y005950D01*
X005192Y005962D01*
X005170Y005966D01*
D02*
G37*
G36*
X014518Y005855D02*
X014475D01*
Y005812D01*
X014483Y005813D01*
X014503Y005827D01*
X014517Y005847D01*
X014518Y005855D01*
D02*
G37*
G36*
X014445D02*
X014402D01*
X014403Y005847D01*
X014417Y005827D01*
X014437Y005813D01*
X014445Y005812D01*
Y005855D01*
D02*
G37*
G36*
X014050Y005826D02*
X014028Y005822D01*
X014010Y005810D01*
X013998Y005792D01*
X013994Y005770D01*
X013998Y005748D01*
X014010Y005730D01*
X014028Y005718D01*
X014050Y005714D01*
X014072Y005718D01*
X014090Y005730D01*
X014102Y005748D01*
X014106Y005770D01*
X014102Y005792D01*
X014090Y005810D01*
X014072Y005822D01*
X014050Y005826D01*
D02*
G37*
G36*
X005170Y005757D02*
X005148Y005753D01*
X005130Y005740D01*
X005118Y005722D01*
X005114Y005700D01*
X005118Y005679D01*
X005130Y005660D01*
X005148Y005648D01*
X005170Y005644D01*
X005192Y005648D01*
X005210Y005660D01*
X005222Y005679D01*
X005226Y005700D01*
X005222Y005722D01*
X005210Y005740D01*
X005192Y005753D01*
X005170Y005757D01*
D02*
G37*
G36*
X004730Y005866D02*
X004708Y005862D01*
X004690Y005850D01*
X004678Y005832D01*
X004674Y005810D01*
X004678Y005788D01*
X004690Y005770D01*
Y005740D01*
X004678Y005722D01*
X004674Y005700D01*
X004678Y005678D01*
X004690Y005660D01*
X004708Y005648D01*
X004730Y005644D01*
X004752Y005648D01*
X004770Y005660D01*
X004782Y005678D01*
X004786Y005700D01*
X004782Y005722D01*
X004770Y005740D01*
Y005770D01*
X004782Y005788D01*
X004786Y005810D01*
X004782Y005832D01*
X004770Y005850D01*
X004752Y005862D01*
X004730Y005866D01*
D02*
G37*
G36*
X010857Y005571D02*
Y005528D01*
X010900D01*
X010899Y005536D01*
X010885Y005556D01*
X010866Y005569D01*
X010857Y005571D01*
D02*
G37*
G36*
X014475Y005528D02*
Y005485D01*
X014518D01*
X014517Y005493D01*
X014503Y005513D01*
X014483Y005527D01*
X014475Y005528D01*
D02*
G37*
G36*
X014445D02*
X014437Y005527D01*
X014417Y005513D01*
X014403Y005493D01*
X014402Y005485D01*
X014445D01*
Y005528D01*
D02*
G37*
G36*
X005170Y005557D02*
X005148Y005553D01*
X005130Y005540D01*
X005118Y005522D01*
X005114Y005500D01*
X005118Y005479D01*
X005130Y005460D01*
X005148Y005448D01*
X005170Y005444D01*
X005192Y005448D01*
X005210Y005460D01*
X005222Y005479D01*
X005226Y005500D01*
X005222Y005522D01*
X005210Y005540D01*
X005192Y005553D01*
X005170Y005557D01*
D02*
G37*
G36*
X014518Y005455D02*
X014475D01*
Y005412D01*
X014483Y005413D01*
X014503Y005427D01*
X014517Y005447D01*
X014518Y005455D01*
D02*
G37*
G36*
X014445D02*
X014402D01*
X014403Y005447D01*
X014417Y005427D01*
X014437Y005413D01*
X014445Y005412D01*
Y005455D01*
D02*
G37*
G36*
X012512Y005438D02*
X012490Y005434D01*
X012472Y005422D01*
X012460Y005404D01*
X012456Y005382D01*
X012460Y005360D01*
X012472Y005342D01*
X012490Y005330D01*
X012512Y005326D01*
X012534Y005330D01*
X012552Y005342D01*
X012564Y005360D01*
X012568Y005382D01*
X012564Y005404D01*
X012552Y005422D01*
X012534Y005434D01*
X012512Y005438D01*
D02*
G37*
G36*
X014040Y005426D02*
X014018Y005422D01*
X014000Y005410D01*
X013988Y005392D01*
X013984Y005370D01*
X013988Y005348D01*
X014000Y005330D01*
X014018Y005318D01*
X014040Y005314D01*
X014062Y005318D01*
X014080Y005330D01*
X014092Y005348D01*
X014096Y005370D01*
X014092Y005392D01*
X014080Y005410D01*
X014062Y005422D01*
X014040Y005426D01*
D02*
G37*
G36*
X004545Y006163D02*
X004523Y006159D01*
X004505Y006147D01*
X004493Y006129D01*
X004488Y006107D01*
X004493Y006085D01*
X004500Y006075D01*
X004505Y006065D01*
X004503Y006021D01*
X004498Y006013D01*
X004491Y006002D01*
X004486Y005980D01*
X004491Y005958D01*
X004498Y005947D01*
X004503Y005939D01*
X004505Y005895D01*
X004500Y005885D01*
X004493Y005875D01*
X004488Y005853D01*
X004493Y005831D01*
X004500Y005821D01*
X004505Y005811D01*
X004503Y005767D01*
X004498Y005759D01*
X004491Y005748D01*
X004486Y005726D01*
X004491Y005704D01*
X004498Y005693D01*
X004503Y005685D01*
X004505Y005641D01*
X004500Y005631D01*
X004493Y005621D01*
X004488Y005599D01*
X004493Y005577D01*
X004500Y005567D01*
X004505Y005557D01*
X004503Y005513D01*
X004498Y005505D01*
X004491Y005494D01*
X004486Y005472D01*
X004491Y005450D01*
X004498Y005439D01*
X004503Y005431D01*
X004505Y005387D01*
X004500Y005377D01*
X004493Y005367D01*
X004488Y005345D01*
X004493Y005323D01*
X004500Y005313D01*
X004505Y005303D01*
X004503Y005259D01*
X004498Y005251D01*
X004491Y005240D01*
X004486Y005218D01*
X004491Y005196D01*
X004503Y005178D01*
X004521Y005166D01*
X004543Y005162D01*
X004564Y005166D01*
X004583Y005178D01*
X004595Y005196D01*
X004599Y005218D01*
X004595Y005240D01*
X004588Y005250D01*
X004583Y005260D01*
X004585Y005304D01*
X004590Y005312D01*
X004597Y005323D01*
X004601Y005345D01*
X004597Y005367D01*
X004590Y005378D01*
X004585Y005386D01*
X004583Y005430D01*
X004588Y005440D01*
X004595Y005450D01*
X004599Y005472D01*
X004595Y005494D01*
X004588Y005504D01*
X004583Y005514D01*
X004585Y005558D01*
X004590Y005566D01*
X004597Y005577D01*
X004601Y005599D01*
X004597Y005621D01*
X004590Y005632D01*
X004585Y005640D01*
X004583Y005684D01*
X004588Y005694D01*
X004595Y005704D01*
X004599Y005726D01*
X004595Y005748D01*
X004588Y005758D01*
X004583Y005768D01*
X004585Y005812D01*
X004590Y005820D01*
X004597Y005831D01*
X004601Y005853D01*
X004597Y005875D01*
X004590Y005886D01*
X004585Y005894D01*
X004583Y005938D01*
X004588Y005948D01*
X004595Y005958D01*
X004599Y005980D01*
X004595Y006002D01*
X004588Y006012D01*
X004583Y006022D01*
X004585Y006066D01*
X004590Y006074D01*
X004597Y006085D01*
X004601Y006107D01*
X004597Y006129D01*
X004585Y006147D01*
X004567Y006159D01*
X004545Y006163D01*
D02*
G37*
G36*
X005410Y006156D02*
X005388Y006152D01*
X005370Y006140D01*
X005357Y006121D01*
X005353Y006100D01*
X005357Y006078D01*
X005364Y006068D01*
X005370Y006057D01*
X005368Y006014D01*
X005363Y006005D01*
X005355Y005994D01*
X005351Y005973D01*
X005355Y005951D01*
X005363Y005940D01*
X005368Y005932D01*
X005370Y005888D01*
X005364Y005878D01*
X005357Y005867D01*
X005353Y005846D01*
X005357Y005824D01*
X005364Y005814D01*
X005370Y005803D01*
X005368Y005760D01*
X005363Y005751D01*
X005355Y005740D01*
X005351Y005719D01*
X005355Y005697D01*
X005363Y005686D01*
X005368Y005678D01*
X005370Y005634D01*
X005364Y005624D01*
X005357Y005613D01*
X005353Y005592D01*
X005357Y005570D01*
X005364Y005560D01*
X005370Y005549D01*
X005368Y005506D01*
X005363Y005497D01*
X005355Y005486D01*
X005351Y005465D01*
X005355Y005443D01*
X005363Y005432D01*
X005368Y005424D01*
X005370Y005380D01*
X005364Y005370D01*
X005357Y005359D01*
X005353Y005338D01*
X005357Y005316D01*
X005364Y005306D01*
X005370Y005295D01*
X005368Y005252D01*
X005363Y005243D01*
X005355Y005232D01*
X005351Y005211D01*
X005355Y005189D01*
X005368Y005171D01*
X005386Y005158D01*
X005408Y005154D01*
X005429Y005158D01*
X005448Y005171D01*
X005460Y005189D01*
X005464Y005211D01*
X005460Y005232D01*
X005453Y005243D01*
X005448Y005253D01*
X005450Y005297D01*
X005454Y005305D01*
X005462Y005316D01*
X005466Y005338D01*
X005462Y005359D01*
X005454Y005370D01*
X005450Y005379D01*
X005448Y005422D01*
X005453Y005433D01*
X005460Y005443D01*
X005464Y005465D01*
X005460Y005486D01*
X005453Y005497D01*
X005448Y005507D01*
X005450Y005551D01*
X005454Y005559D01*
X005462Y005570D01*
X005466Y005592D01*
X005462Y005613D01*
X005454Y005624D01*
X005450Y005633D01*
X005448Y005676D01*
X005453Y005687D01*
X005460Y005697D01*
X005464Y005719D01*
X005460Y005740D01*
X005453Y005751D01*
X005448Y005761D01*
X005450Y005805D01*
X005454Y005813D01*
X005462Y005824D01*
X005466Y005846D01*
X005462Y005867D01*
X005454Y005878D01*
X005450Y005887D01*
X005448Y005930D01*
X005453Y005941D01*
X005460Y005951D01*
X005464Y005973D01*
X005460Y005994D01*
X005453Y006005D01*
X005448Y006015D01*
X005450Y006059D01*
X005454Y006067D01*
X005462Y006078D01*
X005466Y006100D01*
X005462Y006121D01*
X005450Y006140D01*
X005431Y006152D01*
X005410Y006156D01*
D02*
G37*
G36*
X006840Y006266D02*
X006818Y006262D01*
X006800Y006250D01*
X006788Y006232D01*
X006784Y006210D01*
X006786Y006199D01*
X006783Y006177D01*
X006771Y006146D01*
X006763Y006139D01*
X006762Y006139D01*
X006750Y006121D01*
X006746Y006099D01*
X006750Y006077D01*
X006757Y006066D01*
X006762Y006058D01*
X006764Y006014D01*
X006759Y006004D01*
X006752Y005994D01*
X006748Y005972D01*
X006752Y005950D01*
X006759Y005940D01*
X006764Y005930D01*
X006762Y005886D01*
X006757Y005878D01*
X006750Y005867D01*
X006746Y005845D01*
X006750Y005823D01*
X006757Y005812D01*
X006762Y005804D01*
X006764Y005760D01*
X006759Y005750D01*
X006752Y005740D01*
X006748Y005718D01*
X006752Y005696D01*
X006759Y005686D01*
X006764Y005676D01*
X006762Y005632D01*
X006757Y005624D01*
X006750Y005613D01*
X006746Y005591D01*
X006750Y005569D01*
X006757Y005558D01*
X006762Y005550D01*
X006764Y005506D01*
X006759Y005496D01*
X006752Y005486D01*
X006748Y005464D01*
X006752Y005442D01*
X006759Y005432D01*
X006764Y005422D01*
X006762Y005378D01*
X006757Y005370D01*
X006750Y005359D01*
X006746Y005337D01*
X006750Y005315D01*
X006757Y005304D01*
X006762Y005296D01*
X006764Y005252D01*
X006759Y005242D01*
X006752Y005232D01*
X006748Y005210D01*
X006752Y005188D01*
X006764Y005170D01*
X006782Y005158D01*
X006804Y005154D01*
X006826Y005158D01*
X006844Y005170D01*
X006856Y005188D01*
X006861Y005210D01*
X006856Y005232D01*
X006849Y005243D01*
X006844Y005251D01*
X006842Y005295D01*
X006847Y005305D01*
X006854Y005315D01*
X006859Y005337D01*
X006854Y005359D01*
X006847Y005369D01*
X006842Y005379D01*
X006844Y005423D01*
X006849Y005431D01*
X006856Y005442D01*
X006861Y005464D01*
X006856Y005486D01*
X006849Y005497D01*
X006844Y005505D01*
X006842Y005549D01*
X006847Y005559D01*
X006854Y005569D01*
X006859Y005591D01*
X006854Y005613D01*
X006847Y005623D01*
X006842Y005633D01*
X006844Y005677D01*
X006849Y005685D01*
X006856Y005696D01*
X006861Y005718D01*
X006856Y005740D01*
X006849Y005751D01*
X006844Y005759D01*
X006842Y005803D01*
X006847Y005813D01*
X006854Y005823D01*
X006859Y005845D01*
X006854Y005867D01*
X006847Y005877D01*
X006842Y005887D01*
X006844Y005931D01*
X006849Y005939D01*
X006856Y005950D01*
X006861Y005972D01*
X006856Y005994D01*
X006849Y006005D01*
X006844Y006013D01*
X006842Y006057D01*
X006847Y006067D01*
X006852Y006074D01*
X006854Y006077D01*
Y006077D01*
X006859Y006099D01*
X006860Y006133D01*
X006873Y006158D01*
X006882Y006174D01*
X006892Y006188D01*
X006892Y006188D01*
X006893Y006190D01*
X006896Y006210D01*
X006892Y006232D01*
X006880Y006250D01*
X006862Y006262D01*
X006840Y006266D01*
D02*
G37*
G36*
X006395Y006154D02*
X006373Y006150D01*
X006355Y006138D01*
X006342Y006119D01*
X006338Y006098D01*
X006342Y006076D01*
X006350Y006065D01*
X006355Y006056D01*
Y006012D01*
X006350Y006003D01*
X006342Y005992D01*
X006338Y005971D01*
X006342Y005949D01*
X006350Y005938D01*
X006355Y005929D01*
Y005885D01*
X006350Y005876D01*
X006342Y005865D01*
X006338Y005844D01*
X006342Y005822D01*
X006350Y005811D01*
X006355Y005802D01*
Y005758D01*
X006350Y005749D01*
X006342Y005738D01*
X006338Y005717D01*
X006342Y005695D01*
X006350Y005684D01*
X006355Y005675D01*
Y005631D01*
X006350Y005622D01*
X006342Y005611D01*
X006338Y005590D01*
X006342Y005568D01*
X006350Y005557D01*
X006355Y005548D01*
Y005504D01*
X006350Y005495D01*
X006342Y005484D01*
X006338Y005463D01*
X006342Y005441D01*
X006350Y005430D01*
X006355Y005421D01*
Y005377D01*
X006350Y005368D01*
X006342Y005357D01*
X006338Y005336D01*
X006342Y005314D01*
X006350Y005303D01*
X006355Y005294D01*
Y005250D01*
X006350Y005241D01*
X006342Y005230D01*
X006338Y005209D01*
X006342Y005187D01*
X006355Y005169D01*
X006373Y005156D01*
X006395Y005152D01*
X006416Y005156D01*
X006435Y005169D01*
X006447Y005187D01*
X006451Y005209D01*
X006447Y005230D01*
X006440Y005241D01*
X006435Y005250D01*
Y005294D01*
X006440Y005303D01*
X006447Y005314D01*
X006451Y005336D01*
X006447Y005357D01*
X006440Y005368D01*
X006435Y005377D01*
Y005421D01*
X006440Y005430D01*
X006447Y005441D01*
X006451Y005463D01*
X006447Y005484D01*
X006440Y005495D01*
X006435Y005504D01*
Y005548D01*
X006440Y005557D01*
X006447Y005568D01*
X006451Y005590D01*
X006447Y005611D01*
X006440Y005622D01*
X006435Y005631D01*
Y005675D01*
X006440Y005684D01*
X006447Y005695D01*
X006451Y005717D01*
X006447Y005738D01*
X006440Y005749D01*
X006435Y005758D01*
Y005802D01*
X006440Y005811D01*
X006447Y005822D01*
X006451Y005844D01*
X006447Y005865D01*
X006440Y005876D01*
X006435Y005885D01*
Y005929D01*
X006440Y005938D01*
X006447Y005949D01*
X006451Y005971D01*
X006447Y005992D01*
X006440Y006003D01*
X006435Y006012D01*
Y006056D01*
X006440Y006065D01*
X006447Y006076D01*
X006451Y006098D01*
X006447Y006119D01*
X006435Y006138D01*
X006416Y006150D01*
X006395Y006154D01*
D02*
G37*
G36*
X006000Y006156D02*
X005978Y006152D01*
X005960Y006140D01*
X005948Y006122D01*
X005944Y006100D01*
X005948Y006078D01*
X005958Y006064D01*
X005960Y006059D01*
Y006010D01*
X005958Y006005D01*
X005948Y005990D01*
X005944Y005969D01*
X005948Y005947D01*
X005955Y005936D01*
X005960Y005927D01*
Y005883D01*
X005955Y005874D01*
X005948Y005863D01*
X005944Y005842D01*
X005948Y005820D01*
X005955Y005809D01*
X005960Y005800D01*
Y005756D01*
X005955Y005747D01*
X005948Y005736D01*
X005944Y005715D01*
X005948Y005693D01*
X005955Y005682D01*
X005960Y005673D01*
Y005629D01*
X005955Y005620D01*
X005948Y005609D01*
X005944Y005588D01*
X005948Y005566D01*
X005955Y005555D01*
X005960Y005546D01*
Y005502D01*
X005955Y005493D01*
X005948Y005482D01*
X005944Y005461D01*
X005948Y005439D01*
X005955Y005428D01*
X005960Y005419D01*
Y005375D01*
X005955Y005366D01*
X005948Y005355D01*
X005944Y005334D01*
X005948Y005312D01*
X005955Y005301D01*
X005960Y005292D01*
Y005248D01*
X005955Y005239D01*
X005948Y005228D01*
X005944Y005207D01*
X005948Y005185D01*
X005960Y005167D01*
X005978Y005154D01*
X006000Y005150D01*
X006022Y005154D01*
X006040Y005167D01*
X006052Y005185D01*
X006056Y005207D01*
X006052Y005228D01*
X006045Y005239D01*
X006040Y005248D01*
Y005292D01*
X006045Y005301D01*
X006052Y005312D01*
X006056Y005334D01*
X006052Y005355D01*
X006045Y005366D01*
X006040Y005375D01*
Y005419D01*
X006045Y005428D01*
X006052Y005439D01*
X006056Y005461D01*
X006052Y005482D01*
X006045Y005493D01*
X006040Y005502D01*
Y005546D01*
X006045Y005555D01*
X006052Y005566D01*
X006056Y005588D01*
X006052Y005609D01*
X006045Y005620D01*
X006040Y005629D01*
Y005673D01*
X006045Y005682D01*
X006052Y005693D01*
X006056Y005715D01*
X006052Y005736D01*
X006045Y005747D01*
X006040Y005756D01*
Y005800D01*
X006045Y005809D01*
X006052Y005820D01*
X006056Y005842D01*
X006052Y005863D01*
X006045Y005874D01*
X006040Y005883D01*
Y005927D01*
X006045Y005936D01*
X006052Y005947D01*
X006056Y005969D01*
X006052Y005990D01*
X006042Y006005D01*
X006040Y006010D01*
Y006059D01*
X006042Y006064D01*
X006052Y006078D01*
X006056Y006100D01*
X006052Y006122D01*
X006040Y006140D01*
X006022Y006152D01*
X006000Y006156D01*
D02*
G37*
G36*
X014353Y005043D02*
X014331Y005040D01*
X014310Y005032D01*
X014292Y005018D01*
X014278Y005000D01*
X014270Y004979D01*
X014267Y004959D01*
X014266Y004956D01*
X014266Y004954D01*
X014229Y004917D01*
X014227Y004917D01*
X014224Y004916D01*
X014204Y004913D01*
X014183Y004905D01*
X014165Y004891D01*
X014151Y004873D01*
X014143Y004852D01*
X014140Y004830D01*
X014143Y004808D01*
X014151Y004787D01*
X014165Y004769D01*
X014183Y004755D01*
X014204Y004747D01*
X014226Y004744D01*
X014248Y004747D01*
X014269Y004755D01*
X014287Y004769D01*
X014301Y004787D01*
X014309Y004808D01*
X014310Y004813D01*
X014361Y004821D01*
X014406Y004777D01*
X014469Y004841D01*
X014533Y004904D01*
X014488Y004949D01*
X014480Y004957D01*
X014436Y004979D01*
X014428Y005000D01*
X014414Y005018D01*
X014396Y005032D01*
X014375Y005040D01*
X014353Y005043D01*
D02*
G37*
G36*
X014554Y004883D02*
X014501Y004830D01*
X014554Y004777D01*
X014607Y004830D01*
X014554Y004883D01*
D02*
G37*
G36*
X014480Y004809D02*
X014427Y004756D01*
X014480Y004703D01*
X014533Y004756D01*
X014480Y004809D01*
D02*
G37*
G36*
X014551Y004226D02*
X014498Y004173D01*
X014551Y004120D01*
X014604Y004173D01*
X014551Y004226D01*
D02*
G37*
G36*
X014350Y004386D02*
X014328Y004383D01*
X014307Y004375D01*
X014289Y004361D01*
X014275Y004343D01*
X014267Y004322D01*
X014264Y004302D01*
X014263Y004299D01*
X014263Y004297D01*
X014226Y004260D01*
X014224Y004260D01*
X014221Y004259D01*
X014201Y004256D01*
X014180Y004248D01*
X014162Y004234D01*
X014148Y004216D01*
X014140Y004195D01*
X014137Y004173D01*
X014140Y004151D01*
X014148Y004130D01*
X014162Y004112D01*
X014180Y004098D01*
X014201Y004090D01*
X014223Y004087D01*
X014245Y004090D01*
X014266Y004098D01*
X014284Y004112D01*
X014298Y004130D01*
X014306Y004151D01*
X014307Y004156D01*
X014358Y004164D01*
X014403Y004120D01*
X014466Y004184D01*
X014530Y004247D01*
X014485Y004292D01*
X014477Y004300D01*
X014433Y004322D01*
X014425Y004343D01*
X014411Y004361D01*
X014393Y004375D01*
X014372Y004383D01*
X014350Y004386D01*
D02*
G37*
G36*
X014477Y004152D02*
X014424Y004099D01*
X014477Y004046D01*
X014530Y004099D01*
X014477Y004152D01*
D02*
G37*
G36*
X003090Y003924D02*
Y003835D01*
X003179D01*
X003177Y003847D01*
X003167Y003873D01*
X003150Y003895D01*
X003128Y003912D01*
X003102Y003922D01*
X003090Y003924D01*
D02*
G37*
G36*
X003060D02*
X003048Y003922D01*
X003022Y003912D01*
X003000Y003895D01*
X002983Y003873D01*
X002973Y003847D01*
X002971Y003835D01*
X003060D01*
Y003924D01*
D02*
G37*
G36*
X003179Y003805D02*
X003090D01*
Y003716D01*
X003102Y003718D01*
X003128Y003728D01*
X003150Y003745D01*
X003167Y003767D01*
X003177Y003793D01*
X003179Y003805D01*
D02*
G37*
G36*
X003060D02*
X002971D01*
X002973Y003793D01*
X002983Y003767D01*
X003000Y003745D01*
X003022Y003728D01*
X003048Y003718D01*
X003060Y003716D01*
Y003805D01*
D02*
G37*
G36*
X014418Y003716D02*
Y003628D01*
X014506D01*
X014505Y003640D01*
X014494Y003665D01*
X014477Y003687D01*
X014455Y003704D01*
X014430Y003715D01*
X014418Y003716D01*
D02*
G37*
G36*
X014388D02*
X014375Y003715D01*
X014350Y003704D01*
X014328Y003687D01*
X014311Y003665D01*
X014300Y003640D01*
X014299Y003628D01*
X014388D01*
Y003716D01*
D02*
G37*
G36*
X010805Y003638D02*
Y003595D01*
X010848D01*
X010847Y003603D01*
X010833Y003623D01*
X010813Y003637D01*
X010805Y003638D01*
D02*
G37*
G36*
X010775D02*
X010767Y003637D01*
X010747Y003623D01*
X010733Y003603D01*
X010732Y003595D01*
X010775D01*
Y003638D01*
D02*
G37*
G36*
X006840Y003696D02*
X006818Y003692D01*
X006800Y003680D01*
X006788Y003662D01*
X006784Y003640D01*
X006788Y003618D01*
X006800Y003600D01*
X006818Y003588D01*
X006840Y003584D01*
X006862Y003588D01*
X006880Y003600D01*
X006892Y003618D01*
X006896Y003640D01*
X006892Y003662D01*
X006880Y003680D01*
X006862Y003692D01*
X006840Y003696D01*
D02*
G37*
G36*
X010848Y003565D02*
X010805D01*
Y003522D01*
X010813Y003523D01*
X010833Y003537D01*
X010847Y003557D01*
X010848Y003565D01*
D02*
G37*
G36*
X010775D02*
X010732D01*
X010733Y003557D01*
X010747Y003537D01*
X010767Y003523D01*
X010775Y003522D01*
Y003565D01*
D02*
G37*
G36*
X010264Y003717D02*
X010238Y003713D01*
X010213Y003703D01*
X010192Y003687D01*
X010176Y003666D01*
X010166Y003642D01*
X010163Y003615D01*
X010166Y003589D01*
X010176Y003565D01*
X010192Y003544D01*
X010213Y003528D01*
X010238Y003518D01*
X010264Y003514D01*
X010290Y003518D01*
X010315Y003528D01*
X010336Y003544D01*
X010352Y003565D01*
X010362Y003589D01*
X010365Y003615D01*
X010362Y003642D01*
X010352Y003666D01*
X010336Y003687D01*
X010315Y003703D01*
X010290Y003713D01*
X010264Y003717D01*
D02*
G37*
G36*
X006444D02*
X006418Y003713D01*
X006393Y003703D01*
X006372Y003687D01*
X006356Y003666D01*
X006346Y003642D01*
X006343Y003615D01*
X006346Y003589D01*
X006356Y003565D01*
X006372Y003544D01*
X006393Y003528D01*
X006418Y003518D01*
X006444Y003514D01*
X006470Y003518D01*
X006495Y003528D01*
X006516Y003544D01*
X006532Y003565D01*
X006542Y003589D01*
X006545Y003615D01*
X006542Y003642D01*
X006532Y003666D01*
X006516Y003687D01*
X006495Y003703D01*
X006470Y003713D01*
X006444Y003717D01*
D02*
G37*
G36*
X014074Y003717D02*
X014048Y003713D01*
X014023Y003703D01*
X014002Y003687D01*
X013986Y003666D01*
X013976Y003642D01*
X013973Y003615D01*
X013976Y003589D01*
X013986Y003565D01*
X014002Y003544D01*
X014023Y003528D01*
X014048Y003518D01*
X014074Y003514D01*
X014100Y003518D01*
X014125Y003528D01*
X014146Y003544D01*
X014162Y003565D01*
X014172Y003589D01*
X014175Y003615D01*
X014172Y003642D01*
X014162Y003666D01*
X014146Y003687D01*
X014125Y003703D01*
X014100Y003713D01*
X014074Y003717D01*
D02*
G37*
G36*
X014506Y003597D02*
X014418D01*
Y003509D01*
X014430Y003510D01*
X014455Y003521D01*
X014477Y003538D01*
X014494Y003560D01*
X014505Y003585D01*
X014506Y003597D01*
D02*
G37*
G36*
X014388D02*
X014299D01*
X014300Y003585D01*
X014311Y003560D01*
X014328Y003538D01*
X014350Y003521D01*
X014375Y003510D01*
X014388Y003509D01*
Y003597D01*
D02*
G37*
G36*
X008740Y003717D02*
X008714Y003713D01*
X008689Y003703D01*
X008668Y003687D01*
X008652Y003666D01*
X008642Y003642D01*
X008639Y003615D01*
X008642Y003589D01*
X008652Y003565D01*
X008663Y003551D01*
X008668Y003543D01*
Y003497D01*
X008663Y003489D01*
X008652Y003476D01*
X008642Y003451D01*
X008639Y003425D01*
X008642Y003399D01*
X008652Y003374D01*
X008668Y003353D01*
X008689Y003337D01*
X008714Y003327D01*
X008740Y003324D01*
X008766Y003327D01*
X008791Y003337D01*
X008812Y003353D01*
X008828Y003374D01*
X008838Y003399D01*
X008841Y003425D01*
X008838Y003451D01*
X008828Y003476D01*
X008817Y003489D01*
X008812Y003497D01*
Y003543D01*
X008817Y003551D01*
X008828Y003565D01*
X008838Y003589D01*
X008841Y003615D01*
X008838Y003642D01*
X008828Y003666D01*
X008812Y003687D01*
X008791Y003703D01*
X008766Y003713D01*
X008740Y003717D01*
D02*
G37*
G36*
X007216Y003526D02*
X007190Y003523D01*
X007165Y003513D01*
X007144Y003497D01*
X007128Y003476D01*
X007118Y003451D01*
X007115Y003425D01*
X007118Y003399D01*
X007128Y003374D01*
X007144Y003353D01*
X007165Y003337D01*
X007190Y003327D01*
X007216Y003324D01*
X007242Y003327D01*
X007267Y003337D01*
X007288Y003353D01*
X007304Y003374D01*
X007314Y003399D01*
X007317Y003425D01*
X007314Y003451D01*
X007304Y003476D01*
X007288Y003497D01*
X007267Y003513D01*
X007242Y003523D01*
X007216Y003526D01*
D02*
G37*
G36*
X004924Y003717D02*
X004898Y003713D01*
X004873Y003703D01*
X004852Y003687D01*
X004836Y003666D01*
X004826Y003642D01*
X004823Y003615D01*
X004826Y003589D01*
X004836Y003565D01*
X004845Y003554D01*
X004852Y003541D01*
X004848Y003497D01*
X004832Y003476D01*
X004822Y003451D01*
X004819Y003425D01*
X004822Y003399D01*
X004832Y003374D01*
X004848Y003353D01*
X004869Y003337D01*
X004894Y003327D01*
X004920Y003324D01*
X004946Y003327D01*
X004971Y003337D01*
X004992Y003353D01*
X005008Y003374D01*
X005018Y003399D01*
X005021Y003425D01*
X005018Y003451D01*
X005008Y003476D01*
X004999Y003487D01*
X004992Y003499D01*
X004996Y003544D01*
X005012Y003565D01*
X005022Y003589D01*
X005025Y003615D01*
X005022Y003642D01*
X005012Y003666D01*
X004996Y003687D01*
X004975Y003703D01*
X004950Y003713D01*
X004924Y003717D01*
D02*
G37*
G36*
X003400Y003526D02*
X003374Y003523D01*
X003349Y003513D01*
X003328Y003497D01*
X003312Y003476D01*
X003302Y003451D01*
X003299Y003425D01*
X003302Y003399D01*
X003312Y003374D01*
X003328Y003353D01*
X003349Y003337D01*
X003374Y003327D01*
X003400Y003324D01*
X003426Y003327D01*
X003451Y003337D01*
X003472Y003353D01*
X003488Y003374D01*
X003498Y003399D01*
X003501Y003425D01*
X003498Y003451D01*
X003488Y003476D01*
X003472Y003497D01*
X003451Y003513D01*
X003426Y003523D01*
X003400Y003526D01*
D02*
G37*
G36*
X012549Y003717D02*
X012523Y003713D01*
X012498Y003703D01*
X012477Y003687D01*
X012461Y003666D01*
X012451Y003642D01*
X012448Y003615D01*
X012451Y003589D01*
X012461Y003565D01*
X012472Y003551D01*
X012477Y003543D01*
X012478Y003498D01*
X012472Y003489D01*
X012462Y003476D01*
X012452Y003451D01*
X012449Y003425D01*
X012452Y003399D01*
X012462Y003374D01*
X012478Y003353D01*
X012499Y003337D01*
X012524Y003327D01*
X012550Y003324D01*
X012576Y003327D01*
X012601Y003337D01*
X012622Y003353D01*
X012638Y003374D01*
X012648Y003399D01*
X012651Y003425D01*
X012648Y003451D01*
X012638Y003476D01*
X012627Y003490D01*
X012622Y003497D01*
X012621Y003543D01*
X012627Y003552D01*
X012637Y003565D01*
X012647Y003589D01*
X012650Y003615D01*
X012647Y003642D01*
X012637Y003666D01*
X012621Y003687D01*
X012600Y003703D01*
X012575Y003713D01*
X012549Y003717D01*
D02*
G37*
G36*
X011025Y003526D02*
X010999Y003523D01*
X010974Y003513D01*
X010953Y003497D01*
X010937Y003476D01*
X010927Y003451D01*
X010924Y003425D01*
X010927Y003399D01*
X010937Y003374D01*
X010953Y003353D01*
X010974Y003337D01*
X010999Y003327D01*
X011025Y003324D01*
X011051Y003327D01*
X011076Y003337D01*
X011097Y003353D01*
X011113Y003374D01*
X011123Y003399D01*
X011126Y003425D01*
X011123Y003451D01*
X011113Y003476D01*
X011097Y003497D01*
X011076Y003513D01*
X011051Y003523D01*
X011025Y003526D01*
D02*
G37*
G36*
X006840Y003396D02*
X006818Y003392D01*
X006800Y003380D01*
X006788Y003362D01*
X006784Y003340D01*
X006788Y003318D01*
X006800Y003300D01*
X006818Y003288D01*
X006840Y003284D01*
X006862Y003288D01*
X006880Y003300D01*
X006892Y003318D01*
X006896Y003340D01*
X006892Y003362D01*
X006880Y003380D01*
X006862Y003392D01*
X006840Y003396D01*
D02*
G37*
G36*
X012550Y003046D02*
X012528Y003042D01*
X012510Y003030D01*
X012498Y003012D01*
X012494Y002990D01*
X012498Y002968D01*
X012510Y002950D01*
X012528Y002938D01*
X012550Y002934D01*
X012572Y002938D01*
X012590Y002950D01*
X012602Y002968D01*
X012606Y002990D01*
X012602Y003012D01*
X012590Y003030D01*
X012572Y003042D01*
X012550Y003046D01*
D02*
G37*
%LPD*%
G36*
X010470Y009853D02*
X010458Y009837D01*
X010449Y009816D01*
X010447Y009815D01*
X010436Y009816D01*
X010426Y009840D01*
X010410Y009860D01*
X010390Y009876D01*
X010366Y009886D01*
X010355Y009887D01*
Y009790D01*
X010325D01*
Y009887D01*
X010314Y009886D01*
X010290Y009876D01*
X010270Y009860D01*
X010254Y009840D01*
X010247Y009823D01*
X010233D01*
X010226Y009840D01*
X010210Y009860D01*
X010190Y009876D01*
X010166Y009886D01*
X010155Y009887D01*
Y009790D01*
X010125D01*
Y009887D01*
X010114Y009886D01*
X010090Y009876D01*
X010070Y009860D01*
X010054Y009840D01*
X010044Y009816D01*
X010033Y009815D01*
X010031Y009816D01*
X010022Y009837D01*
X010007Y009857D01*
X009987Y009872D01*
X009965Y009882D01*
X009940Y009885D01*
X009915Y009882D01*
X009893Y009872D01*
X009873Y009857D01*
X009858Y009837D01*
X009848Y009815D01*
X009845Y009790D01*
X009848Y009765D01*
X009858Y009743D01*
X009873Y009723D01*
X009893Y009708D01*
X009915Y009698D01*
X009929Y009697D01*
X009928Y009684D01*
X009846D01*
Y009496D01*
X010034D01*
Y009555D01*
X010047Y009558D01*
X010054Y009540D01*
X010070Y009520D01*
X010090Y009504D01*
X010114Y009494D01*
X010125Y009493D01*
Y009590D01*
X010155D01*
Y009493D01*
X010166Y009494D01*
X010190Y009504D01*
X010210Y009520D01*
X010226Y009540D01*
X010233Y009557D01*
X010247D01*
X010254Y009540D01*
X010270Y009520D01*
X010290Y009504D01*
X010314Y009494D01*
X010325Y009493D01*
Y009590D01*
X010355D01*
Y009493D01*
X010366Y009494D01*
X010390Y009504D01*
X010410Y009520D01*
X010426Y009540D01*
X010436Y009564D01*
X010447Y009565D01*
X010449Y009564D01*
X010458Y009543D01*
X010470Y009527D01*
Y009020D01*
X010260Y008810D01*
Y007230D01*
X010090Y007060D01*
X009870D01*
X009710Y007220D01*
Y007590D01*
X009890Y007770D01*
Y008810D01*
X009890Y009311D01*
X009710Y009451D01*
X009710Y009940D01*
X009744D01*
X009748Y009935D01*
X009766Y009923D01*
X009788Y009919D01*
X009809Y009923D01*
X009827Y009935D01*
X009831Y009940D01*
X010470Y009940D01*
Y009853D01*
D02*
G37*
%LPC*%
G36*
X010150Y008746D02*
X010128Y008742D01*
X010110Y008730D01*
X010098Y008712D01*
X010094Y008690D01*
X010098Y008668D01*
X010110Y008650D01*
X010128Y008638D01*
X010150Y008634D01*
X010172Y008638D01*
X010190Y008650D01*
X010202Y008668D01*
X010206Y008690D01*
X010202Y008712D01*
X010190Y008730D01*
X010172Y008742D01*
X010150Y008746D01*
D02*
G37*
G36*
X009848Y007511D02*
Y007467D01*
X009891D01*
X009889Y007476D01*
X009876Y007496D01*
X009856Y007509D01*
X009848Y007511D01*
D02*
G37*
G36*
X009818D02*
X009810Y007509D01*
X009790Y007496D01*
X009776Y007476D01*
X009775Y007467D01*
X009818D01*
Y007511D01*
D02*
G37*
G36*
Y007437D02*
X009775D01*
X009776Y007429D01*
X009790Y007409D01*
X009810Y007396D01*
X009818Y007394D01*
Y007437D01*
D02*
G37*
G36*
X009955Y007434D02*
Y007360D01*
X010029D01*
X010028Y007369D01*
X010018Y007391D01*
X010004Y007410D01*
X009985Y007424D01*
X009963Y007433D01*
X009955Y007434D01*
D02*
G37*
G36*
X009891Y007437D02*
X009848D01*
Y007394D01*
X009849Y007394D01*
X009858Y007383D01*
X009852Y007369D01*
X009851Y007360D01*
X009925D01*
Y007434D01*
X009916Y007433D01*
X009902Y007427D01*
X009891Y007436D01*
X009891Y007437D01*
D02*
G37*
G36*
X009821Y007308D02*
X009813Y007307D01*
X009793Y007293D01*
X009780Y007273D01*
X009778Y007265D01*
X009821D01*
Y007308D01*
D02*
G37*
G36*
X010029Y007330D02*
X009955D01*
Y007257D01*
X009963Y007258D01*
X009985Y007267D01*
X010004Y007281D01*
X010018Y007300D01*
X010028Y007322D01*
X010029Y007330D01*
D02*
G37*
G36*
X009925D02*
X009851D01*
X009852Y007322D01*
X009853Y007319D01*
X009851Y007317D01*
Y007250D01*
Y007192D01*
X009860Y007193D01*
X009879Y007207D01*
X009893Y007227D01*
X009897Y007250D01*
X009897Y007252D01*
X009908Y007261D01*
X009916Y007258D01*
X009925Y007257D01*
Y007330D01*
D02*
G37*
G36*
X009821Y007235D02*
X009778D01*
X009780Y007227D01*
X009793Y007207D01*
X009813Y007193D01*
X009821Y007192D01*
Y007235D01*
D02*
G37*
G36*
X005665Y008758D02*
X005657Y008757D01*
X005645Y008749D01*
X005635Y008744D01*
X005625Y008749D01*
X005613Y008757D01*
X005605Y008758D01*
Y008700D01*
Y008642D01*
X005613Y008643D01*
X005625Y008651D01*
X005635Y008656D01*
X005645Y008651D01*
X005657Y008643D01*
X005665Y008642D01*
Y008700D01*
Y008758D01*
D02*
G37*
G36*
X005755D02*
X005747Y008757D01*
X005735Y008749D01*
X005725Y008744D01*
X005715Y008749D01*
X005703Y008757D01*
X005695Y008758D01*
Y008700D01*
Y008642D01*
X005703Y008643D01*
X005715Y008651D01*
X005725Y008656D01*
X005735Y008651D01*
X005747Y008643D01*
X005755Y008642D01*
Y008700D01*
Y008758D01*
D02*
G37*
G36*
X005785D02*
Y008715D01*
X005828D01*
X005827Y008723D01*
X005813Y008743D01*
X005793Y008757D01*
X005785Y008758D01*
D02*
G37*
G36*
X005575D02*
X005567Y008757D01*
X005547Y008743D01*
X005533Y008723D01*
X005532Y008715D01*
X005575D01*
Y008758D01*
D02*
G37*
G36*
X005828Y008685D02*
X005785D01*
Y008642D01*
X005793Y008643D01*
X005813Y008657D01*
X005827Y008677D01*
X005828Y008685D01*
D02*
G37*
G36*
X005575D02*
X005532D01*
X005533Y008677D01*
X005547Y008657D01*
X005567Y008643D01*
X005575Y008642D01*
Y008685D01*
D02*
G37*
G36*
X005871Y004806D02*
X005850Y004802D01*
X005831Y004790D01*
X005819Y004772D01*
X005816Y004757D01*
X005816Y004755D01*
X005803D01*
X005803Y004757D01*
X005800Y004772D01*
X005787Y004790D01*
X005769Y004802D01*
X005747Y004806D01*
X005726Y004802D01*
X005708Y004790D01*
X005695Y004772D01*
X005691Y004750D01*
X005695Y004728D01*
X005708Y004710D01*
X005726Y004698D01*
X005747Y004694D01*
X005769Y004698D01*
X005787Y004710D01*
X005800Y004728D01*
X005803Y004743D01*
X005803Y004745D01*
X005816D01*
X005816Y004743D01*
X005819Y004728D01*
X005831Y004710D01*
X005850Y004698D01*
X005871Y004694D01*
X005893Y004698D01*
X005911Y004710D01*
X005923Y004728D01*
X005928Y004750D01*
X005923Y004772D01*
X005911Y004790D01*
X005893Y004802D01*
X005871Y004806D01*
D02*
G37*
G36*
X005621D02*
X005600Y004802D01*
X005581Y004790D01*
X005569Y004772D01*
X005566Y004757D01*
X005566Y004755D01*
X005553D01*
X005553Y004757D01*
X005550Y004772D01*
X005537Y004790D01*
X005519Y004802D01*
X005497Y004806D01*
X005476Y004802D01*
X005458Y004790D01*
X005445Y004772D01*
X005441Y004750D01*
X005445Y004728D01*
X005458Y004710D01*
X005476Y004698D01*
X005497Y004694D01*
X005519Y004698D01*
X005537Y004710D01*
X005550Y004728D01*
X005553Y004743D01*
X005553Y004745D01*
X005566D01*
X005566Y004743D01*
X005569Y004728D01*
X005581Y004710D01*
X005600Y004698D01*
X005621Y004694D01*
X005643Y004698D01*
X005661Y004710D01*
X005673Y004728D01*
X005678Y004750D01*
X005673Y004772D01*
X005661Y004790D01*
X005643Y004802D01*
X005621Y004806D01*
D02*
G37*
G36*
X004351D02*
X004330Y004802D01*
X004311Y004790D01*
X004299Y004772D01*
X004296Y004757D01*
X004296Y004755D01*
X004283D01*
X004283Y004757D01*
X004280Y004772D01*
X004267Y004790D01*
X004249Y004802D01*
X004228Y004806D01*
X004206Y004802D01*
X004188Y004790D01*
X004175Y004772D01*
X004171Y004750D01*
X004175Y004728D01*
X004188Y004710D01*
X004206Y004698D01*
X004228Y004694D01*
X004249Y004698D01*
X004267Y004710D01*
X004280Y004728D01*
X004283Y004743D01*
X004283Y004745D01*
X004296D01*
X004296Y004743D01*
X004299Y004728D01*
X004311Y004710D01*
X004330Y004698D01*
X004351Y004694D01*
X004373Y004698D01*
X004391Y004710D01*
X004403Y004728D01*
X004408Y004750D01*
X004403Y004772D01*
X004391Y004790D01*
X004373Y004802D01*
X004351Y004806D01*
D02*
G37*
G36*
X004101D02*
X004080Y004802D01*
X004061Y004790D01*
X004049Y004772D01*
X004046Y004757D01*
X004046Y004755D01*
X004033D01*
X004033Y004757D01*
X004030Y004772D01*
X004017Y004790D01*
X003999Y004802D01*
X003978Y004806D01*
X003956Y004802D01*
X003938Y004790D01*
X003925Y004772D01*
X003921Y004750D01*
X003925Y004728D01*
X003938Y004710D01*
X003956Y004698D01*
X003978Y004694D01*
X003999Y004698D01*
X004017Y004710D01*
X004030Y004728D01*
X004033Y004743D01*
X004033Y004745D01*
X004046D01*
X004046Y004743D01*
X004049Y004728D01*
X004061Y004710D01*
X004080Y004698D01*
X004101Y004694D01*
X004123Y004698D01*
X004141Y004710D01*
X004153Y004728D01*
X004158Y004750D01*
X004153Y004772D01*
X004141Y004790D01*
X004123Y004802D01*
X004101Y004806D01*
D02*
G37*
G36*
X006012Y004758D02*
Y004715D01*
X006056D01*
X006054Y004723D01*
X006041Y004743D01*
X006021Y004757D01*
X006012Y004758D01*
D02*
G37*
G36*
X005983D02*
X005974Y004757D01*
X005954Y004743D01*
X005941Y004723D01*
X005939Y004715D01*
X005983D01*
Y004758D01*
D02*
G37*
G36*
X004492D02*
Y004715D01*
X004536D01*
X004534Y004723D01*
X004521Y004743D01*
X004501Y004757D01*
X004492Y004758D01*
D02*
G37*
G36*
X004462D02*
X004454Y004757D01*
X004434Y004743D01*
X004421Y004723D01*
X004419Y004715D01*
X004462D01*
Y004758D01*
D02*
G37*
G36*
X005386Y004757D02*
Y004714D01*
X005429D01*
X005428Y004722D01*
X005415Y004742D01*
X005395Y004755D01*
X005386Y004757D01*
D02*
G37*
G36*
X005356D02*
X005348Y004755D01*
X005328Y004742D01*
X005315Y004722D01*
X005313Y004714D01*
X005356D01*
Y004757D01*
D02*
G37*
G36*
X003866D02*
Y004714D01*
X003909D01*
X003908Y004722D01*
X003895Y004742D01*
X003875Y004755D01*
X003866Y004757D01*
D02*
G37*
G36*
X003836D02*
X003828Y004755D01*
X003808Y004742D01*
X003795Y004722D01*
X003793Y004714D01*
X003836D01*
Y004757D01*
D02*
G37*
G36*
X006056Y004685D02*
X006012D01*
Y004642D01*
X006021Y004643D01*
X006041Y004657D01*
X006054Y004677D01*
X006056Y004685D01*
D02*
G37*
G36*
X005983D02*
X005939D01*
X005941Y004677D01*
X005954Y004657D01*
X005974Y004643D01*
X005983Y004642D01*
Y004685D01*
D02*
G37*
G36*
X004536D02*
X004492D01*
Y004642D01*
X004501Y004643D01*
X004521Y004657D01*
X004534Y004677D01*
X004536Y004685D01*
D02*
G37*
G36*
X004462D02*
X004419D01*
X004421Y004677D01*
X004434Y004657D01*
X004454Y004643D01*
X004462Y004642D01*
Y004685D01*
D02*
G37*
G36*
X005429Y004684D02*
X005386D01*
Y004641D01*
X005395Y004642D01*
X005415Y004655D01*
X005428Y004675D01*
X005429Y004684D01*
D02*
G37*
G36*
X005356D02*
X005313D01*
X005315Y004675D01*
X005328Y004655D01*
X005348Y004642D01*
X005356Y004641D01*
Y004684D01*
D02*
G37*
G36*
X003909D02*
X003866D01*
Y004641D01*
X003875Y004642D01*
X003895Y004655D01*
X003908Y004675D01*
X003909Y004684D01*
D02*
G37*
G36*
X003836D02*
X003793D01*
X003795Y004675D01*
X003808Y004655D01*
X003828Y004642D01*
X003836Y004641D01*
Y004684D01*
D02*
G37*
G36*
X008875Y005578D02*
Y005535D01*
X008918D01*
X008917Y005543D01*
X008903Y005563D01*
X008883Y005577D01*
X008875Y005578D01*
D02*
G37*
G36*
X008845D02*
X008837Y005577D01*
X008817Y005563D01*
X008803Y005543D01*
X008802Y005535D01*
X008845D01*
Y005578D01*
D02*
G37*
G36*
X008918Y005505D02*
X008875D01*
Y005462D01*
X008883Y005463D01*
X008903Y005477D01*
X008917Y005497D01*
X008918Y005505D01*
D02*
G37*
G36*
X008845D02*
X008802D01*
X008803Y005497D01*
X008817Y005477D01*
X008837Y005463D01*
X008845Y005462D01*
Y005505D01*
D02*
G37*
G36*
X008470Y005626D02*
X008448Y005622D01*
X008430Y005610D01*
X008418Y005592D01*
X008414Y005570D01*
X008418Y005548D01*
X008430Y005530D01*
Y005500D01*
X008418Y005482D01*
X008414Y005460D01*
X008418Y005438D01*
X008430Y005420D01*
Y005390D01*
X008418Y005372D01*
X008414Y005350D01*
X008418Y005328D01*
X008430Y005310D01*
X008448Y005298D01*
X008470Y005294D01*
X008492Y005298D01*
X008510Y005310D01*
X008522Y005328D01*
X008526Y005350D01*
X008522Y005372D01*
X008510Y005390D01*
Y005420D01*
X008522Y005438D01*
X008526Y005460D01*
X008522Y005482D01*
X008510Y005500D01*
Y005530D01*
X008522Y005548D01*
X008526Y005570D01*
X008522Y005592D01*
X008510Y005610D01*
X008492Y005622D01*
X008470Y005626D01*
D02*
G37*
G36*
X007075Y007689D02*
Y007615D01*
X007149D01*
X007148Y007623D01*
X007139Y007645D01*
X007124Y007664D01*
X007105Y007679D01*
X007083Y007688D01*
X007075Y007689D01*
D02*
G37*
G36*
X007045D02*
X007037Y007688D01*
X007015Y007679D01*
X006996Y007664D01*
X006981Y007645D01*
X006972Y007623D01*
X006971Y007615D01*
X007045D01*
Y007689D01*
D02*
G37*
G36*
X008420Y007686D02*
X008398Y007683D01*
X008377Y007675D01*
X008359Y007661D01*
X008345Y007643D01*
X008337Y007622D01*
X008334Y007600D01*
X008337Y007578D01*
X008345Y007557D01*
X008359Y007539D01*
X008377Y007525D01*
X008398Y007517D01*
X008420Y007514D01*
X008442Y007517D01*
X008463Y007525D01*
X008481Y007539D01*
X008495Y007557D01*
X008503Y007578D01*
X008506Y007600D01*
X008503Y007622D01*
X008495Y007643D01*
X008481Y007661D01*
X008463Y007675D01*
X008442Y007683D01*
X008420Y007686D01*
D02*
G37*
G36*
X007149Y007585D02*
X007075D01*
Y007511D01*
X007083Y007512D01*
X007105Y007521D01*
X007124Y007536D01*
X007139Y007555D01*
X007148Y007577D01*
X007149Y007585D01*
D02*
G37*
G36*
X007045D02*
X006971D01*
X006972Y007577D01*
X006981Y007555D01*
X006996Y007536D01*
X007015Y007521D01*
X007037Y007512D01*
X007045Y007511D01*
Y007585D01*
D02*
G37*
G36*
X009362Y007511D02*
Y007467D01*
X009405D01*
X009403Y007476D01*
X009390Y007496D01*
X009370Y007509D01*
X009362Y007511D01*
D02*
G37*
G36*
X009332D02*
X009323Y007509D01*
X009303Y007496D01*
X009290Y007476D01*
X009289Y007467D01*
X009332D01*
Y007511D01*
D02*
G37*
G36*
Y007437D02*
X009289D01*
X009290Y007429D01*
X009291Y007428D01*
X009282Y007419D01*
X009281Y007420D01*
X009259Y007429D01*
X009250Y007430D01*
Y007356D01*
X009324D01*
X009323Y007365D01*
X009314Y007386D01*
X009313Y007387D01*
X009322Y007397D01*
X009323Y007396D01*
X009332Y007394D01*
Y007437D01*
D02*
G37*
G36*
X009405D02*
X009362D01*
Y007394D01*
X009370Y007396D01*
X009390Y007409D01*
X009403Y007429D01*
X009405Y007437D01*
D02*
G37*
G36*
X009220Y007430D02*
X009212Y007429D01*
X009190Y007420D01*
X009171Y007405D01*
X009157Y007386D01*
X009148Y007365D01*
X009147Y007356D01*
X009220D01*
Y007430D01*
D02*
G37*
G36*
X009365Y007298D02*
Y007255D01*
X009408D01*
X009407Y007263D01*
X009393Y007283D01*
X009373Y007297D01*
X009365Y007298D01*
D02*
G37*
G36*
X009324Y007326D02*
X009250D01*
Y007252D01*
X009259Y007253D01*
X009280Y007262D01*
X009282Y007262D01*
X009292Y007255D01*
X009335D01*
Y007298D01*
X009328Y007297D01*
X009323Y007301D01*
X009318Y007306D01*
X009323Y007318D01*
X009324Y007326D01*
D02*
G37*
G36*
X009220D02*
X009147D01*
X009148Y007318D01*
X009157Y007296D01*
X009171Y007277D01*
X009190Y007262D01*
X009212Y007253D01*
X009220Y007252D01*
Y007326D01*
D02*
G37*
G36*
X009408Y007225D02*
X009365D01*
Y007182D01*
X009373Y007183D01*
X009393Y007197D01*
X009407Y007217D01*
X009408Y007225D01*
D02*
G37*
G36*
X009335D02*
X009292D01*
X009293Y007217D01*
X009307Y007197D01*
X009327Y007183D01*
X009335Y007182D01*
Y007225D01*
D02*
G37*
G36*
X009235Y006187D02*
X009213Y006184D01*
X009192Y006176D01*
X009174Y006162D01*
X009161Y006144D01*
X009152Y006123D01*
X009149Y006101D01*
X009152Y006079D01*
X009161Y006058D01*
X009174Y006040D01*
X009192Y006026D01*
X009213Y006018D01*
X009235Y006015D01*
X009258Y006018D01*
X009278Y006026D01*
X009296Y006040D01*
X009310Y006058D01*
X009319Y006079D01*
X009321Y006101D01*
X009319Y006123D01*
X009310Y006144D01*
X009296Y006162D01*
X009278Y006176D01*
X009258Y006184D01*
X009235Y006187D01*
D02*
G37*
G36*
X010530Y005446D02*
X010508Y005442D01*
X010490Y005430D01*
X010478Y005412D01*
X010474Y005390D01*
X010478Y005368D01*
X010490Y005350D01*
X010508Y005338D01*
X010530Y005334D01*
X010552Y005338D01*
X010570Y005350D01*
X010582Y005368D01*
X010586Y005390D01*
X010582Y005412D01*
X010570Y005430D01*
X010552Y005442D01*
X010530Y005446D01*
D02*
G37*
G36*
X010530Y005258D02*
X010509Y005254D01*
X010490Y005242D01*
X010478Y005224D01*
X010474Y005202D01*
X010478Y005180D01*
X010490Y005162D01*
X010509Y005150D01*
X010530Y005146D01*
X010552Y005150D01*
X010570Y005162D01*
X010583Y005180D01*
X010587Y005202D01*
X010583Y005224D01*
X010570Y005242D01*
X010552Y005254D01*
X010530Y005258D01*
D02*
G37*
G36*
X012878Y005111D02*
X012856Y005106D01*
X012838Y005094D01*
X012826Y005076D01*
X012822Y005054D01*
X012826Y005032D01*
X012838Y005014D01*
X012856Y005002D01*
X012878Y004998D01*
X012900Y005002D01*
X012918Y005014D01*
X012930Y005032D01*
X012934Y005054D01*
X012930Y005076D01*
X012918Y005094D01*
X012900Y005106D01*
X012878Y005111D01*
D02*
G37*
G36*
X013508Y005109D02*
X013486Y005104D01*
X013468Y005092D01*
X013456Y005074D01*
X013452Y005052D01*
X013456Y005030D01*
X013468Y005012D01*
X013486Y005000D01*
X013508Y004996D01*
X013530Y005000D01*
X013548Y005012D01*
X013560Y005030D01*
X013564Y005052D01*
X013560Y005074D01*
X013548Y005092D01*
X013530Y005104D01*
X013508Y005109D01*
D02*
G37*
G36*
X013134D02*
X013112Y005104D01*
X013094Y005092D01*
X013082Y005074D01*
X013078Y005052D01*
X013082Y005030D01*
X013094Y005012D01*
X013112Y005000D01*
X013134Y004996D01*
X013156Y005000D01*
X013174Y005012D01*
X013186Y005030D01*
X013190Y005052D01*
X013186Y005074D01*
X013174Y005092D01*
X013156Y005104D01*
X013134Y005109D01*
D02*
G37*
G36*
X013643Y004898D02*
Y004855D01*
X013686D01*
X013684Y004863D01*
X013671Y004883D01*
X013651Y004897D01*
X013643Y004898D01*
D02*
G37*
G36*
X013612D02*
X013604Y004897D01*
X013584Y004883D01*
X013571Y004863D01*
X013569Y004855D01*
X013612D01*
Y004898D01*
D02*
G37*
G36*
X012118D02*
Y004855D01*
X012161D01*
X012159Y004863D01*
X012146Y004883D01*
X012126Y004897D01*
X012118Y004898D01*
D02*
G37*
G36*
X012088D02*
X012079Y004897D01*
X012059Y004883D01*
X012046Y004863D01*
X012044Y004855D01*
X012088D01*
Y004898D01*
D02*
G37*
G36*
X010760Y004926D02*
X010738Y004922D01*
X010720Y004910D01*
X010708Y004892D01*
X010704Y004870D01*
X010708Y004848D01*
X010720Y004830D01*
X010738Y004818D01*
X010760Y004814D01*
X010782Y004818D01*
X010800Y004830D01*
X010812Y004848D01*
X010816Y004870D01*
X010812Y004892D01*
X010800Y004910D01*
X010782Y004922D01*
X010760Y004926D01*
D02*
G37*
G36*
X011353Y004896D02*
X011331Y004892D01*
X011313Y004880D01*
X011300Y004862D01*
X011296Y004840D01*
X011300Y004818D01*
X011313Y004800D01*
X011331Y004788D01*
X011353Y004784D01*
X011374Y004788D01*
X011379Y004791D01*
X011390Y004785D01*
Y004798D01*
X011392Y004800D01*
X011405Y004818D01*
X011409Y004840D01*
X011405Y004862D01*
X011392Y004880D01*
X011390Y004882D01*
Y004895D01*
X011379Y004889D01*
X011374Y004892D01*
X011353Y004896D01*
D02*
G37*
G36*
X013377D02*
X013356Y004892D01*
X013338Y004880D01*
X013325Y004862D01*
X013321Y004840D01*
X013325Y004818D01*
X013338Y004800D01*
X013356Y004788D01*
X013377Y004784D01*
X013399Y004788D01*
X013417Y004800D01*
X013430Y004818D01*
X013434Y004840D01*
X013430Y004862D01*
X013417Y004880D01*
X013399Y004892D01*
X013377Y004896D01*
D02*
G37*
G36*
X013127D02*
X013106Y004892D01*
X013088Y004880D01*
X013075Y004862D01*
X013071Y004840D01*
X013075Y004818D01*
X013088Y004800D01*
X013106Y004788D01*
X013127Y004784D01*
X013149Y004788D01*
X013167Y004800D01*
X013180Y004818D01*
X013184Y004840D01*
X013180Y004862D01*
X013167Y004880D01*
X013149Y004892D01*
X013127Y004896D01*
D02*
G37*
G36*
X012353D02*
X012331Y004892D01*
X012313Y004880D01*
X012300Y004862D01*
X012296Y004840D01*
X012300Y004818D01*
X012313Y004800D01*
X012331Y004788D01*
X012353Y004784D01*
X012374Y004788D01*
X012392Y004800D01*
X012405Y004818D01*
X012409Y004840D01*
X012405Y004862D01*
X012392Y004880D01*
X012374Y004892D01*
X012353Y004896D01*
D02*
G37*
G36*
X011853D02*
X011831Y004892D01*
X011813Y004880D01*
X011800Y004862D01*
X011796Y004840D01*
X011800Y004818D01*
X011813Y004800D01*
X011831Y004788D01*
X011853Y004784D01*
X011874Y004788D01*
X011892Y004800D01*
X011905Y004818D01*
X011909Y004840D01*
X011905Y004862D01*
X011892Y004880D01*
X011874Y004892D01*
X011853Y004896D01*
D02*
G37*
G36*
X011603D02*
X011581Y004892D01*
X011563Y004880D01*
X011550Y004862D01*
X011546Y004840D01*
X011550Y004818D01*
X011563Y004800D01*
X011581Y004788D01*
X011603Y004784D01*
X011624Y004788D01*
X011642Y004800D01*
X011655Y004818D01*
X011659Y004840D01*
X011655Y004862D01*
X011642Y004880D01*
X011624Y004892D01*
X011603Y004896D01*
D02*
G37*
G36*
X013686Y004825D02*
X013643D01*
Y004782D01*
X013651Y004783D01*
X013671Y004797D01*
X013684Y004817D01*
X013686Y004825D01*
D02*
G37*
G36*
X013612D02*
X013569D01*
X013571Y004817D01*
X013584Y004797D01*
X013604Y004783D01*
X013612Y004782D01*
Y004825D01*
D02*
G37*
G36*
X012161D02*
X012118D01*
Y004782D01*
X012126Y004783D01*
X012146Y004797D01*
X012159Y004817D01*
X012161Y004825D01*
D02*
G37*
G36*
X012088D02*
X012044D01*
X012046Y004817D01*
X012059Y004797D01*
X012079Y004783D01*
X012088Y004782D01*
Y004825D01*
D02*
G37*
G36*
X013020Y004798D02*
Y004755D01*
X013063D01*
X013062Y004763D01*
X013048Y004783D01*
X013028Y004797D01*
X013020Y004798D01*
D02*
G37*
G36*
X012990D02*
X012982Y004797D01*
X012962Y004783D01*
X012948Y004763D01*
X012947Y004755D01*
X012990D01*
Y004798D01*
D02*
G37*
G36*
X011495D02*
Y004755D01*
X011538D01*
X011537Y004763D01*
X011523Y004783D01*
X011503Y004797D01*
X011495Y004798D01*
D02*
G37*
G36*
X011465D02*
X011457Y004797D01*
X011437Y004783D01*
X011423Y004763D01*
X011422Y004755D01*
X011465D01*
Y004798D01*
D02*
G37*
G36*
X013505Y004796D02*
X013483Y004792D01*
X013465Y004780D01*
X013453Y004762D01*
X013449Y004740D01*
X013453Y004718D01*
X013465Y004700D01*
X013483Y004688D01*
X013505Y004684D01*
X013527Y004688D01*
X013545Y004700D01*
X013557Y004718D01*
X013561Y004740D01*
X013557Y004762D01*
X013545Y004780D01*
X013527Y004792D01*
X013505Y004796D01*
D02*
G37*
G36*
X013255D02*
X013233Y004792D01*
X013215Y004780D01*
X013203Y004762D01*
X013199Y004740D01*
X013203Y004718D01*
X013215Y004700D01*
X013233Y004688D01*
X013255Y004684D01*
X013277Y004688D01*
X013295Y004700D01*
X013307Y004718D01*
X013311Y004740D01*
X013307Y004762D01*
X013295Y004780D01*
X013277Y004792D01*
X013255Y004796D01*
D02*
G37*
G36*
X012230D02*
X012208Y004792D01*
X012190Y004780D01*
X012178Y004762D01*
X012174Y004740D01*
X012178Y004718D01*
X012190Y004700D01*
X012208Y004688D01*
X012230Y004684D01*
X012252Y004688D01*
X012270Y004700D01*
X012282Y004718D01*
X012286Y004740D01*
X012282Y004762D01*
X012270Y004780D01*
X012252Y004792D01*
X012230Y004796D01*
D02*
G37*
G36*
X011980D02*
X011958Y004792D01*
X011940Y004780D01*
X011928Y004762D01*
X011924Y004740D01*
X011928Y004718D01*
X011940Y004700D01*
X011958Y004688D01*
X011980Y004684D01*
X012002Y004688D01*
X012020Y004700D01*
X012032Y004718D01*
X012036Y004740D01*
X012032Y004762D01*
X012020Y004780D01*
X012002Y004792D01*
X011980Y004796D01*
D02*
G37*
G36*
X011730D02*
X011708Y004792D01*
X011690Y004780D01*
X011678Y004762D01*
X011674Y004740D01*
X011678Y004718D01*
X011690Y004700D01*
X011708Y004688D01*
X011730Y004684D01*
X011752Y004688D01*
X011770Y004700D01*
X011782Y004718D01*
X011786Y004740D01*
X011782Y004762D01*
X011770Y004780D01*
X011752Y004792D01*
X011730Y004796D01*
D02*
G37*
G36*
X011230D02*
X011208Y004792D01*
X011190Y004780D01*
X011178Y004762D01*
X011174Y004740D01*
X011178Y004718D01*
X011190Y004700D01*
X011208Y004688D01*
X011230Y004684D01*
X011252Y004688D01*
X011270Y004700D01*
X011282Y004718D01*
X011286Y004740D01*
X011282Y004762D01*
X011270Y004780D01*
X011252Y004792D01*
X011230Y004796D01*
D02*
G37*
G36*
X013063Y004725D02*
X013020D01*
Y004682D01*
X013028Y004683D01*
X013048Y004697D01*
X013062Y004717D01*
X013063Y004725D01*
D02*
G37*
G36*
X012990D02*
X012947D01*
X012948Y004717D01*
X012962Y004697D01*
X012982Y004683D01*
X012990Y004682D01*
Y004725D01*
D02*
G37*
G36*
X011538D02*
X011495D01*
Y004682D01*
X011503Y004683D01*
X011523Y004697D01*
X011537Y004717D01*
X011538Y004725D01*
D02*
G37*
G36*
X011465D02*
X011422D01*
X011423Y004717D01*
X011437Y004697D01*
X011457Y004683D01*
X011465Y004682D01*
Y004725D01*
D02*
G37*
G36*
X007325Y005628D02*
Y005585D01*
X007368D01*
X007367Y005593D01*
X007353Y005613D01*
X007333Y005627D01*
X007325Y005628D01*
D02*
G37*
G36*
X007295D02*
X007287Y005627D01*
X007267Y005613D01*
X007253Y005593D01*
X007252Y005585D01*
X007295D01*
Y005628D01*
D02*
G37*
G36*
X007368Y005555D02*
X007252D01*
X007253Y005547D01*
X007267Y005527D01*
X007275Y005521D01*
Y005509D01*
X007267Y005503D01*
X007253Y005483D01*
X007252Y005475D01*
X007368D01*
X007367Y005483D01*
X007353Y005503D01*
X007345Y005509D01*
Y005521D01*
X007353Y005527D01*
X007367Y005547D01*
X007368Y005555D01*
D02*
G37*
G36*
Y005445D02*
X007252D01*
X007253Y005437D01*
X007267Y005417D01*
X007275Y005411D01*
Y005399D01*
X007267Y005393D01*
X007253Y005373D01*
X007252Y005365D01*
X007368D01*
X007367Y005373D01*
X007353Y005393D01*
X007345Y005399D01*
Y005411D01*
X007353Y005417D01*
X007367Y005437D01*
X007368Y005445D01*
D02*
G37*
G36*
Y005335D02*
X007325D01*
Y005292D01*
X007333Y005293D01*
X007353Y005307D01*
X007367Y005327D01*
X007368Y005335D01*
D02*
G37*
G36*
X007295D02*
X007252D01*
X007253Y005327D01*
X007267Y005307D01*
X007287Y005293D01*
X007295Y005292D01*
Y005335D01*
D02*
G37*
G36*
X007317Y005145D02*
X007295Y005140D01*
X007277Y005128D01*
X007264Y005110D01*
X007260Y005088D01*
X007264Y005067D01*
X007277Y005048D01*
X007295Y005036D01*
X007317Y005032D01*
X007338Y005036D01*
X007357Y005048D01*
X007369Y005067D01*
X007373Y005088D01*
X007369Y005110D01*
X007357Y005128D01*
X007338Y005140D01*
X007317Y005145D01*
D02*
G37*
G36*
X009691Y004806D02*
X009670Y004802D01*
X009651Y004790D01*
X009639Y004772D01*
X009636Y004757D01*
X009636Y004755D01*
X009623D01*
X009623Y004757D01*
X009620Y004772D01*
X009607Y004790D01*
X009589Y004802D01*
X009568Y004806D01*
X009546Y004802D01*
X009528Y004790D01*
X009515Y004772D01*
X009511Y004750D01*
X009515Y004728D01*
X009528Y004710D01*
X009546Y004698D01*
X009568Y004694D01*
X009589Y004698D01*
X009607Y004710D01*
X009620Y004728D01*
X009623Y004743D01*
X009623Y004745D01*
X009636D01*
X009636Y004743D01*
X009639Y004728D01*
X009651Y004710D01*
X009670Y004698D01*
X009691Y004694D01*
X009713Y004698D01*
X009731Y004710D01*
X009743Y004728D01*
X009748Y004750D01*
X009743Y004772D01*
X009731Y004790D01*
X009713Y004802D01*
X009691Y004806D01*
D02*
G37*
G36*
X010082Y004757D02*
Y004714D01*
X010125D01*
X010123Y004723D01*
X010110Y004743D01*
X010090Y004756D01*
X010082Y004757D01*
D02*
G37*
G36*
X010052D02*
X010043Y004756D01*
X010024Y004743D01*
X010010Y004723D01*
X010009Y004714D01*
X010052D01*
Y004757D01*
D02*
G37*
G36*
X008558D02*
Y004714D01*
X008601D01*
X008599Y004723D01*
X008586Y004743D01*
X008566Y004756D01*
X008558Y004757D01*
D02*
G37*
G36*
X008528D02*
X008519Y004756D01*
X008500Y004743D01*
X008486Y004723D01*
X008485Y004714D01*
X008528D01*
Y004757D01*
D02*
G37*
G36*
X008956Y004757D02*
Y004714D01*
X008999D01*
X008998Y004722D01*
X008985Y004742D01*
X008965Y004755D01*
X008956Y004757D01*
D02*
G37*
G36*
X008926D02*
X008918Y004755D01*
X008898Y004742D01*
X008885Y004722D01*
X008883Y004714D01*
X008926D01*
Y004757D01*
D02*
G37*
G36*
X007432D02*
Y004714D01*
X007475D01*
X007474Y004722D01*
X007461Y004742D01*
X007441Y004755D01*
X007432Y004757D01*
D02*
G37*
G36*
X007402D02*
X007394Y004755D01*
X007374Y004742D01*
X007361Y004722D01*
X007359Y004714D01*
X007402D01*
Y004757D01*
D02*
G37*
G36*
X009441Y004806D02*
X009420Y004802D01*
X009401Y004790D01*
X009389Y004772D01*
X009385Y004750D01*
X009389Y004728D01*
X009401Y004710D01*
X009420Y004698D01*
X009441Y004694D01*
X009463Y004698D01*
X009481Y004710D01*
X009493Y004728D01*
X009498Y004750D01*
X009493Y004772D01*
X009481Y004790D01*
X009463Y004802D01*
X009441Y004806D01*
D02*
G37*
G36*
X007830D02*
X007808Y004802D01*
X007790Y004790D01*
X007778Y004772D01*
X007774Y004750D01*
X007778Y004728D01*
X007790Y004710D01*
X007808Y004698D01*
X007830Y004694D01*
X007852Y004698D01*
X007870Y004710D01*
X007882Y004728D01*
X007886Y004750D01*
X007882Y004772D01*
X007870Y004790D01*
X007852Y004802D01*
X007830Y004806D01*
D02*
G37*
G36*
X007690D02*
X007668Y004802D01*
X007650Y004790D01*
X007638Y004772D01*
X007634Y004750D01*
X007638Y004728D01*
X007650Y004710D01*
X007668Y004698D01*
X007690Y004694D01*
X007712Y004698D01*
X007730Y004710D01*
X007742Y004728D01*
X007746Y004750D01*
X007742Y004772D01*
X007730Y004790D01*
X007712Y004802D01*
X007690Y004806D01*
D02*
G37*
G36*
X010125Y004684D02*
X010082D01*
Y004641D01*
X010090Y004643D01*
X010110Y004656D01*
X010123Y004676D01*
X010125Y004684D01*
D02*
G37*
G36*
X010052D02*
X010009D01*
X010010Y004676D01*
X010024Y004656D01*
X010043Y004643D01*
X010052Y004641D01*
Y004684D01*
D02*
G37*
G36*
X008601D02*
X008558D01*
Y004641D01*
X008566Y004643D01*
X008586Y004656D01*
X008599Y004676D01*
X008601Y004684D01*
D02*
G37*
G36*
X008528D02*
X008485D01*
X008486Y004676D01*
X008500Y004656D01*
X008519Y004643D01*
X008528Y004641D01*
Y004684D01*
D02*
G37*
G36*
X008999Y004684D02*
X008956D01*
Y004641D01*
X008965Y004642D01*
X008985Y004655D01*
X008998Y004675D01*
X008999Y004684D01*
D02*
G37*
G36*
X008926D02*
X008883D01*
X008885Y004675D01*
X008898Y004655D01*
X008918Y004642D01*
X008926Y004641D01*
Y004684D01*
D02*
G37*
G36*
X007475D02*
X007432D01*
Y004641D01*
X007441Y004642D01*
X007461Y004655D01*
X007474Y004675D01*
X007475Y004684D01*
D02*
G37*
G36*
X007402D02*
X007359D01*
X007361Y004675D01*
X007374Y004655D01*
X007394Y004642D01*
X007402Y004641D01*
Y004684D01*
D02*
G37*
G36*
X013893Y004898D02*
Y004855D01*
X013936D01*
X013934Y004863D01*
X013921Y004883D01*
X013901Y004897D01*
X013893Y004898D01*
D02*
G37*
G36*
X013862D02*
X013854Y004897D01*
X013834Y004883D01*
X013821Y004863D01*
X013819Y004855D01*
X013862D01*
Y004898D01*
D02*
G37*
G36*
X013936Y004825D02*
X013893D01*
Y004782D01*
X013901Y004783D01*
X013921Y004797D01*
X013934Y004817D01*
X013936Y004825D01*
D02*
G37*
G36*
X013862D02*
X013819D01*
X013821Y004817D01*
X013834Y004797D01*
X013854Y004783D01*
X013862Y004782D01*
Y004825D01*
D02*
G37*
G36*
X012770Y004798D02*
Y004755D01*
X012813D01*
X012812Y004763D01*
X012798Y004783D01*
X012778Y004797D01*
X012770Y004798D01*
D02*
G37*
G36*
X012740D02*
X012732Y004797D01*
X012712Y004783D01*
X012698Y004763D01*
X012697Y004755D01*
X012740D01*
Y004798D01*
D02*
G37*
G36*
X012813Y004725D02*
X012770D01*
Y004682D01*
X012778Y004683D01*
X012798Y004697D01*
X012812Y004717D01*
X012813Y004725D01*
D02*
G37*
G36*
X012740D02*
X012697D01*
X012698Y004717D01*
X012712Y004697D01*
X012732Y004683D01*
X012740Y004682D01*
Y004725D01*
D02*
G37*
G36*
X006832Y009141D02*
Y009097D01*
X006875D01*
X006873Y009106D01*
X006860Y009126D01*
X006840Y009139D01*
X006832Y009141D01*
D02*
G37*
G36*
X006802D02*
X006793Y009139D01*
X006773Y009126D01*
X006760Y009106D01*
X006756Y009082D01*
X006757Y009074D01*
X006747Y009066D01*
X006743Y009068D01*
X006735Y009069D01*
Y008995D01*
X006809D01*
X006808Y009003D01*
X006804Y009012D01*
X006812Y009022D01*
X006817Y009021D01*
X006840Y009026D01*
X006860Y009039D01*
X006873Y009059D01*
X006875Y009067D01*
X006817D01*
Y009082D01*
X006802D01*
Y009141D01*
D02*
G37*
G36*
X006705Y009069D02*
X006697Y009068D01*
X006675Y009059D01*
X006656Y009044D01*
X006641Y009025D01*
X006632Y009003D01*
X006631Y008995D01*
X006705D01*
Y009069D01*
D02*
G37*
G36*
Y008965D02*
X006631D01*
X006632Y008957D01*
X006641Y008935D01*
X006656Y008916D01*
X006675Y008901D01*
X006697Y008892D01*
X006705Y008891D01*
Y008965D01*
D02*
G37*
G36*
X006878Y008865D02*
X006835D01*
Y008822D01*
X006843Y008823D01*
X006863Y008837D01*
X006877Y008857D01*
X006878Y008865D01*
D02*
G37*
G36*
X006809Y008965D02*
X006735D01*
Y008891D01*
X006743Y008892D01*
X006750Y008895D01*
X006760Y008887D01*
X006759Y008880D01*
X006763Y008857D01*
X006777Y008837D01*
X006797Y008823D01*
X006805Y008822D01*
Y008880D01*
X006820D01*
Y008895D01*
X006878D01*
X006877Y008903D01*
X006863Y008923D01*
X006843Y008937D01*
X006820Y008941D01*
X006813Y008940D01*
X006805Y008950D01*
X006808Y008957D01*
X006809Y008965D01*
D02*
G37*
G36*
X006793Y007414D02*
X006771Y007410D01*
X006753Y007398D01*
X006741Y007380D01*
X006736Y007358D01*
X006741Y007336D01*
X006753Y007318D01*
X006771Y007306D01*
X006793Y007302D01*
X006814Y007306D01*
X006833Y007318D01*
X006845Y007336D01*
X006849Y007358D01*
X006845Y007380D01*
X006833Y007398D01*
X006814Y007410D01*
X006793Y007414D01*
D02*
G37*
G36*
Y007287D02*
X006771Y007283D01*
X006753Y007271D01*
X006741Y007253D01*
X006736Y007231D01*
X006741Y007209D01*
X006753Y007191D01*
X006771Y007179D01*
X006793Y007175D01*
X006814Y007179D01*
X006833Y007191D01*
X006845Y007209D01*
X006849Y007231D01*
X006845Y007253D01*
X006833Y007271D01*
X006814Y007283D01*
X006793Y007287D01*
D02*
G37*
G36*
Y007160D02*
X006771Y007156D01*
X006753Y007144D01*
X006741Y007126D01*
X006736Y007104D01*
X006741Y007082D01*
X006753Y007064D01*
X006771Y007052D01*
X006793Y007048D01*
X006814Y007052D01*
X006833Y007064D01*
X006845Y007082D01*
X006849Y007104D01*
X006845Y007126D01*
X006833Y007144D01*
X006814Y007156D01*
X006793Y007160D01*
D02*
G37*
G36*
Y007033D02*
X006771Y007029D01*
X006753Y007017D01*
X006741Y006999D01*
X006736Y006977D01*
X006741Y006955D01*
X006753Y006937D01*
X006771Y006925D01*
X006793Y006921D01*
X006814Y006925D01*
X006833Y006937D01*
X006845Y006955D01*
X006849Y006977D01*
X006845Y006999D01*
X006833Y007017D01*
X006814Y007029D01*
X006793Y007033D01*
D02*
G37*
G36*
Y006906D02*
X006771Y006902D01*
X006753Y006890D01*
X006741Y006872D01*
X006736Y006850D01*
X006741Y006828D01*
X006753Y006810D01*
X006771Y006798D01*
X006793Y006794D01*
X006814Y006798D01*
X006833Y006810D01*
X006845Y006828D01*
X006849Y006850D01*
X006845Y006872D01*
X006833Y006890D01*
X006814Y006902D01*
X006793Y006906D01*
D02*
G37*
G36*
Y006779D02*
X006771Y006775D01*
X006753Y006763D01*
X006741Y006745D01*
X006736Y006723D01*
X006741Y006701D01*
X006753Y006683D01*
X006771Y006671D01*
X006793Y006667D01*
X006814Y006671D01*
X006833Y006683D01*
X006845Y006701D01*
X006849Y006723D01*
X006845Y006745D01*
X006833Y006763D01*
X006814Y006775D01*
X006793Y006779D01*
D02*
G37*
G36*
Y006652D02*
X006771Y006648D01*
X006753Y006636D01*
X006741Y006618D01*
X006736Y006596D01*
X006741Y006574D01*
X006753Y006556D01*
X006771Y006544D01*
X006793Y006540D01*
X006814Y006544D01*
X006833Y006556D01*
X006845Y006574D01*
X006849Y006596D01*
X006845Y006618D01*
X006833Y006636D01*
X006814Y006648D01*
X006793Y006652D01*
D02*
G37*
G36*
X005025Y004388D02*
Y004345D01*
X005068D01*
X005067Y004353D01*
X005053Y004373D01*
X005033Y004387D01*
X005025Y004388D01*
D02*
G37*
G36*
X004995D02*
X004987Y004387D01*
X004967Y004373D01*
X004953Y004353D01*
X004952Y004345D01*
X004995D01*
Y004388D01*
D02*
G37*
G36*
X004742Y004338D02*
Y004295D01*
X004785D01*
X004783Y004304D01*
X004770Y004323D01*
X004750Y004337D01*
X004742Y004338D01*
D02*
G37*
G36*
X004712D02*
X004703Y004337D01*
X004684Y004323D01*
X004670Y004304D01*
X004669Y004295D01*
X004712D01*
Y004338D01*
D02*
G37*
G36*
X005068Y004315D02*
X005025D01*
Y004272D01*
X005033Y004273D01*
X005053Y004287D01*
X005067Y004307D01*
X005068Y004315D01*
D02*
G37*
G36*
X004995D02*
X004952D01*
X004953Y004307D01*
X004967Y004287D01*
X004987Y004273D01*
X004995Y004272D01*
Y004315D01*
D02*
G37*
G36*
X008543Y004337D02*
X008521Y004332D01*
X008503Y004320D01*
X008491Y004302D01*
X008486Y004280D01*
X008491Y004259D01*
X008503Y004240D01*
X008521Y004228D01*
X008543Y004224D01*
X008564Y004228D01*
X008583Y004240D01*
X008595Y004259D01*
X008599Y004280D01*
X008595Y004302D01*
X008583Y004320D01*
X008564Y004332D01*
X008543Y004337D01*
D02*
G37*
G36*
X004785Y004265D02*
X004742D01*
Y004222D01*
X004750Y004224D01*
X004770Y004237D01*
X004783Y004257D01*
X004785Y004265D01*
D02*
G37*
G36*
X004712D02*
X004669D01*
X004670Y004257D01*
X004684Y004237D01*
X004703Y004224D01*
X004712Y004222D01*
Y004265D01*
D02*
G37*
G36*
X006265Y004238D02*
Y004195D01*
X006308D01*
X006307Y004203D01*
X006293Y004223D01*
X006273Y004237D01*
X006265Y004238D01*
D02*
G37*
G36*
X006235D02*
X006227Y004237D01*
X006207Y004223D01*
X006193Y004203D01*
X006192Y004195D01*
X006235D01*
Y004238D01*
D02*
G37*
G36*
X003615D02*
Y004195D01*
X003658D01*
X003657Y004203D01*
X003643Y004223D01*
X003623Y004237D01*
X003615Y004238D01*
D02*
G37*
G36*
X003585D02*
X003577Y004237D01*
X003557Y004223D01*
X003543Y004203D01*
X003542Y004195D01*
X003585D01*
Y004238D01*
D02*
G37*
G36*
X009835Y004218D02*
Y004175D01*
X009878D01*
X009877Y004183D01*
X009863Y004203D01*
X009843Y004217D01*
X009835Y004218D01*
D02*
G37*
G36*
X009805D02*
X009797Y004217D01*
X009777Y004203D01*
X009763Y004183D01*
X009762Y004175D01*
X009805D01*
Y004218D01*
D02*
G37*
G36*
X009215D02*
Y004175D01*
X009258D01*
X009257Y004183D01*
X009243Y004203D01*
X009223Y004217D01*
X009215Y004218D01*
D02*
G37*
G36*
X009185D02*
X009177Y004217D01*
X009157Y004203D01*
X009143Y004183D01*
X009142Y004175D01*
X009185D01*
Y004218D01*
D02*
G37*
G36*
X007685Y004211D02*
Y004167D01*
X007728D01*
X007727Y004176D01*
X007713Y004196D01*
X007693Y004209D01*
X007685Y004211D01*
D02*
G37*
G36*
X007655D02*
X007647Y004209D01*
X007627Y004196D01*
X007613Y004176D01*
X007612Y004167D01*
X007655D01*
Y004211D01*
D02*
G37*
G36*
X008305Y004208D02*
Y004165D01*
X008348D01*
X008347Y004173D01*
X008333Y004193D01*
X008313Y004207D01*
X008305Y004208D01*
D02*
G37*
G36*
X008275D02*
X008267Y004207D01*
X008247Y004193D01*
X008233Y004173D01*
X008232Y004165D01*
X008275D01*
Y004208D01*
D02*
G37*
G36*
X008943Y004240D02*
X008921Y004236D01*
X008903Y004224D01*
X008890Y004206D01*
X008886Y004184D01*
X008890Y004162D01*
X008903Y004144D01*
X008921Y004132D01*
X008943Y004127D01*
X008964Y004132D01*
X008982Y004144D01*
X008995Y004162D01*
X008999Y004184D01*
X008995Y004206D01*
X008982Y004224D01*
X008964Y004236D01*
X008943Y004240D01*
D02*
G37*
G36*
X007419D02*
X007397Y004236D01*
X007379Y004224D01*
X007366Y004206D01*
X007362Y004184D01*
X007366Y004162D01*
X007379Y004144D01*
X007397Y004132D01*
X007419Y004127D01*
X007440Y004132D01*
X007458Y004144D01*
X007471Y004162D01*
X007475Y004184D01*
X007471Y004206D01*
X007458Y004224D01*
X007440Y004236D01*
X007419Y004240D01*
D02*
G37*
G36*
X006308Y004165D02*
X006265D01*
Y004122D01*
X006273Y004123D01*
X006293Y004137D01*
X006307Y004157D01*
X006308Y004165D01*
D02*
G37*
G36*
X006235D02*
X006192D01*
X006193Y004157D01*
X006207Y004137D01*
X006227Y004123D01*
X006235Y004122D01*
Y004165D01*
D02*
G37*
G36*
X003658D02*
X003615D01*
Y004122D01*
X003623Y004123D01*
X003643Y004137D01*
X003657Y004157D01*
X003658Y004165D01*
D02*
G37*
G36*
X003585D02*
X003542D01*
X003543Y004157D01*
X003557Y004137D01*
X003577Y004123D01*
X003585Y004122D01*
Y004165D01*
D02*
G37*
G36*
X009878Y004145D02*
X009835D01*
Y004102D01*
X009843Y004103D01*
X009863Y004117D01*
X009877Y004137D01*
X009878Y004145D01*
D02*
G37*
G36*
X009805D02*
X009762D01*
X009763Y004137D01*
X009777Y004117D01*
X009797Y004103D01*
X009805Y004102D01*
Y004145D01*
D02*
G37*
G36*
X009258D02*
X009215D01*
Y004102D01*
X009223Y004103D01*
X009243Y004117D01*
X009257Y004137D01*
X009258Y004145D01*
D02*
G37*
G36*
X009185D02*
X009142D01*
X009143Y004137D01*
X009157Y004117D01*
X009177Y004103D01*
X009185Y004102D01*
Y004145D01*
D02*
G37*
G36*
X007728Y004138D02*
X007685D01*
Y004094D01*
X007693Y004096D01*
X007713Y004109D01*
X007727Y004129D01*
X007728Y004138D01*
D02*
G37*
G36*
X007655D02*
X007612D01*
X007613Y004129D01*
X007627Y004109D01*
X007647Y004096D01*
X007655Y004094D01*
Y004138D01*
D02*
G37*
G36*
X008348Y004135D02*
X008305D01*
Y004092D01*
X008313Y004093D01*
X008333Y004107D01*
X008347Y004127D01*
X008348Y004135D01*
D02*
G37*
G36*
X008275D02*
X008232D01*
X008233Y004127D01*
X008247Y004107D01*
X008267Y004093D01*
X008275Y004092D01*
Y004135D01*
D02*
G37*
%LPD*%
D12*
X007690Y004930D02*
X007730Y004970D01*
X007880Y004970D02*
X008040Y004810D01*
X007730Y004970D02*
X007880Y004970D01*
X008040Y004710D02*
Y004810D01*
D13*
X003260Y007430D02*
X003530Y007700D01*
X004160D01*
X003580Y007520D02*
X004110D01*
X004260Y007670D01*
Y007800D01*
X003554Y007610D02*
X004060D01*
X003145Y005345D02*
X003416Y005616D01*
Y007356D01*
X003580Y007520D01*
X003145Y005599D02*
X003340Y005794D01*
Y007397D01*
X003554Y007610D01*
X003260Y005968D02*
Y007430D01*
X003145Y005853D02*
X003260Y005968D01*
D85*
X012540Y009590D02*
D03*
Y009790D02*
D03*
X013140Y009590D02*
D03*
Y009790D02*
D03*
X010340Y009590D02*
D03*
Y009790D02*
D03*
X010140D02*
D03*
Y009590D02*
D03*
X007340Y009790D02*
D03*
Y009590D02*
D03*
D88*
X010740Y008888D02*
D03*
X012866D02*
D03*
D89*
X010740Y008634D02*
D03*
Y007110D02*
D03*
X012264D02*
D03*
X012866Y008634D02*
D03*
Y007110D02*
D03*
X014390D02*
D03*
D90*
X008878Y009222D02*
D03*
X009407Y009610D02*
D03*
X006720Y008980D02*
D03*
X009235Y007341D02*
D03*
X009940Y007345D02*
D03*
X009940Y006105D02*
D03*
X011920Y006100D02*
D03*
X007060Y007600D02*
D03*
D91*
X010764Y004200D02*
D03*
X014477Y004173D02*
D03*
X014480Y004830D02*
D03*
D95*
X014402Y003612D02*
D03*
X003075Y003820D02*
D03*
X009585Y007882D02*
D03*
D96*
X008643Y009820D02*
D03*
X009788Y009975D02*
D03*
X009503Y009830D02*
D03*
X009645Y009275D02*
D03*
X009350Y007240D02*
D03*
X009833Y007452D02*
D03*
X009836Y007250D02*
D03*
X009347Y007452D02*
D03*
X011480Y004740D02*
D03*
X012103Y004840D02*
D03*
X011890Y006460D02*
D03*
X010740Y006240D02*
D03*
X006820Y008880D02*
D03*
X006817Y009082D02*
D03*
X007998Y008072D02*
D03*
X006332Y008388D02*
D03*
X010842Y005513D02*
D03*
X008862Y006758D02*
D03*
X008860Y005520D02*
D03*
X014460Y005470D02*
D03*
Y005870D02*
D03*
X010310Y006308D02*
D03*
X012512Y005194D02*
D03*
X010790Y003580D02*
D03*
X013877Y004840D02*
D03*
X013627D02*
D03*
X012755Y004740D02*
D03*
X013005D02*
D03*
X009820Y004160D02*
D03*
X009200D02*
D03*
X008290Y004150D02*
D03*
X007417Y004699D02*
D03*
X007310Y005570D02*
D03*
Y005460D02*
D03*
Y005350D02*
D03*
X007690Y004930D02*
D03*
X008040Y004710D02*
D03*
X005590Y008700D02*
D03*
X004260Y007800D02*
D03*
X004060Y007610D02*
D03*
X005770Y008700D02*
D03*
X006250Y004180D02*
D03*
X005010Y004330D02*
D03*
X004160Y007700D02*
D03*
X005680Y008700D02*
D03*
X003145Y005345D02*
D03*
Y005599D02*
D03*
Y005853D02*
D03*
X008941Y004699D02*
D03*
X010067Y004699D02*
D03*
X008543D02*
D03*
X007670Y004153D02*
D03*
X004478Y004700D02*
D03*
X005997D02*
D03*
X005371Y004699D02*
D03*
X003851D02*
D03*
X003600Y004180D02*
D03*
X004727Y004280D02*
D03*
D97*
X010440Y007020D02*
Y008660D01*
X010670Y008890D02*
X010738D01*
X010440Y008660D02*
X010670Y008890D01*
X012590Y007070D02*
Y008680D01*
X012798Y008888D02*
X012866D01*
X012590Y008680D02*
X012798Y008888D01*
X012280Y006760D02*
X012590Y007070D01*
X009940Y006105D02*
Y006520D01*
X010440Y007020D01*
X011920Y006100D02*
X012280Y006460D01*
Y006760D01*
M02*
