G04*
G04 #@! TF.GenerationSoftware,Altium Limited,Altium Designer,20.1.11 (218)*
G04*
G04 Layer_Color=8388736*
%FSAX42Y42*%
%MOMM*%
G71*
G04*
G04 #@! TF.SameCoordinates,D071A55E-5AEF-410E-9220-4307AC36CE94*
G04*
G04*
G04 #@! TF.FilePolarity,Negative*
G04*
G01*
G75*
%ADD10C,0.20*%
%ADD19O,2.20X1.20*%
%ADD20R,2.20X1.20*%
%ADD21O,0.90X2.49*%
%ADD22R,0.90X2.49*%
%ADD23R,3.00X2.20*%
%ADD24R,1.90X1.20*%
%ADD25R,3.40X2.80*%
%ADD26R,1.50X1.00*%
%ADD27O,2.49X0.90*%
%ADD28R,2.49X0.90*%
%ADD29O,0.90X2.70*%
%ADD30O,0.90X4.00*%
%ADD31R,0.90X4.00*%
%ADD32R,1.20X1.90*%
%ADD33R,1.00X1.50*%
%ADD34O,2.74X0.76*%
%ADD35R,2.74X0.76*%
%ADD36R,1.70X0.58*%
%ADD37O,1.70X0.58*%
%ADD38R,2.20X3.00*%
G04:AMPARAMS|DCode=39|XSize=2.2mm|YSize=4.2mm|CornerRadius=0.6mm|HoleSize=0mm|Usage=FLASHONLY|Rotation=270.000|XOffset=0mm|YOffset=0mm|HoleType=Round|Shape=RoundedRectangle|*
%AMROUNDEDRECTD39*
21,1,2.20,3.00,0,0,270.0*
21,1,1.00,4.20,0,0,270.0*
1,1,1.20,-1.50,-0.50*
1,1,1.20,-1.50,0.50*
1,1,1.20,1.50,0.50*
1,1,1.20,1.50,-0.50*
%
%ADD39ROUNDEDRECTD39*%
%ADD40R,4.20X2.20*%
G04:AMPARAMS|DCode=41|XSize=1.1mm|YSize=1.15mm|CornerRadius=0.33mm|HoleSize=0mm|Usage=FLASHONLY|Rotation=270.000|XOffset=0mm|YOffset=0mm|HoleType=Round|Shape=RoundedRectangle|*
%AMROUNDEDRECTD41*
21,1,1.10,0.50,0,0,270.0*
21,1,0.45,1.15,0,0,270.0*
1,1,0.65,-0.25,-0.23*
1,1,0.65,-0.25,0.23*
1,1,0.65,0.25,0.23*
1,1,0.65,0.25,-0.23*
%
%ADD41ROUNDEDRECTD41*%
%ADD42R,1.15X1.10*%
%ADD43R,1.15X1.10*%
%ADD44C,1.57*%
%ADD45R,1.57X1.57*%
%ADD46C,1.70*%
%ADD47R,1.73X1.73*%
%ADD48C,1.73*%
%ADD49C,1.40*%
%ADD50P,1.98X4X270.0*%
%ADD51C,2.80*%
%ADD52C,5.20*%
%ADD53C,6.20*%
%ADD54C,1.70*%
%ADD55C,0.80*%
G36*
X014940Y002841D02*
X014940Y002841D01*
X014940Y002822D01*
X014935Y002783D01*
X014925Y002745D01*
X014910Y002709D01*
X014890Y002675D01*
X014867Y002644D01*
X014839Y002616D01*
X014808Y002592D01*
X014774Y002573D01*
X014738Y002558D01*
X014700Y002548D01*
X014661Y002542D01*
X014642D01*
X002840Y002542D01*
X002840Y002542D01*
X002820Y002542D01*
X002781Y002548D01*
X002743Y002558D01*
X002707Y002573D01*
X002673Y002593D01*
X002642Y002616D01*
X002614Y002644D01*
X002590Y002675D01*
X002570Y002709D01*
X002555Y002746D01*
X002545Y002784D01*
X002540Y002823D01*
X002540Y002842D01*
X002540Y010091D01*
X002797D01*
X002941Y009947D01*
X002941Y009434D01*
X002741Y009233D01*
X002743Y006744D01*
X002941Y006546D01*
X002941Y006038D01*
X002743Y005839D01*
Y003378D01*
X003426Y002791D01*
X006434D01*
X006596Y002954D01*
X007087D01*
X007249Y002791D01*
X010234D01*
X010396Y002954D01*
X010886D01*
X011049Y002791D01*
X014054D01*
X014737Y003378D01*
Y005837D01*
X014740Y005839D01*
X014541Y006038D01*
Y006545D01*
X014742Y006746D01*
Y009238D01*
X014541Y009439D01*
Y009946D01*
X014686Y010091D01*
X014940D01*
Y002841D01*
D02*
G37*
D10*
X014337Y003466D02*
X014320Y003482D01*
X014287D01*
X014270Y003466D01*
Y003399D01*
X014287Y003383D01*
X014320D01*
X014337Y003399D01*
Y003432D01*
X014303D01*
X014370Y003383D02*
Y003482D01*
X014437Y003383D01*
Y003482D01*
X014470D02*
Y003383D01*
X014520D01*
X014537Y003399D01*
Y003466D01*
X014520Y003482D01*
X014470D01*
X003009Y003673D02*
X002992Y003690D01*
X002959D01*
X002942Y003673D01*
Y003607D01*
X002959Y003590D01*
X002992D01*
X003009Y003607D01*
Y003640D01*
X002976D01*
X003042Y003590D02*
Y003690D01*
X003109Y003590D01*
Y003690D01*
X003142D02*
Y003590D01*
X003192D01*
X003209Y003607D01*
Y003673D01*
X003192Y003690D01*
X003142D01*
X009519Y007736D02*
X009502Y007752D01*
X009469D01*
X009453Y007736D01*
Y007669D01*
X009469Y007653D01*
X009502D01*
X009519Y007669D01*
Y007702D01*
X009486D01*
X009552Y007653D02*
Y007752D01*
X009619Y007653D01*
Y007752D01*
X009652D02*
Y007653D01*
X009702D01*
X009719Y007669D01*
Y007736D01*
X009702Y007752D01*
X009652D01*
D19*
X009410Y008456D02*
D03*
Y008202D02*
D03*
Y008710D02*
D03*
Y008964D02*
D03*
X008560Y008202D02*
D03*
Y008456D02*
D03*
Y008710D02*
D03*
D20*
Y008964D02*
D03*
D21*
X013765Y006220D02*
D03*
X013638D02*
D03*
X013511D02*
D03*
X013384D02*
D03*
X013257D02*
D03*
X013130D02*
D03*
X013003D02*
D03*
X012876D02*
D03*
X013765Y005242D02*
D03*
X013638D02*
D03*
X013511D02*
D03*
X013384D02*
D03*
X013257D02*
D03*
X013130D02*
D03*
X013003D02*
D03*
D22*
X012876D02*
D03*
D23*
X008190Y007598D02*
D03*
Y007230D02*
D03*
X007310D02*
D03*
Y007598D02*
D03*
D24*
X007630Y007450D02*
D03*
Y007750D02*
D03*
X007870Y007750D02*
D03*
Y007450D02*
D03*
X006700Y003340D02*
D03*
Y003640D02*
D03*
D25*
X004260Y008910D02*
D03*
Y008148D02*
D03*
X005680Y008912D02*
D03*
Y008150D02*
D03*
D26*
X010640Y003580D02*
D03*
Y003390D02*
D03*
X007860Y008070D02*
D03*
Y008260D02*
D03*
X007620Y006950D02*
D03*
Y006760D02*
D03*
X007430Y006950D02*
D03*
Y006760D02*
D03*
X007240Y006950D02*
D03*
Y006760D02*
D03*
X008520D02*
D03*
Y006950D02*
D03*
X008160Y006760D02*
D03*
Y006950D02*
D03*
X008340Y006760D02*
D03*
Y006950D02*
D03*
X007800Y006760D02*
D03*
Y006570D02*
D03*
X010430Y006500D02*
D03*
Y006310D02*
D03*
X010410Y005390D02*
D03*
Y005200D02*
D03*
X007980Y006760D02*
D03*
Y006570D02*
D03*
X007740Y005280D02*
D03*
Y005090D02*
D03*
X008050Y005090D02*
D03*
Y005280D02*
D03*
X007530D02*
D03*
Y005090D02*
D03*
X008260D02*
D03*
Y005280D02*
D03*
X009740Y008490D02*
D03*
Y008680D02*
D03*
X012392Y005192D02*
D03*
Y005382D02*
D03*
X006950Y003580D02*
D03*
Y003390D02*
D03*
D27*
X005610Y007358D02*
D03*
Y007231D02*
D03*
Y007104D02*
D03*
Y006977D02*
D03*
Y006850D02*
D03*
Y006723D02*
D03*
Y006596D02*
D03*
Y006469D02*
D03*
X006588Y007358D02*
D03*
Y007231D02*
D03*
Y007104D02*
D03*
Y006977D02*
D03*
Y006850D02*
D03*
Y006723D02*
D03*
Y006596D02*
D03*
X006597Y005337D02*
D03*
Y005464D02*
D03*
Y005591D02*
D03*
Y005718D02*
D03*
Y005845D02*
D03*
Y005972D02*
D03*
Y006099D02*
D03*
X005619Y005210D02*
D03*
Y005337D02*
D03*
Y005464D02*
D03*
Y005591D02*
D03*
Y005718D02*
D03*
Y005845D02*
D03*
Y005972D02*
D03*
Y006099D02*
D03*
X004330Y005345D02*
D03*
Y005472D02*
D03*
Y005599D02*
D03*
Y005726D02*
D03*
Y005853D02*
D03*
Y005980D02*
D03*
Y006107D02*
D03*
X003352Y005218D02*
D03*
Y005345D02*
D03*
Y005472D02*
D03*
Y005599D02*
D03*
Y005726D02*
D03*
Y005853D02*
D03*
Y005980D02*
D03*
Y006107D02*
D03*
X004338Y006468D02*
D03*
Y006595D02*
D03*
Y006722D02*
D03*
Y006849D02*
D03*
Y006976D02*
D03*
Y007103D02*
D03*
Y007230D02*
D03*
Y007357D02*
D03*
X003360Y006468D02*
D03*
Y006595D02*
D03*
Y006722D02*
D03*
Y006849D02*
D03*
Y006976D02*
D03*
Y007103D02*
D03*
Y007230D02*
D03*
D28*
X006588Y006469D02*
D03*
X006597Y005210D02*
D03*
X004330Y005218D02*
D03*
X003360Y007357D02*
D03*
D29*
X011353Y004506D02*
D03*
X011603D02*
D03*
X011853D02*
D03*
X012103D02*
D03*
X012353D02*
D03*
X009068Y004506D02*
D03*
X009318D02*
D03*
X009568D02*
D03*
X009818D02*
D03*
X010068D02*
D03*
X007543D02*
D03*
X007793D02*
D03*
X008043D02*
D03*
X008293D02*
D03*
X008543D02*
D03*
X012877Y004506D02*
D03*
X013127D02*
D03*
X013377D02*
D03*
X013627D02*
D03*
X013877D02*
D03*
X003728Y004506D02*
D03*
X003978D02*
D03*
X004228D02*
D03*
X004478D02*
D03*
X004728D02*
D03*
X005247D02*
D03*
X005497D02*
D03*
X005747D02*
D03*
X005997D02*
D03*
X006247D02*
D03*
D30*
X011478Y004441D02*
D03*
X011728D02*
D03*
X011978D02*
D03*
X012228D02*
D03*
X009193Y004441D02*
D03*
X009443D02*
D03*
X009693D02*
D03*
X009943D02*
D03*
X007668D02*
D03*
X007918D02*
D03*
X008168D02*
D03*
X008418D02*
D03*
X013002Y004441D02*
D03*
X013252D02*
D03*
X013502D02*
D03*
X013752D02*
D03*
X003853Y004441D02*
D03*
X004103D02*
D03*
X004353D02*
D03*
X004603D02*
D03*
X005372D02*
D03*
X005622D02*
D03*
X005872D02*
D03*
X006122D02*
D03*
D31*
X011228Y004441D02*
D03*
X008943Y004441D02*
D03*
X007419D02*
D03*
X012753Y004441D02*
D03*
X003603Y004441D02*
D03*
X005123D02*
D03*
D32*
X009433Y006211D02*
D03*
X009733D02*
D03*
X007210Y008880D02*
D03*
X006910D02*
D03*
X007210Y009086D02*
D03*
X006910D02*
D03*
X009440Y007456D02*
D03*
X009740D02*
D03*
X009440Y007250D02*
D03*
X009740D02*
D03*
X007480Y005490D02*
D03*
X007780D02*
D03*
X008010D02*
D03*
X008310D02*
D03*
X011718Y006001D02*
D03*
X011418D02*
D03*
X011718Y006207D02*
D03*
X011418D02*
D03*
X009733Y006005D02*
D03*
X009433D02*
D03*
D33*
X010450Y004680D02*
D03*
X010640D02*
D03*
X010450Y004868D02*
D03*
X010640D02*
D03*
X005060Y005500D02*
D03*
X004870D02*
D03*
X005060Y005710D02*
D03*
X004870D02*
D03*
X005060Y005910D02*
D03*
X004870D02*
D03*
X005060Y006110D02*
D03*
X004870D02*
D03*
X005060Y006310D02*
D03*
X004870D02*
D03*
X005060Y006510D02*
D03*
X004870D02*
D03*
X005060Y006710D02*
D03*
X004870D02*
D03*
X005060Y006910D02*
D03*
X004870D02*
D03*
X005060Y007110D02*
D03*
X004870D02*
D03*
Y007310D02*
D03*
X005060D02*
D03*
X014160Y005670D02*
D03*
X014350D02*
D03*
X014160Y005870D02*
D03*
X014350D02*
D03*
X014160Y005270D02*
D03*
X014350D02*
D03*
X014160Y005470D02*
D03*
X014350D02*
D03*
D34*
X007615Y008132D02*
D03*
Y008259D02*
D03*
Y008386D02*
D03*
Y008513D02*
D03*
Y008640D02*
D03*
X006515Y008132D02*
D03*
Y008259D02*
D03*
Y008386D02*
D03*
Y008513D02*
D03*
X009045Y006883D02*
D03*
Y006756D02*
D03*
Y006629D02*
D03*
Y006502D02*
D03*
X010145Y007010D02*
D03*
Y006883D02*
D03*
Y006756D02*
D03*
Y006629D02*
D03*
Y006502D02*
D03*
X012125Y005257D02*
D03*
Y005384D02*
D03*
Y005511D02*
D03*
Y005638D02*
D03*
Y005765D02*
D03*
X011025Y005257D02*
D03*
Y005384D02*
D03*
Y005511D02*
D03*
Y005638D02*
D03*
X010145Y005262D02*
D03*
Y005389D02*
D03*
Y005516D02*
D03*
Y005643D02*
D03*
Y005770D02*
D03*
X009045Y005262D02*
D03*
Y005389D02*
D03*
Y005516D02*
D03*
Y005643D02*
D03*
D35*
X006515Y008640D02*
D03*
X009045Y007010D02*
D03*
X011025Y005765D02*
D03*
X009045Y005770D02*
D03*
D36*
X006820Y008545D02*
D03*
X009350Y006915D02*
D03*
X011330Y005670D02*
D03*
X009350Y005675D02*
D03*
D37*
X006820Y008480D02*
D03*
Y008415D02*
D03*
Y008350D02*
D03*
X007310Y008545D02*
D03*
Y008480D02*
D03*
Y008415D02*
D03*
Y008350D02*
D03*
X009840Y006720D02*
D03*
Y006785D02*
D03*
Y006850D02*
D03*
Y006915D02*
D03*
X009350Y006720D02*
D03*
Y006785D02*
D03*
Y006850D02*
D03*
X011330Y005605D02*
D03*
Y005540D02*
D03*
Y005475D02*
D03*
X011820Y005670D02*
D03*
Y005605D02*
D03*
Y005540D02*
D03*
Y005475D02*
D03*
X009350Y005610D02*
D03*
Y005545D02*
D03*
Y005480D02*
D03*
X009840Y005675D02*
D03*
Y005610D02*
D03*
Y005545D02*
D03*
Y005480D02*
D03*
D38*
X011108Y006460D02*
D03*
X010740D02*
D03*
X012062D02*
D03*
X012430D02*
D03*
D39*
X008510Y006230D02*
D03*
D40*
Y005810D02*
D03*
X007270D02*
D03*
Y006230D02*
D03*
D41*
X009900Y008680D02*
D03*
D42*
X009900Y008490D02*
D03*
D43*
X010150Y008585D02*
D03*
D44*
X012540Y009590D02*
D03*
X012340D02*
D03*
X012740Y009790D02*
D03*
Y009590D02*
D03*
X012540Y009790D02*
D03*
X012340D02*
D03*
X012140D02*
D03*
Y009590D02*
D03*
X011940Y009790D02*
D03*
X012940D02*
D03*
X013140Y009590D02*
D03*
Y009790D02*
D03*
X012940Y009590D02*
D03*
X013340Y009790D02*
D03*
X013540Y009590D02*
D03*
Y009790D02*
D03*
X013340Y009590D02*
D03*
X013740Y009790D02*
D03*
Y009590D02*
D03*
X010540D02*
D03*
X010340D02*
D03*
X010740Y009790D02*
D03*
Y009590D02*
D03*
X010540Y009790D02*
D03*
X010340D02*
D03*
X010140D02*
D03*
Y009590D02*
D03*
X009940Y009790D02*
D03*
X010940D02*
D03*
X011140Y009590D02*
D03*
Y009790D02*
D03*
X010940Y009590D02*
D03*
X011340Y009790D02*
D03*
X011540Y009590D02*
D03*
Y009790D02*
D03*
X011340Y009590D02*
D03*
X011740Y009790D02*
D03*
Y009590D02*
D03*
X007140D02*
D03*
X006940D02*
D03*
X007340Y009790D02*
D03*
Y009590D02*
D03*
X007140Y009790D02*
D03*
X006940D02*
D03*
X006740D02*
D03*
Y009590D02*
D03*
X006540Y009790D02*
D03*
X007540D02*
D03*
X007740Y009590D02*
D03*
Y009790D02*
D03*
X007540Y009590D02*
D03*
X007940Y009790D02*
D03*
X008140Y009590D02*
D03*
Y009790D02*
D03*
X007940Y009590D02*
D03*
X008340Y009790D02*
D03*
Y009590D02*
D03*
X005140D02*
D03*
X004940D02*
D03*
X005340Y009790D02*
D03*
Y009590D02*
D03*
X005140Y009790D02*
D03*
X004940D02*
D03*
X004740D02*
D03*
Y009590D02*
D03*
X004540Y009790D02*
D03*
X005540D02*
D03*
X005740Y009590D02*
D03*
Y009790D02*
D03*
X005540Y009590D02*
D03*
X005940Y009790D02*
D03*
X006140Y009590D02*
D03*
Y009790D02*
D03*
X005940Y009590D02*
D03*
X006340Y009790D02*
D03*
Y009590D02*
D03*
D45*
X011940D02*
D03*
X009940D02*
D03*
X006540D02*
D03*
X004540D02*
D03*
D46*
X012549Y003615D02*
D03*
X011025Y003425D02*
D03*
X010264Y003615D02*
D03*
X008740Y003425D02*
D03*
Y003615D02*
D03*
X007216Y003425D02*
D03*
X014074Y003615D02*
D03*
X012550Y003425D02*
D03*
X004924Y003615D02*
D03*
X003400Y003425D02*
D03*
X006444Y003615D02*
D03*
X004920Y003425D02*
D03*
D47*
X010740Y008888D02*
D03*
X012866D02*
D03*
D48*
X010740Y008634D02*
D03*
Y008126D02*
D03*
Y007110D02*
D03*
X012264D02*
D03*
Y007872D02*
D03*
Y008888D02*
D03*
X012866Y008634D02*
D03*
Y008126D02*
D03*
Y007110D02*
D03*
X014390D02*
D03*
Y007872D02*
D03*
Y008888D02*
D03*
D49*
X010637Y004327D02*
D03*
X010510Y004200D02*
D03*
X014350Y004300D02*
D03*
X014223Y004173D02*
D03*
X014353Y004957D02*
D03*
X014226Y004830D02*
D03*
X007145Y009340D02*
D03*
X008878Y009222D02*
D03*
X009407Y009610D02*
D03*
X012580Y009030D02*
D03*
X014390Y009320D02*
D03*
X006720Y008980D02*
D03*
X007410Y008975D02*
D03*
X009235Y007341D02*
D03*
X009940Y007345D02*
D03*
X009235Y006101D02*
D03*
X009940Y006105D02*
D03*
X011920Y006100D02*
D03*
X011216Y006096D02*
D03*
X008420Y007600D02*
D03*
X007060D02*
D03*
D50*
X010764Y004200D02*
D03*
X014477Y004173D02*
D03*
X014480Y004830D02*
D03*
D51*
X003720Y007961D02*
D03*
Y008850D02*
D03*
X003120Y007960D02*
D03*
Y008849D02*
D03*
D52*
X002941Y009693D02*
D03*
Y006292D02*
D03*
X006840Y002891D02*
D03*
X010640D02*
D03*
X014541Y006292D02*
D03*
Y009693D02*
D03*
D53*
X002941Y002891D02*
D03*
X014541D02*
D03*
D54*
X014402Y003612D02*
D03*
X003075Y003820D02*
D03*
X009585Y007882D02*
D03*
D55*
X013340Y009390D02*
D03*
X013540D02*
D03*
X013740D02*
D03*
X011738Y009388D02*
D03*
X012340Y009393D02*
D03*
X012140Y009390D02*
D03*
X011940D02*
D03*
X012730Y009122D02*
D03*
X005740Y009350D02*
D03*
X005938D02*
D03*
X006140D02*
D03*
X006340D02*
D03*
X006540D02*
D03*
X008643Y009820D02*
D03*
X009788Y009975D02*
D03*
X009503Y009830D02*
D03*
X009645Y009275D02*
D03*
X010150Y008690D02*
D03*
X009590Y008450D02*
D03*
Y008710D02*
D03*
Y008200D02*
D03*
Y008960D02*
D03*
X008560Y009090D02*
D03*
X007730Y008960D02*
D03*
X007930Y008710D02*
D03*
X008130Y008453D02*
D03*
X008330Y008200D02*
D03*
X011540Y009390D02*
D03*
X011340D02*
D03*
X011140D02*
D03*
X010940D02*
D03*
X009350Y007240D02*
D03*
X009833Y007452D02*
D03*
X009836Y007250D02*
D03*
X009347Y007452D02*
D03*
X010540Y009390D02*
D03*
X010740D02*
D03*
X013930Y006590D02*
D03*
X010450Y005050D02*
D03*
X007090Y005070D02*
D03*
X006040Y006590D02*
D03*
X014040Y005370D02*
D03*
X014050Y005770D02*
D03*
X011353Y004840D02*
D03*
X011230Y004740D02*
D03*
X011480D02*
D03*
X011603Y004840D02*
D03*
X011730Y004740D02*
D03*
X012103Y004840D02*
D03*
X012230Y004740D02*
D03*
X011853Y004840D02*
D03*
X011980Y004740D02*
D03*
X012353Y004840D02*
D03*
X011890Y006460D02*
D03*
X010740Y006240D02*
D03*
X006820Y008880D02*
D03*
X006817Y009082D02*
D03*
X007998Y008072D02*
D03*
X007998Y008260D02*
D03*
X006332Y008388D02*
D03*
X010842Y005513D02*
D03*
X008862Y006758D02*
D03*
X008860Y005520D02*
D03*
X010430Y006630D02*
D03*
X012512Y005382D02*
D03*
X010530Y005390D02*
D03*
X014460Y005470D02*
D03*
Y005870D02*
D03*
X010310Y006308D02*
D03*
X012512Y005194D02*
D03*
X010530Y005202D02*
D03*
X010760Y004870D02*
D03*
X010790Y003580D02*
D03*
X012878Y005054D02*
D03*
X013134Y005052D02*
D03*
X013508D02*
D03*
X013762D02*
D03*
Y006410D02*
D03*
X013508D02*
D03*
X013134D02*
D03*
X012878Y006408D02*
D03*
X012550Y002990D02*
D03*
X013877Y004840D02*
D03*
X013627D02*
D03*
X013377D02*
D03*
X013127D02*
D03*
X012755Y004740D02*
D03*
X013005D02*
D03*
X013255D02*
D03*
X013505D02*
D03*
X009820Y004160D02*
D03*
X009200D02*
D03*
X008290Y004150D02*
D03*
X007417Y004699D02*
D03*
X007310Y005570D02*
D03*
Y005460D02*
D03*
Y005350D02*
D03*
X008470D02*
D03*
Y005460D02*
D03*
Y005570D02*
D03*
X006840Y003640D02*
D03*
Y003340D02*
D03*
X007317Y005088D02*
D03*
X007690Y004930D02*
D03*
X009290Y004830D02*
D03*
X007830Y004880D02*
D03*
Y004750D02*
D03*
X007690D02*
D03*
X004730Y005810D02*
D03*
X008040Y004710D02*
D03*
X005590Y008700D02*
D03*
X004260Y007800D02*
D03*
X004060Y007610D02*
D03*
X003800Y006468D02*
D03*
Y005220D02*
D03*
X003558D02*
D03*
X005770Y008700D02*
D03*
X006250Y004180D02*
D03*
X005010Y004330D02*
D03*
X006930Y006360D02*
D03*
X006840Y006210D02*
D03*
X005370Y006590D02*
D03*
Y006470D02*
D03*
X006000Y005969D02*
D03*
Y006100D02*
D03*
X005310Y007450D02*
D03*
X006802Y006099D02*
D03*
X004730Y005700D02*
D03*
X004160Y007700D02*
D03*
X006730Y009350D02*
D03*
X005680Y008700D02*
D03*
X006793Y007231D02*
D03*
Y007104D02*
D03*
Y006723D02*
D03*
Y006469D02*
D03*
X005170Y005910D02*
D03*
X005170Y005500D02*
D03*
X005170Y006710D02*
D03*
X006793Y007358D02*
D03*
Y006977D02*
D03*
Y006850D02*
D03*
Y006596D02*
D03*
X006390Y007226D02*
D03*
Y006972D02*
D03*
Y006845D02*
D03*
Y006591D02*
D03*
X006040Y007224D02*
D03*
Y006970D02*
D03*
Y006843D02*
D03*
Y006462D02*
D03*
X005403Y007228D02*
D03*
Y006974D02*
D03*
X005405Y006847D02*
D03*
X006390Y007353D02*
D03*
Y007099D02*
D03*
Y006718D02*
D03*
Y006464D02*
D03*
X006040Y007351D02*
D03*
Y007097D02*
D03*
Y006716D02*
D03*
X005405Y007101D02*
D03*
Y007355D02*
D03*
X005403Y006720D02*
D03*
X005170Y005700D02*
D03*
X005170Y006110D02*
D03*
Y006310D02*
D03*
Y006510D02*
D03*
X005170Y006910D02*
D03*
Y007110D02*
D03*
X005170Y007310D02*
D03*
X004760Y006410D02*
D03*
X004760Y006810D02*
D03*
Y007210D02*
D03*
X006804Y005972D02*
D03*
Y005718D02*
D03*
X006802Y005845D02*
D03*
X006804Y005464D02*
D03*
X006802Y005591D02*
D03*
X006804Y005210D02*
D03*
X006802Y005337D02*
D03*
X003145Y005345D02*
D03*
X003147Y005218D02*
D03*
X003145Y005599D02*
D03*
X003147Y005472D02*
D03*
X003145Y005853D02*
D03*
X003147Y005726D02*
D03*
Y005980D02*
D03*
X005410Y005338D02*
D03*
X005408Y005211D02*
D03*
X005410Y005592D02*
D03*
X005408Y005465D02*
D03*
X005410Y005846D02*
D03*
X005408Y005719D02*
D03*
X005410Y006100D02*
D03*
X005408Y005973D02*
D03*
X004545Y005345D02*
D03*
X004543Y005218D02*
D03*
X004545Y005599D02*
D03*
X004543Y005472D02*
D03*
X004545Y005853D02*
D03*
X004543Y005726D02*
D03*
X004545Y006107D02*
D03*
X004543Y005980D02*
D03*
X004545Y006593D02*
D03*
X004543Y006466D02*
D03*
X004545Y006847D02*
D03*
X004543Y006720D02*
D03*
X004545Y007101D02*
D03*
X004543Y006974D02*
D03*
X004545Y007355D02*
D03*
X004543Y007228D02*
D03*
X003156Y006591D02*
D03*
X003155Y006722D02*
D03*
Y006849D02*
D03*
Y006976D02*
D03*
Y007103D02*
D03*
Y007230D02*
D03*
X003153Y007357D02*
D03*
X003800Y005349D02*
D03*
Y005476D02*
D03*
Y005603D02*
D03*
Y005730D02*
D03*
Y005857D02*
D03*
Y005984D02*
D03*
Y006111D02*
D03*
X003558Y005347D02*
D03*
Y005474D02*
D03*
Y005601D02*
D03*
Y005728D02*
D03*
Y005855D02*
D03*
Y005982D02*
D03*
Y006109D02*
D03*
X006000Y005842D02*
D03*
Y005715D02*
D03*
Y005588D02*
D03*
Y005461D02*
D03*
Y005334D02*
D03*
Y005207D02*
D03*
X006395Y006098D02*
D03*
Y005971D02*
D03*
Y005844D02*
D03*
Y005717D02*
D03*
Y005590D02*
D03*
Y005463D02*
D03*
Y005336D02*
D03*
Y005209D02*
D03*
X003558Y007357D02*
D03*
Y007230D02*
D03*
Y007103D02*
D03*
Y006976D02*
D03*
Y006849D02*
D03*
Y006722D02*
D03*
Y006595D02*
D03*
Y006468D02*
D03*
X003800Y007359D02*
D03*
Y007232D02*
D03*
Y007105D02*
D03*
Y006978D02*
D03*
Y006851D02*
D03*
Y006724D02*
D03*
Y006597D02*
D03*
X008941Y004699D02*
D03*
X010067Y004699D02*
D03*
X008543D02*
D03*
X009568Y004750D02*
D03*
X009441D02*
D03*
X009691D02*
D03*
X005497D02*
D03*
X005747D02*
D03*
X005621D02*
D03*
X005871D02*
D03*
X004351D02*
D03*
X004101D02*
D03*
X010067Y004280D02*
D03*
X008543D02*
D03*
X008943Y004184D02*
D03*
X007419D02*
D03*
X004228Y004750D02*
D03*
X003978D02*
D03*
X007670Y004153D02*
D03*
X004478Y004700D02*
D03*
X005997D02*
D03*
X005371Y004699D02*
D03*
X003851D02*
D03*
X003600Y004180D02*
D03*
X004727Y004280D02*
D03*
M02*
