M48
;Layer_Color=9474304
;FILE_FORMAT=4:2
METRIC
;TYPE=PLATED
T1F00S00C0.30
T2F00S00C0.80
T3F00S00C0.85
T4F00S00C0.86
T5F00S00C0.90
T6F00S00C2.00
T7F00S00C2.60
%
T01
X006840Y003340
Y003640
X010790Y003580
X012550Y002990
X012755Y004740
X013005
X013127Y004840
X013134Y005052
X012878Y005054
X012512Y005194
X012512Y005382
X012353Y004840
X012230Y004740
X012103Y004840
X011980Y004740
X013255
X013377Y004840
X013505Y004740
X013627Y004840
X013877
X013762Y005052
X013508
X014040Y005370
X014050Y005770
X014460Y005870
Y005470
X013762Y006410
X013508
X013134
X012878Y006408
X013930Y006590
X011890Y006460
X010740Y006240
X010310Y006308
X010430Y006630
X009836Y007250
X009833Y007452
X009347
X009350Y007240
X008862Y006758
X008860Y005520
X008470Y005570
Y005460
Y005350
X008543Y004699
X008941Y004699
X009290Y004830
X009441Y004750
X009568
X009691
X010067Y004699
Y004280
X009820Y004160
X009200
X008943Y004184
X008543Y004280
X008290Y004150
X008040Y004710
X010450Y005050
X010530Y005202
X010530Y005390
X010842Y005513
X010760Y004870
X011230Y004740
X011353Y004840
X011480Y004740
X011603Y004840
X011730Y004740
X011853Y004840
X007830Y004880
Y004750
X007690
Y004930
X007417Y004699
X007317Y005088
X007090Y005070
X006804Y005210
X006802Y005337
X006804Y005464
X006802Y005591
X006804Y005718
X006802Y005845
X006804Y005972
X006802Y006099
X006840Y006210
X006930Y006360
X006793Y006469
Y006596
Y006723
Y006850
Y006977
Y007104
Y007231
Y007358
X006390Y007353
Y007226
Y007099
Y006972
Y006845
Y006718
Y006591
Y006464
X006040Y006462
Y006590
Y006716
Y006843
Y006970
Y007097
Y007224
Y007351
X005405Y007355
X005403Y007228
X005405Y007101
X005403Y006974
X005405Y006847
X005403Y006720
X005370Y006590
Y006470
X005170Y006510
Y006310
Y006110
Y005910
X005170Y005700
X005170Y005500
X005408Y005465
X005410Y005338
X005408Y005211
X005410Y005592
X005408Y005719
X005410Y005846
X005408Y005973
X005410Y006100
X006000Y006100
Y005969
Y005842
Y005715
Y005588
Y005461
Y005334
Y005207
X006395Y005209
Y005336
Y005463
Y005590
Y005717
Y005844
Y005971
Y006098
X007310Y005570
Y005460
Y005350
X007419Y004184
X007670Y004153
X006250Y004180
X005997Y004700
X005871Y004750
X005747
X005621
X005497
X005371Y004699
X005010Y004330
X004727Y004280
X004478Y004700
X004351Y004750
X004228
X004101
X003978
X004543Y005218
X004545Y005345
X004543Y005472
X004545Y005599
X004543Y005726
X004545Y005853
X004543Y005980
X004545Y006107
X004543Y006466
X004545Y006593
X004543Y006720
X004545Y006847
X004543Y006974
X004545Y007101
X004543Y007228
X004545Y007355
X004760Y007210
Y006810
X004760Y006410
X004730Y005810
Y005700
X005170Y006710
X005170Y006910
Y007110
X005170Y007310
X005310Y007450
X004260Y007800
X004160Y007700
X004060Y007610
X003800Y007359
Y007232
Y007105
Y006978
Y006851
Y006724
Y006597
Y006468
X003558
Y006595
Y006722
Y006849
Y006976
Y007103
Y007230
Y007357
X003153
X003155Y007230
Y007103
Y006976
Y006849
Y006722
X003156Y006591
X003147Y005980
X003145Y005853
X003147Y005726
X003145Y005599
X003147Y005472
X003145Y005345
X003147Y005218
X003558Y005220
Y005347
Y005474
Y005601
Y005728
Y005855
Y005982
Y006109
X003800Y006111
Y005984
Y005857
Y005730
Y005603
Y005476
Y005349
Y005220
X003851Y004699
X003600Y004180
X005590Y008700
X005680
X005770
X005740Y009350
X005938
X006140
X006340
X006540
X006730
X006817Y009082
X006820Y008880
X006332Y008388
X007930Y008710
X007730Y008960
X008130Y008453
X007998Y008260
X007998Y008072
X008330Y008200
X008560Y009090
X008643Y009820
X009503Y009830
X009788Y009975
X009645Y009275
X009590Y008960
Y008710
Y008450
Y008200
X010150Y008690
X010540Y009390
X010740
X010940
X011140
X011340
X011540
X011738Y009388
X011940Y009390
X012140
X012340Y009393
X012730Y009122
X013340Y009390
X013540
X013740
T02
X011920Y006100
X014353Y004957
X014480Y004830
X014226
X014350Y004300
X014477Y004173
X014223
X010764Y004200
X010637Y004327
X010510Y004200
X009940Y006105
X009235Y006101
X009235Y007341
X009940Y007345
X008420Y007600
X011216Y006096
X007060Y007600
X006720Y008980
X007410Y008975
X007145Y009340
X008878Y009222
X009407Y009610
X012580Y009030
X014390Y009320
T03
X003075Y003820
X014402Y003612
X009585Y007882
T04
X004540Y009590
X004740
X004940
X005140
X005340
Y009790
X005140
X004940
X004740
X004540
X005540
X005740
Y009590
X005540
X005940
X006140
Y009790
X005940
X006340
X006540
X006740
X006940
Y009590
X006740
X006540
X006340
X007140
X007340
Y009790
X007140
X007540
X007740
Y009590
X007540
X007940
X008140
Y009790
X007940
X008340
Y009590
X009940
X010140
X010340
X010540
X010740
Y009790
X010540
X010340
X010140
X009940
X010940
X011140
Y009590
X010940
X011340
X011540
Y009790
X011340
X011740
Y009590
X011940
X012140
X012340
X012540
X012740
Y009790
X012540
X012340
X012140
X011940
X012940
X013140
Y009590
X012940
X013340
X013540
Y009790
X013340
X013740
Y009590
T05
X003400Y003425
X004920
X004924Y003615
X006444
X007216Y003425
X008740
Y003615
X010264
X011025Y003425
X012550
X012549Y003615
X014074
X014390Y007110
Y007872
X012264
Y007110
X012866
X010740
Y008126
Y008634
Y008888
X012264
X012866
Y008634
Y008126
X014390Y008888
T06
X003120Y007960
X003720Y007961
Y008850
X003120Y008849
T07
X002941Y002891
X006840
X010640
X014541
Y006292
X002941
Y009693
X014541
M30
